<?xml version="1.0" encoding="utf-8"?>
<!-- Generator: Adobe Illustrator 16.0.0, SVG Export Plug-In . SVG Version: 6.00 Build 0)  -->
<!DOCTYPE svg PUBLIC "-//W3C//DTD SVG 1.1//EN" "http://www.w3.org/Graphics/SVG/1.1/DTD/svg11.dtd">
<svg version="1.1" id="Layer_1" xmlns="http://www.w3.org/2000/svg" xmlns:xlink="http://www.w3.org/1999/xlink" x="0px" y="0px"
	 width="1108.444px" height="824.959px" viewBox="0 0 1108.444 824.959" enable-background="new 0 0 1108.444 824.959"
	 xml:space="preserve">
<path fill="#4B853D" stroke="#000000" stroke-width="2" stroke-miterlimit="10" d="M451.382,651.432
	c0,4.395-5.889,7.957-13.152,7.957H270.534c-7.264,0-13.152-3.563-13.152-7.957V421.346c0-4.395,5.889-7.957,13.152-7.957h167.695
	c7.264,0,13.152,3.563,13.152,7.957V651.432z"/>
<g>
	<text transform="matrix(1 0 0 1 283.2383 403.3887)" font-family="'MyriadPro-Bold'" font-size="19.043">Elastic Beanstalk</text>
</g>
<g>
	<g>
		<path fill="#D2EAD6" d="M441.382,521.389c0,6.627-5.373,12-12,12h-149c-6.627,0-12-5.373-12-12v-81c0-6.627,5.373-12,12-12h149
			c6.627,0,12,5.373,12,12V521.389z"/>
		<g>
			<g>
				<g>
					<g>
						<path d="M439.604,525.314l1.588,1.132c0,0,0.466-1.11,0.718-2.286c0.097-0.591,0.217-1.18,0.224-1.63
							c0.031-0.447,0.051-0.745,0.051-0.745l-1.716-0.847c0,0-0.014,0.28-0.035,0.7c0.001,0.423-0.103,0.976-0.185,1.53
							C440.029,524.272,439.604,525.314,439.604,525.314z"/>
						<path d="M435.463,530.444l1.275,1.488c0,0,0.99-0.689,1.833-1.551c0.409-0.441,0.814-0.885,1.07-1.258
							c0.136-0.181,0.249-0.331,0.328-0.436c0.071-0.11,0.111-0.174,0.111-0.174l-1.5-1.261c0,0-0.037,0.059-0.103,0.163
							c-0.074,0.098-0.179,0.238-0.305,0.407c-0.236,0.35-0.615,0.764-0.996,1.176C436.39,529.804,435.463,530.443,435.463,530.444z
							"/>
						<path d="M429.191,532.463l0.864,1.709c0,0,1.199-0.042,2.369-0.318c1.171-0.271,2.271-0.766,2.271-0.767l-1.147-1.578
							c0,0.001-1.032,0.453-2.131,0.691C430.317,532.443,429.191,532.462,429.191,532.463z"/>
						<polygon points="422.506,532.476 422.869,534.227 427.694,534.202 426.994,532.476 						"/>
						<polygon points="415.747,532.476 415.747,534.253 420.507,534.238 420.31,532.476 						"/>
						<rect x="408.792" y="532.476" width="4.668" height="1.777"/>
						<rect x="401.841" y="532.476" width="4.667" height="1.777"/>
					</g>
				</g>
				<g>
					<g>
						<rect x="394.887" y="532.476" width="4.669" height="1.777"/>
						<rect x="387.934" y="532.476" width="4.668" height="1.777"/>
						<rect x="380.982" y="532.476" width="4.668" height="1.777"/>
						<rect x="374.028" y="532.476" width="4.668" height="1.777"/>
						<rect x="367.076" y="532.476" width="4.668" height="1.777"/>
						<rect x="360.122" y="532.476" width="4.668" height="1.777"/>
						<rect x="353.17" y="532.476" width="4.668" height="1.777"/>
					</g>
				</g>
				<g>
					<g>
						<rect x="346.216" y="532.476" width="4.668" height="1.777"/>
						<rect x="339.263" y="532.476" width="4.669" height="1.777"/>
						<rect x="332.311" y="532.476" width="4.668" height="1.777"/>
						<rect x="325.358" y="532.476" width="4.667" height="1.777"/>
						<rect x="318.405" y="532.476" width="4.669" height="1.777"/>
						<rect x="311.451" y="532.476" width="4.668" height="1.777"/>
						<rect x="304.5" y="532.476" width="4.667" height="1.777"/>
					</g>
				</g>
				<g>
					<g>
						<rect x="297.545" y="532.476" width="4.669" height="1.777"/>
						<polygon points="290.65,532.476 290.542,534.245 295.261,534.253 295.261,532.476 						"/>
						<polygon points="283.965,532.476 283.355,534.208 288.182,534.233 288.454,532.476 						"/>
						<path d="M277.335,531.933l-1.074,1.621c0,0,1.145,0.375,2.334,0.528c1.186,0.137,2.396,0.114,2.396,0.114l0.776-1.721
							c0,0-1.124,0.024-2.241-0.079C278.409,532.271,277.335,531.933,277.335,531.933z"/>
						<path d="M271.887,528.22l-1.446,1.327c0,0,0.769,0.93,1.689,1.707c0.929,0.768,1.979,1.359,1.979,1.359l1.207-1.54
							c0,0-0.984-0.546-1.854-1.26C272.604,529.088,271.887,528.22,271.887,528.22z"/>
						<path d="M269.356,522.132l-1.688,0.924c0,0,0.05,0.296,0.125,0.738c0.051,0.448,0.235,1.021,0.386,1.602
							c0.375,1.143,0.946,2.203,0.946,2.203l1.542-1.203c0,0-0.527-0.994-0.864-2.067c-0.134-0.545-0.3-1.083-0.341-1.503
							C269.399,522.409,269.356,522.132,269.356,522.132z"/>
						<polygon points="269.295,515.45 267.549,515.883 267.574,520.709 269.295,519.938 						"/>
					</g>
				</g>
				<g>
					<g>
						<polygon points="269.295,508.727 267.518,508.727 267.537,513.52 269.295,513.252 						"/>
						<rect x="267.518" y="501.773" width="1.777" height="4.668"/>
						<rect x="267.518" y="494.821" width="1.777" height="4.668"/>
						<rect x="267.518" y="487.867" width="1.777" height="4.668"/>
						<rect x="267.518" y="480.915" width="1.777" height="4.668"/>
						<rect x="267.518" y="473.961" width="1.777" height="4.668"/>
						<rect x="267.518" y="467.01" width="1.777" height="4.668"/>
					</g>
				</g>
				<g>
					<g>
						<rect x="267.518" y="460.056" width="1.777" height="4.668"/>
						<rect x="267.518" y="453.103" width="1.777" height="4.669"/>
						<polygon points="269.295,446.379 267.549,445.949 267.524,450.776 269.295,450.867 						"/>
						<path d="M269.353,439.695l-1.689-0.922c0,0-0.115,1.188-0.09,2.4c-0.006,1.206-0.012,2.412-0.012,2.412l1.734,0.596
							c0,0,0-1.122,0-2.244C269.271,440.814,269.353,439.695,269.353,439.695z"/>
						<path d="M271.857,433.598l-1.448-1.324c0,0-0.761,0.937-1.33,1.998c-0.27,0.537-0.536,1.076-0.676,1.505
							c-0.08,0.211-0.146,0.386-0.193,0.509c-0.045,0.123-0.059,0.197-0.059,0.197l1.627,1.062c0,0,0.078-0.27,0.228-0.663
							c0.126-0.403,0.37-0.908,0.619-1.412C271.149,434.474,271.857,433.598,271.857,433.598z"/>
						<path d="M277.289,429.861l-1.077-1.619c0,0.001-1.141,0.385-2.19,0.977c-0.513,0.313-1.028,0.623-1.376,0.912
							c-0.364,0.267-0.591,0.463-0.591,0.463l1.338,1.436c0,0,0.213-0.183,0.553-0.43c0.326-0.27,0.808-0.557,1.289-0.845
							C276.217,430.209,277.289,429.862,277.289,429.861z"/>
						<path d="M283.914,429.302l-0.614-1.732c0,0-1.207,0.006-2.413,0.013c-0.605-0.009-1.205,0.013-1.65,0.056
							c-0.449,0.019-0.744,0.075-0.744,0.074l0.938,1.684c0,0,0.276-0.048,0.698-0.059c0.42-0.03,0.98-0.044,1.542-0.035
							C282.792,429.302,283.914,429.302,283.914,429.302z"/>
					</g>
				</g>
				<g>
					<g>
						<polygon points="290.601,429.302 290.49,427.532 285.663,427.557 286.112,429.302 						"/>
						<rect x="292.826" y="427.524" width="4.668" height="1.777"/>
						<rect x="299.778" y="427.524" width="4.669" height="1.777"/>
						<rect x="306.732" y="427.524" width="4.667" height="1.777"/>
						<rect x="313.684" y="427.524" width="4.668" height="1.777"/>
						<rect x="320.638" y="427.524" width="4.668" height="1.777"/>
						<rect x="327.59" y="427.524" width="4.667" height="1.777"/>
					</g>
				</g>
				<g>
					<g>
						<rect x="334.543" y="427.524" width="4.668" height="1.777"/>
						<rect x="341.496" y="427.524" width="4.669" height="1.777"/>
						<rect x="348.449" y="427.524" width="4.668" height="1.777"/>
						<rect x="355.403" y="427.524" width="4.667" height="1.777"/>
						<rect x="362.354" y="427.524" width="4.669" height="1.777"/>
						<rect x="369.309" y="427.524" width="4.668" height="1.777"/>
						<rect x="376.261" y="427.524" width="4.668" height="1.777"/>
					</g>
				</g>
				<g>
					<g>
						<rect x="383.214" y="427.524" width="4.668" height="1.777"/>
						<rect x="390.167" y="427.524" width="4.668" height="1.777"/>
						<rect x="397.119" y="427.524" width="4.669" height="1.777"/>
						<rect x="404.074" y="427.524" width="4.667" height="1.777"/>
						<rect x="411.025" y="427.524" width="4.668" height="1.777"/>
						<polygon points="422.457,429.302 422.816,427.551 417.989,427.526 417.969,429.302 						"/>
						<path d="M429.14,429.313l0.86-1.711c0,0-0.298-0.023-0.751-0.019c-0.453-0.002-1.056-0.005-1.659-0.008
							c-1.207-0.007-2.413-0.013-2.413-0.013l-0.524,1.739c0,0,1.122,0,2.244,0c0.561,0,1.122,0,1.542,0
							C428.86,429.296,429.14,429.313,429.14,429.313z"/>
					</g>
				</g>
				<g>
					<g>
						<path d="M435.424,431.304l1.273-1.491c0,0-0.997-0.679-2.097-1.169c-1.105-0.477-2.277-0.747-2.277-0.747l-1.002,1.656
							c0,0,1.1,0.237,2.138,0.674C434.49,430.675,435.424,431.304,435.424,431.304z"/>
						<path d="M439.587,436.416l1.586-1.135c0,0-0.478-1.105-1.147-2.107c-0.679-0.995-1.524-1.855-1.524-1.855l-1.391,1.387
							c0,0,0.79,0.803,1.419,1.735C439.15,435.379,439.587,436.416,439.587,436.416z"/>
						<path d="M440.469,442.985l1.728-0.685c0,0-0.01-1.206-0.019-2.412c-0.045-0.597-0.062-1.196-0.161-1.637
							c-0.075-0.442-0.125-0.738-0.125-0.738l-1.658,0.998c0,0,0.042,0.277,0.106,0.693c0.087,0.414,0.091,0.977,0.124,1.536
							C440.466,441.863,440.469,442.985,440.469,442.985z"/>
						<polygon points="440.469,449.671 442.233,449.489 442.208,444.664 440.469,445.184 						"/>
						<polygon points="440.469,456.527 442.246,456.527 442.245,451.851 440.469,451.867 						"/>
						<rect x="440.469" y="458.813" width="1.777" height="4.669"/>
						<rect x="440.469" y="465.765" width="1.777" height="4.668"/>
					</g>
				</g>
				<g>
					<g>
						<rect x="440.469" y="472.718" width="1.777" height="4.669"/>
						<rect x="440.469" y="479.671" width="1.777" height="4.669"/>
						<rect x="440.469" y="486.623" width="1.777" height="4.669"/>
						<rect x="440.469" y="493.577" width="1.777" height="4.668"/>
						<rect x="440.469" y="500.529" width="1.777" height="4.669"/>
						<polygon points="440.469,512.057 442.233,512.234 442.246,507.483 440.469,507.483 						"/>
						<polygon points="440.469,518.74 442.196,519.422 442.221,514.596 440.469,514.253 						"/>
					</g>
				</g>
			</g>
		</g>
	</g>
	<g>
		<text transform="matrix(1 0 0 1 288.7656 447.3887)" font-family="'MyriadPro-Regular'" font-size="19.043">Availability Zone</text>
	</g>
	<g>
		<path fill="#98CE83" stroke="#000000" stroke-width="2" stroke-miterlimit="10" d="M427.037,504.623
			c0,9.811-7.955,17.766-17.766,17.766h-31.09c-9.811,0-17.764-7.955-17.764-17.766v-31.088c0-9.811,7.953-17.766,17.764-17.766
			h31.09c9.811,0,17.766,7.955,17.766,17.766V504.623z"/>
		<text transform="matrix(1 0 0 1 378.0645 494.668)" font-family="'MyriadPro-Regular'" font-size="19.043">EC2</text>
	</g>
	<g>
		<path fill="#98CE83" stroke="#000000" stroke-width="2" stroke-miterlimit="10" d="M349.001,504.623
			c0,9.811-7.955,17.766-17.766,17.766h-31.09c-9.811,0-17.764-7.955-17.764-17.766v-31.088c0-9.811,7.953-17.766,17.764-17.766
			h31.09c9.811,0,17.766,7.955,17.766,17.766V504.623z"/>
		<text transform="matrix(1 0 0 1 300.0288 494.668)" font-family="'MyriadPro-Regular'" font-size="19.043">EC2</text>
	</g>
</g>
<g>
	<g>
		<path fill="#D2EAD6" d="M441.382,638.389c0,6.627-5.373,12-12,12h-149c-6.627,0-12-5.373-12-12v-81c0-6.627,5.373-12,12-12h149
			c6.627,0,12,5.373,12,12V638.389z"/>
		<g>
			<g>
				<g>
					<g>
						<path d="M439.604,642.314l1.588,1.132c0,0,0.466-1.11,0.718-2.286c0.097-0.591,0.217-1.18,0.224-1.629
							c0.031-0.448,0.051-0.746,0.051-0.746l-1.716-0.847c0,0-0.014,0.28-0.035,0.7c0.001,0.423-0.103,0.976-0.185,1.53
							C440.029,641.272,439.604,642.314,439.604,642.314z"/>
						<path d="M435.463,647.444l1.275,1.488c0,0,0.99-0.689,1.833-1.551c0.409-0.441,0.814-0.885,1.07-1.258
							c0.136-0.181,0.249-0.331,0.328-0.436c0.071-0.11,0.111-0.174,0.111-0.174l-1.5-1.261c0,0-0.037,0.059-0.103,0.163
							c-0.074,0.098-0.179,0.238-0.305,0.407c-0.236,0.35-0.615,0.764-0.996,1.176C436.39,646.804,435.463,647.443,435.463,647.444z
							"/>
						<path d="M429.191,649.463l0.864,1.709c0,0,1.199-0.042,2.369-0.318c1.171-0.271,2.271-0.766,2.271-0.767l-1.147-1.578
							c0,0.001-1.032,0.453-2.131,0.691C430.317,649.443,429.191,649.462,429.191,649.463z"/>
						<polygon points="422.506,649.476 422.869,651.227 427.694,651.202 426.994,649.476 						"/>
						<polygon points="415.747,649.476 415.747,651.253 420.507,651.238 420.31,649.476 						"/>
						<rect x="408.792" y="649.476" width="4.668" height="1.777"/>
						<rect x="401.841" y="649.476" width="4.667" height="1.777"/>
					</g>
				</g>
				<g>
					<g>
						<rect x="394.887" y="649.476" width="4.669" height="1.777"/>
						<rect x="387.934" y="649.476" width="4.668" height="1.777"/>
						<rect x="380.982" y="649.476" width="4.668" height="1.777"/>
						<rect x="374.028" y="649.476" width="4.668" height="1.777"/>
						<rect x="367.076" y="649.476" width="4.668" height="1.777"/>
						<rect x="360.122" y="649.476" width="4.668" height="1.777"/>
						<rect x="353.17" y="649.476" width="4.668" height="1.777"/>
					</g>
				</g>
				<g>
					<g>
						<rect x="346.216" y="649.476" width="4.668" height="1.777"/>
						<rect x="339.263" y="649.476" width="4.669" height="1.777"/>
						<rect x="332.311" y="649.476" width="4.668" height="1.777"/>
						<rect x="325.358" y="649.476" width="4.667" height="1.777"/>
						<rect x="318.405" y="649.476" width="4.669" height="1.777"/>
						<rect x="311.451" y="649.476" width="4.668" height="1.777"/>
						<rect x="304.5" y="649.476" width="4.667" height="1.777"/>
					</g>
				</g>
				<g>
					<g>
						<rect x="297.545" y="649.476" width="4.669" height="1.777"/>
						<polygon points="290.65,649.476 290.542,651.245 295.261,651.253 295.261,649.476 						"/>
						<polygon points="283.965,649.476 283.355,651.208 288.182,651.233 288.454,649.476 						"/>
						<path d="M277.335,648.933l-1.074,1.621c0,0,1.145,0.375,2.334,0.528c1.186,0.137,2.396,0.114,2.396,0.114l0.776-1.721
							c0,0-1.124,0.024-2.241-0.079C278.409,649.271,277.335,648.933,277.335,648.933z"/>
						<path d="M271.887,645.22l-1.446,1.327c0,0,0.769,0.93,1.689,1.707c0.929,0.768,1.979,1.359,1.979,1.359l1.207-1.54
							c0,0-0.984-0.546-1.854-1.26C272.604,646.088,271.887,645.22,271.887,645.22z"/>
						<path d="M269.356,639.132l-1.688,0.924c0,0,0.05,0.296,0.125,0.738c0.051,0.448,0.235,1.021,0.386,1.602
							c0.375,1.143,0.946,2.203,0.946,2.203l1.542-1.203c0,0-0.527-0.994-0.864-2.067c-0.134-0.545-0.3-1.083-0.341-1.503
							C269.399,639.409,269.356,639.132,269.356,639.132z"/>
						<polygon points="269.295,632.45 267.549,632.883 267.574,637.709 269.295,636.938 						"/>
					</g>
				</g>
				<g>
					<g>
						<polygon points="269.295,625.727 267.518,625.727 267.537,630.52 269.295,630.252 						"/>
						<rect x="267.518" y="618.773" width="1.777" height="4.668"/>
						<rect x="267.518" y="611.821" width="1.777" height="4.668"/>
						<rect x="267.518" y="604.867" width="1.777" height="4.668"/>
						<rect x="267.518" y="597.915" width="1.777" height="4.668"/>
						<rect x="267.518" y="590.961" width="1.777" height="4.668"/>
						<rect x="267.518" y="584.01" width="1.777" height="4.668"/>
					</g>
				</g>
				<g>
					<g>
						<rect x="267.518" y="577.056" width="1.777" height="4.668"/>
						<rect x="267.518" y="570.103" width="1.777" height="4.669"/>
						<polygon points="269.295,563.379 267.549,562.949 267.524,567.776 269.295,567.867 						"/>
						<path d="M269.353,556.695l-1.689-0.922c0,0-0.115,1.188-0.09,2.4c-0.006,1.206-0.012,2.412-0.012,2.412l1.734,0.596
							c0,0,0-1.122,0-2.244C269.271,557.814,269.353,556.695,269.353,556.695z"/>
						<path d="M271.857,550.598l-1.448-1.324c0,0-0.761,0.937-1.33,1.998c-0.27,0.537-0.536,1.076-0.676,1.505
							c-0.08,0.211-0.146,0.386-0.193,0.509c-0.045,0.123-0.059,0.197-0.059,0.197l1.627,1.062c0,0,0.078-0.27,0.228-0.663
							c0.126-0.403,0.37-0.908,0.619-1.412C271.149,551.474,271.857,550.598,271.857,550.598z"/>
						<path d="M277.289,546.861l-1.077-1.619c0,0.001-1.141,0.385-2.19,0.977c-0.513,0.313-1.028,0.623-1.376,0.912
							c-0.364,0.267-0.591,0.463-0.591,0.463l1.338,1.436c0,0,0.213-0.183,0.553-0.43c0.326-0.27,0.808-0.557,1.289-0.845
							C276.217,547.209,277.289,546.862,277.289,546.861z"/>
						<path d="M283.914,546.302l-0.614-1.732c0,0-1.207,0.006-2.413,0.013c-0.605-0.009-1.205,0.013-1.65,0.056
							c-0.449,0.019-0.744,0.075-0.744,0.074l0.938,1.684c0,0,0.276-0.048,0.698-0.059c0.42-0.03,0.98-0.044,1.542-0.035
							C282.792,546.302,283.914,546.302,283.914,546.302z"/>
					</g>
				</g>
				<g>
					<g>
						<polygon points="290.601,546.302 290.49,544.532 285.663,544.557 286.112,546.302 						"/>
						<rect x="292.826" y="544.524" width="4.668" height="1.777"/>
						<rect x="299.778" y="544.524" width="4.669" height="1.777"/>
						<rect x="306.732" y="544.524" width="4.667" height="1.777"/>
						<rect x="313.684" y="544.524" width="4.668" height="1.777"/>
						<rect x="320.638" y="544.524" width="4.668" height="1.777"/>
						<rect x="327.59" y="544.524" width="4.667" height="1.777"/>
					</g>
				</g>
				<g>
					<g>
						<rect x="334.543" y="544.524" width="4.668" height="1.777"/>
						<rect x="341.496" y="544.524" width="4.669" height="1.777"/>
						<rect x="348.449" y="544.524" width="4.668" height="1.777"/>
						<rect x="355.403" y="544.524" width="4.667" height="1.777"/>
						<rect x="362.354" y="544.524" width="4.669" height="1.777"/>
						<rect x="369.309" y="544.524" width="4.668" height="1.777"/>
						<rect x="376.261" y="544.524" width="4.668" height="1.777"/>
					</g>
				</g>
				<g>
					<g>
						<rect x="383.214" y="544.524" width="4.668" height="1.777"/>
						<rect x="390.167" y="544.524" width="4.668" height="1.777"/>
						<rect x="397.119" y="544.524" width="4.669" height="1.777"/>
						<rect x="404.074" y="544.524" width="4.667" height="1.777"/>
						<rect x="411.025" y="544.524" width="4.668" height="1.777"/>
						<polygon points="422.457,546.302 422.816,544.551 417.989,544.526 417.969,546.302 						"/>
						<path d="M429.14,546.313l0.86-1.711c0,0-0.298-0.023-0.751-0.019c-0.453-0.002-1.056-0.005-1.659-0.008
							c-1.207-0.007-2.413-0.013-2.413-0.013l-0.524,1.739c0,0,1.122,0,2.244,0c0.561,0,1.122,0,1.542,0
							C428.86,546.296,429.14,546.313,429.14,546.313z"/>
					</g>
				</g>
				<g>
					<g>
						<path d="M435.424,548.304l1.273-1.491c0,0-0.997-0.679-2.097-1.169c-1.105-0.477-2.277-0.747-2.277-0.747l-1.002,1.656
							c0,0,1.1,0.238,2.138,0.674C434.49,547.675,435.424,548.304,435.424,548.304z"/>
						<path d="M439.587,553.416l1.586-1.135c0,0-0.478-1.105-1.147-2.107c-0.679-0.995-1.524-1.855-1.524-1.855l-1.391,1.387
							c0,0,0.79,0.803,1.419,1.735C439.15,552.379,439.587,553.416,439.587,553.416z"/>
						<path d="M440.469,559.985l1.728-0.685c0,0-0.01-1.206-0.019-2.412c-0.045-0.597-0.062-1.196-0.161-1.637
							c-0.075-0.443-0.125-0.738-0.125-0.738l-1.658,0.998c0,0,0.042,0.277,0.106,0.693c0.087,0.414,0.091,0.977,0.124,1.536
							C440.466,558.863,440.469,559.985,440.469,559.985z"/>
						<polygon points="440.469,566.671 442.233,566.489 442.208,561.664 440.469,562.184 						"/>
						<polygon points="440.469,573.527 442.246,573.527 442.245,568.852 440.469,568.867 						"/>
						<rect x="440.469" y="575.813" width="1.777" height="4.669"/>
						<rect x="440.469" y="582.765" width="1.777" height="4.668"/>
					</g>
				</g>
				<g>
					<g>
						<rect x="440.469" y="589.718" width="1.777" height="4.669"/>
						<rect x="440.469" y="596.671" width="1.777" height="4.669"/>
						<rect x="440.469" y="603.623" width="1.777" height="4.669"/>
						<rect x="440.469" y="610.577" width="1.777" height="4.668"/>
						<rect x="440.469" y="617.529" width="1.777" height="4.669"/>
						<polygon points="440.469,629.057 442.233,629.234 442.246,624.483 440.469,624.483 						"/>
						<polygon points="440.469,635.74 442.196,636.422 442.221,631.596 440.469,631.253 						"/>
					</g>
				</g>
			</g>
		</g>
	</g>
	<g>
		<text transform="matrix(1 0 0 1 288.7656 564.3887)" font-family="'MyriadPro-Regular'" font-size="19.043">Availability Zone</text>
	</g>
	<g>
		<path fill="#98CE83" stroke="#000000" stroke-width="2" stroke-miterlimit="10" d="M427.037,621.623
			c0,9.811-7.955,17.766-17.766,17.766h-31.09c-9.811,0-17.764-7.955-17.764-17.766v-31.088c0-9.811,7.953-17.766,17.764-17.766
			h31.09c9.811,0,17.766,7.955,17.766,17.766V621.623z"/>
		<text transform="matrix(1 0 0 1 378.0645 611.668)" font-family="'MyriadPro-Regular'" font-size="19.043">EC2</text>
	</g>
	<g>
		<path fill="#98CE83" stroke="#000000" stroke-width="2" stroke-miterlimit="10" d="M349.001,621.623
			c0,9.811-7.955,17.766-17.766,17.766h-31.09c-9.811,0-17.764-7.955-17.764-17.766v-31.088c0-9.811,7.953-17.766,17.764-17.766
			h31.09c9.811,0,17.766,7.955,17.766,17.766V621.623z"/>
		<text transform="matrix(1 0 0 1 300.0288 611.668)" font-family="'MyriadPro-Regular'" font-size="19.043">EC2</text>
	</g>
</g>
<path d="M244.382,593.389"/>
<path fill="none" stroke="#000000" stroke-width="4" stroke-miterlimit="10" d="M529.382,310.389"/>
<path fill="#4B853D" stroke="#000000" stroke-width="2" stroke-miterlimit="10" d="M451.382,651.432
	c0,4.395-5.889,7.957-13.152,7.957H270.534c-7.264,0-13.152-3.563-13.152-7.957V421.346c0-4.395,5.889-7.957,13.152-7.957h167.695
	c7.264,0,13.152,3.563,13.152,7.957V651.432z"/>
<g>
	<text transform="matrix(1 0 0 1 283.2383 403.3887)" font-family="'MyriadPro-Bold'" font-size="19.043">Elastic Beanstalk</text>
</g>
<g>
	<g>
		<path fill="#D2EAD6" d="M441.382,521.389c0,6.627-5.373,12-12,12h-149c-6.627,0-12-5.373-12-12v-81c0-6.627,5.373-12,12-12h149
			c6.627,0,12,5.373,12,12V521.389z"/>
		<g>
			<g>
				<g>
					<g>
						<path d="M439.604,525.314l1.588,1.132c0,0,0.466-1.11,0.718-2.286c0.097-0.591,0.217-1.18,0.224-1.63
							c0.031-0.447,0.051-0.745,0.051-0.745l-1.716-0.847c0,0-0.014,0.28-0.035,0.7c0.001,0.423-0.103,0.976-0.185,1.53
							C440.029,524.272,439.604,525.314,439.604,525.314z"/>
						<path d="M435.463,530.444l1.275,1.488c0,0,0.99-0.689,1.833-1.551c0.409-0.441,0.814-0.885,1.07-1.258
							c0.136-0.181,0.249-0.331,0.328-0.436c0.071-0.11,0.111-0.174,0.111-0.174l-1.5-1.261c0,0-0.037,0.059-0.103,0.163
							c-0.074,0.098-0.179,0.238-0.305,0.407c-0.236,0.35-0.615,0.764-0.996,1.176C436.39,529.804,435.463,530.443,435.463,530.444z
							"/>
						<path d="M429.191,532.463l0.864,1.709c0,0,1.199-0.042,2.369-0.318c1.171-0.271,2.271-0.766,2.271-0.767l-1.147-1.578
							c0,0.001-1.032,0.453-2.131,0.691C430.317,532.443,429.191,532.462,429.191,532.463z"/>
						<polygon points="422.506,532.476 422.869,534.227 427.694,534.202 426.994,532.476 						"/>
						<polygon points="415.747,532.476 415.747,534.253 420.507,534.238 420.31,532.476 						"/>
						<rect x="408.792" y="532.476" width="4.668" height="1.777"/>
						<rect x="401.841" y="532.476" width="4.667" height="1.777"/>
					</g>
				</g>
				<g>
					<g>
						<rect x="394.887" y="532.476" width="4.669" height="1.777"/>
						<rect x="387.934" y="532.476" width="4.668" height="1.777"/>
						<rect x="380.982" y="532.476" width="4.668" height="1.777"/>
						<rect x="374.028" y="532.476" width="4.668" height="1.777"/>
						<rect x="367.076" y="532.476" width="4.668" height="1.777"/>
						<rect x="360.122" y="532.476" width="4.668" height="1.777"/>
						<rect x="353.17" y="532.476" width="4.668" height="1.777"/>
					</g>
				</g>
				<g>
					<g>
						<rect x="346.216" y="532.476" width="4.668" height="1.777"/>
						<rect x="339.263" y="532.476" width="4.669" height="1.777"/>
						<rect x="332.311" y="532.476" width="4.668" height="1.777"/>
						<rect x="325.358" y="532.476" width="4.667" height="1.777"/>
						<rect x="318.405" y="532.476" width="4.669" height="1.777"/>
						<rect x="311.451" y="532.476" width="4.668" height="1.777"/>
						<rect x="304.5" y="532.476" width="4.667" height="1.777"/>
					</g>
				</g>
				<g>
					<g>
						<rect x="297.545" y="532.476" width="4.669" height="1.777"/>
						<polygon points="290.65,532.476 290.542,534.245 295.261,534.253 295.261,532.476 						"/>
						<polygon points="283.965,532.476 283.355,534.208 288.182,534.233 288.454,532.476 						"/>
						<path d="M277.335,531.933l-1.074,1.621c0,0,1.145,0.375,2.334,0.528c1.186,0.137,2.396,0.114,2.396,0.114l0.776-1.721
							c0,0-1.124,0.024-2.241-0.079C278.409,532.271,277.335,531.933,277.335,531.933z"/>
						<path d="M271.887,528.22l-1.446,1.327c0,0,0.769,0.93,1.689,1.707c0.929,0.768,1.979,1.359,1.979,1.359l1.207-1.54
							c0,0-0.984-0.546-1.854-1.26C272.604,529.088,271.887,528.22,271.887,528.22z"/>
						<path d="M269.356,522.132l-1.688,0.924c0,0,0.05,0.296,0.125,0.738c0.051,0.448,0.235,1.021,0.386,1.602
							c0.375,1.143,0.946,2.203,0.946,2.203l1.542-1.203c0,0-0.527-0.994-0.864-2.067c-0.134-0.545-0.3-1.083-0.341-1.503
							C269.399,522.409,269.356,522.132,269.356,522.132z"/>
						<polygon points="269.295,515.45 267.549,515.883 267.574,520.709 269.295,519.938 						"/>
					</g>
				</g>
				<g>
					<g>
						<polygon points="269.295,508.727 267.518,508.727 267.537,513.52 269.295,513.252 						"/>
						<rect x="267.518" y="501.773" width="1.777" height="4.668"/>
						<rect x="267.518" y="494.821" width="1.777" height="4.668"/>
						<rect x="267.518" y="487.867" width="1.777" height="4.668"/>
						<rect x="267.518" y="480.915" width="1.777" height="4.668"/>
						<rect x="267.518" y="473.961" width="1.777" height="4.668"/>
						<rect x="267.518" y="467.01" width="1.777" height="4.668"/>
					</g>
				</g>
				<g>
					<g>
						<rect x="267.518" y="460.056" width="1.777" height="4.668"/>
						<rect x="267.518" y="453.103" width="1.777" height="4.669"/>
						<polygon points="269.295,446.379 267.549,445.949 267.524,450.776 269.295,450.867 						"/>
						<path d="M269.353,439.695l-1.689-0.922c0,0-0.115,1.188-0.09,2.4c-0.006,1.206-0.012,2.412-0.012,2.412l1.734,0.596
							c0,0,0-1.122,0-2.244C269.271,440.814,269.353,439.695,269.353,439.695z"/>
						<path d="M271.857,433.598l-1.448-1.324c0,0-0.761,0.937-1.33,1.998c-0.27,0.537-0.536,1.076-0.676,1.505
							c-0.08,0.211-0.146,0.386-0.193,0.509c-0.045,0.123-0.059,0.197-0.059,0.197l1.627,1.062c0,0,0.078-0.27,0.228-0.663
							c0.126-0.403,0.37-0.908,0.619-1.412C271.149,434.474,271.857,433.598,271.857,433.598z"/>
						<path d="M277.289,429.861l-1.077-1.619c0,0.001-1.141,0.385-2.19,0.977c-0.513,0.313-1.028,0.623-1.376,0.912
							c-0.364,0.267-0.591,0.463-0.591,0.463l1.338,1.436c0,0,0.213-0.183,0.553-0.43c0.326-0.27,0.808-0.557,1.289-0.845
							C276.217,430.209,277.289,429.862,277.289,429.861z"/>
						<path d="M283.914,429.302l-0.614-1.732c0,0-1.207,0.006-2.413,0.013c-0.605-0.009-1.205,0.013-1.65,0.056
							c-0.449,0.019-0.744,0.075-0.744,0.074l0.938,1.684c0,0,0.276-0.048,0.698-0.059c0.42-0.03,0.98-0.044,1.542-0.035
							C282.792,429.302,283.914,429.302,283.914,429.302z"/>
					</g>
				</g>
				<g>
					<g>
						<polygon points="290.601,429.302 290.49,427.532 285.663,427.557 286.112,429.302 						"/>
						<rect x="292.826" y="427.524" width="4.668" height="1.777"/>
						<rect x="299.778" y="427.524" width="4.669" height="1.777"/>
						<rect x="306.732" y="427.524" width="4.667" height="1.777"/>
						<rect x="313.684" y="427.524" width="4.668" height="1.777"/>
						<rect x="320.638" y="427.524" width="4.668" height="1.777"/>
						<rect x="327.59" y="427.524" width="4.667" height="1.777"/>
					</g>
				</g>
				<g>
					<g>
						<rect x="334.543" y="427.524" width="4.668" height="1.777"/>
						<rect x="341.496" y="427.524" width="4.669" height="1.777"/>
						<rect x="348.449" y="427.524" width="4.668" height="1.777"/>
						<rect x="355.403" y="427.524" width="4.667" height="1.777"/>
						<rect x="362.354" y="427.524" width="4.669" height="1.777"/>
						<rect x="369.309" y="427.524" width="4.668" height="1.777"/>
						<rect x="376.261" y="427.524" width="4.668" height="1.777"/>
					</g>
				</g>
				<g>
					<g>
						<rect x="383.214" y="427.524" width="4.668" height="1.777"/>
						<rect x="390.167" y="427.524" width="4.668" height="1.777"/>
						<rect x="397.119" y="427.524" width="4.669" height="1.777"/>
						<rect x="404.074" y="427.524" width="4.667" height="1.777"/>
						<rect x="411.025" y="427.524" width="4.668" height="1.777"/>
						<polygon points="422.457,429.302 422.816,427.551 417.989,427.526 417.969,429.302 						"/>
						<path d="M429.14,429.313l0.86-1.711c0,0-0.298-0.023-0.751-0.019c-0.453-0.002-1.056-0.005-1.659-0.008
							c-1.207-0.007-2.413-0.013-2.413-0.013l-0.524,1.739c0,0,1.122,0,2.244,0c0.561,0,1.122,0,1.542,0
							C428.86,429.296,429.14,429.313,429.14,429.313z"/>
					</g>
				</g>
				<g>
					<g>
						<path d="M435.424,431.304l1.273-1.491c0,0-0.997-0.679-2.097-1.169c-1.105-0.477-2.277-0.747-2.277-0.747l-1.002,1.656
							c0,0,1.1,0.237,2.138,0.674C434.49,430.675,435.424,431.304,435.424,431.304z"/>
						<path d="M439.587,436.416l1.586-1.135c0,0-0.478-1.105-1.147-2.107c-0.679-0.995-1.524-1.855-1.524-1.855l-1.391,1.387
							c0,0,0.79,0.803,1.419,1.735C439.15,435.379,439.587,436.416,439.587,436.416z"/>
						<path d="M440.469,442.985l1.728-0.685c0,0-0.01-1.206-0.019-2.412c-0.045-0.597-0.062-1.196-0.161-1.637
							c-0.075-0.442-0.125-0.738-0.125-0.738l-1.658,0.998c0,0,0.042,0.277,0.106,0.693c0.087,0.414,0.091,0.977,0.124,1.536
							C440.466,441.863,440.469,442.985,440.469,442.985z"/>
						<polygon points="440.469,449.671 442.233,449.489 442.208,444.664 440.469,445.184 						"/>
						<polygon points="440.469,456.527 442.246,456.527 442.245,451.851 440.469,451.867 						"/>
						<rect x="440.469" y="458.813" width="1.777" height="4.669"/>
						<rect x="440.469" y="465.765" width="1.777" height="4.668"/>
					</g>
				</g>
				<g>
					<g>
						<rect x="440.469" y="472.718" width="1.777" height="4.669"/>
						<rect x="440.469" y="479.671" width="1.777" height="4.669"/>
						<rect x="440.469" y="486.623" width="1.777" height="4.669"/>
						<rect x="440.469" y="493.577" width="1.777" height="4.668"/>
						<rect x="440.469" y="500.529" width="1.777" height="4.669"/>
						<polygon points="440.469,512.057 442.233,512.234 442.246,507.483 440.469,507.483 						"/>
						<polygon points="440.469,518.74 442.196,519.422 442.221,514.596 440.469,514.253 						"/>
					</g>
				</g>
			</g>
		</g>
	</g>
	<g>
		<text transform="matrix(1 0 0 1 288.7656 447.3887)" font-family="'MyriadPro-Regular'" font-size="19.043">Availability Zone</text>
	</g>
	<g>
		<path fill="#98CE83" stroke="#000000" stroke-width="2" stroke-miterlimit="10" d="M427.037,504.623
			c0,9.811-7.955,17.766-17.766,17.766h-31.09c-9.811,0-17.764-7.955-17.764-17.766v-31.088c0-9.811,7.953-17.766,17.764-17.766
			h31.09c9.811,0,17.766,7.955,17.766,17.766V504.623z"/>
		<text transform="matrix(1 0 0 1 378.0645 494.668)" font-family="'MyriadPro-Regular'" font-size="19.043">EC2</text>
	</g>
	<g>
		<path fill="#98CE83" stroke="#000000" stroke-width="2" stroke-miterlimit="10" d="M349.001,504.623
			c0,9.811-7.955,17.766-17.766,17.766h-31.09c-9.811,0-17.764-7.955-17.764-17.766v-31.088c0-9.811,7.953-17.766,17.764-17.766
			h31.09c9.811,0,17.766,7.955,17.766,17.766V504.623z"/>
		<text transform="matrix(1 0 0 1 300.0288 494.668)" font-family="'MyriadPro-Regular'" font-size="19.043">EC2</text>
	</g>
</g>
<g>
	<g>
		<path fill="#D2EAD6" d="M441.382,639.389c0,6.627-5.373,12-12,12h-149c-6.627,0-12-5.373-12-12v-81c0-6.627,5.373-12,12-12h149
			c6.627,0,12,5.373,12,12V639.389z"/>
		<g>
			<g>
				<g>
					<g>
						<path d="M439.604,643.314l1.588,1.132c0,0,0.466-1.11,0.718-2.286c0.097-0.591,0.217-1.18,0.224-1.629
							c0.031-0.448,0.051-0.746,0.051-0.746l-1.716-0.847c0,0-0.014,0.28-0.035,0.7c0.001,0.423-0.103,0.976-0.185,1.53
							C440.029,642.272,439.604,643.314,439.604,643.314z"/>
						<path d="M435.463,648.444l1.275,1.488c0,0,0.99-0.689,1.833-1.551c0.409-0.441,0.814-0.885,1.07-1.258
							c0.136-0.181,0.249-0.331,0.328-0.436c0.071-0.11,0.111-0.174,0.111-0.174l-1.5-1.261c0,0-0.037,0.059-0.103,0.163
							c-0.074,0.098-0.179,0.238-0.305,0.407c-0.236,0.35-0.615,0.764-0.996,1.176C436.39,647.804,435.463,648.443,435.463,648.444z
							"/>
						<path d="M429.191,650.463l0.864,1.709c0,0,1.199-0.042,2.369-0.318c1.171-0.271,2.271-0.766,2.271-0.767l-1.147-1.578
							c0,0.001-1.032,0.453-2.131,0.691C430.317,650.443,429.191,650.462,429.191,650.463z"/>
						<polygon points="422.506,650.476 422.869,652.227 427.694,652.202 426.994,650.476 						"/>
						<polygon points="415.747,650.476 415.747,652.253 420.507,652.238 420.31,650.476 						"/>
						<rect x="408.792" y="650.476" width="4.668" height="1.777"/>
						<rect x="401.841" y="650.476" width="4.667" height="1.777"/>
					</g>
				</g>
				<g>
					<g>
						<rect x="394.887" y="650.476" width="4.669" height="1.777"/>
						<rect x="387.934" y="650.476" width="4.668" height="1.777"/>
						<rect x="380.982" y="650.476" width="4.668" height="1.777"/>
						<rect x="374.028" y="650.476" width="4.668" height="1.777"/>
						<rect x="367.076" y="650.476" width="4.668" height="1.777"/>
						<rect x="360.122" y="650.476" width="4.668" height="1.777"/>
						<rect x="353.17" y="650.476" width="4.668" height="1.777"/>
					</g>
				</g>
				<g>
					<g>
						<rect x="346.216" y="650.476" width="4.668" height="1.777"/>
						<rect x="339.263" y="650.476" width="4.669" height="1.777"/>
						<rect x="332.311" y="650.476" width="4.668" height="1.777"/>
						<rect x="325.358" y="650.476" width="4.667" height="1.777"/>
						<rect x="318.405" y="650.476" width="4.669" height="1.777"/>
						<rect x="311.451" y="650.476" width="4.668" height="1.777"/>
						<rect x="304.5" y="650.476" width="4.667" height="1.777"/>
					</g>
				</g>
				<g>
					<g>
						<rect x="297.545" y="650.476" width="4.669" height="1.777"/>
						<polygon points="290.65,650.476 290.542,652.245 295.261,652.253 295.261,650.476 						"/>
						<polygon points="283.965,650.476 283.355,652.208 288.182,652.233 288.454,650.476 						"/>
						<path d="M277.335,649.933l-1.074,1.621c0,0,1.145,0.375,2.334,0.528c1.186,0.137,2.396,0.114,2.396,0.114l0.776-1.721
							c0,0-1.124,0.024-2.241-0.079C278.409,650.271,277.335,649.933,277.335,649.933z"/>
						<path d="M271.887,646.22l-1.446,1.327c0,0,0.769,0.93,1.689,1.707c0.929,0.768,1.979,1.359,1.979,1.359l1.207-1.54
							c0,0-0.984-0.546-1.854-1.26C272.604,647.088,271.887,646.22,271.887,646.22z"/>
						<path d="M269.356,640.132l-1.688,0.924c0,0,0.05,0.296,0.125,0.738c0.051,0.448,0.235,1.021,0.386,1.602
							c0.375,1.143,0.946,2.203,0.946,2.203l1.542-1.203c0,0-0.527-0.994-0.864-2.067c-0.134-0.545-0.3-1.083-0.341-1.503
							C269.399,640.409,269.356,640.132,269.356,640.132z"/>
						<polygon points="269.295,633.45 267.549,633.883 267.574,638.709 269.295,637.938 						"/>
					</g>
				</g>
				<g>
					<g>
						<polygon points="269.295,626.727 267.518,626.727 267.537,631.52 269.295,631.252 						"/>
						<rect x="267.518" y="619.773" width="1.777" height="4.668"/>
						<rect x="267.518" y="612.821" width="1.777" height="4.668"/>
						<rect x="267.518" y="605.867" width="1.777" height="4.668"/>
						<rect x="267.518" y="598.915" width="1.777" height="4.668"/>
						<rect x="267.518" y="591.961" width="1.777" height="4.668"/>
						<rect x="267.518" y="585.01" width="1.777" height="4.668"/>
					</g>
				</g>
				<g>
					<g>
						<rect x="267.518" y="578.056" width="1.777" height="4.668"/>
						<rect x="267.518" y="571.103" width="1.777" height="4.669"/>
						<polygon points="269.295,564.379 267.549,563.949 267.524,568.776 269.295,568.867 						"/>
						<path d="M269.353,557.695l-1.689-0.922c0,0-0.115,1.188-0.09,2.4c-0.006,1.206-0.012,2.412-0.012,2.412l1.734,0.596
							c0,0,0-1.122,0-2.244C269.271,558.814,269.353,557.695,269.353,557.695z"/>
						<path d="M271.857,551.598l-1.448-1.324c0,0-0.761,0.937-1.33,1.998c-0.27,0.537-0.536,1.076-0.676,1.505
							c-0.08,0.211-0.146,0.386-0.193,0.509c-0.045,0.123-0.059,0.197-0.059,0.197l1.627,1.062c0,0,0.078-0.27,0.228-0.663
							c0.126-0.403,0.37-0.908,0.619-1.412C271.149,552.474,271.857,551.598,271.857,551.598z"/>
						<path d="M277.289,547.861l-1.077-1.619c0,0.001-1.141,0.385-2.19,0.977c-0.513,0.313-1.028,0.623-1.376,0.912
							c-0.364,0.267-0.591,0.463-0.591,0.463l1.338,1.436c0,0,0.213-0.183,0.553-0.43c0.326-0.27,0.808-0.557,1.289-0.845
							C276.217,548.209,277.289,547.862,277.289,547.861z"/>
						<path d="M283.914,547.302l-0.614-1.732c0,0-1.207,0.006-2.413,0.013c-0.605-0.009-1.205,0.013-1.65,0.056
							c-0.449,0.019-0.744,0.075-0.744,0.074l0.938,1.684c0,0,0.276-0.048,0.698-0.059c0.42-0.03,0.98-0.044,1.542-0.035
							C282.792,547.302,283.914,547.302,283.914,547.302z"/>
					</g>
				</g>
				<g>
					<g>
						<polygon points="290.601,547.302 290.49,545.532 285.663,545.557 286.112,547.302 						"/>
						<rect x="292.826" y="545.524" width="4.668" height="1.777"/>
						<rect x="299.778" y="545.524" width="4.669" height="1.777"/>
						<rect x="306.732" y="545.524" width="4.667" height="1.777"/>
						<rect x="313.684" y="545.524" width="4.668" height="1.777"/>
						<rect x="320.638" y="545.524" width="4.668" height="1.777"/>
						<rect x="327.59" y="545.524" width="4.667" height="1.777"/>
					</g>
				</g>
				<g>
					<g>
						<rect x="334.543" y="545.524" width="4.668" height="1.777"/>
						<rect x="341.496" y="545.524" width="4.669" height="1.777"/>
						<rect x="348.449" y="545.524" width="4.668" height="1.777"/>
						<rect x="355.403" y="545.524" width="4.667" height="1.777"/>
						<rect x="362.354" y="545.524" width="4.669" height="1.777"/>
						<rect x="369.309" y="545.524" width="4.668" height="1.777"/>
						<rect x="376.261" y="545.524" width="4.668" height="1.777"/>
					</g>
				</g>
				<g>
					<g>
						<rect x="383.214" y="545.524" width="4.668" height="1.777"/>
						<rect x="390.167" y="545.524" width="4.668" height="1.777"/>
						<rect x="397.119" y="545.524" width="4.669" height="1.777"/>
						<rect x="404.074" y="545.524" width="4.667" height="1.777"/>
						<rect x="411.025" y="545.524" width="4.668" height="1.777"/>
						<polygon points="422.457,547.302 422.816,545.551 417.989,545.526 417.969,547.302 						"/>
						<path d="M429.14,547.313l0.86-1.711c0,0-0.298-0.023-0.751-0.019c-0.453-0.002-1.056-0.005-1.659-0.008
							c-1.207-0.007-2.413-0.013-2.413-0.013l-0.524,1.739c0,0,1.122,0,2.244,0c0.561,0,1.122,0,1.542,0
							C428.86,547.296,429.14,547.313,429.14,547.313z"/>
					</g>
				</g>
				<g>
					<g>
						<path d="M435.424,549.304l1.273-1.491c0,0-0.997-0.679-2.097-1.169c-1.105-0.477-2.277-0.747-2.277-0.747l-1.002,1.656
							c0,0,1.1,0.238,2.138,0.674C434.49,548.675,435.424,549.304,435.424,549.304z"/>
						<path d="M439.587,554.416l1.586-1.135c0,0-0.478-1.105-1.147-2.107c-0.679-0.995-1.524-1.855-1.524-1.855l-1.391,1.387
							c0,0,0.79,0.803,1.419,1.735C439.15,553.379,439.587,554.416,439.587,554.416z"/>
						<path d="M440.469,560.985l1.728-0.685c0,0-0.01-1.206-0.019-2.412c-0.045-0.597-0.062-1.196-0.161-1.637
							c-0.075-0.443-0.125-0.738-0.125-0.738l-1.658,0.998c0,0,0.042,0.277,0.106,0.693c0.087,0.414,0.091,0.977,0.124,1.536
							C440.466,559.863,440.469,560.985,440.469,560.985z"/>
						<polygon points="440.469,567.671 442.233,567.489 442.208,562.664 440.469,563.184 						"/>
						<polygon points="440.469,574.527 442.246,574.527 442.245,569.852 440.469,569.867 						"/>
						<rect x="440.469" y="576.813" width="1.777" height="4.669"/>
						<rect x="440.469" y="583.765" width="1.777" height="4.668"/>
					</g>
				</g>
				<g>
					<g>
						<rect x="440.469" y="590.718" width="1.777" height="4.669"/>
						<rect x="440.469" y="597.671" width="1.777" height="4.669"/>
						<rect x="440.469" y="604.623" width="1.777" height="4.669"/>
						<rect x="440.469" y="611.577" width="1.777" height="4.668"/>
						<rect x="440.469" y="618.529" width="1.777" height="4.669"/>
						<polygon points="440.469,630.057 442.233,630.234 442.246,625.483 440.469,625.483 						"/>
						<polygon points="440.469,636.74 442.196,637.422 442.221,632.596 440.469,632.253 						"/>
					</g>
				</g>
			</g>
		</g>
	</g>
	<g>
		<text transform="matrix(1 0 0 1 288.7656 565.3887)" font-family="'MyriadPro-Regular'" font-size="19.043">Availability Zone</text>
	</g>
	<g>
		<path fill="#98CE83" stroke="#000000" stroke-width="2" stroke-miterlimit="10" d="M427.037,622.623
			c0,9.811-7.955,17.766-17.766,17.766h-31.09c-9.811,0-17.764-7.955-17.764-17.766v-31.088c0-9.811,7.953-17.766,17.764-17.766
			h31.09c9.811,0,17.766,7.955,17.766,17.766V622.623z"/>
		<text transform="matrix(1 0 0 1 378.0645 612.668)" font-family="'MyriadPro-Regular'" font-size="19.043">EC2</text>
	</g>
	<g>
		<path fill="#98CE83" stroke="#000000" stroke-width="2" stroke-miterlimit="10" d="M349.001,622.623
			c0,9.811-7.955,17.766-17.766,17.766h-31.09c-9.811,0-17.764-7.955-17.764-17.766v-31.088c0-9.811,7.953-17.766,17.764-17.766
			h31.09c9.811,0,17.766,7.955,17.766,17.766V622.623z"/>
		<text transform="matrix(1 0 0 1 300.0288 612.668)" font-family="'MyriadPro-Regular'" font-size="19.043">EC2</text>
	</g>
</g>
</svg>
