<?xml version="1.0" encoding="utf-8"?>
<!-- Generator: Adobe Illustrator 16.0.0, SVG Export Plug-In . SVG Version: 6.00 Build 0)  -->
<!DOCTYPE svg PUBLIC "-//W3C//DTD SVG 1.1//EN" "http://www.w3.org/Graphics/SVG/1.1/DTD/svg11.dtd">
<svg version="1.1" id="Layer_1" xmlns="http://www.w3.org/2000/svg" xmlns:xlink="http://www.w3.org/1999/xlink" x="0px" y="0px"
	 width="1108.444px" height="824.959px" viewBox="0 0 1108.444 824.959" enable-background="new 0 0 1108.444 824.959"
	 xml:space="preserve">
<g>
	<path fill="#98CE83" stroke="#000000" stroke-width="2" stroke-miterlimit="10" d="M349.001,504.623
		c0,9.811-7.955,17.766-17.766,17.766h-31.09c-9.811,0-17.764-7.955-17.764-17.766v-31.088c0-9.811,7.953-17.766,17.764-17.766
		h31.09c9.811,0,17.766,7.955,17.766,17.766V504.623z"/>
	<text transform="matrix(1 0 0 1 300.0288 494.668)" font-family="'MyriadPro-Regular'" font-size="19.043">EC2</text>
</g>
<g>
	<path fill="#98CE83" stroke="#000000" stroke-width="2" stroke-miterlimit="10" d="M349.001,504.623
		c0,9.811-7.955,17.766-17.766,17.766h-31.09c-9.811,0-17.764-7.955-17.764-17.766v-31.088c0-9.811,7.953-17.766,17.764-17.766
		h31.09c9.811,0,17.766,7.955,17.766,17.766V504.623z"/>
	<text transform="matrix(1 0 0 1 300.0288 494.668)" font-family="'MyriadPro-Regular'" font-size="19.043">EC2</text>
</g>
</svg>
