<?xml version="1.0" encoding="utf-8"?>
<!-- Generator: Adobe Illustrator 16.0.0, SVG Export Plug-In . SVG Version: 6.00 Build 0)  -->
<!DOCTYPE svg PUBLIC "-//W3C//DTD SVG 1.1//EN" "http://www.w3.org/Graphics/SVG/1.1/DTD/svg11.dtd">
<svg version="1.1" id="Layer_1" xmlns="http://www.w3.org/2000/svg" xmlns:xlink="http://www.w3.org/1999/xlink" x="0px" y="0px"
	 width="1108.444px" height="824.959px" viewBox="0 0 1108.444 824.959" enable-background="new 0 0 1108.444 824.959"
	 xml:space="preserve">
<path fill="#882786" stroke="#000000" stroke-width="2" stroke-miterlimit="10" d="M875.382,548.432
	c0,4.395-5.889,7.957-13.152,7.957H694.534c-7.264,0-13.152-3.563-13.152-7.957V318.346c0-4.395,5.889-7.957,13.152-7.957h167.695
	c7.264,0,13.152,3.563,13.152,7.957V548.432z"/>
<g>
	<text transform="matrix(1 0 0 1 724.3818 300.3887)" font-family="'MyriadPro-Bold'" font-size="19.043">ElastiCache</text>
</g>
<g>
	<path fill="#D2EAD6" d="M865.202,418.389c0,6.627-5.373,12-12,12h-149c-6.627,0-12-5.373-12-12v-81c0-6.627,5.373-12,12-12h149
		c6.627,0,12,5.373,12,12V418.389z"/>
	<g>
		<g>
			<g>
				<g>
					<path d="M863.424,422.314l1.589,1.132c-0.001,0,0.466-1.11,0.717-2.286c0.097-0.591,0.217-1.18,0.224-1.63
						c0.031-0.447,0.052-0.745,0.052-0.745l-1.716-0.847c0,0-0.015,0.28-0.035,0.7c0.001,0.423-0.103,0.976-0.185,1.53
						C863.85,421.272,863.424,422.314,863.424,422.314z"/>
					<path d="M859.283,427.444l1.276,1.488c-0.001,0,0.989-0.689,1.832-1.551c0.409-0.441,0.814-0.885,1.07-1.258
						c0.136-0.181,0.249-0.331,0.328-0.436c0.07-0.11,0.11-0.174,0.11-0.174l-1.5-1.261c0,0-0.037,0.059-0.103,0.163
						c-0.074,0.098-0.179,0.238-0.305,0.407c-0.236,0.35-0.615,0.764-0.996,1.176C860.21,426.804,859.283,427.443,859.283,427.444z"
						/>
					<path d="M853.012,429.463l0.863,1.709c0,0,1.199-0.042,2.369-0.318c1.171-0.271,2.271-0.766,2.271-0.767l-1.147-1.578
						c0,0.001-1.032,0.453-2.131,0.691C854.138,429.443,853.012,429.462,853.012,429.463z"/>
					<polygon points="846.326,429.476 846.689,431.227 851.515,431.202 850.814,429.476 					"/>
					<polygon points="839.566,429.476 839.566,431.253 844.327,431.238 844.13,429.476 					"/>
					<rect x="832.613" y="429.476" width="4.668" height="1.777"/>
					<rect x="825.661" y="429.476" width="4.668" height="1.777"/>
				</g>
			</g>
			<g>
				<g>
					<rect x="818.707" y="429.476" width="4.669" height="1.777"/>
					<rect x="811.755" y="429.476" width="4.668" height="1.777"/>
					<rect x="804.802" y="429.476" width="4.669" height="1.777"/>
					<rect x="797.849" y="429.476" width="4.668" height="1.777"/>
					<rect x="790.896" y="429.476" width="4.669" height="1.777"/>
					<rect x="783.942" y="429.476" width="4.668" height="1.777"/>
					<rect x="776.991" y="429.476" width="4.667" height="1.777"/>
				</g>
			</g>
			<g>
				<g>
					<rect x="770.036" y="429.476" width="4.669" height="1.777"/>
					<rect x="763.084" y="429.476" width="4.668" height="1.777"/>
					<rect x="756.132" y="429.476" width="4.668" height="1.777"/>
					<rect x="749.178" y="429.476" width="4.668" height="1.777"/>
					<rect x="742.226" y="429.476" width="4.668" height="1.777"/>
					<rect x="735.271" y="429.476" width="4.668" height="1.777"/>
					<rect x="728.32" y="429.476" width="4.667" height="1.777"/>
				</g>
			</g>
			<g>
				<g>
					<rect x="721.366" y="429.476" width="4.668" height="1.777"/>
					<polygon points="714.47,429.476 714.363,431.245 719.082,431.253 719.082,429.476 					"/>
					<polygon points="707.785,429.476 707.175,431.208 712.002,431.233 712.274,429.476 					"/>
					<path d="M701.155,428.933l-1.074,1.621c0,0,1.145,0.375,2.335,0.528c1.186,0.137,2.396,0.114,2.396,0.114l0.776-1.721
						c0,0-1.123,0.024-2.241-0.079C702.229,429.271,701.155,428.933,701.155,428.933z"/>
					<path d="M695.707,425.22l-1.445,1.327c0,0,0.769,0.93,1.689,1.707c0.929,0.768,1.979,1.359,1.979,1.359l1.207-1.54
						c0,0-0.984-0.546-1.854-1.26C696.424,426.088,695.707,425.22,695.707,425.22z"/>
					<path d="M693.177,419.132l-1.688,0.924c0,0,0.05,0.295,0.124,0.738c0.051,0.448,0.235,1.021,0.387,1.602
						c0.374,1.143,0.946,2.203,0.946,2.203l1.542-1.203c0.001,0-0.526-0.994-0.864-2.067c-0.134-0.545-0.3-1.083-0.34-1.503
						C693.22,419.409,693.177,419.132,693.177,419.132z"/>
					<polygon points="693.115,412.45 691.369,412.883 691.395,417.709 693.115,416.938 					"/>
				</g>
			</g>
			<g>
				<g>
					<polygon points="693.115,405.726 691.338,405.726 691.357,410.52 693.115,410.252 					"/>
					<rect x="691.338" y="398.773" width="1.777" height="4.669"/>
					<rect x="691.338" y="391.821" width="1.777" height="4.668"/>
					<rect x="691.338" y="384.868" width="1.777" height="4.667"/>
					<rect x="691.338" y="377.915" width="1.777" height="4.669"/>
					<rect x="691.338" y="370.961" width="1.777" height="4.668"/>
					<rect x="691.338" y="364.01" width="1.777" height="4.667"/>
				</g>
			</g>
			<g>
				<g>
					<rect x="691.338" y="357.055" width="1.777" height="4.669"/>
					<rect x="691.338" y="350.103" width="1.777" height="4.668"/>
					<polygon points="693.115,343.379 691.369,342.949 691.345,347.776 693.115,347.867 					"/>
					<path d="M693.173,336.695l-1.689-0.921c0,0-0.115,1.188-0.09,2.399c-0.006,1.207-0.013,2.413-0.013,2.413l1.734,0.595
						c0,0,0-1.122,0-2.244C693.092,337.814,693.173,336.695,693.173,336.695z"/>
					<path d="M695.678,330.598l-1.449-1.324c0.001,0-0.761,0.937-1.329,1.998c-0.271,0.537-0.536,1.076-0.676,1.505
						c-0.08,0.21-0.146,0.386-0.192,0.509c-0.045,0.123-0.06,0.197-0.06,0.197l1.628,1.061c0,0,0.077-0.269,0.228-0.663
						c0.126-0.403,0.37-0.908,0.618-1.412C694.97,331.474,695.678,330.598,695.678,330.598z"/>
					<path d="M701.109,326.862l-1.077-1.619c0,0-1.142,0.384-2.19,0.976c-0.514,0.313-1.028,0.623-1.377,0.912
						c-0.363,0.267-0.591,0.463-0.591,0.463l1.338,1.436c0,0,0.213-0.183,0.553-0.43c0.326-0.269,0.809-0.556,1.29-0.845
						C700.038,327.208,701.109,326.862,701.109,326.862z"/>
					<path d="M707.734,326.302l-0.614-1.732c0,0-1.207,0.006-2.413,0.012c-0.605-0.009-1.205,0.013-1.65,0.056
						c-0.449,0.019-0.743,0.075-0.743,0.075l0.938,1.683c0,0,0.276-0.048,0.698-0.058c0.42-0.03,0.98-0.044,1.541-0.036
						C706.612,326.302,707.734,326.302,707.734,326.302z"/>
				</g>
			</g>
			<g>
				<g>
					<polygon points="714.421,326.302 714.31,324.533 709.483,324.557 709.932,326.302 					"/>
					<rect x="716.646" y="324.524" width="4.669" height="1.777"/>
					<rect x="723.599" y="324.524" width="4.668" height="1.777"/>
					<rect x="730.553" y="324.524" width="4.667" height="1.777"/>
					<rect x="737.504" y="324.524" width="4.669" height="1.777"/>
					<rect x="744.459" y="324.524" width="4.668" height="1.777"/>
					<rect x="751.41" y="324.524" width="4.668" height="1.777"/>
				</g>
			</g>
			<g>
				<g>
					<rect x="758.364" y="324.524" width="4.668" height="1.777"/>
					<rect x="765.316" y="324.524" width="4.669" height="1.777"/>
					<rect x="772.269" y="324.524" width="4.669" height="1.777"/>
					<rect x="779.224" y="324.524" width="4.667" height="1.777"/>
					<rect x="786.175" y="324.524" width="4.669" height="1.777"/>
					<rect x="793.13" y="324.524" width="4.668" height="1.777"/>
					<rect x="800.081" y="324.524" width="4.668" height="1.777"/>
				</g>
			</g>
			<g>
				<g>
					<rect x="807.034" y="324.524" width="4.669" height="1.777"/>
					<rect x="813.987" y="324.524" width="4.669" height="1.777"/>
					<rect x="820.939" y="324.524" width="4.669" height="1.777"/>
					<rect x="827.894" y="324.524" width="4.668" height="1.777"/>
					<rect x="834.846" y="324.524" width="4.669" height="1.777"/>
					<polygon points="846.277,326.302 846.636,324.551 841.81,324.526 841.789,326.302 					"/>
					<path d="M852.96,326.313l0.86-1.711c0,0-0.298-0.023-0.751-0.018c-0.453-0.002-1.056-0.005-1.659-0.008
						c-1.206-0.006-2.413-0.013-2.413-0.013l-0.524,1.739c0,0,1.122,0,2.244,0c0.561,0,1.122,0,1.543,0
						C852.681,326.296,852.96,326.313,852.96,326.313z"/>
				</g>
			</g>
			<g>
				<g>
					<path d="M859.244,328.304l1.272-1.491c0,0-0.996-0.678-2.096-1.168c-1.105-0.478-2.277-0.747-2.277-0.748l-1.002,1.656
						c0,0,1.1,0.238,2.138,0.673C858.311,327.675,859.244,328.304,859.244,328.304z"/>
					<path d="M863.407,333.417l1.586-1.135c0.001,0-0.478-1.106-1.147-2.108c-0.679-0.996-1.524-1.855-1.523-1.856l-1.391,1.387
						c0,0,0.789,0.803,1.418,1.735C862.97,332.378,863.407,333.416,863.407,333.417z"/>
					<path d="M864.289,339.985l1.728-0.685c0,0-0.01-1.206-0.02-2.413c-0.045-0.596-0.062-1.196-0.16-1.636
						c-0.075-0.443-0.125-0.738-0.125-0.738l-1.658,0.998c0,0,0.043,0.277,0.106,0.693c0.087,0.414,0.091,0.977,0.124,1.536
						C864.286,338.863,864.289,339.985,864.289,339.985z"/>
					<polygon points="864.289,346.671 866.053,346.489 866.028,341.664 864.289,342.183 					"/>
					<polygon points="864.289,353.527 866.066,353.527 866.065,348.851 864.289,348.867 					"/>
					<rect x="864.289" y="355.813" width="1.777" height="4.668"/>
					<rect x="864.289" y="362.765" width="1.777" height="4.667"/>
				</g>
			</g>
			<g>
				<g>
					<rect x="864.289" y="369.718" width="1.777" height="4.669"/>
					<rect x="864.289" y="376.671" width="1.777" height="4.668"/>
					<rect x="864.289" y="383.623" width="1.777" height="4.669"/>
					<rect x="864.289" y="390.577" width="1.777" height="4.668"/>
					<rect x="864.289" y="397.529" width="1.777" height="4.668"/>
					<polygon points="864.289,409.057 866.054,409.235 866.066,404.483 864.289,404.483 					"/>
					<polygon points="864.289,415.741 866.017,416.422 866.041,411.596 864.289,411.253 					"/>
				</g>
			</g>
		</g>
	</g>
</g>
<g>
	<path fill="#DB98C3" stroke="#000000" stroke-width="2" stroke-miterlimit="10" d="M773.513,399.242
		c0,9.811-7.955,17.766-17.766,17.766h-31.088c-9.813,0-17.766-7.955-17.766-17.766v-31.088c0-9.811,7.953-17.765,17.766-17.765
		h31.088c9.811,0,17.766,7.955,17.766,17.765V399.242z"/>
	<path fill="#DB98C3" stroke="#000000" stroke-width="2" stroke-miterlimit="10" d="M850.513,399.242
		c0,9.811-7.955,17.766-17.766,17.766h-31.09c-9.811,0-17.764-7.955-17.764-17.766v-31.088c0-9.811,7.953-17.765,17.764-17.765
		h31.09c9.811,0,17.766,7.955,17.766,17.765V399.242z"/>
</g>
<g>
	<text transform="matrix(1 0 0 1 712.5869 344.3887)" font-family="'MyriadPro-Regular'" font-size="19.043">Availability Zone</text>
</g>
<g>
	<g>
		<path fill="#D2EAD6" d="M865.202,535.389c0,6.627-5.373,12-12,12h-149c-6.627,0-12-5.373-12-12v-81c0-6.627,5.373-12,12-12h149
			c6.627,0,12,5.373,12,12V535.389z"/>
		<g>
			<g>
				<g>
					<g>
						<path d="M863.424,539.314l1.589,1.132c-0.001,0,0.466-1.11,0.717-2.286c0.097-0.591,0.217-1.18,0.224-1.629
							c0.031-0.448,0.052-0.746,0.052-0.746l-1.716-0.847c0,0-0.015,0.28-0.035,0.7c0.001,0.423-0.103,0.976-0.185,1.53
							C863.85,538.272,863.424,539.314,863.424,539.314z"/>
						<path d="M859.283,544.444l1.276,1.488c-0.001,0,0.989-0.689,1.832-1.551c0.409-0.441,0.814-0.885,1.07-1.258
							c0.136-0.181,0.249-0.331,0.328-0.436c0.07-0.11,0.11-0.174,0.11-0.174l-1.5-1.261c0,0-0.037,0.059-0.103,0.163
							c-0.074,0.098-0.179,0.238-0.305,0.407c-0.236,0.35-0.615,0.764-0.996,1.176C860.21,543.804,859.283,544.443,859.283,544.444z
							"/>
						<path d="M853.012,546.463l0.863,1.709c0,0,1.199-0.042,2.369-0.318c1.171-0.271,2.271-0.766,2.271-0.767l-1.147-1.578
							c0,0.001-1.032,0.453-2.131,0.691C854.138,546.443,853.012,546.462,853.012,546.463z"/>
						<polygon points="846.326,546.476 846.689,548.227 851.515,548.202 850.814,546.476 						"/>
						<polygon points="839.566,546.476 839.566,548.253 844.327,548.238 844.13,546.476 						"/>
						<rect x="832.613" y="546.476" width="4.668" height="1.777"/>
						<rect x="825.661" y="546.476" width="4.668" height="1.777"/>
					</g>
				</g>
				<g>
					<g>
						<rect x="818.707" y="546.476" width="4.669" height="1.777"/>
						<rect x="811.755" y="546.476" width="4.668" height="1.777"/>
						<rect x="804.802" y="546.476" width="4.669" height="1.777"/>
						<rect x="797.849" y="546.476" width="4.668" height="1.777"/>
						<rect x="790.896" y="546.476" width="4.669" height="1.777"/>
						<rect x="783.942" y="546.476" width="4.668" height="1.777"/>
						<rect x="776.991" y="546.476" width="4.667" height="1.777"/>
					</g>
				</g>
				<g>
					<g>
						<rect x="770.036" y="546.476" width="4.669" height="1.777"/>
						<rect x="763.084" y="546.476" width="4.668" height="1.777"/>
						<rect x="756.132" y="546.476" width="4.668" height="1.777"/>
						<rect x="749.178" y="546.476" width="4.668" height="1.777"/>
						<rect x="742.226" y="546.476" width="4.668" height="1.777"/>
						<rect x="735.271" y="546.476" width="4.668" height="1.777"/>
						<rect x="728.32" y="546.476" width="4.667" height="1.777"/>
					</g>
				</g>
				<g>
					<g>
						<rect x="721.366" y="546.476" width="4.668" height="1.777"/>
						<polygon points="714.47,546.476 714.363,548.245 719.082,548.253 719.082,546.476 						"/>
						<polygon points="707.786,546.476 707.175,548.208 712.002,548.233 712.274,546.476 						"/>
						<path d="M701.155,545.933l-1.074,1.621c0,0,1.145,0.375,2.335,0.528c1.186,0.137,2.396,0.114,2.396,0.114l0.776-1.721
							c0,0-1.123,0.024-2.24-0.079C702.229,546.271,701.155,545.933,701.155,545.933z"/>
						<path d="M695.707,542.22l-1.445,1.327c0,0,0.769,0.93,1.689,1.707c0.929,0.768,1.979,1.359,1.979,1.359l1.207-1.54
							c0,0-0.984-0.546-1.854-1.26C696.424,543.088,695.707,542.22,695.707,542.22z"/>
						<path d="M693.177,536.132l-1.688,0.924c0,0,0.05,0.296,0.124,0.738c0.051,0.448,0.235,1.021,0.387,1.602
							c0.374,1.143,0.946,2.203,0.946,2.203l1.542-1.203c0.001,0-0.526-0.994-0.864-2.067c-0.134-0.545-0.3-1.083-0.34-1.503
							C693.22,536.409,693.177,536.132,693.177,536.132z"/>
						<polygon points="693.115,529.45 691.369,529.883 691.395,534.709 693.115,533.938 						"/>
					</g>
				</g>
				<g>
					<g>
						<polygon points="693.115,522.727 691.338,522.727 691.357,527.52 693.115,527.252 						"/>
						<rect x="691.338" y="515.773" width="1.777" height="4.668"/>
						<rect x="691.338" y="508.821" width="1.777" height="4.668"/>
						<rect x="691.338" y="501.867" width="1.777" height="4.668"/>
						<rect x="691.338" y="494.915" width="1.777" height="4.668"/>
						<rect x="691.338" y="487.961" width="1.777" height="4.668"/>
						<rect x="691.338" y="481.01" width="1.777" height="4.668"/>
					</g>
				</g>
				<g>
					<g>
						<rect x="691.338" y="474.056" width="1.777" height="4.668"/>
						<rect x="691.338" y="467.103" width="1.777" height="4.669"/>
						<polygon points="693.115,460.379 691.369,459.949 691.345,464.776 693.115,464.867 						"/>
						<path d="M693.173,453.695l-1.689-0.922c0,0-0.115,1.188-0.09,2.4c-0.006,1.206-0.013,2.412-0.013,2.412l1.734,0.596
							c0,0,0-1.122,0-2.244C693.092,454.814,693.173,453.695,693.173,453.695z"/>
						<path d="M695.678,447.598l-1.448-1.324c0,0-0.762,0.937-1.33,1.998c-0.271,0.537-0.536,1.076-0.676,1.505
							c-0.08,0.211-0.146,0.386-0.192,0.509c-0.045,0.123-0.06,0.197-0.06,0.197l1.628,1.062c0,0,0.077-0.27,0.228-0.663
							c0.126-0.403,0.37-0.908,0.618-1.412C694.97,448.474,695.678,447.598,695.678,447.598z"/>
						<path d="M701.109,443.861l-1.077-1.619c0,0.001-1.142,0.385-2.19,0.977c-0.514,0.313-1.028,0.623-1.377,0.912
							c-0.363,0.267-0.591,0.463-0.591,0.463l1.338,1.436c0,0,0.213-0.183,0.553-0.43c0.326-0.27,0.809-0.557,1.29-0.845
							C700.038,444.209,701.109,443.862,701.109,443.861z"/>
						<path d="M707.734,443.302l-0.614-1.732c0,0-1.207,0.006-2.413,0.013c-0.605-0.009-1.205,0.013-1.65,0.056
							c-0.449,0.019-0.743,0.075-0.743,0.074l0.938,1.684c0,0,0.276-0.048,0.698-0.059c0.42-0.03,0.98-0.044,1.541-0.035
							C706.612,443.302,707.734,443.302,707.734,443.302z"/>
					</g>
				</g>
				<g>
					<g>
						<polygon points="714.421,443.302 714.31,441.532 709.483,441.557 709.932,443.302 						"/>
						<rect x="716.646" y="441.524" width="4.669" height="1.777"/>
						<rect x="723.599" y="441.524" width="4.668" height="1.777"/>
						<rect x="730.553" y="441.524" width="4.667" height="1.777"/>
						<rect x="737.504" y="441.524" width="4.669" height="1.777"/>
						<rect x="744.459" y="441.524" width="4.668" height="1.777"/>
						<rect x="751.41" y="441.524" width="4.668" height="1.777"/>
					</g>
				</g>
				<g>
					<g>
						<rect x="758.364" y="441.524" width="4.668" height="1.777"/>
						<rect x="765.316" y="441.524" width="4.669" height="1.777"/>
						<rect x="772.269" y="441.524" width="4.669" height="1.777"/>
						<rect x="779.224" y="441.524" width="4.667" height="1.777"/>
						<rect x="786.175" y="441.524" width="4.669" height="1.777"/>
						<rect x="793.129" y="441.524" width="4.669" height="1.777"/>
						<rect x="800.081" y="441.524" width="4.668" height="1.777"/>
					</g>
				</g>
				<g>
					<g>
						<rect x="807.034" y="441.524" width="4.669" height="1.777"/>
						<rect x="813.987" y="441.524" width="4.669" height="1.777"/>
						<rect x="820.939" y="441.524" width="4.669" height="1.777"/>
						<rect x="827.894" y="441.524" width="4.668" height="1.777"/>
						<rect x="834.846" y="441.524" width="4.669" height="1.777"/>
						<polygon points="846.277,443.302 846.636,441.551 841.81,441.526 841.789,443.302 						"/>
						<path d="M852.96,443.313l0.86-1.711c0,0-0.298-0.023-0.751-0.019c-0.453-0.002-1.056-0.005-1.659-0.008
							c-1.207-0.007-2.413-0.013-2.413-0.013l-0.524,1.739c0,0,1.122,0,2.244,0c0.561,0,1.122,0,1.543,0
							C852.681,443.296,852.96,443.313,852.96,443.313z"/>
					</g>
				</g>
				<g>
					<g>
						<path d="M859.244,445.304l1.272-1.491c0,0-0.996-0.679-2.096-1.169c-1.105-0.477-2.277-0.747-2.277-0.747l-1.002,1.656
							c0,0,1.1,0.237,2.138,0.674C858.311,444.675,859.244,445.304,859.244,445.304z"/>
						<path d="M863.407,450.416l1.586-1.135c0.001,0-0.478-1.105-1.147-2.107c-0.679-0.995-1.524-1.855-1.524-1.855l-1.39,1.387
							c0,0,0.789,0.803,1.418,1.735C862.97,449.379,863.407,450.416,863.407,450.416z"/>
						<path d="M864.289,456.985l1.728-0.685c0,0-0.01-1.206-0.02-2.412c-0.045-0.597-0.062-1.196-0.16-1.637
							c-0.075-0.442-0.125-0.738-0.125-0.738l-1.658,0.998c0,0,0.043,0.277,0.106,0.693c0.087,0.414,0.091,0.977,0.124,1.536
							C864.286,455.863,864.289,456.985,864.289,456.985z"/>
						<polygon points="864.289,463.671 866.053,463.489 866.028,458.664 864.289,459.184 						"/>
						<polygon points="864.289,470.527 866.066,470.527 866.065,465.851 864.289,465.867 						"/>
						<rect x="864.289" y="472.813" width="1.777" height="4.669"/>
						<rect x="864.289" y="479.765" width="1.777" height="4.668"/>
					</g>
				</g>
				<g>
					<g>
						<rect x="864.289" y="486.718" width="1.777" height="4.669"/>
						<rect x="864.289" y="493.671" width="1.777" height="4.669"/>
						<rect x="864.289" y="500.623" width="1.777" height="4.669"/>
						<rect x="864.289" y="507.577" width="1.777" height="4.668"/>
						<rect x="864.289" y="514.529" width="1.777" height="4.669"/>
						<polygon points="864.289,526.057 866.054,526.234 866.066,521.483 864.289,521.483 						"/>
						<polygon points="864.289,532.74 866.017,533.422 866.041,528.596 864.289,528.253 						"/>
					</g>
				</g>
			</g>
		</g>
	</g>
	<g>
		<path fill="#DB98C3" stroke="#000000" stroke-width="2" stroke-miterlimit="10" d="M773.513,516.242
			c0,9.811-7.955,17.766-17.766,17.766h-31.088c-9.813,0-17.766-7.955-17.766-17.766v-31.088c0-9.811,7.953-17.766,17.766-17.766
			h31.088c9.811,0,17.766,7.955,17.766,17.766V516.242z"/>
		<path fill="#DB98C3" stroke="#000000" stroke-width="2" stroke-miterlimit="10" d="M850.513,516.242
			c0,9.811-7.955,17.766-17.766,17.766h-31.09c-9.811,0-17.764-7.955-17.764-17.766v-31.088c0-9.811,7.953-17.766,17.764-17.766
			h31.09c9.811,0,17.766,7.955,17.766,17.766V516.242z"/>
	</g>
	<g>
		<text transform="matrix(1 0 0 1 712.5869 461.3887)" font-family="'MyriadPro-Regular'" font-size="19.043">Availability Zone</text>
	</g>
</g>
<path fill="#4B853D" stroke="#000000" stroke-width="2" stroke-miterlimit="10" d="M451.382,651.432
	c0,4.395-5.889,7.957-13.152,7.957H270.534c-7.264,0-13.152-3.563-13.152-7.957V421.346c0-4.395,5.889-7.957,13.152-7.957h167.695
	c7.264,0,13.152,3.563,13.152,7.957V651.432z"/>
<g>
	<text transform="matrix(1 0 0 1 283.2383 403.3887)" font-family="'MyriadPro-Bold'" font-size="19.043">Elastic Beanstalk</text>
</g>
<g>
	<g>
		<path fill="#D2EAD6" d="M441.382,521.389c0,6.627-5.373,12-12,12h-149c-6.627,0-12-5.373-12-12v-81c0-6.627,5.373-12,12-12h149
			c6.627,0,12,5.373,12,12V521.389z"/>
		<g>
			<g>
				<g>
					<g>
						<path d="M439.604,525.314l1.588,1.132c0,0,0.466-1.11,0.718-2.286c0.097-0.591,0.217-1.18,0.224-1.63
							c0.031-0.447,0.051-0.745,0.051-0.745l-1.716-0.847c0,0-0.014,0.28-0.035,0.7c0.001,0.423-0.103,0.976-0.185,1.53
							C440.029,524.272,439.604,525.314,439.604,525.314z"/>
						<path d="M435.463,530.444l1.275,1.488c0,0,0.99-0.689,1.833-1.551c0.409-0.441,0.814-0.885,1.07-1.258
							c0.136-0.181,0.249-0.331,0.328-0.436c0.071-0.11,0.111-0.174,0.111-0.174l-1.5-1.261c0,0-0.037,0.059-0.103,0.163
							c-0.074,0.098-0.179,0.238-0.305,0.407c-0.236,0.35-0.615,0.764-0.996,1.176C436.39,529.804,435.463,530.443,435.463,530.444z
							"/>
						<path d="M429.191,532.463l0.864,1.709c0,0,1.199-0.042,2.369-0.318c1.171-0.271,2.271-0.766,2.271-0.767l-1.147-1.578
							c0,0.001-1.032,0.453-2.131,0.691C430.317,532.443,429.191,532.462,429.191,532.463z"/>
						<polygon points="422.506,532.476 422.869,534.227 427.694,534.202 426.994,532.476 						"/>
						<polygon points="415.747,532.476 415.747,534.253 420.507,534.238 420.31,532.476 						"/>
						<rect x="408.792" y="532.476" width="4.668" height="1.777"/>
						<rect x="401.841" y="532.476" width="4.667" height="1.777"/>
					</g>
				</g>
				<g>
					<g>
						<rect x="394.887" y="532.476" width="4.669" height="1.777"/>
						<rect x="387.934" y="532.476" width="4.668" height="1.777"/>
						<rect x="380.982" y="532.476" width="4.668" height="1.777"/>
						<rect x="374.028" y="532.476" width="4.668" height="1.777"/>
						<rect x="367.076" y="532.476" width="4.668" height="1.777"/>
						<rect x="360.122" y="532.476" width="4.668" height="1.777"/>
						<rect x="353.17" y="532.476" width="4.668" height="1.777"/>
					</g>
				</g>
				<g>
					<g>
						<rect x="346.216" y="532.476" width="4.668" height="1.777"/>
						<rect x="339.263" y="532.476" width="4.669" height="1.777"/>
						<rect x="332.311" y="532.476" width="4.668" height="1.777"/>
						<rect x="325.358" y="532.476" width="4.667" height="1.777"/>
						<rect x="318.405" y="532.476" width="4.669" height="1.777"/>
						<rect x="311.451" y="532.476" width="4.668" height="1.777"/>
						<rect x="304.5" y="532.476" width="4.667" height="1.777"/>
					</g>
				</g>
				<g>
					<g>
						<rect x="297.545" y="532.476" width="4.669" height="1.777"/>
						<polygon points="290.65,532.476 290.542,534.245 295.261,534.253 295.261,532.476 						"/>
						<polygon points="283.965,532.476 283.355,534.208 288.182,534.233 288.454,532.476 						"/>
						<path d="M277.335,531.933l-1.074,1.621c0,0,1.145,0.375,2.334,0.528c1.186,0.137,2.396,0.114,2.396,0.114l0.776-1.721
							c0,0-1.124,0.024-2.241-0.079C278.409,532.271,277.335,531.933,277.335,531.933z"/>
						<path d="M271.887,528.22l-1.446,1.327c0,0,0.769,0.93,1.689,1.707c0.929,0.768,1.979,1.359,1.979,1.359l1.207-1.54
							c0,0-0.984-0.546-1.854-1.26C272.604,529.088,271.887,528.22,271.887,528.22z"/>
						<path d="M269.356,522.132l-1.688,0.924c0,0,0.05,0.296,0.125,0.738c0.051,0.448,0.235,1.021,0.386,1.602
							c0.375,1.143,0.946,2.203,0.946,2.203l1.542-1.203c0,0-0.527-0.994-0.864-2.067c-0.134-0.545-0.3-1.083-0.341-1.503
							C269.399,522.409,269.356,522.132,269.356,522.132z"/>
						<polygon points="269.295,515.45 267.549,515.883 267.574,520.709 269.295,519.938 						"/>
					</g>
				</g>
				<g>
					<g>
						<polygon points="269.295,508.727 267.518,508.727 267.537,513.52 269.295,513.252 						"/>
						<rect x="267.518" y="501.773" width="1.777" height="4.668"/>
						<rect x="267.518" y="494.821" width="1.777" height="4.668"/>
						<rect x="267.518" y="487.867" width="1.777" height="4.668"/>
						<rect x="267.518" y="480.915" width="1.777" height="4.668"/>
						<rect x="267.518" y="473.961" width="1.777" height="4.668"/>
						<rect x="267.518" y="467.01" width="1.777" height="4.668"/>
					</g>
				</g>
				<g>
					<g>
						<rect x="267.518" y="460.056" width="1.777" height="4.668"/>
						<rect x="267.518" y="453.103" width="1.777" height="4.669"/>
						<polygon points="269.295,446.379 267.549,445.949 267.524,450.776 269.295,450.867 						"/>
						<path d="M269.353,439.695l-1.689-0.922c0,0-0.115,1.188-0.09,2.4c-0.006,1.206-0.012,2.412-0.012,2.412l1.734,0.596
							c0,0,0-1.122,0-2.244C269.271,440.814,269.353,439.695,269.353,439.695z"/>
						<path d="M271.857,433.598l-1.448-1.324c0,0-0.761,0.937-1.33,1.998c-0.27,0.537-0.536,1.076-0.676,1.505
							c-0.08,0.211-0.146,0.386-0.193,0.509c-0.045,0.123-0.059,0.197-0.059,0.197l1.627,1.062c0,0,0.078-0.27,0.228-0.663
							c0.126-0.403,0.37-0.908,0.619-1.412C271.149,434.474,271.857,433.598,271.857,433.598z"/>
						<path d="M277.289,429.861l-1.077-1.619c0,0.001-1.141,0.385-2.19,0.977c-0.513,0.313-1.028,0.623-1.376,0.912
							c-0.364,0.267-0.591,0.463-0.591,0.463l1.338,1.436c0,0,0.213-0.183,0.553-0.43c0.326-0.27,0.808-0.557,1.289-0.845
							C276.217,430.209,277.289,429.862,277.289,429.861z"/>
						<path d="M283.914,429.302l-0.614-1.732c0,0-1.207,0.006-2.413,0.013c-0.605-0.009-1.205,0.013-1.65,0.056
							c-0.449,0.019-0.744,0.075-0.744,0.074l0.938,1.684c0,0,0.276-0.048,0.698-0.059c0.42-0.03,0.98-0.044,1.542-0.035
							C282.792,429.302,283.914,429.302,283.914,429.302z"/>
					</g>
				</g>
				<g>
					<g>
						<polygon points="290.601,429.302 290.49,427.532 285.663,427.557 286.112,429.302 						"/>
						<rect x="292.826" y="427.524" width="4.668" height="1.777"/>
						<rect x="299.778" y="427.524" width="4.669" height="1.777"/>
						<rect x="306.732" y="427.524" width="4.667" height="1.777"/>
						<rect x="313.684" y="427.524" width="4.668" height="1.777"/>
						<rect x="320.638" y="427.524" width="4.668" height="1.777"/>
						<rect x="327.59" y="427.524" width="4.667" height="1.777"/>
					</g>
				</g>
				<g>
					<g>
						<rect x="334.543" y="427.524" width="4.668" height="1.777"/>
						<rect x="341.496" y="427.524" width="4.669" height="1.777"/>
						<rect x="348.449" y="427.524" width="4.668" height="1.777"/>
						<rect x="355.403" y="427.524" width="4.667" height="1.777"/>
						<rect x="362.354" y="427.524" width="4.669" height="1.777"/>
						<rect x="369.309" y="427.524" width="4.668" height="1.777"/>
						<rect x="376.261" y="427.524" width="4.668" height="1.777"/>
					</g>
				</g>
				<g>
					<g>
						<rect x="383.214" y="427.524" width="4.668" height="1.777"/>
						<rect x="390.167" y="427.524" width="4.668" height="1.777"/>
						<rect x="397.119" y="427.524" width="4.669" height="1.777"/>
						<rect x="404.074" y="427.524" width="4.667" height="1.777"/>
						<rect x="411.025" y="427.524" width="4.668" height="1.777"/>
						<polygon points="422.457,429.302 422.816,427.551 417.989,427.526 417.969,429.302 						"/>
						<path d="M429.14,429.313l0.86-1.711c0,0-0.298-0.023-0.751-0.019c-0.453-0.002-1.056-0.005-1.659-0.008
							c-1.207-0.007-2.413-0.013-2.413-0.013l-0.524,1.739c0,0,1.122,0,2.244,0c0.561,0,1.122,0,1.542,0
							C428.86,429.296,429.14,429.313,429.14,429.313z"/>
					</g>
				</g>
				<g>
					<g>
						<path d="M435.424,431.304l1.273-1.491c0,0-0.997-0.679-2.097-1.169c-1.105-0.477-2.277-0.747-2.277-0.747l-1.002,1.656
							c0,0,1.1,0.237,2.138,0.674C434.49,430.675,435.424,431.304,435.424,431.304z"/>
						<path d="M439.587,436.416l1.586-1.135c0,0-0.478-1.105-1.147-2.107c-0.679-0.995-1.524-1.855-1.524-1.855l-1.391,1.387
							c0,0,0.79,0.803,1.419,1.735C439.15,435.379,439.587,436.416,439.587,436.416z"/>
						<path d="M440.469,442.985l1.728-0.685c0,0-0.01-1.206-0.019-2.412c-0.045-0.597-0.062-1.196-0.161-1.637
							c-0.075-0.442-0.125-0.738-0.125-0.738l-1.658,0.998c0,0,0.042,0.277,0.106,0.693c0.087,0.414,0.091,0.977,0.124,1.536
							C440.466,441.863,440.469,442.985,440.469,442.985z"/>
						<polygon points="440.469,449.671 442.233,449.489 442.208,444.664 440.469,445.184 						"/>
						<polygon points="440.469,456.527 442.246,456.527 442.245,451.851 440.469,451.867 						"/>
						<rect x="440.469" y="458.813" width="1.777" height="4.669"/>
						<rect x="440.469" y="465.765" width="1.777" height="4.668"/>
					</g>
				</g>
				<g>
					<g>
						<rect x="440.469" y="472.718" width="1.777" height="4.669"/>
						<rect x="440.469" y="479.671" width="1.777" height="4.669"/>
						<rect x="440.469" y="486.623" width="1.777" height="4.669"/>
						<rect x="440.469" y="493.577" width="1.777" height="4.668"/>
						<rect x="440.469" y="500.529" width="1.777" height="4.669"/>
						<polygon points="440.469,512.057 442.233,512.234 442.246,507.483 440.469,507.483 						"/>
						<polygon points="440.469,518.74 442.196,519.422 442.221,514.596 440.469,514.253 						"/>
					</g>
				</g>
			</g>
		</g>
	</g>
	<g>
		<text transform="matrix(1 0 0 1 288.7656 447.3887)" font-family="'MyriadPro-Regular'" font-size="19.043">Availability Zone</text>
	</g>
	<g>
		<path fill="#98CE83" stroke="#000000" stroke-width="2" stroke-miterlimit="10" d="M427.037,504.623
			c0,9.811-7.955,17.766-17.766,17.766h-31.09c-9.811,0-17.764-7.955-17.764-17.766v-31.088c0-9.811,7.953-17.766,17.764-17.766
			h31.09c9.811,0,17.766,7.955,17.766,17.766V504.623z"/>
		<text transform="matrix(1 0 0 1 378.0645 494.668)" font-family="'MyriadPro-Regular'" font-size="19.043">EC2</text>
	</g>
	<g>
		<path fill="#98CE83" stroke="#000000" stroke-width="2" stroke-miterlimit="10" d="M349.001,504.623
			c0,9.811-7.955,17.766-17.766,17.766h-31.09c-9.811,0-17.764-7.955-17.764-17.766v-31.088c0-9.811,7.953-17.766,17.764-17.766
			h31.09c9.811,0,17.766,7.955,17.766,17.766V504.623z"/>
		<text transform="matrix(1 0 0 1 300.0288 494.668)" font-family="'MyriadPro-Regular'" font-size="19.043">EC2</text>
	</g>
</g>
<g>
	<g>
		<path fill="#D2EAD6" d="M441.382,638.389c0,6.627-5.373,12-12,12h-149c-6.627,0-12-5.373-12-12v-81c0-6.627,5.373-12,12-12h149
			c6.627,0,12,5.373,12,12V638.389z"/>
		<g>
			<g>
				<g>
					<g>
						<path d="M439.604,642.314l1.588,1.132c0,0,0.466-1.11,0.718-2.286c0.097-0.591,0.217-1.18,0.224-1.629
							c0.031-0.448,0.051-0.746,0.051-0.746l-1.716-0.847c0,0-0.014,0.28-0.035,0.7c0.001,0.423-0.103,0.976-0.185,1.53
							C440.029,641.272,439.604,642.314,439.604,642.314z"/>
						<path d="M435.463,647.444l1.275,1.488c0,0,0.99-0.689,1.833-1.551c0.409-0.441,0.814-0.885,1.07-1.258
							c0.136-0.181,0.249-0.331,0.328-0.436c0.071-0.11,0.111-0.174,0.111-0.174l-1.5-1.261c0,0-0.037,0.059-0.103,0.163
							c-0.074,0.098-0.179,0.238-0.305,0.407c-0.236,0.35-0.615,0.764-0.996,1.176C436.39,646.804,435.463,647.443,435.463,647.444z
							"/>
						<path d="M429.191,649.463l0.864,1.709c0,0,1.199-0.042,2.369-0.318c1.171-0.271,2.271-0.766,2.271-0.767l-1.147-1.578
							c0,0.001-1.032,0.453-2.131,0.691C430.317,649.443,429.191,649.462,429.191,649.463z"/>
						<polygon points="422.506,649.476 422.869,651.227 427.694,651.202 426.994,649.476 						"/>
						<polygon points="415.747,649.476 415.747,651.253 420.507,651.238 420.31,649.476 						"/>
						<rect x="408.792" y="649.476" width="4.668" height="1.777"/>
						<rect x="401.841" y="649.476" width="4.667" height="1.777"/>
					</g>
				</g>
				<g>
					<g>
						<rect x="394.887" y="649.476" width="4.669" height="1.777"/>
						<rect x="387.934" y="649.476" width="4.668" height="1.777"/>
						<rect x="380.982" y="649.476" width="4.668" height="1.777"/>
						<rect x="374.028" y="649.476" width="4.668" height="1.777"/>
						<rect x="367.076" y="649.476" width="4.668" height="1.777"/>
						<rect x="360.122" y="649.476" width="4.668" height="1.777"/>
						<rect x="353.17" y="649.476" width="4.668" height="1.777"/>
					</g>
				</g>
				<g>
					<g>
						<rect x="346.216" y="649.476" width="4.668" height="1.777"/>
						<rect x="339.263" y="649.476" width="4.669" height="1.777"/>
						<rect x="332.311" y="649.476" width="4.668" height="1.777"/>
						<rect x="325.358" y="649.476" width="4.667" height="1.777"/>
						<rect x="318.405" y="649.476" width="4.669" height="1.777"/>
						<rect x="311.451" y="649.476" width="4.668" height="1.777"/>
						<rect x="304.5" y="649.476" width="4.667" height="1.777"/>
					</g>
				</g>
				<g>
					<g>
						<rect x="297.545" y="649.476" width="4.669" height="1.777"/>
						<polygon points="290.65,649.476 290.542,651.245 295.261,651.253 295.261,649.476 						"/>
						<polygon points="283.965,649.476 283.355,651.208 288.182,651.233 288.454,649.476 						"/>
						<path d="M277.335,648.933l-1.074,1.621c0,0,1.145,0.375,2.334,0.528c1.186,0.137,2.396,0.114,2.396,0.114l0.776-1.721
							c0,0-1.124,0.024-2.241-0.079C278.409,649.271,277.335,648.933,277.335,648.933z"/>
						<path d="M271.887,645.22l-1.446,1.327c0,0,0.769,0.93,1.689,1.707c0.929,0.768,1.979,1.359,1.979,1.359l1.207-1.54
							c0,0-0.984-0.546-1.854-1.26C272.604,646.088,271.887,645.22,271.887,645.22z"/>
						<path d="M269.356,639.132l-1.688,0.924c0,0,0.05,0.296,0.125,0.738c0.051,0.448,0.235,1.021,0.386,1.602
							c0.375,1.143,0.946,2.203,0.946,2.203l1.542-1.203c0,0-0.527-0.994-0.864-2.067c-0.134-0.545-0.3-1.083-0.341-1.503
							C269.399,639.409,269.356,639.132,269.356,639.132z"/>
						<polygon points="269.295,632.45 267.549,632.883 267.574,637.709 269.295,636.938 						"/>
					</g>
				</g>
				<g>
					<g>
						<polygon points="269.295,625.727 267.518,625.727 267.537,630.52 269.295,630.252 						"/>
						<rect x="267.518" y="618.773" width="1.777" height="4.668"/>
						<rect x="267.518" y="611.821" width="1.777" height="4.668"/>
						<rect x="267.518" y="604.867" width="1.777" height="4.668"/>
						<rect x="267.518" y="597.915" width="1.777" height="4.668"/>
						<rect x="267.518" y="590.961" width="1.777" height="4.668"/>
						<rect x="267.518" y="584.01" width="1.777" height="4.668"/>
					</g>
				</g>
				<g>
					<g>
						<rect x="267.518" y="577.056" width="1.777" height="4.668"/>
						<rect x="267.518" y="570.103" width="1.777" height="4.669"/>
						<polygon points="269.295,563.379 267.549,562.949 267.524,567.776 269.295,567.867 						"/>
						<path d="M269.353,556.695l-1.689-0.922c0,0-0.115,1.188-0.09,2.4c-0.006,1.206-0.012,2.412-0.012,2.412l1.734,0.596
							c0,0,0-1.122,0-2.244C269.271,557.814,269.353,556.695,269.353,556.695z"/>
						<path d="M271.857,550.598l-1.448-1.324c0,0-0.761,0.937-1.33,1.998c-0.27,0.537-0.536,1.076-0.676,1.505
							c-0.08,0.211-0.146,0.386-0.193,0.509c-0.045,0.123-0.059,0.197-0.059,0.197l1.627,1.062c0,0,0.078-0.27,0.228-0.663
							c0.126-0.403,0.37-0.908,0.619-1.412C271.149,551.474,271.857,550.598,271.857,550.598z"/>
						<path d="M277.289,546.861l-1.077-1.619c0,0.001-1.141,0.385-2.19,0.977c-0.513,0.313-1.028,0.623-1.376,0.912
							c-0.364,0.267-0.591,0.463-0.591,0.463l1.338,1.436c0,0,0.213-0.183,0.553-0.43c0.326-0.27,0.808-0.557,1.289-0.845
							C276.217,547.209,277.289,546.862,277.289,546.861z"/>
						<path d="M283.914,546.302l-0.614-1.732c0,0-1.207,0.006-2.413,0.013c-0.605-0.009-1.205,0.013-1.65,0.056
							c-0.449,0.019-0.744,0.075-0.744,0.074l0.938,1.684c0,0,0.276-0.048,0.698-0.059c0.42-0.03,0.98-0.044,1.542-0.035
							C282.792,546.302,283.914,546.302,283.914,546.302z"/>
					</g>
				</g>
				<g>
					<g>
						<polygon points="290.601,546.302 290.49,544.532 285.663,544.557 286.112,546.302 						"/>
						<rect x="292.826" y="544.524" width="4.668" height="1.777"/>
						<rect x="299.778" y="544.524" width="4.669" height="1.777"/>
						<rect x="306.732" y="544.524" width="4.667" height="1.777"/>
						<rect x="313.684" y="544.524" width="4.668" height="1.777"/>
						<rect x="320.638" y="544.524" width="4.668" height="1.777"/>
						<rect x="327.59" y="544.524" width="4.667" height="1.777"/>
					</g>
				</g>
				<g>
					<g>
						<rect x="334.543" y="544.524" width="4.668" height="1.777"/>
						<rect x="341.496" y="544.524" width="4.669" height="1.777"/>
						<rect x="348.449" y="544.524" width="4.668" height="1.777"/>
						<rect x="355.403" y="544.524" width="4.667" height="1.777"/>
						<rect x="362.354" y="544.524" width="4.669" height="1.777"/>
						<rect x="369.309" y="544.524" width="4.668" height="1.777"/>
						<rect x="376.261" y="544.524" width="4.668" height="1.777"/>
					</g>
				</g>
				<g>
					<g>
						<rect x="383.214" y="544.524" width="4.668" height="1.777"/>
						<rect x="390.167" y="544.524" width="4.668" height="1.777"/>
						<rect x="397.119" y="544.524" width="4.669" height="1.777"/>
						<rect x="404.074" y="544.524" width="4.667" height="1.777"/>
						<rect x="411.025" y="544.524" width="4.668" height="1.777"/>
						<polygon points="422.457,546.302 422.816,544.551 417.989,544.526 417.969,546.302 						"/>
						<path d="M429.14,546.313l0.86-1.711c0,0-0.298-0.023-0.751-0.019c-0.453-0.002-1.056-0.005-1.659-0.008
							c-1.207-0.007-2.413-0.013-2.413-0.013l-0.524,1.739c0,0,1.122,0,2.244,0c0.561,0,1.122,0,1.542,0
							C428.86,546.296,429.14,546.313,429.14,546.313z"/>
					</g>
				</g>
				<g>
					<g>
						<path d="M435.424,548.304l1.273-1.491c0,0-0.997-0.679-2.097-1.169c-1.105-0.477-2.277-0.747-2.277-0.747l-1.002,1.656
							c0,0,1.1,0.238,2.138,0.674C434.49,547.675,435.424,548.304,435.424,548.304z"/>
						<path d="M439.587,553.416l1.586-1.135c0,0-0.478-1.105-1.147-2.107c-0.679-0.995-1.524-1.855-1.524-1.855l-1.391,1.387
							c0,0,0.79,0.803,1.419,1.735C439.15,552.379,439.587,553.416,439.587,553.416z"/>
						<path d="M440.469,559.985l1.728-0.685c0,0-0.01-1.206-0.019-2.412c-0.045-0.597-0.062-1.196-0.161-1.637
							c-0.075-0.443-0.125-0.738-0.125-0.738l-1.658,0.998c0,0,0.042,0.277,0.106,0.693c0.087,0.414,0.091,0.977,0.124,1.536
							C440.466,558.863,440.469,559.985,440.469,559.985z"/>
						<polygon points="440.469,566.671 442.233,566.489 442.208,561.664 440.469,562.184 						"/>
						<polygon points="440.469,573.527 442.246,573.527 442.245,568.852 440.469,568.867 						"/>
						<rect x="440.469" y="575.813" width="1.777" height="4.669"/>
						<rect x="440.469" y="582.765" width="1.777" height="4.668"/>
					</g>
				</g>
				<g>
					<g>
						<rect x="440.469" y="589.718" width="1.777" height="4.669"/>
						<rect x="440.469" y="596.671" width="1.777" height="4.669"/>
						<rect x="440.469" y="603.623" width="1.777" height="4.669"/>
						<rect x="440.469" y="610.577" width="1.777" height="4.668"/>
						<rect x="440.469" y="617.529" width="1.777" height="4.669"/>
						<polygon points="440.469,629.057 442.233,629.234 442.246,624.483 440.469,624.483 						"/>
						<polygon points="440.469,635.74 442.196,636.422 442.221,631.596 440.469,631.253 						"/>
					</g>
				</g>
			</g>
		</g>
	</g>
	<g>
		<text transform="matrix(1 0 0 1 288.7656 564.3887)" font-family="'MyriadPro-Regular'" font-size="19.043">Availability Zone</text>
	</g>
	<g>
		<path fill="#98CE83" stroke="#000000" stroke-width="2" stroke-miterlimit="10" d="M427.037,621.623
			c0,9.811-7.955,17.766-17.766,17.766h-31.09c-9.811,0-17.764-7.955-17.764-17.766v-31.088c0-9.811,7.953-17.766,17.764-17.766
			h31.09c9.811,0,17.766,7.955,17.766,17.766V621.623z"/>
		<text transform="matrix(1 0 0 1 378.0645 611.668)" font-family="'MyriadPro-Regular'" font-size="19.043">EC2</text>
	</g>
	<g>
		<path fill="#98CE83" stroke="#000000" stroke-width="2" stroke-miterlimit="10" d="M349.001,621.623
			c0,9.811-7.955,17.766-17.766,17.766h-31.09c-9.811,0-17.764-7.955-17.764-17.766v-31.088c0-9.811,7.953-17.766,17.764-17.766
			h31.09c9.811,0,17.766,7.955,17.766,17.766V621.623z"/>
		<text transform="matrix(1 0 0 1 300.0288 611.668)" font-family="'MyriadPro-Regular'" font-size="19.043">EC2</text>
	</g>
</g>
<polygon opacity="0.4" fill="#96CA4E" stroke="#000000" stroke-width="2" stroke-miterlimit="10" points="480.382,807.389 
	360.382,627.389 361.382,583.389 364.382,577.389 368.382,574.389 375.382,573.389 412.382,573.389 661.382,630.389 "/>
<path fill="#98CE83" stroke="#000000" stroke-width="2" stroke-miterlimit="10" d="M668.382,805.389c0,6.627-5.373,12-12,12h-164
	c-6.627,0-12-5.373-12-12v-164c0-6.627,5.373-12,12-12h164c6.627,0,12,5.373,12,12V805.389z"/>
<g>
	<path fill-rule="evenodd" clip-rule="evenodd" d="M561.826,645.389c0.194,0,0.386,0,0.58,0c2.214,7.968,1.754,15.805-1.244,23.51
		c0.822,0.319,1.546,0.598,2.881,1.114c-1.764,0.328-2.843,0.53-3.922,0.732c0.021,0.199,0.044,0.399,0.065,0.599
		c1.082,0.183,2.163,0.366,3.243,0.547c-1.68,0.774-3.716,0.668-4.761,1.635c-2.727,2.525-5.021,5.521-7.532,8.379
		c3.146,3.381,6.412,6.931,9.741,10.421c0.491,0.516,1.265,0.781,1.935,1.104c2.183,1.051,4.379,2.075,6.569,3.11
		c0,0.775,0,1.55,0,2.326c-2.906,0-5.813,0-8.72,0c-12.483-7.024-25.483-12.554-39.953-14.147c-0.136,4.028,0.64,4.876,3.889,5.555
		c1.136,0.238,2.101,1.3,3.145,1.984c-3.842,1.278-7.08,1.397-9.838-1.308c-1.442-1.416-3.396-2.364-4.648-3.904
		c-2.148-2.645-4.428-2.232-6.358-0.33c-1.855,1.827-3.322,4.141-4.576,6.449c-0.625,1.146-0.393,2.76-0.589,4.537
		c-2.733,0-5.325,0-7.916,0c0-0.58,0-1.162,0-1.744c3.889-5.611,7.777-11.223,11.547-16.661c-1.158-2.641-2.723-5.358-3.558-8.281
		c-2.226-7.798,2.977-14.252,11.042-14.023c0.961,0.025,1.994,0.244,2.873-0.02c3.998-1.196,7.177,0.005,9.583,3.796
		c-3.753,1.559-8.069,1.124-9.769-0.742c-0.726-0.796-1.874-1.578-2.894-1.671c-4.698-0.43-8.452,2.402-9.609,7.023
		c-1.253,5.012,1.127,8.884,3.849,12.944c7.709-7.065,16.26-11.965,26.243-14.846c-1.371-6.112-1.472-12.128,0.219-18.089
		c0.386,0,0.775,0,1.162,0c2.074,1.938,4.122,3.903,6.242,5.789c0.426,0.381,1.123,0.64,1.697,0.646
		c3.757,0.036,7.517,0.019,11.272-0.066c0.573-0.012,1.232-0.354,1.687-0.739C557.576,649.179,559.69,647.272,561.826,645.389z
		 M539.929,670.136c-0.425,0.161-1.105,0.42-2.299,0.873c1.195,0.359,1.859,0.559,2.533,0.762c-0.81,2.041,1.139,4.602,5.773,7.774
		c2.602,1.78,3.361,1.748,7.013-1.943c1.484-1.5,4.727-2.489,2.952-5.848c0.768-0.202,1.534-0.406,2.927-0.775
		c-1.424-0.446-2.21-0.694-3.191-1.002c1.174-1.655,4.946,0.51,4.033-2.834c-0.443-1.622,4.053-2.784-0.028-4.097
		c2.657-1.717,3.489-8.448,1.838-13.306c-1.558,1.63-1.604,4.963-5.313,4.111c-5.277-1.213-5.31-1.068-7.604,3.767
		c-0.311-0.477-0.672-0.819-0.781-1.229c-0.724-2.735-2.372-3.699-5.098-2.835c-0.542,0.172-1.196,0.024-1.715,0.233
		c-2.961,1.188-4.534-0.458-5.808-2.757c-0.319-0.577-0.597-1.178-0.894-1.768c-0.521,2.641-0.478,5.146-0.531,7.647
		c-0.051,2.327,0.631,4.129,3.042,4.908c0.085,0.026,0.08,0.327,0.138,0.598c-0.673,0.218-1.354,0.438-1.662,0.535
		c0.348,1.605,0.3,3.232,1.043,4.323C537.11,668.475,538.655,669.179,539.929,670.136z"/>
	<path fill-rule="evenodd" clip-rule="evenodd" fill="#FFFFFF" d="M539.929,670.136c-1.273-0.957-2.818-1.661-3.633-2.861
		c-0.743-1.091-0.695-2.718-1.043-4.323c0.309-0.098,0.989-0.317,1.662-0.535c-0.058-0.271-0.053-0.571-0.138-0.598
		c-2.411-0.779-3.093-2.581-3.042-4.908c0.054-2.502,0.011-5.007,0.531-7.647c0.297,0.59,0.574,1.19,0.894,1.768
		c1.273,2.299,2.847,3.945,5.808,2.757c0.519-0.209,1.173-0.062,1.715-0.233c2.726-0.864,4.374,0.1,5.098,2.835
		c0.109,0.41,0.471,0.753,0.781,1.229c2.295-4.835,2.327-4.979,7.604-3.767c3.709,0.852,3.756-2.481,5.314-4.11
		c1.65,4.856,0.818,11.588-1.839,13.305c4.081,1.313-0.415,2.475,0.028,4.097c0.913,3.344-2.859,1.179-4.033,2.834
		c0.981,0.308,1.768,0.556,3.191,1.002c-1.393,0.369-2.159,0.573-2.927,0.775c1.774,3.358-1.468,4.348-2.952,5.848
		c-3.651,3.691-4.411,3.724-7.013,1.943c-4.635-3.173-6.583-5.733-5.773-7.774c-0.674-0.203-1.338-0.402-2.533-0.762
		C538.823,670.556,539.504,670.297,539.929,670.136z M558.073,659.516c-0.07-0.25-0.144-0.501-0.215-0.753
		c-1.368,0.504-3.377,0.605-3.988,1.583c-2.104,3.364-5.111,2.241-7.95,2.298c-0.366-2.336,1.252-5.579-2.481-6.162
		c-1.878-0.294-3.25,1.095-3.921,2.827c1.836-0.512,3.229-0.901,4.625-1.291c0.2,1.496,0.399,2.993,0.596,4.465
		c-1.792,0.245-2.903,0.397-4.015,0.55c0.02,0.227,0.041,0.452,0.061,0.678c0.975,0.19,1.948,0.383,3.11,0.61
		c-0.441,1.307-0.834,2.467-1.3,3.846c1.359,0.906,2.693,1.794,4.083,2.721c-0.705,0.834-1.297,1.537-1.89,2.24
		c0.106,0.269,0.211,0.537,0.314,0.804c2.174-2.809,4.425-1.445,6.677-0.177c0.059-0.239,0.116-0.479,0.173-0.717
		c-0.758-0.621-1.515-1.243-2.443-2.005c1.507-1.08,2.813-2.017,4.044-2.9c-0.243-1.326-0.463-2.514-0.705-3.826
		c1.516-0.229,2.727-0.412,3.938-0.596c-0.02-0.221-0.039-0.442-0.058-0.664c-0.953-0.188-1.907-0.375-2.861-0.562
		c-0.079-0.205-0.158-0.409-0.237-0.614C555.111,661.087,556.594,660.301,558.073,659.516z"/>
	<path fill-rule="evenodd" clip-rule="evenodd" d="M558.073,659.516c-1.479,0.785-2.962,1.571-4.443,2.354
		c0.079,0.205,0.158,0.409,0.237,0.614c0.954,0.187,1.908,0.373,2.861,0.562c0.019,0.222,0.038,0.443,0.058,0.664
		c-1.212,0.184-2.423,0.366-3.938,0.596c0.242,1.313,0.462,2.5,0.705,3.826c-1.231,0.884-2.537,1.82-4.044,2.9
		c0.929,0.762,1.686,1.384,2.443,2.005c-0.057,0.237-0.114,0.478-0.173,0.717c-2.252-1.269-4.503-2.632-6.677,0.177
		c-0.104-0.267-0.208-0.535-0.314-0.804c0.593-0.703,1.185-1.406,1.89-2.24c-1.39-0.927-2.724-1.814-4.083-2.721
		c0.466-1.379,0.858-2.539,1.3-3.846c-1.162-0.228-2.136-0.42-3.11-0.61c-0.02-0.226-0.041-0.451-0.061-0.678
		c1.111-0.152,2.223-0.305,4.015-0.55c-0.196-1.472-0.396-2.969-0.596-4.465c-1.396,0.39-2.789,0.779-4.625,1.291
		c0.671-1.732,2.043-3.121,3.921-2.827c3.733,0.583,2.115,3.826,2.481,6.162c2.839-0.057,5.846,1.066,7.95-2.298
		c0.611-0.978,2.62-1.079,3.988-1.583C557.93,659.015,558.003,659.266,558.073,659.516z M551.438,664.309
		c-5.885-0.851-6.363-0.642-6.667,2.861c2.288,0,4.57,0,7.084,0C551.698,666.091,551.564,665.174,551.438,664.309z"/>
	<path fill-rule="evenodd" clip-rule="evenodd" fill="#FFFFFF" d="M551.438,664.309c0.126,0.865,0.26,1.782,0.417,2.861
		c-2.514,0-4.796,0-7.084,0C545.075,663.667,545.554,663.458,551.438,664.309z"/>
</g>
<g>
	<text transform="matrix(1 0 0 1 583.3818 662.3887)" font-family="'MyriadPro-Regular'" font-size="18">Tomcat 6</text>
</g>
<text transform="matrix(1 0 0 1 552.377 731.3887)" font-family="'MyriadPro-Regular'" font-size="19.043">WAR</text>
<g>
	<path fill-rule="evenodd" clip-rule="evenodd" fill="#FFFFFF" d="M657.382,799.389c0,6.627-5.373,12-12,12h-140
		c-6.627,0-12-5.373-12-12v-72c0-6.627,5.373-12,12-12h140c6.627,0,12,5.373,12,12V799.389z"/>
	<g>
		<g>
			<g>
				<g>
					<path d="M655.708,803.031l1.599,1.113c0,0,0.099-0.262,0.247-0.654c0.109-0.404,0.284-0.939,0.383-1.488
						c0.098-0.551,0.191-1.102,0.2-1.521c0.028-0.417,0.048-0.695,0.048-0.695l-1.716-0.847c0,0-0.013,0.261-0.033,0.653
						c0,0.394-0.08,0.911-0.164,1.428c-0.084,0.516-0.242,1.018-0.339,1.397C655.798,802.785,655.708,803.031,655.708,803.031z"/>
					<path d="M652.065,807.994l1.316,1.455c0-0.001,0.23-0.161,0.534-0.453c0.156-0.142,0.337-0.307,0.531-0.483
						c0.179-0.193,0.368-0.4,0.558-0.606c0.395-0.4,0.691-0.882,0.957-1.208c0.223-0.356,0.371-0.594,0.371-0.594l-1.52-1.235
						c0,0-0.138,0.223-0.344,0.557c-0.247,0.305-0.521,0.757-0.89,1.13c-0.177,0.192-0.354,0.386-0.52,0.566
						c-0.182,0.165-0.351,0.318-0.496,0.451C652.281,807.846,652.064,807.994,652.065,807.994z"/>
					<path d="M646.388,810.374l0.941,1.682c0,0,0.275-0.047,0.688-0.116c0.413-0.067,0.95-0.236,1.487-0.387
						c1.064-0.356,2.053-0.891,2.053-0.891l-1.201-1.544c0,0-0.927,0.492-1.926,0.813c-0.505,0.135-1.008,0.287-1.396,0.344
						C646.646,810.334,646.388,810.374,646.388,810.374z"/>
					<polygon points="640.156,810.476 640.644,812.218 645.145,812.194 644.343,810.476 					"/>
					<polygon points="633.921,810.476 633.938,812.252 638.44,812.229 638.108,810.476 					"/>
					<rect x="627.444" y="810.476" width="4.354" height="1.777"/>
					<rect x="620.96" y="810.476" width="4.354" height="1.777"/>
				</g>
			</g>
			<g>
				<g>
					<rect x="614.474" y="810.476" width="4.354" height="1.777"/>
					<rect x="607.988" y="810.476" width="4.354" height="1.777"/>
					<rect x="601.503" y="810.476" width="4.355" height="1.777"/>
					<rect x="595.018" y="810.476" width="4.354" height="1.777"/>
					<rect x="588.532" y="810.476" width="4.354" height="1.777"/>
					<rect x="582.046" y="810.476" width="4.354" height="1.777"/>
					<rect x="575.563" y="810.476" width="4.354" height="1.777"/>
				</g>
			</g>
			<g>
				<g>
					<rect x="569.075" y="810.476" width="4.355" height="1.777"/>
					<rect x="562.59" y="810.476" width="4.355" height="1.777"/>
					<rect x="556.105" y="810.476" width="4.354" height="1.777"/>
					<rect x="549.62" y="810.476" width="4.354" height="1.777"/>
					<rect x="543.134" y="810.476" width="4.355" height="1.777"/>
					<rect x="536.648" y="810.476" width="4.354" height="1.777"/>
					<rect x="530.164" y="810.476" width="4.354" height="1.777"/>
				</g>
			</g>
			<g>
				<g>
					<rect x="523.678" y="810.476" width="4.354" height="1.777"/>
					<rect x="517.192" y="810.476" width="4.354" height="1.777"/>
					<polygon points="510.953,810.476 510.492,812.22 514.994,812.242 515.14,810.476 					"/>
					<path d="M504.718,810.419l-0.919,1.69c0,0.001,1.107,0.111,2.238,0.087c1.125,0.006,2.25,0.012,2.25,0.012l0.615-1.732
						c0,0-1.046,0-2.093,0C505.763,810.498,504.718,810.42,504.718,810.419z"/>
					<path d="M498.975,808.201l-1.298,1.471c0,0,0.216,0.181,0.568,0.409c0.363,0.211,0.821,0.54,1.336,0.766
						c0.994,0.522,2.078,0.823,2.078,0.822l1.05-1.633c0,0-1.019-0.268-1.951-0.748c-0.482-0.207-0.912-0.512-1.252-0.707
						C499.177,808.369,498.975,808.201,498.975,808.201z"/>
					<path d="M495.174,803.354l-1.586,1.135c0,0,0.115,0.255,0.302,0.631c0.168,0.387,0.46,0.865,0.759,1.339
						c0.305,0.47,0.656,0.91,0.918,1.237c0.283,0.311,0.472,0.519,0.472,0.519l1.406-1.371c0,0-0.176-0.194-0.44-0.484
						c-0.244-0.306-0.57-0.718-0.853-1.157c-0.277-0.444-0.546-0.893-0.701-1.255C495.28,803.594,495.174,803.354,495.174,803.354z"
						/>
					<path d="M494.295,797.235l-1.725,0.719c0,0,0.001,0.281,0.004,0.703c0.014,0.42-0.021,0.989,0.034,1.543
						c0.019,0.278,0.038,0.556,0.056,0.817c0.042,0.258,0.083,0.499,0.116,0.706c0.035,0.206,0.064,0.378,0.084,0.499
						c0.024,0.119,0.046,0.187,0.046,0.187l1.654-1.007c0,0-0.06-0.255-0.113-0.645c-0.029-0.193-0.063-0.42-0.099-0.662
						c-0.013-0.245-0.026-0.507-0.039-0.768c-0.039-0.522-0.011-1.047-0.02-1.438C494.295,797.497,494.295,797.235,494.295,797.235z
						"/>
				</g>
			</g>
			<g>
				<g>
					<polygon points="494.295,790.999 492.536,791.247 492.559,795.749 494.295,795.186 					"/>
					<polygon points="494.295,784.646 492.518,784.646 492.524,789.045 494.295,788.95 					"/>
					<rect x="492.518" y="778.161" width="1.777" height="4.354"/>
					<rect x="492.518" y="771.675" width="1.777" height="4.354"/>
					<rect x="492.518" y="765.189" width="1.777" height="4.355"/>
					<rect x="492.518" y="758.703" width="1.777" height="4.354"/>
					<rect x="492.518" y="752.22" width="1.777" height="4.354"/>
				</g>
			</g>
			<g>
				<g>
					<rect x="492.518" y="745.733" width="1.777" height="4.354"/>
					<rect x="492.518" y="739.248" width="1.777" height="4.354"/>
					<polygon points="494.295,733.006 492.551,732.549 492.528,737.051 494.295,737.193 					"/>
					<path d="M494.349,726.771l-1.691-0.916c0,0-0.107,1.108-0.083,2.238c-0.006,1.126-0.012,2.251-0.012,2.251l1.733,0.611
						c0,0,0-1.046,0-2.093C494.273,727.816,494.349,726.771,494.349,726.771z"/>
					<path d="M496.542,721.02l-1.473-1.296c0,0.001-0.686,0.895-1.167,1.909c-0.517,0.996-0.813,2.081-0.813,2.082l1.635,1.047
						c0-0.001,0.263-1.02,0.739-1.954C495.904,721.855,496.542,721.02,496.542,721.02z"/>
					<path d="M501.372,717.197l-1.137-1.585c0,0-0.252,0.122-0.63,0.306c-0.387,0.168-0.86,0.469-1.336,0.764
						c-0.463,0.314-0.911,0.655-1.231,0.926c-0.311,0.283-0.519,0.473-0.519,0.473l1.374,1.402c0,0,0.193-0.176,0.484-0.439
						c0.299-0.252,0.719-0.568,1.152-0.86c0.446-0.273,0.89-0.551,1.253-0.704C501.136,717.31,501.372,717.197,501.372,717.197z"/>
					<path d="M507.488,716.302l-0.722-1.725c0,0-0.281,0.001-0.703,0.004c-0.42,0.011-0.989-0.018-1.542,0.037
						c-0.278,0.02-0.556,0.04-0.817,0.059c-0.258,0.043-0.5,0.084-0.706,0.119s-0.378,0.064-0.499,0.085
						c-0.118,0.032-0.186,0.05-0.186,0.05l1.01,1.653c0,0,0.253-0.068,0.643-0.118c0.194-0.029,0.42-0.063,0.663-0.101
						c0.245-0.014,0.506-0.027,0.767-0.041c0.522-0.039,1.046-0.016,1.438-0.022C507.227,716.302,507.488,716.302,507.488,716.302z"
						/>
				</g>
			</g>
			<g>
				<g>
					<polygon points="513.725,716.302 513.473,714.543 508.971,714.565 509.538,716.302 					"/>
					<polygon points="520.076,716.302 520.076,714.524 515.676,714.531 515.773,716.302 					"/>
					<rect x="522.207" y="714.524" width="4.354" height="1.777"/>
					<rect x="528.693" y="714.524" width="4.354" height="1.777"/>
					<rect x="535.178" y="714.524" width="4.354" height="1.777"/>
					<rect x="541.664" y="714.524" width="4.354" height="1.777"/>
					<rect x="548.148" y="714.524" width="4.354" height="1.777"/>
				</g>
			</g>
			<g>
				<g>
					<rect x="554.635" y="714.524" width="4.354" height="1.777"/>
					<rect x="561.119" y="714.524" width="4.355" height="1.777"/>
					<rect x="567.604" y="714.524" width="4.354" height="1.777"/>
					<rect x="574.091" y="714.524" width="4.354" height="1.777"/>
					<rect x="580.575" y="714.524" width="4.355" height="1.777"/>
					<rect x="587.063" y="714.524" width="4.354" height="1.777"/>
					<rect x="593.547" y="714.524" width="4.354" height="1.777"/>
				</g>
			</g>
			<g>
				<g>
					<rect x="600.032" y="714.524" width="4.354" height="1.777"/>
					<rect x="606.518" y="714.524" width="4.354" height="1.777"/>
					<rect x="613.002" y="714.524" width="4.355" height="1.777"/>
					<rect x="619.489" y="714.524" width="4.354" height="1.777"/>
					<rect x="625.974" y="714.524" width="4.354" height="1.777"/>
					<polygon points="636.694,716.302 636.92,714.541 632.46,714.524 632.46,716.302 					"/>
					<polygon points="642.928,716.302 643.624,714.575 639.122,714.552 638.742,716.302 					"/>
				</g>
			</g>
			<g>
				<g>
					<path d="M649.068,717.079l1.116-1.597c0,0-0.262-0.1-0.655-0.248c-0.4-0.12-0.938-0.282-1.485-0.392
						c-0.551-0.094-1.101-0.198-1.521-0.205c-0.418-0.029-0.696-0.048-0.696-0.048l-0.85,1.714c0,0,0.262,0.014,0.653,0.033
						c0.395-0.001,0.91,0.09,1.428,0.169c0.514,0.096,1.019,0.24,1.396,0.349C648.822,716.989,649.068,717.079,649.068,717.079z"/>
					<path d="M654.016,720.743l1.456-1.314c0.001-0.001-0.681-0.899-1.535-1.63c-0.399-0.396-0.878-0.696-1.205-0.96
						c-0.348-0.236-0.591-0.375-0.591-0.375l-1.238,1.518c0-0.001,0.229,0.128,0.554,0.347c0.306,0.246,0.755,0.522,1.127,0.894
						C653.382,719.902,654.016,720.742,654.016,720.743z"/>
					<path d="M656.374,726.429l1.683-0.938c-0.001,0.001-0.154-1.108-0.493-2.178c-0.357-1.064-0.886-2.055-0.886-2.056
						l-1.546,1.199c0,0,0.487,0.929,0.809,1.928C656.246,725.388,656.373,726.429,656.374,726.429z"/>
					<polygon points="656.469,732.66 658.211,732.177 658.188,727.676 656.469,728.475 					"/>
					<polygon points="656.469,738.896 658.245,738.882 658.222,734.38 656.469,734.709 					"/>
					<rect x="656.469" y="741.021" width="1.777" height="4.354"/>
					<rect x="656.469" y="747.505" width="1.777" height="4.354"/>
				</g>
			</g>
			<g>
				<g>
					<rect x="656.469" y="753.99" width="1.777" height="4.355"/>
					<rect x="656.469" y="760.476" width="1.777" height="4.355"/>
					<rect x="656.469" y="766.961" width="1.777" height="4.354"/>
					<rect x="656.469" y="773.447" width="1.777" height="4.354"/>
					<rect x="656.469" y="779.932" width="1.777" height="4.354"/>
					<polygon points="656.469,790.654 658.229,790.877 658.246,786.419 656.469,786.419 					"/>
					<polygon points="656.469,796.889 658.195,797.58 658.219,793.079 656.469,792.702 					"/>
				</g>
			</g>
		</g>
	</g>
</g>
<g>
	<path fill-rule="evenodd" clip-rule="evenodd" d="M570.382,792.389c-19.688,0-39.321,0-59,0c0-19.096,0-38.165,0-57.288
		c19.641,0,39.291,0,59,0C570.382,754.16,570.382,773.247,570.382,792.389z M541.925,750.668c0-0.556-0.055-1.118,0.014-1.664
		c0.102-0.8-0.279-1.189-0.96-1.469c-1.819-0.747-3.712-0.975-5.662-0.932c-5.337,0.117-9.337,2.489-11.863,7.18
		c-2.332,4.326-2.483,8.952-1.473,13.653c0.724,3.372,2.375,6.2,5.282,8.179c2.848,1.938,6.05,2.503,9.391,2.084
		c1.602-0.2,3.157-0.794,4.719-1.26c0.615-0.183,0.881-0.65,0.853-1.339c-0.049-1.157-0.008-2.318-0.016-3.477
		c-0.005-0.677-0.141-0.726-0.776-0.546c-1.455,0.408-2.904,0.896-4.39,1.116c-3.664,0.544-6.928-1.313-8.229-4.727
		c-1.335-3.502-1.374-7.09-0.029-10.604c1.275-3.335,3.881-5.023,7.451-4.998c1.693,0.011,3.28,0.465,4.791,1.218
		c0.75,0.373,0.891,0.283,0.897-0.531C541.93,751.924,541.925,751.296,541.925,750.668z M559.462,749.126
		c0-1.333-0.046-2.563,0.018-3.786c0.037-0.706-0.271-1.016-0.879-1.172c-1.26-0.323-2.531-0.354-3.797-0.083
		c-3.305,0.707-5.524,3.203-5.953,6.717c-0.133,1.091-0.16,2.194-0.238,3.344c-0.71,0-1.408,0.021-2.103-0.008
		c-0.45-0.019-0.589,0.153-0.58,0.589c0.023,1.038,0.027,2.077,0,3.115c-0.013,0.476,0.187,0.642,0.627,0.671
		c0.692,0.044,1.382,0.122,2.135,0.191c0,0.273,0,0.51,0,0.747c0.001,5.699,0.011,11.397-0.009,17.097
		c-0.002,0.619,0.144,0.854,0.803,0.832c1.472-0.047,2.947-0.055,4.419,0.002c0.747,0.028,0.935-0.224,0.931-0.946
		c-0.026-5.626-0.013-11.253-0.012-16.88c0-0.28,0-0.56,0-0.855c1.084-0.07,2.067-0.157,3.053-0.191
		c0.614-0.021,0.926-0.194,0.875-0.896c-0.063-0.865-0.062-1.741-0.001-2.606c0.051-0.719-0.22-0.91-0.899-0.875
		c-0.998,0.054-2.002,0.015-3.088,0.015c0.07-1.067,0.076-2.013,0.207-2.938c0.255-1.803,1.359-2.579,3.162-2.302
		C558.532,748.968,558.933,749.038,559.462,749.126z"/>
	<path fill-rule="evenodd" clip-rule="evenodd" fill="#FFFFFF" d="M541.925,750.668c0,0.628,0.004,1.256-0.001,1.884
		c-0.007,0.814-0.148,0.904-0.897,0.531c-1.511-0.753-3.098-1.207-4.791-1.218c-3.57-0.025-6.175,1.663-7.451,4.998
		c-1.345,3.515-1.306,7.103,0.029,10.604c1.301,3.414,4.566,5.271,8.229,4.727c1.485-0.221,2.935-0.708,4.39-1.116
		c0.635-0.18,0.771-0.131,0.776,0.546c0.008,1.158-0.034,2.319,0.016,3.477c0.029,0.688-0.238,1.156-0.853,1.339
		c-1.562,0.466-3.118,1.06-4.719,1.26c-3.341,0.419-6.543-0.146-9.391-2.084c-2.906-1.979-4.558-4.807-5.282-8.179
		c-1.01-4.701-0.858-9.327,1.473-13.653c2.526-4.69,6.526-7.063,11.863-7.18c1.949-0.043,3.843,0.185,5.662,0.932
		c0.681,0.279,1.062,0.669,0.96,1.469C541.87,749.55,541.925,750.112,541.925,750.668z"/>
	<path fill-rule="evenodd" clip-rule="evenodd" fill="#FFFFFF" d="M559.462,749.126c-0.529-0.088-0.93-0.158-1.33-0.22
		c-1.803-0.277-2.907,0.499-3.162,2.302c-0.131,0.926-0.137,1.871-0.207,2.938c1.086,0,2.09,0.039,3.088-0.015
		c0.68-0.035,0.95,0.156,0.899,0.875c-0.061,0.865-0.062,1.741,0.001,2.606c0.051,0.701-0.261,0.874-0.875,0.896
		c-0.985,0.034-1.969,0.121-3.053,0.191c0,0.296,0,0.575,0,0.855c-0.001,5.627-0.015,11.254,0.012,16.88
		c0.004,0.723-0.184,0.975-0.931,0.946c-1.472-0.057-2.947-0.049-4.419-0.002c-0.659,0.021-0.805-0.213-0.803-0.832
		c0.021-5.699,0.01-11.397,0.009-17.097c0-0.237,0-0.474,0-0.747c-0.753-0.069-1.442-0.147-2.135-0.191
		c-0.441-0.029-0.641-0.195-0.627-0.671c0.028-1.038,0.024-2.077,0-3.115c-0.009-0.436,0.13-0.607,0.58-0.589
		c0.695,0.029,1.392,0.008,2.103,0.008c0.079-1.149,0.105-2.253,0.238-3.344c0.428-3.514,2.648-6.01,5.953-6.717
		c1.266-0.271,2.537-0.24,3.797,0.083c0.608,0.156,0.916,0.466,0.879,1.172C559.416,746.563,559.462,747.793,559.462,749.126z"/>
</g>
<text transform="matrix(1 0 0 1 591.9775 746.3887)"><tspan x="0" y="0" fill="#C91F46" font-family="'MyriadPro-Bold'" font-size="19.043">Your</tspan><tspan x="-3.199" y="22.852" fill="#C91F46" font-family="'MyriadPro-Bold'" font-size="19.043">CFML</tspan><tspan x="0.172" y="45.703" fill="#C91F46" font-family="'MyriadPro-Bold'" font-size="19.043">Here</tspan></text>
<g>
	<rect x="553.382" y="703.389" fill-rule="evenodd" clip-rule="evenodd" width="47" height="21"/>
	<g>
		<text transform="matrix(1 0 0 1 558.3818 720.3887)" fill="#FFFFFF" font-family="'MyriadPro-Bold'" font-size="18">WAR</text>
	</g>
</g>
<path d="M244.382,593.389"/>
<g>
	
		<line fill="none" stroke="#000000" stroke-width="4" stroke-miterlimit="10" x1="494.382" y1="517.389" x2="657.382" y2="517.389"/>
	<polygon points="486.382,517.389 497.382,528.389 497.382,508.389 	"/>
	
		<line fill="none" stroke="#000000" stroke-width="4" stroke-miterlimit="10" x1="494.382" y1="496.389" x2="657.382" y2="496.389"/>
	<polygon points="662.382,497.389 651.382,486.389 651.382,506.389 	"/>
</g>
<path fill="none" stroke="#000000" stroke-width="4" stroke-miterlimit="10" d="M529.382,310.389"/>
<path fill="#4B853D" stroke="#000000" stroke-width="2" stroke-miterlimit="10" d="M451.382,651.432
	c0,4.395-5.889,7.957-13.152,7.957H270.534c-7.264,0-13.152-3.563-13.152-7.957V421.346c0-4.395,5.889-7.957,13.152-7.957h167.695
	c7.264,0,13.152,3.563,13.152,7.957V651.432z"/>
<g>
	<text transform="matrix(1 0 0 1 283.2383 403.3887)" font-family="'MyriadPro-Bold'" font-size="19.043">Elastic Beanstalk</text>
</g>
<g>
	<g>
		<path fill="#D2EAD6" d="M441.382,521.389c0,6.627-5.373,12-12,12h-149c-6.627,0-12-5.373-12-12v-81c0-6.627,5.373-12,12-12h149
			c6.627,0,12,5.373,12,12V521.389z"/>
		<g>
			<g>
				<g>
					<g>
						<path d="M439.604,525.314l1.588,1.132c0,0,0.466-1.11,0.718-2.286c0.097-0.591,0.217-1.18,0.224-1.63
							c0.031-0.447,0.051-0.745,0.051-0.745l-1.716-0.847c0,0-0.014,0.28-0.035,0.7c0.001,0.423-0.103,0.976-0.185,1.53
							C440.029,524.272,439.604,525.314,439.604,525.314z"/>
						<path d="M435.463,530.444l1.275,1.488c0,0,0.99-0.689,1.833-1.551c0.409-0.441,0.814-0.885,1.07-1.258
							c0.136-0.181,0.249-0.331,0.328-0.436c0.071-0.11,0.111-0.174,0.111-0.174l-1.5-1.261c0,0-0.037,0.059-0.103,0.163
							c-0.074,0.098-0.179,0.238-0.305,0.407c-0.236,0.35-0.615,0.764-0.996,1.176C436.39,529.804,435.463,530.443,435.463,530.444z
							"/>
						<path d="M429.191,532.463l0.864,1.709c0,0,1.199-0.042,2.369-0.318c1.171-0.271,2.271-0.766,2.271-0.767l-1.147-1.578
							c0,0.001-1.032,0.453-2.131,0.691C430.317,532.443,429.191,532.462,429.191,532.463z"/>
						<polygon points="422.506,532.476 422.869,534.227 427.694,534.202 426.994,532.476 						"/>
						<polygon points="415.747,532.476 415.747,534.253 420.507,534.238 420.31,532.476 						"/>
						<rect x="408.792" y="532.476" width="4.668" height="1.777"/>
						<rect x="401.841" y="532.476" width="4.667" height="1.777"/>
					</g>
				</g>
				<g>
					<g>
						<rect x="394.887" y="532.476" width="4.669" height="1.777"/>
						<rect x="387.934" y="532.476" width="4.668" height="1.777"/>
						<rect x="380.982" y="532.476" width="4.668" height="1.777"/>
						<rect x="374.028" y="532.476" width="4.668" height="1.777"/>
						<rect x="367.076" y="532.476" width="4.668" height="1.777"/>
						<rect x="360.122" y="532.476" width="4.668" height="1.777"/>
						<rect x="353.17" y="532.476" width="4.668" height="1.777"/>
					</g>
				</g>
				<g>
					<g>
						<rect x="346.216" y="532.476" width="4.668" height="1.777"/>
						<rect x="339.263" y="532.476" width="4.669" height="1.777"/>
						<rect x="332.311" y="532.476" width="4.668" height="1.777"/>
						<rect x="325.358" y="532.476" width="4.667" height="1.777"/>
						<rect x="318.405" y="532.476" width="4.669" height="1.777"/>
						<rect x="311.451" y="532.476" width="4.668" height="1.777"/>
						<rect x="304.5" y="532.476" width="4.667" height="1.777"/>
					</g>
				</g>
				<g>
					<g>
						<rect x="297.545" y="532.476" width="4.669" height="1.777"/>
						<polygon points="290.65,532.476 290.542,534.245 295.261,534.253 295.261,532.476 						"/>
						<polygon points="283.965,532.476 283.355,534.208 288.182,534.233 288.454,532.476 						"/>
						<path d="M277.335,531.933l-1.074,1.621c0,0,1.145,0.375,2.334,0.528c1.186,0.137,2.396,0.114,2.396,0.114l0.776-1.721
							c0,0-1.124,0.024-2.241-0.079C278.409,532.271,277.335,531.933,277.335,531.933z"/>
						<path d="M271.887,528.22l-1.446,1.327c0,0,0.769,0.93,1.689,1.707c0.929,0.768,1.979,1.359,1.979,1.359l1.207-1.54
							c0,0-0.984-0.546-1.854-1.26C272.604,529.088,271.887,528.22,271.887,528.22z"/>
						<path d="M269.356,522.132l-1.688,0.924c0,0,0.05,0.296,0.125,0.738c0.051,0.448,0.235,1.021,0.386,1.602
							c0.375,1.143,0.946,2.203,0.946,2.203l1.542-1.203c0,0-0.527-0.994-0.864-2.067c-0.134-0.545-0.3-1.083-0.341-1.503
							C269.399,522.409,269.356,522.132,269.356,522.132z"/>
						<polygon points="269.295,515.45 267.549,515.883 267.574,520.709 269.295,519.938 						"/>
					</g>
				</g>
				<g>
					<g>
						<polygon points="269.295,508.727 267.518,508.727 267.537,513.52 269.295,513.252 						"/>
						<rect x="267.518" y="501.773" width="1.777" height="4.668"/>
						<rect x="267.518" y="494.821" width="1.777" height="4.668"/>
						<rect x="267.518" y="487.867" width="1.777" height="4.668"/>
						<rect x="267.518" y="480.915" width="1.777" height="4.668"/>
						<rect x="267.518" y="473.961" width="1.777" height="4.668"/>
						<rect x="267.518" y="467.01" width="1.777" height="4.668"/>
					</g>
				</g>
				<g>
					<g>
						<rect x="267.518" y="460.056" width="1.777" height="4.668"/>
						<rect x="267.518" y="453.103" width="1.777" height="4.669"/>
						<polygon points="269.295,446.379 267.549,445.949 267.524,450.776 269.295,450.867 						"/>
						<path d="M269.353,439.695l-1.689-0.922c0,0-0.115,1.188-0.09,2.4c-0.006,1.206-0.012,2.412-0.012,2.412l1.734,0.596
							c0,0,0-1.122,0-2.244C269.271,440.814,269.353,439.695,269.353,439.695z"/>
						<path d="M271.857,433.598l-1.448-1.324c0,0-0.761,0.937-1.33,1.998c-0.27,0.537-0.536,1.076-0.676,1.505
							c-0.08,0.211-0.146,0.386-0.193,0.509c-0.045,0.123-0.059,0.197-0.059,0.197l1.627,1.062c0,0,0.078-0.27,0.228-0.663
							c0.126-0.403,0.37-0.908,0.619-1.412C271.149,434.474,271.857,433.598,271.857,433.598z"/>
						<path d="M277.289,429.861l-1.077-1.619c0,0.001-1.141,0.385-2.19,0.977c-0.513,0.313-1.028,0.623-1.376,0.912
							c-0.364,0.267-0.591,0.463-0.591,0.463l1.338,1.436c0,0,0.213-0.183,0.553-0.43c0.326-0.27,0.808-0.557,1.289-0.845
							C276.217,430.209,277.289,429.862,277.289,429.861z"/>
						<path d="M283.914,429.302l-0.614-1.732c0,0-1.207,0.006-2.413,0.013c-0.605-0.009-1.205,0.013-1.65,0.056
							c-0.449,0.019-0.744,0.075-0.744,0.074l0.938,1.684c0,0,0.276-0.048,0.698-0.059c0.42-0.03,0.98-0.044,1.542-0.035
							C282.792,429.302,283.914,429.302,283.914,429.302z"/>
					</g>
				</g>
				<g>
					<g>
						<polygon points="290.601,429.302 290.49,427.532 285.663,427.557 286.112,429.302 						"/>
						<rect x="292.826" y="427.524" width="4.668" height="1.777"/>
						<rect x="299.778" y="427.524" width="4.669" height="1.777"/>
						<rect x="306.732" y="427.524" width="4.667" height="1.777"/>
						<rect x="313.684" y="427.524" width="4.668" height="1.777"/>
						<rect x="320.638" y="427.524" width="4.668" height="1.777"/>
						<rect x="327.59" y="427.524" width="4.667" height="1.777"/>
					</g>
				</g>
				<g>
					<g>
						<rect x="334.543" y="427.524" width="4.668" height="1.777"/>
						<rect x="341.496" y="427.524" width="4.669" height="1.777"/>
						<rect x="348.449" y="427.524" width="4.668" height="1.777"/>
						<rect x="355.403" y="427.524" width="4.667" height="1.777"/>
						<rect x="362.354" y="427.524" width="4.669" height="1.777"/>
						<rect x="369.309" y="427.524" width="4.668" height="1.777"/>
						<rect x="376.261" y="427.524" width="4.668" height="1.777"/>
					</g>
				</g>
				<g>
					<g>
						<rect x="383.214" y="427.524" width="4.668" height="1.777"/>
						<rect x="390.167" y="427.524" width="4.668" height="1.777"/>
						<rect x="397.119" y="427.524" width="4.669" height="1.777"/>
						<rect x="404.074" y="427.524" width="4.667" height="1.777"/>
						<rect x="411.025" y="427.524" width="4.668" height="1.777"/>
						<polygon points="422.457,429.302 422.816,427.551 417.989,427.526 417.969,429.302 						"/>
						<path d="M429.14,429.313l0.86-1.711c0,0-0.298-0.023-0.751-0.019c-0.453-0.002-1.056-0.005-1.659-0.008
							c-1.207-0.007-2.413-0.013-2.413-0.013l-0.524,1.739c0,0,1.122,0,2.244,0c0.561,0,1.122,0,1.542,0
							C428.86,429.296,429.14,429.313,429.14,429.313z"/>
					</g>
				</g>
				<g>
					<g>
						<path d="M435.424,431.304l1.273-1.491c0,0-0.997-0.679-2.097-1.169c-1.105-0.477-2.277-0.747-2.277-0.747l-1.002,1.656
							c0,0,1.1,0.237,2.138,0.674C434.49,430.675,435.424,431.304,435.424,431.304z"/>
						<path d="M439.587,436.416l1.586-1.135c0,0-0.478-1.105-1.147-2.107c-0.679-0.995-1.524-1.855-1.524-1.855l-1.391,1.387
							c0,0,0.79,0.803,1.419,1.735C439.15,435.379,439.587,436.416,439.587,436.416z"/>
						<path d="M440.469,442.985l1.728-0.685c0,0-0.01-1.206-0.019-2.412c-0.045-0.597-0.062-1.196-0.161-1.637
							c-0.075-0.442-0.125-0.738-0.125-0.738l-1.658,0.998c0,0,0.042,0.277,0.106,0.693c0.087,0.414,0.091,0.977,0.124,1.536
							C440.466,441.863,440.469,442.985,440.469,442.985z"/>
						<polygon points="440.469,449.671 442.233,449.489 442.208,444.664 440.469,445.184 						"/>
						<polygon points="440.469,456.527 442.246,456.527 442.245,451.851 440.469,451.867 						"/>
						<rect x="440.469" y="458.813" width="1.777" height="4.669"/>
						<rect x="440.469" y="465.765" width="1.777" height="4.668"/>
					</g>
				</g>
				<g>
					<g>
						<rect x="440.469" y="472.718" width="1.777" height="4.669"/>
						<rect x="440.469" y="479.671" width="1.777" height="4.669"/>
						<rect x="440.469" y="486.623" width="1.777" height="4.669"/>
						<rect x="440.469" y="493.577" width="1.777" height="4.668"/>
						<rect x="440.469" y="500.529" width="1.777" height="4.669"/>
						<polygon points="440.469,512.057 442.233,512.234 442.246,507.483 440.469,507.483 						"/>
						<polygon points="440.469,518.74 442.196,519.422 442.221,514.596 440.469,514.253 						"/>
					</g>
				</g>
			</g>
		</g>
	</g>
	<g>
		<text transform="matrix(1 0 0 1 288.7656 447.3887)" font-family="'MyriadPro-Regular'" font-size="19.043">Availability Zone</text>
	</g>
	<g>
		<path fill="#98CE83" stroke="#000000" stroke-width="2" stroke-miterlimit="10" d="M427.037,504.623
			c0,9.811-7.955,17.766-17.766,17.766h-31.09c-9.811,0-17.764-7.955-17.764-17.766v-31.088c0-9.811,7.953-17.766,17.764-17.766
			h31.09c9.811,0,17.766,7.955,17.766,17.766V504.623z"/>
		<text transform="matrix(1 0 0 1 378.0645 494.668)" font-family="'MyriadPro-Regular'" font-size="19.043">EC2</text>
	</g>
	<g>
		<path fill="#98CE83" stroke="#000000" stroke-width="2" stroke-miterlimit="10" d="M349.001,504.623
			c0,9.811-7.955,17.766-17.766,17.766h-31.09c-9.811,0-17.764-7.955-17.764-17.766v-31.088c0-9.811,7.953-17.766,17.764-17.766
			h31.09c9.811,0,17.766,7.955,17.766,17.766V504.623z"/>
		<text transform="matrix(1 0 0 1 300.0288 494.668)" font-family="'MyriadPro-Regular'" font-size="19.043">EC2</text>
	</g>
</g>
<g>
	<g>
		<path fill="#D2EAD6" d="M441.382,639.389c0,6.627-5.373,12-12,12h-149c-6.627,0-12-5.373-12-12v-81c0-6.627,5.373-12,12-12h149
			c6.627,0,12,5.373,12,12V639.389z"/>
		<g>
			<g>
				<g>
					<g>
						<path d="M439.604,643.314l1.588,1.132c0,0,0.466-1.11,0.718-2.286c0.097-0.591,0.217-1.18,0.224-1.629
							c0.031-0.448,0.051-0.746,0.051-0.746l-1.716-0.847c0,0-0.014,0.28-0.035,0.7c0.001,0.423-0.103,0.976-0.185,1.53
							C440.029,642.272,439.604,643.314,439.604,643.314z"/>
						<path d="M435.463,648.444l1.275,1.488c0,0,0.99-0.689,1.833-1.551c0.409-0.441,0.814-0.885,1.07-1.258
							c0.136-0.181,0.249-0.331,0.328-0.436c0.071-0.11,0.111-0.174,0.111-0.174l-1.5-1.261c0,0-0.037,0.059-0.103,0.163
							c-0.074,0.098-0.179,0.238-0.305,0.407c-0.236,0.35-0.615,0.764-0.996,1.176C436.39,647.804,435.463,648.443,435.463,648.444z
							"/>
						<path d="M429.191,650.463l0.864,1.709c0,0,1.199-0.042,2.369-0.318c1.171-0.271,2.271-0.766,2.271-0.767l-1.147-1.578
							c0,0.001-1.032,0.453-2.131,0.691C430.317,650.443,429.191,650.462,429.191,650.463z"/>
						<polygon points="422.506,650.476 422.869,652.227 427.694,652.202 426.994,650.476 						"/>
						<polygon points="415.747,650.476 415.747,652.253 420.507,652.238 420.31,650.476 						"/>
						<rect x="408.792" y="650.476" width="4.668" height="1.777"/>
						<rect x="401.841" y="650.476" width="4.667" height="1.777"/>
					</g>
				</g>
				<g>
					<g>
						<rect x="394.887" y="650.476" width="4.669" height="1.777"/>
						<rect x="387.934" y="650.476" width="4.668" height="1.777"/>
						<rect x="380.982" y="650.476" width="4.668" height="1.777"/>
						<rect x="374.028" y="650.476" width="4.668" height="1.777"/>
						<rect x="367.076" y="650.476" width="4.668" height="1.777"/>
						<rect x="360.122" y="650.476" width="4.668" height="1.777"/>
						<rect x="353.17" y="650.476" width="4.668" height="1.777"/>
					</g>
				</g>
				<g>
					<g>
						<rect x="346.216" y="650.476" width="4.668" height="1.777"/>
						<rect x="339.263" y="650.476" width="4.669" height="1.777"/>
						<rect x="332.311" y="650.476" width="4.668" height="1.777"/>
						<rect x="325.358" y="650.476" width="4.667" height="1.777"/>
						<rect x="318.405" y="650.476" width="4.669" height="1.777"/>
						<rect x="311.451" y="650.476" width="4.668" height="1.777"/>
						<rect x="304.5" y="650.476" width="4.667" height="1.777"/>
					</g>
				</g>
				<g>
					<g>
						<rect x="297.545" y="650.476" width="4.669" height="1.777"/>
						<polygon points="290.65,650.476 290.542,652.245 295.261,652.253 295.261,650.476 						"/>
						<polygon points="283.965,650.476 283.355,652.208 288.182,652.233 288.454,650.476 						"/>
						<path d="M277.335,649.933l-1.074,1.621c0,0,1.145,0.375,2.334,0.528c1.186,0.137,2.396,0.114,2.396,0.114l0.776-1.721
							c0,0-1.124,0.024-2.241-0.079C278.409,650.271,277.335,649.933,277.335,649.933z"/>
						<path d="M271.887,646.22l-1.446,1.327c0,0,0.769,0.93,1.689,1.707c0.929,0.768,1.979,1.359,1.979,1.359l1.207-1.54
							c0,0-0.984-0.546-1.854-1.26C272.604,647.088,271.887,646.22,271.887,646.22z"/>
						<path d="M269.356,640.132l-1.688,0.924c0,0,0.05,0.296,0.125,0.738c0.051,0.448,0.235,1.021,0.386,1.602
							c0.375,1.143,0.946,2.203,0.946,2.203l1.542-1.203c0,0-0.527-0.994-0.864-2.067c-0.134-0.545-0.3-1.083-0.341-1.503
							C269.399,640.409,269.356,640.132,269.356,640.132z"/>
						<polygon points="269.295,633.45 267.549,633.883 267.574,638.709 269.295,637.938 						"/>
					</g>
				</g>
				<g>
					<g>
						<polygon points="269.295,626.727 267.518,626.727 267.537,631.52 269.295,631.252 						"/>
						<rect x="267.518" y="619.773" width="1.777" height="4.668"/>
						<rect x="267.518" y="612.821" width="1.777" height="4.668"/>
						<rect x="267.518" y="605.867" width="1.777" height="4.668"/>
						<rect x="267.518" y="598.915" width="1.777" height="4.668"/>
						<rect x="267.518" y="591.961" width="1.777" height="4.668"/>
						<rect x="267.518" y="585.01" width="1.777" height="4.668"/>
					</g>
				</g>
				<g>
					<g>
						<rect x="267.518" y="578.056" width="1.777" height="4.668"/>
						<rect x="267.518" y="571.103" width="1.777" height="4.669"/>
						<polygon points="269.295,564.379 267.549,563.949 267.524,568.776 269.295,568.867 						"/>
						<path d="M269.353,557.695l-1.689-0.922c0,0-0.115,1.188-0.09,2.4c-0.006,1.206-0.012,2.412-0.012,2.412l1.734,0.596
							c0,0,0-1.122,0-2.244C269.271,558.814,269.353,557.695,269.353,557.695z"/>
						<path d="M271.857,551.598l-1.448-1.324c0,0-0.761,0.937-1.33,1.998c-0.27,0.537-0.536,1.076-0.676,1.505
							c-0.08,0.211-0.146,0.386-0.193,0.509c-0.045,0.123-0.059,0.197-0.059,0.197l1.627,1.062c0,0,0.078-0.27,0.228-0.663
							c0.126-0.403,0.37-0.908,0.619-1.412C271.149,552.474,271.857,551.598,271.857,551.598z"/>
						<path d="M277.289,547.861l-1.077-1.619c0,0.001-1.141,0.385-2.19,0.977c-0.513,0.313-1.028,0.623-1.376,0.912
							c-0.364,0.267-0.591,0.463-0.591,0.463l1.338,1.436c0,0,0.213-0.183,0.553-0.43c0.326-0.27,0.808-0.557,1.289-0.845
							C276.217,548.209,277.289,547.862,277.289,547.861z"/>
						<path d="M283.914,547.302l-0.614-1.732c0,0-1.207,0.006-2.413,0.013c-0.605-0.009-1.205,0.013-1.65,0.056
							c-0.449,0.019-0.744,0.075-0.744,0.074l0.938,1.684c0,0,0.276-0.048,0.698-0.059c0.42-0.03,0.98-0.044,1.542-0.035
							C282.792,547.302,283.914,547.302,283.914,547.302z"/>
					</g>
				</g>
				<g>
					<g>
						<polygon points="290.601,547.302 290.49,545.532 285.663,545.557 286.112,547.302 						"/>
						<rect x="292.826" y="545.524" width="4.668" height="1.777"/>
						<rect x="299.778" y="545.524" width="4.669" height="1.777"/>
						<rect x="306.732" y="545.524" width="4.667" height="1.777"/>
						<rect x="313.684" y="545.524" width="4.668" height="1.777"/>
						<rect x="320.638" y="545.524" width="4.668" height="1.777"/>
						<rect x="327.59" y="545.524" width="4.667" height="1.777"/>
					</g>
				</g>
				<g>
					<g>
						<rect x="334.543" y="545.524" width="4.668" height="1.777"/>
						<rect x="341.496" y="545.524" width="4.669" height="1.777"/>
						<rect x="348.449" y="545.524" width="4.668" height="1.777"/>
						<rect x="355.403" y="545.524" width="4.667" height="1.777"/>
						<rect x="362.354" y="545.524" width="4.669" height="1.777"/>
						<rect x="369.309" y="545.524" width="4.668" height="1.777"/>
						<rect x="376.261" y="545.524" width="4.668" height="1.777"/>
					</g>
				</g>
				<g>
					<g>
						<rect x="383.214" y="545.524" width="4.668" height="1.777"/>
						<rect x="390.167" y="545.524" width="4.668" height="1.777"/>
						<rect x="397.119" y="545.524" width="4.669" height="1.777"/>
						<rect x="404.074" y="545.524" width="4.667" height="1.777"/>
						<rect x="411.025" y="545.524" width="4.668" height="1.777"/>
						<polygon points="422.457,547.302 422.816,545.551 417.989,545.526 417.969,547.302 						"/>
						<path d="M429.14,547.313l0.86-1.711c0,0-0.298-0.023-0.751-0.019c-0.453-0.002-1.056-0.005-1.659-0.008
							c-1.207-0.007-2.413-0.013-2.413-0.013l-0.524,1.739c0,0,1.122,0,2.244,0c0.561,0,1.122,0,1.542,0
							C428.86,547.296,429.14,547.313,429.14,547.313z"/>
					</g>
				</g>
				<g>
					<g>
						<path d="M435.424,549.304l1.273-1.491c0,0-0.997-0.679-2.097-1.169c-1.105-0.477-2.277-0.747-2.277-0.747l-1.002,1.656
							c0,0,1.1,0.238,2.138,0.674C434.49,548.675,435.424,549.304,435.424,549.304z"/>
						<path d="M439.587,554.416l1.586-1.135c0,0-0.478-1.105-1.147-2.107c-0.679-0.995-1.524-1.855-1.524-1.855l-1.391,1.387
							c0,0,0.79,0.803,1.419,1.735C439.15,553.379,439.587,554.416,439.587,554.416z"/>
						<path d="M440.469,560.985l1.728-0.685c0,0-0.01-1.206-0.019-2.412c-0.045-0.597-0.062-1.196-0.161-1.637
							c-0.075-0.443-0.125-0.738-0.125-0.738l-1.658,0.998c0,0,0.042,0.277,0.106,0.693c0.087,0.414,0.091,0.977,0.124,1.536
							C440.466,559.863,440.469,560.985,440.469,560.985z"/>
						<polygon points="440.469,567.671 442.233,567.489 442.208,562.664 440.469,563.184 						"/>
						<polygon points="440.469,574.527 442.246,574.527 442.245,569.852 440.469,569.867 						"/>
						<rect x="440.469" y="576.813" width="1.777" height="4.669"/>
						<rect x="440.469" y="583.765" width="1.777" height="4.668"/>
					</g>
				</g>
				<g>
					<g>
						<rect x="440.469" y="590.718" width="1.777" height="4.669"/>
						<rect x="440.469" y="597.671" width="1.777" height="4.669"/>
						<rect x="440.469" y="604.623" width="1.777" height="4.669"/>
						<rect x="440.469" y="611.577" width="1.777" height="4.668"/>
						<rect x="440.469" y="618.529" width="1.777" height="4.669"/>
						<polygon points="440.469,630.057 442.233,630.234 442.246,625.483 440.469,625.483 						"/>
						<polygon points="440.469,636.74 442.196,637.422 442.221,632.596 440.469,632.253 						"/>
					</g>
				</g>
			</g>
		</g>
	</g>
	<g>
		<text transform="matrix(1 0 0 1 288.7656 565.3887)" font-family="'MyriadPro-Regular'" font-size="19.043">Availability Zone</text>
	</g>
	<g>
		<path fill="#98CE83" stroke="#000000" stroke-width="2" stroke-miterlimit="10" d="M427.037,622.623
			c0,9.811-7.955,17.766-17.766,17.766h-31.09c-9.811,0-17.764-7.955-17.764-17.766v-31.088c0-9.811,7.953-17.766,17.764-17.766
			h31.09c9.811,0,17.766,7.955,17.766,17.766V622.623z"/>
		<text transform="matrix(1 0 0 1 378.0645 612.668)" font-family="'MyriadPro-Regular'" font-size="19.043">EC2</text>
	</g>
	<g>
		<path fill="#98CE83" stroke="#000000" stroke-width="2" stroke-miterlimit="10" d="M349.001,622.623
			c0,9.811-7.955,17.766-17.766,17.766h-31.09c-9.811,0-17.764-7.955-17.764-17.766v-31.088c0-9.811,7.953-17.766,17.764-17.766
			h31.09c9.811,0,17.766,7.955,17.766,17.766V622.623z"/>
		<text transform="matrix(1 0 0 1 300.0288 612.668)" font-family="'MyriadPro-Regular'" font-size="19.043">EC2</text>
	</g>
</g>
</svg>
