<?xml version="1.0" encoding="utf-8"?>
<!-- Generator: Adobe Illustrator 16.0.0, SVG Export Plug-In . SVG Version: 6.00 Build 0)  -->
<!DOCTYPE svg PUBLIC "-//W3C//DTD SVG 1.1//EN" "http://www.w3.org/Graphics/SVG/1.1/DTD/svg11.dtd">
<svg version="1.1" id="Layer_1" xmlns="http://www.w3.org/2000/svg" xmlns:xlink="http://www.w3.org/1999/xlink" x="0px" y="0px"
	 width="353.333px" height="186.666px" viewBox="0 0 353.333 186.666" enable-background="new 0 0 353.333 186.666"
	 xml:space="preserve">
<path fill="none" stroke="#31459C" stroke-width="5" stroke-miterlimit="10" d="M147,45c0,0,28-5,33-15c5-10,9-27,32-20s36,65,3,66
	s-57,10-37,28c20,18,43,20,43,20"/>
<rect x="257" y="76" fill="#999999" stroke="#000000" stroke-width="2" stroke-miterlimit="10" width="83" height="24"/>
<polyline fill="#999999" stroke="#000000" stroke-width="2" stroke-miterlimit="10" points="256.5,75.5 213,119 213,143 256,100 
	256,77 "/>
<ellipse fill="#6D6D6D" stroke="#000000" stroke-width="2" stroke-miterlimit="10" cx="287" cy="121.5" rx="14.5" ry="5"/>
<ellipse fill="#6D6D6D" stroke="#000000" stroke-width="2" stroke-miterlimit="10" cx="256" cy="121.5" rx="14.5" ry="5"/>
<ellipse fill="#6D6D6D" stroke="#000000" stroke-width="2" stroke-miterlimit="10" cx="273.5" cy="135" rx="14.5" ry="5"/>
<ellipse fill="#6D6D6D" stroke="#000000" stroke-width="2" stroke-miterlimit="10" cx="242.5" cy="135" rx="14.5" ry="5"/>
<ellipse fill="#6D6D6D" stroke="#000000" stroke-width="2" stroke-miterlimit="10" cx="299.5" cy="109" rx="14.5" ry="5"/>
<ellipse fill="#6D6D6D" stroke="#000000" stroke-width="2" stroke-miterlimit="10" cx="268.5" cy="109" rx="14.5" ry="5"/>
<ellipse fill="#6D6D6D" stroke="#000000" stroke-width="2" stroke-miterlimit="10" cx="287" cy="116.5" rx="14.5" ry="5"/>
<ellipse fill="#6D6D6D" stroke="#000000" stroke-width="2" stroke-miterlimit="10" cx="256" cy="116.5" rx="14.5" ry="5"/>
<ellipse fill="#6D6D6D" stroke="#000000" stroke-width="2" stroke-miterlimit="10" cx="273.5" cy="130" rx="14.5" ry="5"/>
<ellipse fill="#6D6D6D" stroke="#000000" stroke-width="2" stroke-miterlimit="10" cx="242.5" cy="130" rx="14.5" ry="5"/>
<ellipse fill="#6D6D6D" stroke="#000000" stroke-width="2" stroke-miterlimit="10" cx="299.5" cy="104" rx="14.5" ry="5"/>
<ellipse fill="#6D6D6D" stroke="#000000" stroke-width="2" stroke-miterlimit="10" cx="268.5" cy="104" rx="14.5" ry="5"/>
<ellipse fill="#6D6D6D" stroke="#000000" stroke-width="2" stroke-miterlimit="10" cx="287" cy="112.5" rx="14.5" ry="5"/>
<ellipse fill="#6D6D6D" stroke="#000000" stroke-width="2" stroke-miterlimit="10" cx="256" cy="112.5" rx="14.5" ry="5"/>
<ellipse fill="#6D6D6D" stroke="#000000" stroke-width="2" stroke-miterlimit="10" cx="273.5" cy="126" rx="14.5" ry="5"/>
<ellipse fill="#6D6D6D" stroke="#000000" stroke-width="2" stroke-miterlimit="10" cx="242.5" cy="126" rx="14.5" ry="5"/>
<ellipse fill="#6D6D6D" stroke="#000000" stroke-width="2" stroke-miterlimit="10" cx="299.5" cy="100" rx="14.5" ry="5"/>
<ellipse fill="#6D6D6D" stroke="#000000" stroke-width="2" stroke-miterlimit="10" cx="268.5" cy="100" rx="14.5" ry="5"/>
<ellipse fill="#6D6D6D" stroke="#000000" stroke-width="2" stroke-miterlimit="10" cx="287" cy="107.5" rx="14.5" ry="5"/>
<ellipse fill="#6D6D6D" stroke="#000000" stroke-width="2" stroke-miterlimit="10" cx="256" cy="107.5" rx="14.5" ry="5"/>
<ellipse fill="#6D6D6D" stroke="#000000" stroke-width="2" stroke-miterlimit="10" cx="273.5" cy="121" rx="14.5" ry="5"/>
<ellipse fill="#6D6D6D" stroke="#000000" stroke-width="2" stroke-miterlimit="10" cx="242.5" cy="121" rx="14.5" ry="5"/>
<ellipse fill="#6D6D6D" stroke="#000000" stroke-width="2" stroke-miterlimit="10" cx="299.5" cy="95" rx="14.5" ry="5"/>
<ellipse fill="#6D6D6D" stroke="#000000" stroke-width="2" stroke-miterlimit="10" cx="268.5" cy="95" rx="14.5" ry="5"/>
<ellipse fill="#6D6D6D" stroke="#000000" stroke-width="2" stroke-miterlimit="10" cx="287" cy="103.5" rx="14.5" ry="5"/>
<ellipse fill="#ED1C24" stroke="#000000" stroke-width="2" stroke-miterlimit="10" cx="256" cy="103.5" rx="14.5" ry="5"/>
<ellipse fill="#6D6D6D" stroke="#000000" stroke-width="2" stroke-miterlimit="10" cx="273.5" cy="117" rx="14.5" ry="5"/>
<ellipse fill="#6D6D6D" stroke="#000000" stroke-width="2" stroke-miterlimit="10" cx="242.5" cy="117" rx="14.5" ry="5"/>
<ellipse fill="#6D6D6D" stroke="#000000" stroke-width="2" stroke-miterlimit="10" cx="299.5" cy="91" rx="14.5" ry="5"/>
<ellipse fill="#6D6D6D" stroke="#000000" stroke-width="2" stroke-miterlimit="10" cx="268.5" cy="91" rx="14.5" ry="5"/>
<ellipse fill="#6D6D6D" stroke="#000000" stroke-width="2" stroke-miterlimit="10" cx="287" cy="97.5" rx="14.5" ry="5"/>
<ellipse fill="#ED1C24" stroke="#000000" stroke-width="2" stroke-miterlimit="10" cx="256" cy="97.5" rx="14.5" ry="5"/>
<ellipse fill="#6D6D6D" stroke="#000000" stroke-width="2" stroke-miterlimit="10" cx="273.5" cy="111" rx="14.5" ry="5"/>
<ellipse fill="#6D6D6D" stroke="#000000" stroke-width="2" stroke-miterlimit="10" cx="242.5" cy="111" rx="14.5" ry="5"/>
<ellipse fill="#6D6D6D" stroke="#000000" stroke-width="2" stroke-miterlimit="10" cx="299.5" cy="85" rx="14.5" ry="5"/>
<ellipse fill="#6D6D6D" stroke="#000000" stroke-width="2" stroke-miterlimit="10" cx="268.5" cy="85" rx="14.5" ry="5"/>
<polyline fill="#999999" stroke="#000000" stroke-width="2" stroke-miterlimit="10" points="341,75.5 297.5,119 297.5,143 
	340.5,100 340.5,77 "/>
<text transform="matrix(1 0 0 1 65.999 30)" font-family="'MyriadPro-Bold'" font-size="19.043">EC2</text>
<g>
	<path fill="#98CE83" stroke="#000000" stroke-width="2" stroke-miterlimit="10" d="M150.991,87.854
		c0,9.811-7.955,17.766-17.766,17.766h-31.09c-9.811,0-17.764-7.955-17.764-17.766V56.765c0-9.811,7.953-17.765,17.764-17.765h31.09
		c9.811,0,17.766,7.955,17.766,17.765V87.854z"/>
	<path fill="#98CE83" stroke="#000000" stroke-width="2" stroke-miterlimit="10" d="M80.836,87.854
		c0,9.811-7.955,17.766-17.766,17.766h-31.09c-9.811,0-17.764-7.955-17.764-17.766V56.765C14.217,46.955,22.17,39,31.981,39h31.09
		c9.811,0,17.766,7.955,17.766,17.765V87.854z"/>
	<path fill="#98CE83" stroke="#000000" stroke-width="2" stroke-miterlimit="10" d="M80.836,158.234
		c0,9.811-7.955,17.766-17.766,17.766h-31.09c-9.811,0-17.764-7.955-17.764-17.766v-31.088c0-9.811,7.953-17.766,17.764-17.766
		h31.09c9.811,0,17.766,7.955,17.766,17.766V158.234z"/>
	<path fill="#98CE83" stroke="#000000" stroke-width="2" stroke-miterlimit="10" d="M150.991,158.234
		c0,9.811-7.955,17.766-17.766,17.766h-31.09c-9.811,0-17.764-7.955-17.764-17.766v-31.088c0-9.811,7.953-17.766,17.764-17.766
		h31.09c9.811,0,17.766,7.955,17.766,17.766V158.234z"/>
	<text transform="matrix(1 0 0 1 100.3623 67)"><tspan x="0" y="0" font-family="'MyriadPro-Regular'" font-size="19.043">CPU</tspan><tspan x="-1.857" y="22.852" font-family="'MyriadPro-Regular'" font-size="19.043">RAM</tspan></text>
	<text transform="matrix(1 0 0 1 30.2075 67)"><tspan x="0" y="0" font-family="'MyriadPro-Regular'" font-size="19.043">CPU</tspan><tspan x="-1.857" y="22.852" font-family="'MyriadPro-Regular'" font-size="19.043">RAM</tspan></text>
	<text transform="matrix(1 0 0 1 30.2075 138)"><tspan x="0" y="0" font-family="'MyriadPro-Regular'" font-size="19.043">CPU</tspan><tspan x="-1.857" y="22.852" font-family="'MyriadPro-Regular'" font-size="19.043">RAM</tspan></text>
	<text transform="matrix(1 0 0 1 100.3623 138)"><tspan x="0" y="0" font-family="'MyriadPro-Regular'" font-size="19.043">CPU</tspan><tspan x="-1.857" y="22.852" font-family="'MyriadPro-Regular'" font-size="19.043">RAM</tspan></text>
</g>
<text transform="matrix(1 0 0 1 277.6421 67)" font-family="'MyriadPro-Bold'" font-size="19.043">EBS</text>
<text transform="matrix(1 0 0 1 212.5728 164)" font-family="'MyriadPro-Regular'" font-size="11.6833">Disk access over network</text>
<rect x="214" y="119" fill="none" stroke="#000000" stroke-width="2" stroke-miterlimit="10" width="83" height="25"/>
<path fill="none" stroke="#000000" stroke-width="2" stroke-miterlimit="10" d="M213,119"/>
<path fill="#6D6D6D" stroke="#000000" stroke-width="2" stroke-miterlimit="10" d="M297,120"/>
</svg>
