<?xml version="1.0" encoding="utf-8"?>
<!-- Generator: Adobe Illustrator 16.0.0, SVG Export Plug-In . SVG Version: 6.00 Build 0)  -->
<!DOCTYPE svg PUBLIC "-//W3C//DTD SVG 1.1//EN" "http://www.w3.org/Graphics/SVG/1.1/DTD/svg11.dtd">
<svg version="1.1" id="Layer_1" xmlns="http://www.w3.org/2000/svg" xmlns:xlink="http://www.w3.org/1999/xlink" x="0px" y="0px"
	 width="423.333px" height="446.667px" viewBox="0 0 423.333 446.667" enable-background="new 0 0 423.333 446.667"
	 xml:space="preserve">
<path fill="#4B853D" stroke="#000000" stroke-width="2" stroke-miterlimit="10" d="M199,270.709c0,4.395-5.889,7.957-13.152,7.957
	H18.152c-7.264,0-13.152-3.563-13.152-7.957V40.624c0-4.395,5.889-7.957,13.152-7.957h167.695c7.264,0,13.152,3.563,13.152,7.957
	V270.709z"/>
<g>
	<text transform="matrix(1 0 0 1 30.8564 22.6665)" font-family="'MyriadPro-Bold'" font-size="19.043">Elastic Beanstalk</text>
</g>
<g>
	<g>
		<path fill="#D2EAD6" d="M189,140.667c0,6.627-5.373,12-12,12H28c-6.627,0-12-5.373-12-12v-81c0-6.627,5.373-12,12-12h149
			c6.627,0,12,5.373,12,12V140.667z"/>
		<g>
			<g>
				<g>
					<g>
						<path d="M187.222,144.592l1.588,1.132c0,0,0.466-1.11,0.718-2.286c0.097-0.591,0.217-1.18,0.224-1.63
							c0.031-0.448,0.051-0.746,0.051-0.746l-1.716-0.847c0,0-0.014,0.28-0.035,0.701c0.001,0.422-0.103,0.975-0.185,1.53
							C187.647,143.55,187.222,144.592,187.222,144.592z"/>
						<path d="M183.082,149.722l1.275,1.489c0,0,0.99-0.69,1.833-1.551c0.409-0.441,0.814-0.885,1.07-1.258
							c0.136-0.18,0.249-0.33,0.328-0.435c0.071-0.111,0.111-0.174,0.111-0.174l-1.5-1.261c0,0-0.037,0.06-0.103,0.163
							c-0.074,0.098-0.179,0.239-0.305,0.407c-0.236,0.35-0.615,0.764-0.996,1.176C184.008,149.082,183.081,149.722,183.082,149.722
							z"/>
						<path d="M176.809,151.74l0.864,1.71c0-0.001,1.199-0.043,2.369-0.319c1.171-0.271,2.271-0.766,2.271-0.767l-1.147-1.578
							c0,0-1.032,0.453-2.131,0.691C177.936,151.721,176.809,151.74,176.809,151.74z"/>
						<polygon points="170.125,151.753 170.487,153.504 175.313,153.479 174.612,151.753 						"/>
						<polygon points="163.364,151.753 163.364,153.531 168.125,153.517 167.928,151.753 						"/>
						<rect x="156.411" y="151.753" width="4.668" height="1.777"/>
						<rect x="149.459" y="151.753" width="4.667" height="1.777"/>
					</g>
				</g>
				<g>
					<g>
						<rect x="142.505" y="151.753" width="4.669" height="1.777"/>
						<rect x="135.552" y="151.753" width="4.668" height="1.777"/>
						<rect x="128.6" y="151.753" width="4.668" height="1.777"/>
						<rect x="121.646" y="151.753" width="4.668" height="1.777"/>
						<rect x="114.694" y="151.753" width="4.668" height="1.777"/>
						<rect x="107.74" y="151.753" width="4.668" height="1.777"/>
						<rect x="100.789" y="151.753" width="4.667" height="1.777"/>
					</g>
				</g>
				<g>
					<g>
						<rect x="93.834" y="151.753" width="4.668" height="1.777"/>
						<rect x="86.881" y="151.753" width="4.669" height="1.777"/>
						<rect x="79.929" y="151.753" width="4.668" height="1.777"/>
						<rect x="72.976" y="151.753" width="4.667" height="1.777"/>
						<rect x="66.023" y="151.753" width="4.669" height="1.777"/>
						<rect x="59.069" y="151.753" width="4.668" height="1.777"/>
						<rect x="52.118" y="151.753" width="4.667" height="1.777"/>
					</g>
				</g>
				<g>
					<g>
						<rect x="45.164" y="151.753" width="4.668" height="1.777"/>
						<polygon points="38.268,151.753 38.161,153.523 42.879,153.531 42.879,151.753 						"/>
						<polygon points="31.583,151.753 30.973,153.486 35.8,153.511 36.072,151.753 						"/>
						<path d="M24.953,151.21l-1.074,1.621c0,0,1.144,0.376,2.334,0.529c1.186,0.137,2.396,0.113,2.396,0.114l0.776-1.721
							c0,0-1.124,0.024-2.241-0.079C26.027,151.549,24.953,151.21,24.953,151.21z"/>
						<path d="M19.505,147.498l-1.446,1.327c0,0,0.769,0.929,1.689,1.707c0.929,0.768,1.979,1.359,1.979,1.359l1.207-1.54
							c0,0-0.984-0.546-1.854-1.26C20.222,148.366,19.505,147.498,19.505,147.498z"/>
						<path d="M16.975,141.409l-1.688,0.924c0,0,0.05,0.295,0.125,0.738c0.051,0.448,0.235,1.021,0.386,1.601
							c0.374,1.143,0.946,2.204,0.946,2.204l1.542-1.203c0,0-0.527-0.994-0.864-2.068c-0.134-0.544-0.3-1.082-0.341-1.503
							C17.017,141.687,16.975,141.409,16.975,141.409z"/>
						<polygon points="16.913,134.728 15.167,135.161 15.192,139.987 16.913,139.215 						"/>
					</g>
				</g>
				<g>
					<g>
						<polygon points="16.913,128.004 15.136,128.004 15.155,132.798 16.913,132.53 						"/>
						<rect x="15.136" y="121.051" width="1.777" height="4.669"/>
						<rect x="15.136" y="114.099" width="1.777" height="4.668"/>
						<rect x="15.136" y="107.146" width="1.777" height="4.667"/>
						<rect x="15.136" y="100.192" width="1.777" height="4.669"/>
						<rect x="15.136" y="93.239" width="1.777" height="4.668"/>
						<rect x="15.136" y="86.288" width="1.777" height="4.667"/>
					</g>
				</g>
				<g>
					<g>
						<rect x="15.136" y="79.333" width="1.777" height="4.669"/>
						<rect x="15.136" y="72.38" width="1.777" height="4.668"/>
						<polygon points="16.913,65.657 15.167,65.227 15.143,70.054 16.913,70.145 						"/>
						<path d="M16.971,58.973l-1.689-0.921c0,0-0.115,1.188-0.09,2.399c-0.006,1.207-0.012,2.413-0.012,2.413l1.734,0.595
							c0,0,0-1.122,0-2.244C16.89,60.092,16.971,58.973,16.971,58.973z"/>
						<path d="M19.475,52.875l-1.448-1.324c0,0-0.761,0.937-1.33,1.998c-0.27,0.537-0.536,1.076-0.676,1.505
							c-0.08,0.21-0.146,0.386-0.193,0.509c-0.045,0.123-0.059,0.197-0.059,0.197l1.627,1.061c0,0,0.078-0.269,0.228-0.663
							c0.125-0.403,0.37-0.908,0.618-1.412C18.767,53.751,19.476,52.875,19.475,52.875z"/>
						<path d="M24.907,49.14l-1.077-1.619c0,0-1.141,0.384-2.19,0.976c-0.513,0.313-1.028,0.623-1.376,0.912
							c-0.364,0.267-0.591,0.463-0.591,0.463l1.338,1.436c0,0,0.213-0.183,0.553-0.43c0.325-0.269,0.808-0.556,1.289-0.845
							C23.835,49.486,24.907,49.14,24.907,49.14z"/>
						<path d="M31.532,48.58l-0.614-1.732c0,0-1.207,0.006-2.413,0.012c-0.605-0.009-1.205,0.013-1.65,0.056
							c-0.449,0.019-0.744,0.075-0.744,0.075l0.938,1.683c0,0,0.276-0.048,0.698-0.058c0.42-0.03,0.98-0.044,1.542-0.036
							C30.41,48.58,31.532,48.58,31.532,48.58z"/>
					</g>
				</g>
				<g>
					<g>
						<polygon points="38.219,48.58 38.108,46.811 33.281,46.835 33.73,48.58 						"/>
						<rect x="40.444" y="46.802" width="4.668" height="1.777"/>
						<rect x="47.396" y="46.802" width="4.669" height="1.777"/>
						<rect x="54.351" y="46.802" width="4.667" height="1.777"/>
						<rect x="61.302" y="46.802" width="4.668" height="1.777"/>
						<rect x="68.256" y="46.802" width="4.668" height="1.777"/>
						<rect x="75.208" y="46.802" width="4.667" height="1.777"/>
					</g>
				</g>
				<g>
					<g>
						<rect x="82.162" y="46.802" width="4.668" height="1.777"/>
						<rect x="89.114" y="46.802" width="4.669" height="1.777"/>
						<rect x="96.067" y="46.802" width="4.668" height="1.777"/>
						<rect x="103.021" y="46.802" width="4.668" height="1.777"/>
						<rect x="109.973" y="46.802" width="4.668" height="1.777"/>
						<rect x="116.927" y="46.802" width="4.668" height="1.777"/>
						<rect x="123.879" y="46.802" width="4.668" height="1.777"/>
					</g>
				</g>
				<g>
					<g>
						<rect x="130.833" y="46.802" width="4.668" height="1.777"/>
						<rect x="137.785" y="46.802" width="4.668" height="1.777"/>
						<rect x="144.737" y="46.802" width="4.669" height="1.777"/>
						<rect x="151.692" y="46.802" width="4.667" height="1.777"/>
						<rect x="158.644" y="46.802" width="4.669" height="1.777"/>
						<polygon points="170.075,48.58 170.434,46.829 165.608,46.804 165.587,48.58 						"/>
						<path d="M176.758,48.59l0.86-1.711c0,0-0.298-0.023-0.751-0.018c-0.452-0.002-1.056-0.005-1.659-0.008
							c-1.207-0.006-2.413-0.013-2.413-0.013l-0.524,1.739c0,0,1.122,0,2.244,0c0.561,0,1.122,0,1.542,0
							C176.478,48.574,176.758,48.59,176.758,48.59z"/>
					</g>
				</g>
				<g>
					<g>
						<path d="M183.042,50.582l1.273-1.491c0,0-0.997-0.678-2.097-1.168c-1.105-0.478-2.277-0.747-2.277-0.748l-1.002,1.656
							c0,0,1.101,0.238,2.138,0.673C182.108,49.953,183.042,50.582,183.042,50.582z"/>
						<path d="M187.205,55.694l1.586-1.135c0,0-0.478-1.106-1.147-2.108c-0.679-0.996-1.524-1.855-1.524-1.856l-1.39,1.387
							c0,0,0.789,0.803,1.418,1.735C186.768,54.656,187.205,55.694,187.205,55.694z"/>
						<path d="M188.087,62.263l1.728-0.685c0,0-0.01-1.206-0.019-2.413c-0.045-0.596-0.062-1.196-0.161-1.636
							c-0.075-0.443-0.125-0.738-0.125-0.738l-1.658,0.998c0,0,0.042,0.277,0.106,0.693c0.087,0.414,0.091,0.977,0.124,1.536
							C188.084,61.141,188.087,62.263,188.087,62.263z"/>
						<polygon points="188.087,68.949 189.851,68.767 189.826,63.941 188.087,64.461 						"/>
						<polygon points="188.087,75.805 189.864,75.805 189.863,71.129 188.087,71.145 						"/>
						<rect x="188.087" y="78.091" width="1.777" height="4.668"/>
						<rect x="188.087" y="85.042" width="1.777" height="4.667"/>
					</g>
				</g>
				<g>
					<g>
						<rect x="188.087" y="91.996" width="1.777" height="4.669"/>
						<rect x="188.087" y="98.949" width="1.777" height="4.668"/>
						<rect x="188.087" y="105.901" width="1.777" height="4.669"/>
						<rect x="188.087" y="112.855" width="1.777" height="4.668"/>
						<rect x="188.087" y="119.807" width="1.777" height="4.668"/>
						<polygon points="188.087,131.335 189.852,131.513 189.864,126.761 188.087,126.761 						"/>
						<polygon points="188.087,138.019 189.814,138.699 189.839,133.874 188.087,133.531 						"/>
					</g>
				</g>
			</g>
		</g>
	</g>
	<g>
		<text transform="matrix(1 0 0 1 36.3838 66.6665)" font-family="'MyriadPro-Regular'" font-size="19.043">Availability Zone</text>
	</g>
	<g>
		<path fill="#98CE83" stroke="#000000" stroke-width="2" stroke-miterlimit="10" d="M174.655,123.901
			c0,9.811-7.955,17.766-17.766,17.766h-31.09c-9.811,0-17.764-7.955-17.764-17.766V92.813c0-9.811,7.953-17.765,17.764-17.765
			h31.09c9.811,0,17.766,7.955,17.766,17.765V123.901z"/>
		<text transform="matrix(1 0 0 1 125.6826 113.9463)" font-family="'MyriadPro-Regular'" font-size="19.043">EC2</text>
	</g>
	<g>
		<path fill="#98CE83" stroke="#000000" stroke-width="2" stroke-miterlimit="10" d="M96.619,123.901
			c0,9.811-7.955,17.766-17.766,17.766h-31.09c-9.811,0-17.764-7.955-17.764-17.766V92.813c0-9.811,7.953-17.765,17.764-17.765
			h31.09c9.811,0,17.766,7.955,17.766,17.765V123.901z"/>
		<text transform="matrix(1 0 0 1 47.647 113.9463)" font-family="'MyriadPro-Regular'" font-size="19.043">EC2</text>
	</g>
</g>
<g>
	<g>
		<path fill="#D2EAD6" d="M189,257.667c0,6.627-5.373,12-12,12H28c-6.627,0-12-5.373-12-12v-81c0-6.627,5.373-12,12-12h149
			c6.627,0,12,5.373,12,12V257.667z"/>
		<g>
			<g>
				<g>
					<g>
						<path d="M187.222,261.592l1.588,1.132c0,0,0.466-1.11,0.718-2.286c0.097-0.591,0.217-1.18,0.224-1.63
							c0.031-0.447,0.051-0.745,0.051-0.745l-1.716-0.847c0,0-0.014,0.28-0.035,0.7c0.001,0.423-0.103,0.976-0.185,1.53
							C187.647,260.55,187.222,261.592,187.222,261.592z"/>
						<path d="M183.082,266.722l1.275,1.488c0,0,0.99-0.689,1.833-1.551c0.409-0.441,0.814-0.885,1.07-1.258
							c0.136-0.181,0.249-0.331,0.328-0.436c0.071-0.11,0.111-0.174,0.111-0.174l-1.5-1.261c0,0-0.037,0.059-0.103,0.163
							c-0.074,0.098-0.179,0.238-0.305,0.407c-0.236,0.35-0.615,0.764-0.996,1.176C184.008,266.082,183.081,266.721,183.082,266.722
							z"/>
						<path d="M176.809,268.741l0.864,1.709c0,0,1.199-0.042,2.369-0.318c1.171-0.271,2.271-0.766,2.271-0.767l-1.147-1.578
							c0,0.001-1.032,0.453-2.131,0.691C177.936,268.721,176.809,268.74,176.809,268.741z"/>
						<polygon points="170.125,268.753 170.487,270.504 175.313,270.48 174.612,268.753 						"/>
						<polygon points="163.364,268.753 163.364,270.531 168.125,270.516 167.928,268.753 						"/>
						<rect x="156.411" y="268.753" width="4.668" height="1.777"/>
						<rect x="149.459" y="268.753" width="4.667" height="1.777"/>
					</g>
				</g>
				<g>
					<g>
						<rect x="142.505" y="268.753" width="4.669" height="1.777"/>
						<rect x="135.552" y="268.753" width="4.668" height="1.777"/>
						<rect x="128.6" y="268.753" width="4.668" height="1.777"/>
						<rect x="121.646" y="268.753" width="4.668" height="1.777"/>
						<rect x="114.694" y="268.753" width="4.668" height="1.777"/>
						<rect x="107.74" y="268.753" width="4.668" height="1.777"/>
						<rect x="100.789" y="268.753" width="4.667" height="1.777"/>
					</g>
				</g>
				<g>
					<g>
						<rect x="93.834" y="268.753" width="4.668" height="1.777"/>
						<rect x="86.881" y="268.753" width="4.669" height="1.777"/>
						<rect x="79.929" y="268.753" width="4.668" height="1.777"/>
						<rect x="72.976" y="268.753" width="4.667" height="1.777"/>
						<rect x="66.023" y="268.753" width="4.669" height="1.777"/>
						<rect x="59.069" y="268.753" width="4.668" height="1.777"/>
						<rect x="52.118" y="268.753" width="4.667" height="1.777"/>
					</g>
				</g>
				<g>
					<g>
						<rect x="45.164" y="268.753" width="4.668" height="1.777"/>
						<polygon points="38.268,268.753 38.161,270.523 42.879,270.531 42.879,268.753 						"/>
						<polygon points="31.583,268.753 30.973,270.486 35.8,270.511 36.072,268.753 						"/>
						<path d="M24.953,268.21l-1.074,1.621c0,0,1.144,0.375,2.334,0.528c1.186,0.137,2.396,0.114,2.396,0.114l0.776-1.721
							c0,0-1.124,0.024-2.241-0.079C26.027,268.549,24.953,268.21,24.953,268.21z"/>
						<path d="M19.505,264.498l-1.446,1.327c0,0,0.769,0.93,1.689,1.707c0.929,0.768,1.979,1.359,1.979,1.359l1.207-1.54
							c0,0-0.984-0.546-1.854-1.26C20.222,265.366,19.505,264.498,19.505,264.498z"/>
						<path d="M16.975,258.41l-1.688,0.924c0,0,0.05,0.295,0.125,0.738c0.051,0.448,0.235,1.021,0.386,1.602
							c0.374,1.143,0.946,2.203,0.946,2.203l1.542-1.203c0,0-0.527-0.994-0.864-2.067c-0.134-0.545-0.3-1.083-0.341-1.503
							C17.017,258.687,16.975,258.41,16.975,258.41z"/>
						<polygon points="16.913,251.728 15.167,252.161 15.192,256.987 16.913,256.215 						"/>
					</g>
				</g>
				<g>
					<g>
						<polygon points="16.913,245.003 15.136,245.003 15.155,249.797 16.913,249.53 						"/>
						<rect x="15.136" y="238.051" width="1.777" height="4.668"/>
						<rect x="15.136" y="231.099" width="1.777" height="4.668"/>
						<rect x="15.136" y="224.145" width="1.777" height="4.668"/>
						<rect x="15.136" y="217.192" width="1.777" height="4.668"/>
						<rect x="15.136" y="210.239" width="1.777" height="4.668"/>
						<rect x="15.136" y="203.288" width="1.777" height="4.667"/>
					</g>
				</g>
				<g>
					<g>
						<rect x="15.136" y="196.333" width="1.777" height="4.669"/>
						<rect x="15.136" y="189.38" width="1.777" height="4.668"/>
						<polygon points="16.913,182.657 15.167,182.227 15.143,187.054 16.913,187.145 						"/>
						<path d="M16.971,175.973l-1.689-0.921c0,0-0.115,1.188-0.09,2.399c-0.006,1.207-0.012,2.413-0.012,2.413l1.734,0.595
							c0,0,0-1.122,0-2.244C16.89,177.092,16.971,175.973,16.971,175.973z"/>
						<path d="M19.475,169.875l-1.448-1.324c0,0-0.761,0.937-1.33,1.998c-0.27,0.537-0.536,1.076-0.676,1.505
							c-0.08,0.21-0.146,0.386-0.193,0.509c-0.045,0.123-0.059,0.197-0.059,0.197l1.627,1.061c0,0,0.078-0.269,0.228-0.663
							c0.125-0.403,0.37-0.908,0.618-1.412C18.767,170.751,19.476,169.875,19.475,169.875z"/>
						<path d="M24.907,166.14l-1.077-1.619c0,0-1.141,0.384-2.19,0.976c-0.513,0.313-1.028,0.623-1.376,0.912
							c-0.364,0.267-0.591,0.463-0.591,0.463l1.338,1.436c0,0,0.213-0.183,0.553-0.43c0.325-0.269,0.808-0.556,1.289-0.845
							C23.835,166.486,24.907,166.14,24.907,166.14z"/>
						<path d="M31.532,165.58l-0.614-1.732c0,0-1.207,0.006-2.413,0.012c-0.605-0.009-1.205,0.013-1.65,0.056
							c-0.449,0.019-0.744,0.075-0.744,0.075l0.938,1.683c0,0,0.276-0.048,0.698-0.058c0.42-0.03,0.98-0.044,1.542-0.036
							C30.41,165.58,31.532,165.58,31.532,165.58z"/>
					</g>
				</g>
				<g>
					<g>
						<polygon points="38.219,165.58 38.108,163.811 33.281,163.835 33.73,165.58 						"/>
						<rect x="40.444" y="163.802" width="4.668" height="1.777"/>
						<rect x="47.396" y="163.802" width="4.669" height="1.777"/>
						<rect x="54.351" y="163.802" width="4.667" height="1.777"/>
						<rect x="61.302" y="163.802" width="4.668" height="1.777"/>
						<rect x="68.256" y="163.802" width="4.668" height="1.777"/>
						<rect x="75.208" y="163.802" width="4.667" height="1.777"/>
					</g>
				</g>
				<g>
					<g>
						<rect x="82.162" y="163.802" width="4.668" height="1.777"/>
						<rect x="89.114" y="163.802" width="4.669" height="1.777"/>
						<rect x="96.067" y="163.802" width="4.668" height="1.777"/>
						<rect x="103.021" y="163.802" width="4.668" height="1.777"/>
						<rect x="109.973" y="163.802" width="4.668" height="1.777"/>
						<rect x="116.927" y="163.802" width="4.668" height="1.777"/>
						<rect x="123.879" y="163.802" width="4.668" height="1.777"/>
					</g>
				</g>
				<g>
					<g>
						<rect x="130.833" y="163.802" width="4.668" height="1.777"/>
						<rect x="137.785" y="163.802" width="4.668" height="1.777"/>
						<rect x="144.737" y="163.802" width="4.669" height="1.777"/>
						<rect x="151.692" y="163.802" width="4.667" height="1.777"/>
						<rect x="158.644" y="163.802" width="4.669" height="1.777"/>
						<polygon points="170.075,165.58 170.434,163.829 165.608,163.804 165.587,165.58 						"/>
						<path d="M176.758,165.59l0.86-1.711c0,0-0.298-0.023-0.751-0.018c-0.452-0.002-1.056-0.005-1.659-0.008
							c-1.207-0.006-2.413-0.013-2.413-0.013l-0.524,1.739c0,0,1.122,0,2.244,0c0.561,0,1.122,0,1.542,0
							C176.478,165.574,176.758,165.59,176.758,165.59z"/>
					</g>
				</g>
				<g>
					<g>
						<path d="M183.042,167.582l1.273-1.491c0,0-0.997-0.678-2.097-1.168c-1.105-0.478-2.277-0.747-2.277-0.748l-1.002,1.656
							c0,0,1.101,0.238,2.138,0.673C182.108,166.953,183.042,167.582,183.042,167.582z"/>
						<path d="M187.205,172.694l1.586-1.135c0,0-0.478-1.106-1.147-2.108c-0.679-0.996-1.524-1.855-1.524-1.856l-1.39,1.387
							c0,0,0.789,0.803,1.418,1.735C186.768,171.656,187.205,172.694,187.205,172.694z"/>
						<path d="M188.087,179.263l1.728-0.685c0,0-0.01-1.206-0.019-2.413c-0.045-0.596-0.062-1.196-0.161-1.636
							c-0.075-0.443-0.125-0.738-0.125-0.738l-1.658,0.998c0,0,0.042,0.277,0.106,0.693c0.087,0.414,0.091,0.977,0.124,1.536
							C188.084,178.141,188.087,179.263,188.087,179.263z"/>
						<polygon points="188.087,185.949 189.851,185.767 189.826,180.941 188.087,181.461 						"/>
						<polygon points="188.087,192.805 189.864,192.805 189.863,188.129 188.087,188.145 						"/>
						<rect x="188.087" y="195.091" width="1.777" height="4.668"/>
						<rect x="188.087" y="202.042" width="1.777" height="4.667"/>
					</g>
				</g>
				<g>
					<g>
						<rect x="188.087" y="208.996" width="1.777" height="4.669"/>
						<rect x="188.087" y="215.949" width="1.777" height="4.669"/>
						<rect x="188.087" y="222.901" width="1.777" height="4.669"/>
						<rect x="188.087" y="229.855" width="1.777" height="4.668"/>
						<rect x="188.087" y="236.807" width="1.777" height="4.669"/>
						<polygon points="188.087,248.334 189.852,248.512 189.864,243.761 188.087,243.761 						"/>
						<polygon points="188.087,255.018 189.814,255.7 189.839,250.874 188.087,250.531 						"/>
					</g>
				</g>
			</g>
		</g>
	</g>
	<g>
		<text transform="matrix(1 0 0 1 36.3838 183.6665)" font-family="'MyriadPro-Regular'" font-size="19.043">Availability Zone</text>
	</g>
	<g>
		<path fill="#98CE83" stroke="#000000" stroke-width="2" stroke-miterlimit="10" d="M174.655,240.901
			c0,9.811-7.955,17.766-17.766,17.766h-31.09c-9.811,0-17.764-7.955-17.764-17.766v-31.088c0-9.811,7.953-17.766,17.764-17.766
			h31.09c9.811,0,17.766,7.955,17.766,17.766V240.901z"/>
		<text transform="matrix(1 0 0 1 125.6826 230.9458)" font-family="'MyriadPro-Regular'" font-size="19.043">EC2</text>
	</g>
	<g>
		<path fill="#98CE83" stroke="#000000" stroke-width="2" stroke-miterlimit="10" d="M96.619,240.901
			c0,9.811-7.955,17.766-17.766,17.766h-31.09c-9.811,0-17.764-7.955-17.764-17.766v-31.088c0-9.811,7.953-17.766,17.764-17.766
			h31.09c9.811,0,17.766,7.955,17.766,17.766V240.901z"/>
		<text transform="matrix(1 0 0 1 47.647 230.9458)" font-family="'MyriadPro-Regular'" font-size="19.043">EC2</text>
	</g>
</g>
<polygon opacity="0.4" fill="#96CA4E" stroke="#000000" stroke-width="2" stroke-miterlimit="10" points="228,426.667 108,246.667 
	109,202.667 112,196.667 116,193.667 123,192.667 160,192.667 409,249.667 "/>
<path fill="#98CE83" stroke="#000000" stroke-width="2" stroke-miterlimit="10" d="M417,425.667c0,6.627-5.373,12-12,12H241
	c-6.627,0-12-5.373-12-12v-164c0-6.627,5.373-12,12-12h164c6.627,0,12,5.373,12,12V425.667z"/>
<g>
	<path fill-rule="evenodd" clip-rule="evenodd" d="M310.444,265.667c0.194,0,0.386,0,0.58,0c2.214,7.968,1.754,15.805-1.244,23.51
		c0.822,0.319,1.546,0.598,2.881,1.114c-1.764,0.328-2.843,0.53-3.922,0.732c0.021,0.199,0.044,0.399,0.065,0.599
		c1.082,0.183,2.163,0.366,3.243,0.547c-1.68,0.774-3.716,0.668-4.761,1.635c-2.727,2.525-5.021,5.521-7.532,8.379
		c3.146,3.381,6.412,6.931,9.741,10.421c0.491,0.516,1.265,0.781,1.935,1.104c2.183,1.051,4.379,2.075,6.569,3.11
		c0,0.775,0,1.55,0,2.326c-2.906,0-5.813,0-8.72,0c-12.483-7.024-25.483-12.554-39.953-14.147c-0.136,4.028,0.64,4.876,3.889,5.555
		c1.136,0.238,2.101,1.3,3.145,1.984c-3.842,1.278-7.08,1.397-9.838-1.308c-1.442-1.416-3.396-2.364-4.647-3.904
		c-2.148-2.645-4.429-2.232-6.358-0.33c-1.854,1.827-3.321,4.141-4.576,6.449c-0.624,1.146-0.393,2.76-0.589,4.537
		c-2.732,0-5.325,0-7.916,0c0-0.58,0-1.162,0-1.744c3.889-5.611,7.777-11.223,11.547-16.661c-1.158-2.641-2.723-5.358-3.558-8.281
		c-2.226-7.798,2.977-14.252,11.042-14.023c0.962,0.025,1.994,0.244,2.873-0.02c3.998-1.196,7.178,0.005,9.583,3.796
		c-3.753,1.559-8.069,1.124-9.769-0.742c-0.727-0.796-1.874-1.578-2.895-1.671c-4.697-0.43-8.451,2.402-9.608,7.023
		c-1.253,5.012,1.127,8.884,3.849,12.944c7.71-7.065,16.261-11.965,26.243-14.846c-1.371-6.112-1.472-12.128,0.219-18.089
		c0.386,0,0.775,0,1.162,0c2.074,1.938,4.122,3.903,6.242,5.789c0.426,0.381,1.123,0.64,1.697,0.646
		c3.757,0.036,7.517,0.019,11.272-0.066c0.573-0.012,1.232-0.354,1.687-0.739C306.194,269.457,308.309,267.55,310.444,265.667z
		 M288.547,290.414c-0.425,0.161-1.105,0.42-2.299,0.873c1.195,0.359,1.859,0.559,2.533,0.762c-0.81,2.041,1.139,4.602,5.773,7.774
		c2.602,1.78,3.361,1.748,7.013-1.943c1.484-1.5,4.727-2.489,2.952-5.848c0.768-0.202,1.534-0.406,2.927-0.775
		c-1.424-0.446-2.21-0.694-3.191-1.002c1.174-1.655,4.946,0.51,4.033-2.834c-0.443-1.622,4.053-2.784-0.028-4.097
		c2.657-1.717,3.489-8.448,1.838-13.306c-1.558,1.63-1.604,4.963-5.313,4.111c-5.277-1.213-5.31-1.068-7.604,3.767
		c-0.311-0.477-0.672-0.819-0.781-1.229c-0.724-2.735-2.372-3.699-5.098-2.835c-0.542,0.172-1.196,0.024-1.715,0.233
		c-2.961,1.188-4.534-0.458-5.808-2.757c-0.319-0.577-0.597-1.178-0.894-1.768c-0.521,2.641-0.478,5.146-0.531,7.647
		c-0.051,2.327,0.631,4.129,3.042,4.908c0.085,0.026,0.08,0.327,0.138,0.598c-0.673,0.218-1.354,0.438-1.662,0.535
		c0.348,1.605,0.3,3.232,1.043,4.323C285.729,288.752,287.273,289.457,288.547,290.414z"/>
	<path fill-rule="evenodd" clip-rule="evenodd" fill="#FFFFFF" d="M288.547,290.414c-1.273-0.957-2.818-1.661-3.633-2.861
		c-0.743-1.091-0.695-2.718-1.043-4.323c0.309-0.098,0.989-0.317,1.662-0.535c-0.058-0.271-0.053-0.571-0.138-0.598
		c-2.411-0.779-3.093-2.581-3.042-4.908c0.054-2.502,0.011-5.007,0.531-7.647c0.297,0.59,0.574,1.19,0.894,1.768
		c1.273,2.299,2.847,3.945,5.808,2.757c0.519-0.209,1.173-0.062,1.715-0.233c2.726-0.864,4.374,0.1,5.098,2.835
		c0.109,0.41,0.471,0.753,0.781,1.229c2.295-4.835,2.327-4.979,7.604-3.767c3.709,0.852,3.756-2.481,5.314-4.11
		c1.65,4.856,0.818,11.588-1.839,13.305c4.081,1.313-0.415,2.475,0.028,4.097c0.913,3.344-2.859,1.179-4.033,2.834
		c0.981,0.308,1.768,0.556,3.191,1.002c-1.393,0.369-2.159,0.573-2.927,0.775c1.774,3.358-1.468,4.348-2.952,5.848
		c-3.651,3.691-4.411,3.724-7.013,1.943c-4.635-3.173-6.583-5.733-5.773-7.774c-0.674-0.203-1.338-0.402-2.533-0.762
		C287.441,290.833,288.122,290.575,288.547,290.414z M306.691,279.793c-0.07-0.25-0.144-0.501-0.215-0.753
		c-1.368,0.504-3.377,0.605-3.988,1.583c-2.104,3.364-5.111,2.241-7.95,2.298c-0.366-2.336,1.252-5.579-2.481-6.162
		c-1.878-0.294-3.25,1.095-3.921,2.827c1.836-0.512,3.229-0.901,4.625-1.291c0.2,1.496,0.399,2.993,0.596,4.465
		c-1.792,0.245-2.903,0.397-4.015,0.55c0.02,0.227,0.041,0.452,0.061,0.678c0.975,0.19,1.948,0.383,3.11,0.61
		c-0.441,1.307-0.834,2.467-1.3,3.846c1.359,0.906,2.693,1.794,4.083,2.721c-0.705,0.834-1.297,1.537-1.89,2.24
		c0.106,0.269,0.211,0.537,0.314,0.804c2.174-2.809,4.425-1.445,6.677-0.177c0.059-0.239,0.116-0.479,0.173-0.717
		c-0.758-0.621-1.515-1.243-2.443-2.005c1.507-1.08,2.813-2.017,4.044-2.9c-0.243-1.326-0.463-2.514-0.705-3.826
		c1.516-0.229,2.727-0.412,3.938-0.596c-0.02-0.221-0.039-0.442-0.058-0.664c-0.953-0.188-1.907-0.375-2.861-0.562
		c-0.079-0.205-0.158-0.409-0.237-0.614C303.729,281.365,305.212,280.579,306.691,279.793z"/>
	<path fill-rule="evenodd" clip-rule="evenodd" d="M306.691,279.793c-1.479,0.785-2.962,1.571-4.443,2.354
		c0.079,0.205,0.158,0.409,0.237,0.614c0.954,0.187,1.908,0.373,2.861,0.562c0.019,0.222,0.038,0.443,0.058,0.664
		c-1.212,0.184-2.423,0.366-3.938,0.596c0.242,1.313,0.462,2.5,0.705,3.826c-1.231,0.884-2.537,1.82-4.044,2.9
		c0.929,0.762,1.686,1.384,2.443,2.005c-0.057,0.237-0.114,0.478-0.173,0.717c-2.252-1.269-4.503-2.632-6.677,0.177
		c-0.104-0.267-0.208-0.535-0.314-0.804c0.593-0.703,1.185-1.406,1.89-2.24c-1.39-0.927-2.724-1.814-4.083-2.721
		c0.466-1.379,0.858-2.539,1.3-3.846c-1.162-0.228-2.136-0.42-3.11-0.61c-0.02-0.226-0.041-0.451-0.061-0.678
		c1.111-0.152,2.223-0.305,4.015-0.55c-0.196-1.472-0.396-2.969-0.596-4.465c-1.396,0.39-2.789,0.779-4.625,1.291
		c0.671-1.732,2.043-3.121,3.921-2.827c3.733,0.583,2.115,3.826,2.481,6.162c2.839-0.057,5.846,1.066,7.95-2.298
		c0.611-0.978,2.62-1.079,3.988-1.583C306.548,279.292,306.621,279.543,306.691,279.793z M300.057,284.586
		c-5.885-0.851-6.363-0.642-6.667,2.861c2.288,0,4.57,0,7.084,0C300.316,286.369,300.183,285.452,300.057,284.586z"/>
	<path fill-rule="evenodd" clip-rule="evenodd" fill="#FFFFFF" d="M300.057,284.586c0.126,0.865,0.26,1.782,0.417,2.861
		c-2.514,0-4.796,0-7.084,0C293.693,283.945,294.172,283.736,300.057,284.586z"/>
</g>
<g>
	<text transform="matrix(1 0 0 1 332 282.6665)" font-family="'MyriadPro-Regular'" font-size="18">Tomcat 6</text>
</g>
<text transform="matrix(1 0 0 1 300.9951 351.6665)" font-family="'MyriadPro-Regular'" font-size="19.043">WAR</text>
<g>
	<path fill-rule="evenodd" clip-rule="evenodd" fill="#FFFFFF" d="M406,419.667c0,6.627-5.373,12-12,12H254c-6.627,0-12-5.373-12-12
		v-72c0-6.627,5.373-12,12-12h140c6.627,0,12,5.373,12,12V419.667z"/>
	<g>
		<g>
			<g>
				<g>
					<path d="M404.326,423.309l1.599,1.113c0,0,0.099-0.262,0.247-0.654c0.109-0.404,0.284-0.939,0.383-1.488
						c0.098-0.551,0.191-1.102,0.2-1.521c0.028-0.417,0.048-0.695,0.048-0.695l-1.716-0.847c0,0-0.013,0.261-0.033,0.653
						c0,0.394-0.08,0.911-0.164,1.428c-0.084,0.516-0.242,1.018-0.339,1.397C404.416,423.063,404.326,423.309,404.326,423.309z"/>
					<path d="M400.684,428.272l1.316,1.454c0,0,0.23-0.16,0.534-0.452c0.156-0.142,0.337-0.307,0.531-0.483
						c0.179-0.193,0.368-0.4,0.558-0.606c0.395-0.4,0.691-0.882,0.957-1.208c0.223-0.356,0.371-0.594,0.371-0.594l-1.52-1.235
						c0,0-0.138,0.223-0.344,0.557c-0.247,0.305-0.521,0.757-0.89,1.13c-0.177,0.192-0.354,0.386-0.52,0.566
						c-0.182,0.165-0.351,0.318-0.496,0.451C400.899,428.124,400.683,428.272,400.684,428.272z"/>
					<path d="M395.006,430.652l0.941,1.682c0,0,0.275-0.047,0.688-0.116c0.413-0.067,0.95-0.236,1.487-0.387
						c1.064-0.356,2.053-0.891,2.053-0.891l-1.201-1.544c0,0-0.927,0.492-1.926,0.813c-0.505,0.135-1.008,0.287-1.396,0.344
						C395.265,430.612,395.006,430.652,395.006,430.652z"/>
					<polygon points="388.774,430.753 389.262,432.496 393.763,432.472 392.961,430.753 					"/>
					<polygon points="382.539,430.753 382.557,432.53 387.059,432.506 386.727,430.753 					"/>
					<rect x="376.063" y="430.753" width="4.354" height="1.777"/>
					<rect x="369.578" y="430.753" width="4.354" height="1.777"/>
				</g>
			</g>
			<g>
				<g>
					<rect x="363.092" y="430.753" width="4.354" height="1.777"/>
					<rect x="356.606" y="430.753" width="4.354" height="1.777"/>
					<rect x="350.121" y="430.753" width="4.355" height="1.777"/>
					<rect x="343.636" y="430.753" width="4.354" height="1.777"/>
					<rect x="337.15" y="430.753" width="4.354" height="1.777"/>
					<rect x="330.664" y="430.753" width="4.354" height="1.777"/>
					<rect x="324.181" y="430.753" width="4.354" height="1.777"/>
				</g>
			</g>
			<g>
				<g>
					<rect x="317.693" y="430.753" width="4.355" height="1.777"/>
					<rect x="311.209" y="430.753" width="4.354" height="1.777"/>
					<rect x="304.724" y="430.753" width="4.354" height="1.777"/>
					<rect x="298.238" y="430.753" width="4.354" height="1.777"/>
					<rect x="291.752" y="430.753" width="4.355" height="1.777"/>
					<rect x="285.266" y="430.753" width="4.355" height="1.777"/>
					<rect x="278.782" y="430.753" width="4.354" height="1.777"/>
				</g>
			</g>
			<g>
				<g>
					<rect x="272.296" y="430.753" width="4.354" height="1.777"/>
					<rect x="265.811" y="430.753" width="4.354" height="1.777"/>
					<polygon points="259.57,430.753 259.109,432.498 263.612,432.52 263.758,430.753 					"/>
					<path d="M253.336,430.697l-0.918,1.69c0,0.001,1.107,0.111,2.237,0.087c1.125,0.006,2.251,0.012,2.251,0.012l0.615-1.732
						c0,0-1.047,0-2.094,0C254.381,430.776,253.336,430.698,253.336,430.697z"/>
					<path d="M247.594,428.479l-1.299,1.471c0,0,0.217,0.181,0.568,0.409c0.363,0.211,0.821,0.54,1.336,0.766
						c0.994,0.522,2.078,0.823,2.078,0.822l1.051-1.633c-0.001,0-1.02-0.268-1.951-0.748c-0.482-0.207-0.912-0.512-1.252-0.707
						C247.795,428.647,247.594,428.479,247.594,428.479z"/>
					<path d="M243.793,423.632l-1.587,1.135c0,0,0.115,0.255,0.302,0.631c0.168,0.387,0.46,0.865,0.76,1.339
						c0.305,0.47,0.656,0.91,0.918,1.237c0.283,0.311,0.472,0.519,0.472,0.519l1.405-1.371c0,0-0.176-0.194-0.439-0.484
						c-0.244-0.306-0.57-0.718-0.854-1.157c-0.276-0.444-0.546-0.893-0.7-1.255C243.898,423.872,243.793,423.632,243.793,423.632z"
						/>
					<path d="M242.913,417.513l-1.726,0.719c0,0,0.002,0.281,0.004,0.703c0.014,0.42-0.021,0.989,0.035,1.543
						c0.019,0.278,0.037,0.556,0.056,0.817c0.042,0.258,0.083,0.499,0.116,0.706c0.035,0.206,0.064,0.378,0.084,0.499
						c0.025,0.119,0.047,0.187,0.047,0.187l1.654-1.007c0,0-0.061-0.255-0.113-0.645c-0.029-0.193-0.063-0.42-0.099-0.662
						c-0.013-0.245-0.026-0.507-0.039-0.768c-0.039-0.522-0.011-1.047-0.02-1.438C242.913,417.775,242.913,417.513,242.913,417.513z
						"/>
				</g>
			</g>
			<g>
				<g>
					<polygon points="242.913,411.277 241.154,411.525 241.177,416.027 242.913,415.463 					"/>
					<polygon points="242.913,404.923 241.136,404.923 241.143,409.323 242.913,409.228 					"/>
					<rect x="241.136" y="398.439" width="1.777" height="4.354"/>
					<rect x="241.136" y="391.953" width="1.777" height="4.354"/>
					<rect x="241.136" y="385.467" width="1.777" height="4.355"/>
					<rect x="241.136" y="378.981" width="1.777" height="4.354"/>
					<rect x="241.136" y="372.498" width="1.777" height="4.354"/>
				</g>
			</g>
			<g>
				<g>
					<rect x="241.136" y="366.011" width="1.777" height="4.354"/>
					<rect x="241.136" y="359.526" width="1.777" height="4.354"/>
					<polygon points="242.913,353.284 241.169,352.827 241.146,357.329 242.913,357.471 					"/>
					<path d="M242.967,347.049l-1.691-0.916c0,0-0.107,1.108-0.084,2.238c-0.006,1.126-0.012,2.251-0.012,2.251l1.733,0.611
						c0,0,0-1.046,0-2.093C242.891,348.094,242.967,347.049,242.967,347.049z"/>
					<path d="M245.16,341.297l-1.473-1.295c0,0-0.687,0.893-1.168,1.908c-0.518,0.996-0.813,2.082-0.813,2.082l1.635,1.047
						c-0.001,0,0.262-1.02,0.738-1.954C244.521,342.133,245.16,341.297,245.16,341.297z"/>
					<path d="M249.99,337.475l-1.137-1.585c0,0-0.252,0.122-0.631,0.306c-0.387,0.168-0.859,0.469-1.336,0.764
						c-0.463,0.314-0.911,0.655-1.23,0.926c-0.312,0.283-0.52,0.473-0.52,0.473l1.374,1.402c0,0,0.193-0.176,0.483-0.439
						c0.3-0.252,0.719-0.568,1.152-0.859c0.447-0.273,0.891-0.553,1.254-0.705C249.754,337.586,249.99,337.475,249.99,337.475z"/>
					<path d="M256.106,336.58l-0.722-1.725c0,0-0.281,0.001-0.703,0.003c-0.42,0.012-0.988-0.018-1.543,0.038
						c-0.277,0.021-0.556,0.04-0.816,0.059c-0.258,0.044-0.5,0.084-0.706,0.118c-0.206,0.036-0.378,0.065-0.499,0.086
						c-0.118,0.031-0.186,0.051-0.186,0.051l1.01,1.652c0,0,0.253-0.068,0.643-0.117c0.194-0.03,0.42-0.064,0.663-0.102
						c0.245-0.014,0.506-0.027,0.767-0.041c0.523-0.039,1.047-0.016,1.439-0.022C255.846,336.58,256.106,336.58,256.106,336.58z"/>
				</g>
			</g>
			<g>
				<g>
					<polygon points="262.344,336.58 262.092,334.821 257.589,334.844 258.156,336.58 					"/>
					<polygon points="268.694,336.58 268.694,334.802 264.294,334.809 264.392,336.58 					"/>
					<rect x="270.824" y="334.802" width="4.355" height="1.777"/>
					<rect x="277.312" y="334.802" width="4.354" height="1.777"/>
					<rect x="283.796" y="334.802" width="4.354" height="1.777"/>
					<rect x="290.282" y="334.802" width="4.354" height="1.777"/>
					<rect x="296.767" y="334.802" width="4.354" height="1.777"/>
				</g>
			</g>
			<g>
				<g>
					<rect x="303.252" y="334.802" width="4.355" height="1.777"/>
					<rect x="309.738" y="334.802" width="4.354" height="1.777"/>
					<rect x="316.223" y="334.802" width="4.354" height="1.777"/>
					<rect x="322.709" y="334.802" width="4.354" height="1.777"/>
					<rect x="329.193" y="334.802" width="4.355" height="1.777"/>
					<rect x="335.681" y="334.802" width="4.354" height="1.777"/>
					<rect x="342.165" y="334.802" width="4.354" height="1.777"/>
				</g>
			</g>
			<g>
				<g>
					<rect x="348.65" y="334.802" width="4.354" height="1.777"/>
					<rect x="355.136" y="334.802" width="4.354" height="1.777"/>
					<rect x="361.62" y="334.802" width="4.355" height="1.777"/>
					<rect x="368.107" y="334.802" width="4.354" height="1.777"/>
					<rect x="374.592" y="334.802" width="4.354" height="1.777"/>
					<polygon points="385.313,336.58 385.538,334.819 381.078,334.802 381.078,336.58 					"/>
					<polygon points="391.546,336.58 392.242,334.853 387.74,334.831 387.36,336.58 					"/>
				</g>
			</g>
			<g>
				<g>
					<path d="M397.687,337.357l1.116-1.597c0,0-0.262-0.1-0.655-0.248c-0.4-0.12-0.938-0.282-1.485-0.393
						c-0.551-0.093-1.101-0.197-1.521-0.205c-0.418-0.028-0.696-0.047-0.696-0.047l-0.85,1.715c0,0,0.262,0.013,0.653,0.032
						c0.395-0.001,0.91,0.09,1.428,0.169c0.514,0.096,1.019,0.24,1.396,0.348C397.44,337.267,397.687,337.357,397.687,337.357z"/>
					<path d="M402.634,341.02l1.456-1.313c0.001-0.001-0.681-0.899-1.535-1.63c-0.399-0.396-0.878-0.696-1.205-0.96
						c-0.348-0.235-0.591-0.376-0.591-0.375l-1.238,1.517c0,0,0.229,0.129,0.554,0.348c0.306,0.246,0.755,0.522,1.127,0.894
						C402,340.18,402.634,341.02,402.634,341.02z"/>
					<path d="M404.992,346.707l1.683-0.938c-0.001,0-0.154-1.108-0.493-2.178c-0.357-1.064-0.886-2.055-0.886-2.055l-1.546,1.197
						c0,0,0.487,0.93,0.809,1.929C404.864,345.666,404.991,346.707,404.992,346.707z"/>
					<polygon points="405.087,352.938 406.829,352.455 406.806,347.954 405.087,348.752 					"/>
					<polygon points="405.087,359.173 406.863,359.16 406.84,354.658 405.087,354.987 					"/>
					<rect x="405.087" y="361.298" width="1.777" height="4.354"/>
					<rect x="405.087" y="367.783" width="1.777" height="4.354"/>
				</g>
			</g>
			<g>
				<g>
					<rect x="405.087" y="374.268" width="1.777" height="4.355"/>
					<rect x="405.087" y="380.753" width="1.777" height="4.355"/>
					<rect x="405.087" y="387.239" width="1.777" height="4.354"/>
					<rect x="405.087" y="393.725" width="1.777" height="4.354"/>
					<rect x="405.087" y="400.209" width="1.777" height="4.354"/>
					<polygon points="405.087,410.932 406.848,411.155 406.864,406.697 405.087,406.697 					"/>
					<polygon points="405.087,417.167 406.813,417.858 406.837,413.357 405.087,412.98 					"/>
				</g>
			</g>
		</g>
	</g>
</g>
<g>
	<path fill-rule="evenodd" clip-rule="evenodd" d="M319,412.667c-19.688,0-39.321,0-59,0c0-19.096,0-38.165,0-57.288
		c19.641,0,39.291,0,59,0C319,374.438,319,393.525,319,412.667z M290.543,370.946c0-0.556-0.055-1.118,0.014-1.664
		c0.102-0.8-0.279-1.189-0.96-1.469c-1.819-0.747-3.712-0.975-5.661-0.932c-5.338,0.117-9.338,2.489-11.863,7.18
		c-2.332,4.326-2.484,8.952-1.474,13.653c0.724,3.372,2.376,6.2,5.282,8.179c2.848,1.938,6.049,2.503,9.391,2.084
		c1.602-0.2,3.157-0.794,4.719-1.26c0.615-0.183,0.882-0.65,0.854-1.339c-0.05-1.157-0.008-2.318-0.016-3.477
		c-0.006-0.677-0.142-0.726-0.777-0.546c-1.454,0.408-2.904,0.896-4.389,1.116c-3.664,0.544-6.929-1.313-8.23-4.727
		c-1.334-3.502-1.373-7.09-0.028-10.604c1.275-3.335,3.881-5.023,7.45-4.998c1.693,0.011,3.281,0.465,4.791,1.218
		c0.75,0.373,0.891,0.283,0.898-0.531C290.548,372.202,290.543,371.574,290.543,370.946z M308.08,369.404
		c0-1.333-0.046-2.563,0.018-3.786c0.037-0.706-0.271-1.016-0.879-1.172c-1.26-0.323-2.531-0.354-3.797-0.083
		c-3.305,0.707-5.524,3.203-5.953,6.717c-0.133,1.091-0.159,2.194-0.238,3.344c-0.71,0-1.407,0.021-2.102-0.008
		c-0.45-0.019-0.59,0.153-0.58,0.589c0.023,1.038,0.027,2.077-0.001,3.115c-0.013,0.476,0.187,0.642,0.628,0.671
		c0.691,0.044,1.381,0.122,2.135,0.191c0,0.273,0,0.51,0,0.747c0,5.699,0.011,11.397-0.01,17.097
		c-0.002,0.619,0.144,0.854,0.803,0.832c1.472-0.047,2.947-0.055,4.419,0.002c0.747,0.028,0.935-0.224,0.931-0.946
		c-0.026-5.626-0.013-11.253-0.012-16.88c0-0.28,0-0.56,0-0.855c1.084-0.07,2.067-0.157,3.053-0.191
		c0.614-0.021,0.926-0.194,0.875-0.896c-0.063-0.865-0.062-1.741-0.001-2.606c0.051-0.719-0.22-0.91-0.899-0.875
		c-0.998,0.054-2.002,0.015-3.088,0.015c0.07-1.067,0.076-2.013,0.207-2.938c0.255-1.803,1.359-2.579,3.162-2.302
		C307.15,369.246,307.551,369.316,308.08,369.404z"/>
	<path fill-rule="evenodd" clip-rule="evenodd" fill="#FFFFFF" d="M290.543,370.946c0,0.628,0.005,1.256,0,1.884
		c-0.008,0.814-0.148,0.904-0.898,0.531c-1.51-0.753-3.098-1.207-4.791-1.218c-3.569-0.025-6.175,1.663-7.45,4.998
		c-1.345,3.515-1.306,7.103,0.028,10.604c1.302,3.414,4.566,5.271,8.23,4.727c1.484-0.221,2.935-0.708,4.389-1.116
		c0.636-0.18,0.771-0.131,0.777,0.546c0.008,1.158-0.034,2.319,0.016,3.477c0.028,0.688-0.238,1.156-0.854,1.339
		c-1.562,0.466-3.117,1.06-4.719,1.26c-3.342,0.419-6.543-0.146-9.391-2.084c-2.906-1.979-4.559-4.807-5.282-8.179
		c-1.011-4.701-0.858-9.327,1.474-13.653c2.525-4.69,6.525-7.063,11.863-7.18c1.949-0.043,3.842,0.185,5.661,0.932
		c0.681,0.279,1.062,0.669,0.96,1.469C290.488,369.828,290.543,370.39,290.543,370.946z"/>
	<path fill-rule="evenodd" clip-rule="evenodd" fill="#FFFFFF" d="M308.08,369.404c-0.529-0.088-0.93-0.158-1.33-0.22
		c-1.803-0.277-2.907,0.499-3.162,2.302c-0.131,0.926-0.137,1.871-0.207,2.938c1.086,0,2.09,0.039,3.088-0.015
		c0.68-0.035,0.95,0.156,0.899,0.875c-0.061,0.865-0.062,1.741,0.001,2.606c0.051,0.701-0.261,0.874-0.875,0.896
		c-0.985,0.034-1.969,0.121-3.053,0.191c0,0.296,0,0.575,0,0.855c-0.001,5.627-0.015,11.254,0.012,16.88
		c0.004,0.723-0.184,0.975-0.931,0.946c-1.472-0.057-2.947-0.049-4.419-0.002c-0.659,0.021-0.805-0.213-0.803-0.832
		c0.021-5.699,0.01-11.397,0.01-17.097c0-0.237,0-0.474,0-0.747c-0.754-0.069-1.443-0.147-2.135-0.191
		c-0.441-0.029-0.641-0.195-0.628-0.671c0.028-1.038,0.024-2.077,0.001-3.115c-0.01-0.436,0.13-0.607,0.58-0.589
		c0.694,0.029,1.392,0.008,2.102,0.008c0.079-1.149,0.105-2.253,0.238-3.344c0.429-3.514,2.648-6.01,5.953-6.717
		c1.266-0.271,2.537-0.24,3.797,0.083c0.608,0.156,0.916,0.466,0.879,1.172C308.034,366.841,308.08,368.071,308.08,369.404z"/>
</g>
<text transform="matrix(1 0 0 1 340.5957 366.6665)"><tspan x="0" y="0" fill="#C91F46" font-family="'MyriadPro-Bold'" font-size="19.043">Your</tspan><tspan x="-3.199" y="22.852" fill="#C91F46" font-family="'MyriadPro-Bold'" font-size="19.043">CFML</tspan><tspan x="0.172" y="45.703" fill="#C91F46" font-family="'MyriadPro-Bold'" font-size="19.043">Here</tspan></text>
<g>
	<rect x="302" y="323.667" fill-rule="evenodd" clip-rule="evenodd" width="47" height="21"/>
	<g>
		<text transform="matrix(1 0 0 1 307 340.6665)" fill="#FFFFFF" font-family="'MyriadPro-Bold'" font-size="18">WAR</text>
	</g>
</g>
</svg>
