<?xml version="1.0" encoding="utf-8"?>
<!-- Generator: Adobe Illustrator 16.0.0, SVG Export Plug-In . SVG Version: 6.00 Build 0)  -->
<!DOCTYPE svg PUBLIC "-//W3C//DTD SVG 1.1//EN" "http://www.w3.org/Graphics/SVG/1.1/DTD/svg11.dtd">
<svg version="1.1" id="Layer_1" xmlns="http://www.w3.org/2000/svg" xmlns:xlink="http://www.w3.org/1999/xlink" x="0px" y="0px"
	 width="612px" height="505.555px" viewBox="0 0 612 505.555" enable-background="new 0 0 612 505.555" xml:space="preserve">
<path fill="#203A1C" stroke="#000000" stroke-width="2" stroke-miterlimit="10" d="M581,382.222c0,6.627-5.373,12-12,12H44
	c-6.627,0-12-5.373-12-12v-304c0-6.627,5.373-12,12-12h525c6.627,0,12,5.373,12,12V382.222z"/>
<path fill="#49B749" stroke="#000000" stroke-width="2" stroke-miterlimit="10" d="M573,213.655c0,6.94-5.373,12.567-12,12.567H51
	c-6.627,0-12-5.627-12-12.567V83.79c0-6.941,5.373-12.567,12-12.567h510c6.627,0,12,5.626,12,12.567V213.655z"/>
<path fill="#BCDB8E" stroke="#000000" stroke-width="2" stroke-miterlimit="10" d="M276,201.869c0,6.823-4.062,12.353-9.07,12.353
	H59.07c-5.009,0-9.07-5.53-9.07-12.353v-80.294c0-6.823,4.062-12.353,9.07-12.353H266.93c5.009,0,9.07,5.53,9.07,12.353V201.869z"/>
<g>
	<text transform="matrix(1 0 0 1 180.1533 38.2222)" font-family="'MyriadPro-Bold'" font-size="31.3393">Elastic Beanstalk</text>
</g>
<g>
	<text transform="matrix(1 0 0 1 56.0005 98.2222)"><tspan x="0" y="0" font-family="'MyriadPro-Bold'" font-size="19.043">Application </tspan><tspan x="102.563" y="0" font-family="'MyriadPro-Regular'" font-size="19.043">(Adobe TV)</tspan></text>
</g>
<g>
	<path fill="#BCDB8E" stroke="#000000" stroke-width="2" stroke-miterlimit="10" d="M558,200.674c0,7.482-4.081,13.548-9.114,13.548
		H447.114c-5.033,0-9.114-6.066-9.114-13.548v-77.903c0-7.482,4.081-13.548,9.114-13.548h101.771c5.033,0,9.114,6.066,9.114,13.548
		V200.674z"/>
	<g>
		<text transform="matrix(1 0 0 1 453 128.9844)" font-family="'MyriadPro-Regular'" font-size="15.1742">Development</text>
	</g>
	<g>
		<path fill="#D2EAD6" d="M547,199.587c0,3.639-2.951,6.59-6.59,6.59h-81.82c-3.639,0-6.59-2.951-6.59-6.59v-44.48
			c0-3.639,2.951-6.59,6.59-6.59h81.82c3.639,0,6.59,2.951,6.59,6.59V199.587z"/>
		<g>
			<g>
				<g>
					<g>
						<path d="M544.518,203.061l1.471,1.427c0,0,0.193-0.232,0.482-0.581c0.129-0.185,0.243-0.424,0.385-0.668
							c0.13-0.25,0.311-0.499,0.381-0.794c0.095-0.285,0.188-0.57,0.277-0.837c0.094-0.266,0.083-0.534,0.124-0.753
							c0.055-0.444,0.092-0.741,0.092-0.741l-1.643-1.186c0,0-0.028,0.281-0.071,0.703c-0.033,0.208-0.017,0.462-0.101,0.714
							c-0.079,0.253-0.162,0.522-0.246,0.792c-0.061,0.279-0.229,0.514-0.348,0.75c-0.13,0.229-0.234,0.456-0.354,0.629
							C544.697,202.843,544.518,203.061,544.518,203.061z"/>
						<path d="M538.441,205.264l1.092,1.653c0,0,0.303-0.002,0.757-0.006c0.458,0.021,1.052-0.045,1.643-0.129
							c0.301-0.014,0.584-0.117,0.851-0.209c0.267-0.088,0.517-0.17,0.73-0.241c0.396-0.217,0.659-0.361,0.659-0.361l-1.358-1.529
							c0,0-0.249,0.133-0.622,0.332c-0.202,0.063-0.438,0.136-0.691,0.215c-0.252,0.081-0.52,0.174-0.806,0.18
							c-0.561,0.065-1.123,0.116-1.548,0.096C538.724,205.264,538.441,205.264,538.441,205.264z"/>
						<polygon points="531.713,205.264 532.319,206.972 537.163,206.936 536.231,205.264 						"/>
						<polygon points="524.984,205.264 525.104,207.028 529.947,206.991 529.501,205.264 						"/>
						<rect x="518.053" y="205.264" width="4.699" height="1.777"/>
						<rect x="511.053" y="205.264" width="4.699" height="1.777"/>
						<rect x="504.056" y="205.264" width="4.698" height="1.777"/>
					</g>
				</g>
				<g>
					<g>
						<rect x="497.056" y="205.264" width="4.699" height="1.777"/>
						<rect x="490.058" y="205.264" width="4.699" height="1.777"/>
						<rect x="483.06" y="205.264" width="4.699" height="1.777"/>
						<rect x="476.061" y="205.264" width="4.698" height="1.777"/>
						<polygon points="469.317,205.264 468.857,206.99 473.702,207.026 473.836,205.264 						"/>
						<polygon points="462.588,205.264 461.643,206.934 466.486,206.971 467.105,205.264 						"/>
						<path d="M456.027,204.356l-1.368,1.521c0,0,0.263,0.146,0.657,0.366c0.19,0.128,0.457,0.169,0.719,0.271
							c0.27,0.074,0.546,0.213,0.843,0.245c0.594,0.063,1.179,0.177,1.639,0.151c0.454,0.003,0.757,0.006,0.757,0.006l1.104-1.652
							c0,0-1.132,0.046-2.253-0.113c-0.547-0.12-1.094-0.29-1.478-0.458C456.275,204.491,456.027,204.356,456.027,204.356z"/>
					</g>
				</g>
				<g>
					<g>
						<path d="M452.913,198.747l-1.645,1.173c0,0,0.002,0.076,0.004,0.208c0.016,0.129,0.039,0.314,0.066,0.537
							s0.06,0.481,0.095,0.759c0.074,0.27,0.178,0.553,0.27,0.839l0.14,0.425c0.062,0.134,0.141,0.258,0.207,0.382
							c0.138,0.247,0.266,0.477,0.376,0.674c0.104,0.201,0.254,0.327,0.329,0.435c0.085,0.102,0.133,0.16,0.133,0.16l1.479-1.417
							c0,0-0.045-0.055-0.124-0.15c-0.069-0.101-0.21-0.218-0.306-0.408c-0.102-0.186-0.22-0.403-0.346-0.636
							c-0.061-0.117-0.134-0.234-0.189-0.361l-0.125-0.402c-0.081-0.271-0.174-0.538-0.239-0.794
							c-0.026-0.263-0.051-0.509-0.072-0.72c-0.021-0.211-0.039-0.386-0.052-0.509C452.913,198.817,452.913,198.747,452.913,198.747
							z"/>
						<polygon points="452.913,192.018 451.214,192.706 451.251,197.549 452.913,196.536 						"/>
						<polygon points="452.913,185.29 451.158,185.492 451.195,190.336 452.913,189.808 						"/>
						<polygon points="452.913,178.403 451.136,178.403 451.141,183.12 452.913,183.078 						"/>
						<polygon points="452.913,171.436 451.142,171.38 451.136,176.104 452.913,176.104 						"/>
						<polygon points="452.913,164.706 451.197,164.165 451.16,169.008 452.913,169.224 						"/>
						<polygon points="452.913,157.979 451.252,156.952 451.215,161.795 452.913,162.496 						"/>
					</g>
				</g>
				<g>
					<g>
						<path d="M454.482,151.634l-1.471-1.427c0,0-0.193,0.232-0.482,0.581c-0.129,0.185-0.243,0.424-0.386,0.668
							c-0.129,0.25-0.31,0.499-0.38,0.794c-0.095,0.285-0.188,0.57-0.277,0.837c-0.094,0.266-0.083,0.533-0.124,0.753
							c-0.055,0.444-0.092,0.74-0.092,0.74l1.643,1.186c0,0,0.028-0.281,0.071-0.703c0.033-0.208,0.017-0.462,0.101-0.714
							c0.079-0.253,0.162-0.523,0.246-0.792c0.061-0.279,0.229-0.514,0.348-0.75c0.13-0.23,0.234-0.456,0.354-0.629
							C454.303,151.852,454.482,151.634,454.482,151.634z"/>
						<path d="M460.559,149.431l-1.092-1.653c0,0-0.303,0.002-0.757,0.006c-0.458-0.021-1.052,0.045-1.643,0.129
							c-0.301,0.014-0.584,0.118-0.851,0.208c-0.267,0.088-0.517,0.171-0.73,0.241c-0.396,0.217-0.659,0.362-0.659,0.362
							l1.358,1.529c0,0,0.249-0.133,0.622-0.332c0.202-0.063,0.438-0.136,0.691-0.214c0.252-0.082,0.52-0.175,0.806-0.181
							c0.562-0.065,1.123-0.116,1.548-0.095C460.276,149.431,460.559,149.431,460.559,149.431z"/>
						<polygon points="467.287,149.431 466.681,147.722 461.837,147.759 462.769,149.431 						"/>
						<polygon points="474.016,149.431 473.896,147.667 469.053,147.704 469.499,149.431 						"/>
						<rect x="476.248" y="147.653" width="4.699" height="1.777"/>
						<rect x="483.248" y="147.653" width="4.699" height="1.777"/>
						<rect x="490.246" y="147.653" width="4.698" height="1.777"/>
					</g>
				</g>
				<g>
					<g>
						<rect x="497.245" y="147.653" width="4.699" height="1.777"/>
						<rect x="504.243" y="147.653" width="4.699" height="1.777"/>
						<rect x="511.241" y="147.653" width="4.699" height="1.777"/>
						<rect x="518.241" y="147.653" width="4.698" height="1.777"/>
						<polygon points="529.683,149.431 530.143,147.706 525.298,147.668 525.164,149.431 						"/>
						<polygon points="536.412,149.431 537.357,147.761 532.514,147.724 531.895,149.431 						"/>
						<path d="M542.973,150.339l1.368-1.521c0,0-0.263-0.146-0.657-0.367c-0.19-0.128-0.457-0.169-0.719-0.27
							c-0.27-0.075-0.546-0.213-0.843-0.246c-0.595-0.064-1.179-0.177-1.639-0.151c-0.454-0.003-0.757-0.006-0.757-0.006
							l-1.104,1.652c0,0,1.132-0.046,2.253,0.113c0.547,0.12,1.094,0.291,1.478,0.458
							C542.725,150.205,542.973,150.339,542.973,150.339z"/>
					</g>
				</g>
				<g>
					<g>
						<path d="M546.087,155.948l1.645-1.172c0,0-0.002-0.076-0.004-0.208c-0.016-0.129-0.039-0.314-0.066-0.537
							s-0.06-0.481-0.095-0.759c-0.074-0.27-0.178-0.553-0.27-0.839l-0.14-0.425c-0.062-0.134-0.141-0.258-0.207-0.382
							c-0.138-0.247-0.266-0.477-0.376-0.675c-0.104-0.201-0.254-0.327-0.329-0.435c-0.085-0.102-0.133-0.16-0.133-0.16
							l-1.479,1.417c0,0,0.045,0.055,0.124,0.15c0.069,0.101,0.21,0.218,0.306,0.408c0.102,0.187,0.22,0.403,0.346,0.636
							c0.061,0.117,0.134,0.234,0.189,0.361l0.125,0.402c0.081,0.271,0.174,0.538,0.239,0.793c0.026,0.264,0.051,0.509,0.072,0.72
							s0.039,0.386,0.052,0.509C546.086,155.877,546.087,155.948,546.087,155.948z"/>
						<polygon points="546.087,162.677 547.786,161.989 547.749,157.145 546.087,158.159 						"/>
						<polygon points="546.087,169.405 547.842,169.203 547.805,164.359 546.087,164.887 						"/>
						<polygon points="546.087,176.292 547.864,176.292 547.859,171.574 546.087,171.617 						"/>
						<polygon points="546.087,183.259 547.857,183.315 547.864,178.591 546.087,178.591 						"/>
						<polygon points="546.087,189.989 547.803,190.53 547.84,185.687 546.087,185.471 						"/>
						<polygon points="546.087,196.716 547.748,197.743 547.785,192.899 546.087,192.199 						"/>
					</g>
				</g>
			</g>
		</g>
	</g>
	<g>
		<path fill="#98CE83" stroke="#000000" stroke-width="2" stroke-miterlimit="10" d="M517,190.38c0,5.387-4.369,9.756-9.757,9.756
			h-17.071c-5.389,0-9.756-4.369-9.756-9.756v-17.071c0-5.387,4.367-9.755,9.756-9.755h17.071c5.388,0,9.757,4.368,9.757,9.755
			V190.38z"/>
		<text transform="matrix(1 0 0 1 490.1084 184.9136)" font-family="'MyriadPro-Regular'" font-size="10.4571">EC2</text>
	</g>
	<g>
		<text transform="matrix(1 0 0 1 465 145.2222)" font-family="'MyriadPro-Regular'" font-size="10.4571">Availability Zone</text>
	</g>
</g>
<g>
	<path fill="#BCDB8E" stroke="#000000" stroke-width="2" stroke-miterlimit="10" d="M426,200.674c0,7.482-4.081,13.548-9.114,13.548
		H315.114c-5.033,0-9.114-6.066-9.114-13.548v-77.903c0-7.482,4.081-13.548,9.114-13.548h101.771c5.033,0,9.114,6.066,9.114,13.548
		V200.674z"/>
	<g>
		<text transform="matrix(1 0 0 1 349 128.9844)" font-family="'MyriadPro-Regular'" font-size="15.1742">Stage</text>
	</g>
	<g>
		<path fill="#D2EAD6" d="M415,199.587c0,3.639-2.951,6.59-6.59,6.59h-81.82c-3.639,0-6.59-2.951-6.59-6.59v-44.48
			c0-3.639,2.951-6.59,6.59-6.59h81.82c3.639,0,6.59,2.951,6.59,6.59V199.587z"/>
		<g>
			<g>
				<g>
					<g>
						<path d="M412.518,203.061l1.471,1.427c0,0,0.193-0.232,0.482-0.581c0.129-0.185,0.243-0.424,0.385-0.668
							c0.13-0.25,0.311-0.499,0.381-0.794c0.095-0.285,0.188-0.57,0.277-0.837c0.094-0.266,0.083-0.534,0.124-0.753
							c0.055-0.444,0.092-0.741,0.092-0.741l-1.643-1.186c0,0-0.028,0.281-0.071,0.703c-0.033,0.208-0.017,0.462-0.101,0.714
							c-0.079,0.253-0.162,0.522-0.246,0.792c-0.061,0.279-0.229,0.514-0.348,0.75c-0.13,0.229-0.234,0.456-0.354,0.629
							C412.697,202.843,412.518,203.061,412.518,203.061z"/>
						<path d="M406.441,205.264l1.092,1.653c0,0,0.303-0.002,0.757-0.006c0.458,0.021,1.052-0.045,1.643-0.129
							c0.301-0.014,0.584-0.117,0.851-0.209c0.267-0.088,0.517-0.17,0.73-0.241c0.396-0.217,0.659-0.361,0.659-0.361l-1.358-1.529
							c0,0-0.249,0.133-0.622,0.332c-0.202,0.063-0.438,0.136-0.691,0.215c-0.252,0.081-0.52,0.174-0.806,0.18
							c-0.562,0.065-1.123,0.116-1.548,0.096C406.724,205.264,406.441,205.264,406.441,205.264z"/>
						<polygon points="399.713,205.264 400.319,206.972 405.163,206.936 404.231,205.264 						"/>
						<polygon points="392.984,205.264 393.104,207.028 397.947,206.991 397.501,205.264 						"/>
						<rect x="386.053" y="205.264" width="4.699" height="1.777"/>
						<rect x="379.053" y="205.264" width="4.699" height="1.777"/>
						<rect x="372.056" y="205.264" width="4.698" height="1.777"/>
					</g>
				</g>
				<g>
					<g>
						<rect x="365.056" y="205.264" width="4.699" height="1.777"/>
						<rect x="358.058" y="205.264" width="4.699" height="1.777"/>
						<rect x="351.06" y="205.264" width="4.699" height="1.777"/>
						<rect x="344.061" y="205.264" width="4.698" height="1.777"/>
						<polygon points="337.317,205.264 336.857,206.99 341.702,207.026 341.836,205.264 						"/>
						<polygon points="330.588,205.264 329.643,206.934 334.486,206.971 335.105,205.264 						"/>
						<path d="M324.027,204.356l-1.368,1.521c0,0,0.263,0.146,0.657,0.366c0.19,0.128,0.457,0.169,0.719,0.271
							c0.27,0.074,0.546,0.213,0.843,0.245c0.594,0.063,1.179,0.177,1.639,0.151c0.454,0.003,0.757,0.006,0.757,0.006l1.104-1.652
							c0,0-1.132,0.046-2.253-0.113c-0.547-0.12-1.094-0.29-1.478-0.458C324.275,204.491,324.027,204.356,324.027,204.356z"/>
					</g>
				</g>
				<g>
					<g>
						<path d="M320.913,198.747l-1.645,1.173c0,0,0.002,0.076,0.004,0.208c0.016,0.129,0.039,0.314,0.066,0.537
							s0.06,0.481,0.095,0.759c0.074,0.27,0.178,0.553,0.27,0.839l0.14,0.425c0.062,0.134,0.141,0.258,0.207,0.382
							c0.138,0.247,0.266,0.477,0.376,0.674c0.104,0.201,0.254,0.327,0.329,0.435c0.085,0.102,0.133,0.16,0.133,0.16l1.479-1.417
							c0,0-0.045-0.055-0.124-0.15c-0.069-0.101-0.21-0.218-0.306-0.408c-0.102-0.186-0.22-0.403-0.346-0.636
							c-0.061-0.117-0.134-0.234-0.189-0.361l-0.125-0.402c-0.081-0.271-0.174-0.538-0.239-0.794
							c-0.026-0.263-0.051-0.509-0.072-0.72c-0.021-0.211-0.039-0.386-0.052-0.509C320.913,198.817,320.913,198.747,320.913,198.747
							z"/>
						<polygon points="320.913,192.018 319.214,192.706 319.251,197.549 320.913,196.536 						"/>
						<polygon points="320.913,185.29 319.158,185.492 319.195,190.336 320.913,189.808 						"/>
						<polygon points="320.913,178.403 319.136,178.403 319.141,183.12 320.913,183.078 						"/>
						<polygon points="320.913,171.436 319.142,171.38 319.136,176.104 320.913,176.104 						"/>
						<polygon points="320.913,164.706 319.197,164.165 319.16,169.008 320.913,169.224 						"/>
						<polygon points="320.913,157.979 319.252,156.952 319.215,161.795 320.913,162.496 						"/>
					</g>
				</g>
				<g>
					<g>
						<path d="M322.482,151.634l-1.471-1.427c0,0-0.193,0.232-0.482,0.581c-0.129,0.185-0.243,0.424-0.386,0.668
							c-0.129,0.25-0.31,0.499-0.38,0.794c-0.095,0.285-0.188,0.57-0.277,0.837c-0.094,0.266-0.083,0.533-0.124,0.753
							c-0.055,0.444-0.092,0.74-0.092,0.74l1.643,1.186c0,0,0.028-0.281,0.071-0.703c0.033-0.208,0.017-0.462,0.101-0.714
							c0.079-0.253,0.162-0.523,0.246-0.792c0.061-0.279,0.229-0.514,0.348-0.75c0.13-0.23,0.234-0.456,0.354-0.629
							C322.303,151.852,322.482,151.634,322.482,151.634z"/>
						<path d="M328.559,149.431l-1.092-1.653c0,0-0.303,0.002-0.757,0.006c-0.458-0.021-1.052,0.045-1.643,0.129
							c-0.301,0.014-0.584,0.118-0.851,0.208c-0.267,0.088-0.517,0.171-0.73,0.241c-0.396,0.217-0.659,0.362-0.659,0.362
							l1.358,1.529c0,0,0.249-0.133,0.622-0.332c0.202-0.063,0.438-0.136,0.691-0.214c0.252-0.082,0.52-0.175,0.806-0.181
							c0.562-0.065,1.123-0.116,1.548-0.095C328.276,149.431,328.559,149.431,328.559,149.431z"/>
						<polygon points="335.287,149.431 334.681,147.722 329.837,147.759 330.769,149.431 						"/>
						<polygon points="342.016,149.431 341.896,147.667 337.053,147.704 337.499,149.431 						"/>
						<rect x="344.248" y="147.653" width="4.699" height="1.777"/>
						<rect x="351.248" y="147.653" width="4.699" height="1.777"/>
						<rect x="358.246" y="147.653" width="4.698" height="1.777"/>
					</g>
				</g>
				<g>
					<g>
						<rect x="365.245" y="147.653" width="4.699" height="1.777"/>
						<rect x="372.243" y="147.653" width="4.699" height="1.777"/>
						<rect x="379.241" y="147.653" width="4.699" height="1.777"/>
						<rect x="386.241" y="147.653" width="4.698" height="1.777"/>
						<polygon points="397.683,149.431 398.143,147.706 393.298,147.668 393.164,149.431 						"/>
						<polygon points="404.412,149.431 405.357,147.761 400.514,147.724 399.895,149.431 						"/>
						<path d="M410.973,150.339l1.368-1.521c0,0-0.263-0.146-0.657-0.367c-0.19-0.128-0.457-0.169-0.719-0.27
							c-0.27-0.075-0.546-0.213-0.843-0.246c-0.594-0.064-1.179-0.177-1.639-0.151c-0.454-0.003-0.757-0.006-0.757-0.006
							l-1.104,1.652c0,0,1.132-0.046,2.253,0.113c0.547,0.12,1.094,0.291,1.478,0.458
							C410.725,150.205,410.973,150.339,410.973,150.339z"/>
					</g>
				</g>
				<g>
					<g>
						<path d="M414.087,155.948l1.645-1.172c0,0-0.002-0.076-0.004-0.208c-0.016-0.129-0.039-0.314-0.066-0.537
							s-0.06-0.481-0.095-0.759c-0.074-0.27-0.178-0.553-0.27-0.839l-0.14-0.425c-0.062-0.134-0.141-0.258-0.207-0.382
							c-0.138-0.247-0.266-0.477-0.376-0.675c-0.104-0.201-0.254-0.327-0.329-0.435c-0.085-0.102-0.133-0.16-0.133-0.16
							l-1.479,1.417c0,0,0.045,0.055,0.124,0.15c0.07,0.101,0.21,0.218,0.307,0.408c0.101,0.187,0.219,0.403,0.345,0.636
							c0.061,0.117,0.134,0.234,0.189,0.361l0.125,0.402c0.081,0.271,0.174,0.538,0.239,0.793c0.026,0.264,0.051,0.509,0.072,0.72
							s0.039,0.386,0.052,0.509C414.087,155.877,414.087,155.948,414.087,155.948z"/>
						<polygon points="414.087,162.677 415.786,161.989 415.749,157.145 414.087,158.159 						"/>
						<polygon points="414.087,169.405 415.842,169.203 415.805,164.359 414.087,164.887 						"/>
						<polygon points="414.087,176.292 415.864,176.292 415.859,171.574 414.087,171.617 						"/>
						<polygon points="414.087,183.259 415.858,183.315 415.864,178.591 414.087,178.591 						"/>
						<polygon points="414.087,189.989 415.803,190.53 415.84,185.687 414.087,185.471 						"/>
						<polygon points="414.087,196.716 415.748,197.743 415.785,192.899 414.087,192.199 						"/>
					</g>
				</g>
			</g>
		</g>
	</g>
	<g>
		<path fill="#98CE83" stroke="#000000" stroke-width="2" stroke-miterlimit="10" d="M385,190.38c0,5.387-4.369,9.756-9.757,9.756
			h-17.071c-5.389,0-9.756-4.369-9.756-9.756v-17.071c0-5.387,4.367-9.755,9.756-9.755h17.071c5.388,0,9.757,4.368,9.757,9.755
			V190.38z"/>
		<text transform="matrix(1 0 0 1 358.1084 184.9136)" font-family="'MyriadPro-Regular'" font-size="10.4571">EC2</text>
	</g>
	<g>
		<text transform="matrix(1 0 0 1 333 145.2222)" font-family="'MyriadPro-Regular'" font-size="10.4571">Availability Zone</text>
	</g>
</g>
<g>
	<text transform="matrix(1 0 0 1 64 128.9844)" font-family="'MyriadPro-Regular'" font-size="15.1742">Environment (Production)</text>
</g>
<g>
	<g>
		<path fill="#D2EAD6" d="M159,196.587c0,3.639-2.951,6.589-6.59,6.589H70.59c-3.639,0-6.59-2.951-6.59-6.589v-44.48
			c0-3.639,2.951-6.59,6.59-6.59h81.82c3.639,0,6.59,2.951,6.59,6.59V196.587z"/>
		<g>
			<g>
				<g>
					<g>
						<path d="M156.518,200.061l1.471,1.427c0,0,0.193-0.232,0.482-0.581c0.129-0.185,0.244-0.424,0.386-0.668
							c0.129-0.25,0.311-0.499,0.381-0.794c0.094-0.285,0.188-0.57,0.276-0.837c0.094-0.266,0.083-0.534,0.124-0.753
							c0.056-0.444,0.092-0.74,0.092-0.74l-1.643-1.186c0,0-0.028,0.281-0.071,0.703c-0.034,0.208-0.018,0.462-0.102,0.714
							c-0.078,0.253-0.162,0.522-0.246,0.792c-0.061,0.279-0.229,0.513-0.347,0.75c-0.131,0.229-0.235,0.456-0.355,0.629
							C156.697,199.843,156.518,200.061,156.518,200.061z"/>
						<path d="M150.441,202.264l1.091,1.653c0,0,0.303-0.002,0.757-0.006c0.459,0.021,1.053-0.045,1.643-0.129
							c0.301-0.014,0.584-0.117,0.851-0.208c0.267-0.088,0.517-0.171,0.73-0.241c0.396-0.217,0.66-0.362,0.66-0.362l-1.358-1.529
							c0,0-0.249,0.133-0.623,0.332c-0.202,0.063-0.438,0.136-0.691,0.214c-0.252,0.082-0.52,0.175-0.806,0.181
							c-0.562,0.065-1.124,0.116-1.548,0.095C150.724,202.264,150.441,202.264,150.441,202.264z"/>
						<polygon points="143.713,202.264 144.319,203.972 149.163,203.935 148.231,202.264 						"/>
						<polygon points="136.983,202.264 137.104,204.027 141.947,203.99 141.501,202.264 						"/>
						<rect x="130.052" y="202.264" width="4.699" height="1.777"/>
						<rect x="123.053" y="202.264" width="4.699" height="1.777"/>
						<rect x="116.056" y="202.264" width="4.698" height="1.777"/>
					</g>
				</g>
				<g>
					<g>
						<rect x="109.056" y="202.264" width="4.699" height="1.777"/>
						<rect x="102.057" y="202.264" width="4.699" height="1.777"/>
						<rect x="95.059" y="202.264" width="4.7" height="1.777"/>
						<rect x="88.06" y="202.264" width="4.699" height="1.777"/>
						<polygon points="81.317,202.264 80.857,203.989 85.702,204.026 85.835,202.264 						"/>
						<polygon points="74.587,202.264 73.643,203.934 78.486,203.971 79.105,202.264 						"/>
						<path d="M68.027,201.355l-1.368,1.521c0,0,0.263,0.146,0.658,0.367c0.189,0.128,0.456,0.169,0.718,0.27
							c0.27,0.075,0.546,0.213,0.843,0.246c0.594,0.064,1.179,0.177,1.638,0.151c0.454,0.003,0.757,0.006,0.757,0.006l1.104-1.652
							c0,0-1.132,0.046-2.253-0.113c-0.546-0.12-1.094-0.291-1.478-0.458C68.275,201.49,68.027,201.355,68.027,201.355z"/>
					</g>
				</g>
				<g>
					<g>
						<path d="M64.913,195.747l-1.644,1.172c0,0,0.001,0.076,0.003,0.208c0.016,0.129,0.039,0.314,0.067,0.537
							s0.06,0.481,0.094,0.759c0.074,0.27,0.179,0.553,0.27,0.839l0.141,0.425c0.061,0.134,0.14,0.258,0.207,0.382
							c0.137,0.247,0.266,0.477,0.376,0.675c0.104,0.201,0.254,0.327,0.329,0.435c0.084,0.102,0.133,0.16,0.133,0.16l1.479-1.417
							c0,0-0.045-0.055-0.124-0.15c-0.07-0.101-0.21-0.218-0.306-0.408c-0.101-0.187-0.219-0.403-0.345-0.636
							c-0.061-0.117-0.134-0.234-0.189-0.361l-0.125-0.402c-0.081-0.271-0.174-0.538-0.239-0.794
							c-0.026-0.263-0.051-0.509-0.072-0.72c-0.021-0.211-0.039-0.386-0.051-0.509C64.914,195.817,64.913,195.747,64.913,195.747z"
							/>
						<polygon points="64.913,189.018 63.214,189.705 63.251,194.549 64.913,193.536 						"/>
						<polygon points="64.913,182.29 63.159,182.492 63.196,187.335 64.913,186.808 						"/>
						<polygon points="64.913,175.403 63.136,175.403 63.141,180.12 64.913,180.077 						"/>
						<polygon points="64.913,168.435 63.142,168.379 63.136,173.104 64.913,173.104 						"/>
						<polygon points="64.913,161.706 63.197,161.165 63.16,166.008 64.913,166.223 						"/>
						<polygon points="64.913,154.978 63.252,153.952 63.215,158.795 64.913,159.496 						"/>
					</g>
				</g>
				<g>
					<g>
						<path d="M66.482,148.634l-1.471-1.427c0,0-0.193,0.232-0.482,0.581c-0.129,0.184-0.244,0.424-0.386,0.667
							c-0.129,0.25-0.311,0.499-0.381,0.794c-0.094,0.285-0.188,0.57-0.276,0.837c-0.094,0.266-0.083,0.534-0.124,0.753
							c-0.056,0.444-0.092,0.741-0.092,0.741l1.643,1.186c0,0,0.028-0.281,0.071-0.703c0.034-0.208,0.018-0.462,0.102-0.714
							c0.079-0.253,0.162-0.522,0.246-0.792c0.061-0.279,0.229-0.513,0.347-0.749c0.13-0.23,0.234-0.457,0.354-0.63
							C66.303,148.852,66.482,148.634,66.482,148.634z"/>
						<path d="M72.559,146.431l-1.091-1.653c0,0-0.303,0.002-0.757,0.006c-0.459-0.021-1.053,0.045-1.643,0.129
							c-0.301,0.014-0.584,0.117-0.851,0.208c-0.267,0.088-0.517,0.171-0.73,0.241c-0.396,0.217-0.66,0.362-0.66,0.362l1.358,1.529
							c0,0,0.249-0.133,0.623-0.332c0.202-0.063,0.438-0.136,0.691-0.214c0.252-0.082,0.52-0.175,0.806-0.181
							c0.562-0.065,1.124-0.116,1.548-0.095C72.276,146.431,72.559,146.431,72.559,146.431z"/>
						<polygon points="79.287,146.431 78.681,144.722 73.837,144.759 74.769,146.431 						"/>
						<polygon points="86.017,146.431 85.896,144.667 81.053,144.704 81.499,146.431 						"/>
						<rect x="88.249" y="144.653" width="4.699" height="1.777"/>
						<rect x="95.249" y="144.653" width="4.699" height="1.777"/>
						<rect x="102.246" y="144.653" width="4.698" height="1.777"/>
					</g>
				</g>
				<g>
					<g>
						<rect x="109.245" y="144.653" width="4.699" height="1.777"/>
						<rect x="116.244" y="144.653" width="4.699" height="1.777"/>
						<rect x="123.241" y="144.653" width="4.7" height="1.777"/>
						<rect x="130.241" y="144.653" width="4.699" height="1.777"/>
						<polygon points="141.683,146.431 142.143,144.706 137.298,144.668 137.165,146.431 						"/>
						<polygon points="148.413,146.431 149.357,144.761 144.514,144.724 143.895,146.431 						"/>
						<path d="M154.973,147.339l1.368-1.521c0,0-0.263-0.146-0.658-0.367c-0.189-0.128-0.456-0.169-0.718-0.27
							c-0.27-0.075-0.546-0.213-0.843-0.246c-0.594-0.064-1.179-0.177-1.638-0.151c-0.454-0.003-0.757-0.006-0.757-0.006
							l-1.104,1.652c0,0,1.132-0.046,2.253,0.113c0.546,0.12,1.094,0.291,1.478,0.458
							C154.725,147.205,154.973,147.339,154.973,147.339z"/>
					</g>
				</g>
				<g>
					<g>
						<path d="M158.087,152.948l1.644-1.173c0,0-0.001-0.076-0.003-0.208c-0.016-0.129-0.039-0.314-0.067-0.537
							s-0.06-0.481-0.095-0.759c-0.074-0.27-0.178-0.553-0.269-0.839l-0.141-0.425c-0.061-0.134-0.14-0.258-0.207-0.382
							c-0.137-0.247-0.266-0.477-0.376-0.675c-0.104-0.201-0.254-0.327-0.329-0.434c-0.084-0.102-0.133-0.16-0.133-0.16
							l-1.479,1.417c0,0,0.045,0.055,0.124,0.15c0.07,0.101,0.21,0.218,0.306,0.408c0.101,0.187,0.219,0.403,0.345,0.636
							c0.061,0.117,0.134,0.234,0.189,0.361l0.125,0.402c0.081,0.271,0.174,0.538,0.239,0.794c0.026,0.263,0.051,0.509,0.072,0.72
							c0.021,0.211,0.039,0.386,0.051,0.509C158.086,152.877,158.087,152.948,158.087,152.948z"/>
						<polygon points="158.087,159.677 159.786,158.989 159.749,154.146 158.087,155.159 						"/>
						<polygon points="158.087,166.405 159.841,166.203 159.804,161.359 158.087,161.887 						"/>
						<polygon points="158.087,173.292 159.864,173.292 159.859,168.575 158.087,168.617 						"/>
						<polygon points="158.087,180.259 159.858,180.315 159.864,175.591 158.087,175.591 						"/>
						<polygon points="158.087,186.989 159.803,187.53 159.84,182.687 158.087,182.471 						"/>
						<polygon points="158.087,193.716 159.748,194.743 159.785,189.899 158.087,189.199 						"/>
					</g>
				</g>
			</g>
		</g>
	</g>
	<g>
		<path fill="#98CE83" stroke="#000000" stroke-width="2" stroke-miterlimit="10" d="M151.123,187.38
			c0,5.387-4.369,9.756-9.757,9.756h-17.071c-5.389,0-9.756-4.369-9.756-9.756v-17.071c0-5.387,4.367-9.755,9.756-9.755h17.071
			c5.388,0,9.757,4.368,9.757,9.755V187.38z"/>
		<text transform="matrix(1 0 0 1 124.2314 181.9136)" font-family="'MyriadPro-Regular'" font-size="10.4571">EC2</text>
	</g>
	<g>
		<path fill="#98CE83" stroke="#000000" stroke-width="2" stroke-miterlimit="10" d="M108.271,187.38
			c0,5.387-4.369,9.756-9.757,9.756H81.443c-5.389,0-9.756-4.369-9.756-9.756v-17.071c0-5.387,4.367-9.755,9.756-9.755h17.071
			c5.388,0,9.757,4.368,9.757,9.755V187.38z"/>
		<text transform="matrix(1 0 0 1 81.3789 181.9136)" font-family="'MyriadPro-Regular'" font-size="10.4571">EC2</text>
	</g>
	<g>
		<text transform="matrix(1 0 0 1 76.082 142.2222)" font-family="'MyriadPro-Regular'" font-size="10.4571">Availability Zone</text>
	</g>
</g>
<g>
	<g>
		<path fill="#D2EAD6" d="M259,196.587c0,3.639-2.951,6.589-6.59,6.589h-81.82c-3.639,0-6.59-2.951-6.59-6.589v-44.48
			c0-3.639,2.951-6.59,6.59-6.59h81.82c3.639,0,6.59,2.951,6.59,6.59V196.587z"/>
		<g>
			<g>
				<g>
					<g>
						<path d="M256.518,200.061l1.471,1.427c0,0,0.193-0.232,0.482-0.581c0.129-0.185,0.244-0.424,0.386-0.668
							c0.129-0.25,0.311-0.499,0.381-0.794c0.094-0.285,0.188-0.57,0.276-0.837c0.094-0.266,0.083-0.534,0.124-0.753
							c0.056-0.444,0.092-0.74,0.092-0.74l-1.643-1.186c0,0-0.028,0.281-0.071,0.703c-0.034,0.208-0.018,0.462-0.102,0.714
							c-0.078,0.253-0.162,0.522-0.246,0.792c-0.061,0.279-0.229,0.513-0.347,0.75c-0.131,0.229-0.235,0.456-0.355,0.629
							C256.697,199.843,256.518,200.061,256.518,200.061z"/>
						<path d="M250.441,202.264l1.091,1.653c0,0,0.303-0.002,0.757-0.006c0.459,0.021,1.053-0.045,1.643-0.129
							c0.301-0.014,0.584-0.117,0.851-0.208c0.267-0.088,0.517-0.171,0.73-0.241c0.396-0.217,0.66-0.362,0.66-0.362l-1.358-1.529
							c0,0-0.249,0.133-0.623,0.332c-0.202,0.063-0.438,0.136-0.691,0.214c-0.252,0.082-0.52,0.175-0.806,0.181
							c-0.562,0.065-1.124,0.116-1.548,0.095C250.724,202.264,250.441,202.264,250.441,202.264z"/>
						<polygon points="243.713,202.264 244.319,203.972 249.163,203.935 248.231,202.264 						"/>
						<polygon points="236.983,202.264 237.104,204.027 241.947,203.99 241.501,202.264 						"/>
						<rect x="230.052" y="202.264" width="4.699" height="1.777"/>
						<rect x="223.053" y="202.264" width="4.699" height="1.777"/>
						<rect x="216.056" y="202.264" width="4.698" height="1.777"/>
					</g>
				</g>
				<g>
					<g>
						<rect x="209.056" y="202.264" width="4.699" height="1.777"/>
						<rect x="202.057" y="202.264" width="4.699" height="1.777"/>
						<rect x="195.059" y="202.264" width="4.7" height="1.777"/>
						<rect x="188.06" y="202.264" width="4.699" height="1.777"/>
						<polygon points="181.317,202.264 180.857,203.989 185.702,204.026 185.835,202.264 						"/>
						<polygon points="174.587,202.264 173.643,203.934 178.486,203.971 179.105,202.264 						"/>
						<path d="M168.027,201.355l-1.368,1.521c0,0,0.263,0.146,0.658,0.367c0.189,0.128,0.456,0.169,0.718,0.27
							c0.27,0.075,0.546,0.213,0.843,0.246c0.594,0.064,1.179,0.177,1.638,0.151c0.454,0.003,0.757,0.006,0.757,0.006l1.104-1.652
							c0,0-1.132,0.046-2.253-0.113c-0.546-0.12-1.094-0.291-1.478-0.458C168.275,201.49,168.027,201.355,168.027,201.355z"/>
					</g>
				</g>
				<g>
					<g>
						<path d="M164.913,195.747l-1.644,1.172c0,0,0.001,0.076,0.003,0.208c0.016,0.129,0.039,0.314,0.067,0.537
							s0.06,0.481,0.094,0.759c0.074,0.27,0.179,0.553,0.27,0.839l0.141,0.425c0.061,0.134,0.14,0.258,0.207,0.382
							c0.137,0.247,0.266,0.477,0.376,0.675c0.104,0.201,0.254,0.327,0.329,0.435c0.084,0.102,0.133,0.16,0.133,0.16l1.479-1.417
							c0,0-0.045-0.055-0.124-0.15c-0.07-0.101-0.21-0.218-0.306-0.408c-0.101-0.187-0.219-0.403-0.345-0.636
							c-0.061-0.117-0.134-0.234-0.189-0.361l-0.125-0.402c-0.081-0.271-0.174-0.538-0.239-0.794
							c-0.026-0.263-0.051-0.509-0.072-0.72c-0.021-0.211-0.039-0.386-0.052-0.509C164.914,195.817,164.913,195.747,164.913,195.747
							z"/>
						<polygon points="164.913,189.018 163.214,189.705 163.251,194.549 164.913,193.536 						"/>
						<polygon points="164.913,182.29 163.159,182.492 163.196,187.335 164.913,186.808 						"/>
						<polygon points="164.913,175.403 163.136,175.403 163.141,180.12 164.913,180.077 						"/>
						<polygon points="164.913,168.435 163.142,168.379 163.136,173.104 164.913,173.104 						"/>
						<polygon points="164.913,161.706 163.197,161.165 163.16,166.008 164.913,166.223 						"/>
						<polygon points="164.913,154.978 163.252,153.952 163.215,158.795 164.913,159.496 						"/>
					</g>
				</g>
				<g>
					<g>
						<path d="M166.482,148.634l-1.471-1.427c0,0-0.193,0.232-0.482,0.581c-0.129,0.184-0.244,0.424-0.386,0.667
							c-0.129,0.25-0.311,0.499-0.381,0.794c-0.094,0.285-0.188,0.57-0.276,0.837c-0.094,0.266-0.083,0.534-0.124,0.753
							c-0.056,0.444-0.092,0.741-0.092,0.741l1.643,1.186c0,0,0.028-0.281,0.071-0.703c0.034-0.208,0.018-0.462,0.102-0.714
							c0.079-0.253,0.162-0.522,0.246-0.792c0.061-0.279,0.229-0.513,0.347-0.749c0.13-0.23,0.234-0.457,0.354-0.63
							C166.303,148.852,166.482,148.634,166.482,148.634z"/>
						<path d="M172.559,146.431l-1.091-1.653c0,0-0.303,0.002-0.757,0.006c-0.459-0.021-1.053,0.045-1.643,0.129
							c-0.301,0.014-0.584,0.117-0.851,0.208c-0.267,0.088-0.517,0.171-0.73,0.241c-0.396,0.217-0.66,0.362-0.66,0.362l1.358,1.529
							c0,0,0.249-0.133,0.623-0.332c0.202-0.063,0.438-0.136,0.691-0.214c0.252-0.082,0.52-0.175,0.806-0.181
							c0.562-0.065,1.124-0.116,1.548-0.095C172.276,146.431,172.559,146.431,172.559,146.431z"/>
						<polygon points="179.287,146.431 178.681,144.722 173.837,144.759 174.769,146.431 						"/>
						<polygon points="186.017,146.431 185.896,144.667 181.053,144.704 181.499,146.431 						"/>
						<rect x="188.249" y="144.653" width="4.699" height="1.777"/>
						<rect x="195.249" y="144.653" width="4.699" height="1.777"/>
						<rect x="202.246" y="144.653" width="4.698" height="1.777"/>
					</g>
				</g>
				<g>
					<g>
						<rect x="209.245" y="144.653" width="4.699" height="1.777"/>
						<rect x="216.244" y="144.653" width="4.699" height="1.777"/>
						<rect x="223.241" y="144.653" width="4.7" height="1.777"/>
						<rect x="230.241" y="144.653" width="4.699" height="1.777"/>
						<polygon points="241.683,146.431 242.143,144.706 237.298,144.668 237.165,146.431 						"/>
						<polygon points="248.413,146.431 249.357,144.761 244.514,144.724 243.895,146.431 						"/>
						<path d="M254.973,147.339l1.368-1.521c0,0-0.263-0.146-0.658-0.367c-0.189-0.128-0.456-0.169-0.718-0.27
							c-0.27-0.075-0.546-0.213-0.843-0.246c-0.594-0.064-1.179-0.177-1.638-0.151c-0.454-0.003-0.757-0.006-0.757-0.006
							l-1.104,1.652c0,0,1.132-0.046,2.253,0.113c0.546,0.12,1.094,0.291,1.478,0.458
							C254.725,147.205,254.973,147.339,254.973,147.339z"/>
					</g>
				</g>
				<g>
					<g>
						<path d="M258.087,152.948l1.644-1.173c0,0-0.001-0.076-0.003-0.208c-0.016-0.129-0.039-0.314-0.067-0.537
							s-0.06-0.481-0.095-0.759c-0.074-0.27-0.178-0.553-0.269-0.839l-0.141-0.425c-0.061-0.134-0.14-0.258-0.207-0.382
							c-0.137-0.247-0.266-0.477-0.376-0.675c-0.104-0.201-0.254-0.327-0.329-0.434c-0.084-0.102-0.133-0.16-0.133-0.16
							l-1.479,1.417c0,0,0.045,0.055,0.124,0.15c0.07,0.101,0.21,0.218,0.306,0.408c0.101,0.187,0.219,0.403,0.345,0.636
							c0.061,0.117,0.134,0.234,0.189,0.361l0.125,0.402c0.081,0.271,0.174,0.538,0.239,0.794c0.026,0.263,0.051,0.509,0.072,0.72
							c0.021,0.211,0.039,0.386,0.051,0.509C258.086,152.877,258.087,152.948,258.087,152.948z"/>
						<polygon points="258.087,159.677 259.786,158.989 259.749,154.146 258.087,155.159 						"/>
						<polygon points="258.087,166.405 259.841,166.203 259.804,161.359 258.087,161.887 						"/>
						<polygon points="258.087,173.292 259.864,173.292 259.859,168.575 258.087,168.617 						"/>
						<polygon points="258.087,180.259 259.858,180.315 259.864,175.591 258.087,175.591 						"/>
						<polygon points="258.087,186.989 259.803,187.53 259.84,182.687 258.087,182.471 						"/>
						<polygon points="258.087,193.716 259.748,194.743 259.785,189.899 258.087,189.199 						"/>
					</g>
				</g>
			</g>
		</g>
	</g>
	<g>
		<path fill="#98CE83" stroke="#000000" stroke-width="2" stroke-miterlimit="10" d="M251.123,187.38
			c0,5.387-4.369,9.756-9.757,9.756h-17.071c-5.389,0-9.756-4.369-9.756-9.756v-17.071c0-5.387,4.367-9.755,9.756-9.755h17.071
			c5.388,0,9.757,4.368,9.757,9.755V187.38z"/>
		<text transform="matrix(1 0 0 1 224.2314 181.9136)" font-family="'MyriadPro-Regular'" font-size="10.4571">EC2</text>
	</g>
	<g>
		<path fill="#98CE83" stroke="#000000" stroke-width="2" stroke-miterlimit="10" d="M208.271,187.38
			c0,5.387-4.369,9.756-9.757,9.756h-17.071c-5.389,0-9.756-4.369-9.756-9.756v-17.071c0-5.387,4.367-9.755,9.756-9.755h17.071
			c5.388,0,9.757,4.368,9.757,9.755V187.38z"/>
		<text transform="matrix(1 0 0 1 181.3789 181.9136)" font-family="'MyriadPro-Regular'" font-size="10.4571">EC2</text>
	</g>
	<g>
		<text transform="matrix(1 0 0 1 176.082 142.2222)" font-family="'MyriadPro-Regular'" font-size="10.4571">Availability Zone</text>
	</g>
</g>
<path fill="#49B749" stroke="#000000" stroke-width="2" stroke-miterlimit="10" d="M573,377.655c0,6.94-5.373,12.567-12,12.567H51
	c-6.627,0-12-5.627-12-12.567V247.79c0-6.94,5.373-12.567,12-12.567h510c6.627,0,12,5.627,12,12.567V377.655z"/>
<path fill="#BCDB8E" stroke="#000000" stroke-width="2" stroke-miterlimit="10" d="M276,365.869c0,6.823-4.062,12.354-9.07,12.354
	H59.07c-5.009,0-9.07-5.53-9.07-12.354v-80.293c0-6.823,4.062-12.354,9.07-12.354H266.93c5.009,0,9.07,5.53,9.07,12.354V365.869z"/>
<g>
	<text transform="matrix(1 0 0 1 56.0005 262.2222)"><tspan x="0" y="0" font-family="'MyriadPro-Bold'" font-size="19.043">Application </tspan><tspan x="102.563" y="0" font-family="'MyriadPro-Regular'" font-size="19.043">(Adobe TV CMS)</tspan></text>
</g>
<g>
	<path fill="#BCDB8E" stroke="#000000" stroke-width="2" stroke-miterlimit="10" d="M559,364.673c0,7.482-4.081,13.549-9.114,13.549
		H448.114c-5.033,0-9.114-6.066-9.114-13.549v-77.902c0-7.482,4.081-13.549,9.114-13.549h101.771c5.033,0,9.114,6.066,9.114,13.549
		V364.673z"/>
	<g>
		<text transform="matrix(1 0 0 1 454 292.9839)" font-family="'MyriadPro-Regular'" font-size="15.1742">Development</text>
	</g>
	<g>
		<path fill="#D2EAD6" d="M548,363.587c0,3.639-2.951,6.59-6.59,6.59h-81.82c-3.639,0-6.59-2.951-6.59-6.59v-44.48
			c0-3.639,2.951-6.59,6.59-6.59h81.82c3.639,0,6.59,2.951,6.59,6.59V363.587z"/>
		<g>
			<g>
				<g>
					<g>
						<path d="M545.518,367.061l1.471,1.427c0,0,0.193-0.232,0.482-0.581c0.129-0.185,0.243-0.424,0.385-0.668
							c0.13-0.25,0.311-0.499,0.381-0.794c0.095-0.285,0.188-0.57,0.277-0.837c0.094-0.267,0.083-0.534,0.124-0.754
							c0.055-0.444,0.092-0.74,0.092-0.74l-1.643-1.186c0,0-0.028,0.281-0.071,0.702c-0.033,0.208-0.017,0.463-0.101,0.715
							c-0.079,0.252-0.162,0.522-0.246,0.792c-0.061,0.279-0.229,0.514-0.348,0.749c-0.13,0.23-0.234,0.457-0.354,0.63
							C545.697,366.843,545.518,367.061,545.518,367.061z"/>
						<path d="M539.441,369.264l1.092,1.653c0,0,0.303-0.002,0.757-0.006c0.458,0.021,1.052-0.045,1.643-0.129
							c0.301-0.014,0.584-0.117,0.851-0.209c0.267-0.088,0.517-0.17,0.73-0.241c0.396-0.217,0.659-0.361,0.659-0.361l-1.358-1.529
							c0,0-0.249,0.133-0.622,0.332c-0.202,0.063-0.438,0.136-0.691,0.215c-0.252,0.081-0.52,0.174-0.806,0.18
							c-0.562,0.065-1.123,0.116-1.548,0.096C539.724,369.264,539.441,369.264,539.441,369.264z"/>
						<polygon points="532.713,369.264 533.319,370.972 538.163,370.936 537.231,369.264 						"/>
						<polygon points="525.983,369.264 526.104,371.028 530.947,370.991 530.501,369.264 						"/>
						<rect x="519.053" y="369.264" width="4.699" height="1.777"/>
						<rect x="512.053" y="369.264" width="4.699" height="1.777"/>
						<rect x="505.056" y="369.264" width="4.698" height="1.777"/>
					</g>
				</g>
				<g>
					<g>
						<rect x="498.056" y="369.264" width="4.699" height="1.777"/>
						<rect x="491.058" y="369.264" width="4.699" height="1.777"/>
						<rect x="484.06" y="369.264" width="4.699" height="1.777"/>
						<rect x="477.061" y="369.264" width="4.698" height="1.777"/>
						<polygon points="470.317,369.264 469.857,370.99 474.701,371.026 474.835,369.264 						"/>
						<polygon points="463.587,369.264 462.643,370.934 467.486,370.971 468.105,369.264 						"/>
						<path d="M457.026,368.356l-1.367,1.521c0,0,0.263,0.146,0.657,0.366c0.19,0.128,0.457,0.169,0.719,0.271
							c0.27,0.074,0.546,0.213,0.843,0.245c0.594,0.063,1.179,0.177,1.639,0.151c0.454,0.003,0.757,0.006,0.757,0.006l1.104-1.652
							c0,0-1.131,0.046-2.253-0.113c-0.546-0.12-1.094-0.29-1.477-0.459C457.275,368.491,457.026,368.356,457.026,368.356z"/>
					</g>
				</g>
				<g>
					<g>
						<path d="M453.913,362.747l-1.645,1.173c0,0,0.002,0.075,0.004,0.208c0.016,0.129,0.039,0.314,0.066,0.536
							c0.027,0.223,0.06,0.481,0.095,0.759c0.073,0.271,0.178,0.554,0.27,0.839l0.14,0.426c0.062,0.134,0.141,0.258,0.207,0.382
							c0.138,0.247,0.266,0.478,0.376,0.675c0.104,0.201,0.254,0.327,0.329,0.435c0.084,0.102,0.133,0.16,0.133,0.16l1.479-1.418
							c0,0-0.045-0.055-0.124-0.149c-0.07-0.102-0.21-0.219-0.307-0.408c-0.101-0.187-0.219-0.403-0.345-0.636
							c-0.061-0.117-0.134-0.234-0.189-0.361l-0.125-0.402c-0.081-0.271-0.175-0.538-0.239-0.794
							c-0.026-0.263-0.051-0.509-0.072-0.72s-0.039-0.386-0.052-0.509C453.913,362.817,453.913,362.747,453.913,362.747z"/>
						<polygon points="453.913,356.018 452.214,356.705 452.251,361.549 453.913,360.536 						"/>
						<polygon points="453.913,349.29 452.158,349.492 452.195,354.335 453.913,353.808 						"/>
						<polygon points="453.913,342.403 452.136,342.403 452.141,347.12 453.913,347.078 						"/>
						<polygon points="453.913,335.435 452.142,335.379 452.136,340.104 453.913,340.104 						"/>
						<polygon points="453.913,328.706 452.197,328.165 452.16,333.008 453.913,333.223 						"/>
						<polygon points="453.913,321.978 452.252,320.952 452.215,325.794 453.913,326.496 						"/>
					</g>
				</g>
				<g>
					<g>
						<path d="M455.482,315.633l-1.471-1.427c0,0-0.193,0.232-0.482,0.581c-0.129,0.185-0.243,0.424-0.385,0.668
							c-0.13,0.25-0.311,0.499-0.381,0.794c-0.095,0.285-0.188,0.57-0.277,0.837c-0.094,0.267-0.083,0.534-0.124,0.754
							c-0.055,0.443-0.092,0.74-0.092,0.74l1.643,1.186c0,0,0.028-0.281,0.071-0.702c0.033-0.208,0.017-0.463,0.101-0.715
							c0.079-0.252,0.162-0.522,0.246-0.792c0.061-0.279,0.229-0.514,0.348-0.749c0.13-0.23,0.234-0.456,0.354-0.63
							C455.303,315.851,455.482,315.633,455.482,315.633z"/>
						<path d="M461.559,313.43l-1.092-1.653c0,0-0.303,0.002-0.757,0.006c-0.458-0.021-1.052,0.045-1.643,0.129
							c-0.301,0.014-0.584,0.117-0.851,0.209c-0.267,0.088-0.517,0.17-0.73,0.241c-0.396,0.217-0.659,0.361-0.659,0.361l1.358,1.529
							c0,0,0.249-0.133,0.622-0.332c0.202-0.063,0.438-0.136,0.691-0.215c0.252-0.081,0.52-0.174,0.806-0.18
							c0.562-0.065,1.123-0.116,1.548-0.096C461.276,313.43,461.559,313.43,461.559,313.43z"/>
						<polygon points="468.287,313.43 467.681,311.722 462.837,311.758 463.769,313.43 						"/>
						<polygon points="475.017,313.43 474.896,311.667 470.053,311.704 470.499,313.43 						"/>
						<rect x="477.248" y="311.653" width="4.699" height="1.777"/>
						<rect x="484.248" y="311.653" width="4.699" height="1.777"/>
						<rect x="491.246" y="311.653" width="4.698" height="1.777"/>
					</g>
				</g>
				<g>
					<g>
						<rect x="498.245" y="311.653" width="4.699" height="1.777"/>
						<rect x="505.243" y="311.653" width="4.699" height="1.777"/>
						<rect x="512.241" y="311.653" width="4.699" height="1.777"/>
						<rect x="519.241" y="311.653" width="4.698" height="1.777"/>
						<polygon points="530.683,313.43 531.143,311.705 526.299,311.668 526.165,313.43 						"/>
						<polygon points="537.412,313.43 538.357,311.76 533.514,311.723 532.895,313.43 						"/>
						<path d="M543.974,314.338l1.367-1.521c0,0-0.263-0.146-0.657-0.366c-0.19-0.128-0.457-0.169-0.719-0.271
							c-0.27-0.074-0.546-0.213-0.843-0.245c-0.594-0.063-1.179-0.177-1.639-0.151c-0.454-0.003-0.757-0.006-0.757-0.006
							l-1.104,1.652c0,0,1.131-0.046,2.253,0.113c0.546,0.12,1.094,0.29,1.477,0.459
							C543.725,314.204,543.974,314.338,543.974,314.338z"/>
					</g>
				</g>
				<g>
					<g>
						<path d="M547.087,319.948l1.645-1.173c0,0-0.002-0.075-0.004-0.208c-0.016-0.129-0.039-0.314-0.066-0.536
							c-0.027-0.223-0.06-0.481-0.095-0.759c-0.073-0.271-0.178-0.554-0.27-0.839l-0.14-0.426c-0.062-0.134-0.141-0.258-0.207-0.382
							c-0.138-0.247-0.266-0.478-0.376-0.675c-0.104-0.201-0.254-0.327-0.329-0.435c-0.084-0.102-0.133-0.16-0.133-0.16
							l-1.479,1.418c0,0,0.045,0.055,0.124,0.149c0.07,0.102,0.21,0.219,0.307,0.408c0.101,0.187,0.219,0.403,0.345,0.636
							c0.061,0.117,0.134,0.234,0.189,0.361l0.125,0.402c0.081,0.271,0.175,0.538,0.239,0.794c0.026,0.263,0.051,0.509,0.072,0.72
							s0.039,0.386,0.052,0.509C547.087,319.877,547.087,319.948,547.087,319.948z"/>
						<polygon points="547.087,326.676 548.786,325.99 548.749,321.145 547.087,322.159 						"/>
						<polygon points="547.087,333.405 548.842,333.203 548.805,328.359 547.087,328.886 						"/>
						<polygon points="547.087,340.292 548.864,340.292 548.859,335.575 547.087,335.617 						"/>
						<polygon points="547.087,347.259 548.857,347.315 548.864,342.59 547.087,342.59 						"/>
						<polygon points="547.087,353.989 548.803,354.53 548.84,349.686 547.087,349.471 						"/>
						<polygon points="547.087,360.716 548.748,361.743 548.785,356.9 547.087,356.199 						"/>
					</g>
				</g>
			</g>
		</g>
	</g>
	<g>
		<path fill="#98CE83" stroke="#000000" stroke-width="2" stroke-miterlimit="10" d="M518,354.38c0,5.387-4.369,9.756-9.757,9.756
			h-17.071c-5.389,0-9.756-4.369-9.756-9.756v-17.071c0-5.388,4.367-9.755,9.756-9.755h17.071c5.388,0,9.757,4.367,9.757,9.755
			V354.38z"/>
		<text transform="matrix(1 0 0 1 491.1084 348.9136)" font-family="'MyriadPro-Regular'" font-size="10.4571">EC2</text>
	</g>
	<g>
		<text transform="matrix(1 0 0 1 466 309.2222)" font-family="'MyriadPro-Regular'" font-size="10.4571">Availability Zone</text>
	</g>
</g>
<g>
	<text transform="matrix(1 0 0 1 64 292.9839)" font-family="'MyriadPro-Regular'" font-size="15.1742">Environment (Production)</text>
</g>
<g>
	<path fill="#D2EAD6" d="M161,360.587c0,3.639-2.951,6.59-6.59,6.59H72.59c-3.639,0-6.59-2.951-6.59-6.59v-44.48
		c0-3.639,2.951-6.59,6.59-6.59h81.82c3.639,0,6.59,2.951,6.59,6.59V360.587z"/>
	<g>
		<g>
			<g>
				<g>
					<path d="M158.518,364.061l1.471,1.427c0,0,0.193-0.232,0.482-0.581c0.129-0.185,0.244-0.424,0.386-0.668
						c0.129-0.25,0.311-0.499,0.381-0.794c0.094-0.285,0.188-0.57,0.276-0.837c0.094-0.267,0.083-0.534,0.124-0.754
						c0.056-0.444,0.092-0.74,0.092-0.74l-1.643-1.186c0,0-0.028,0.281-0.071,0.702c-0.034,0.208-0.018,0.463-0.102,0.715
						c-0.078,0.252-0.162,0.522-0.246,0.792c-0.061,0.279-0.229,0.514-0.347,0.749c-0.131,0.23-0.235,0.457-0.355,0.63
						C158.697,363.843,158.518,364.061,158.518,364.061z"/>
					<path d="M152.441,366.264l1.091,1.653c0,0,0.303-0.002,0.757-0.006c0.459,0.021,1.053-0.045,1.643-0.129
						c0.301-0.014,0.583-0.117,0.85-0.209c0.268-0.088,0.517-0.17,0.73-0.241c0.396-0.217,0.66-0.361,0.66-0.361l-1.358-1.529
						c0,0-0.249,0.133-0.623,0.332c-0.202,0.063-0.438,0.136-0.691,0.215c-0.252,0.081-0.52,0.174-0.806,0.18
						c-0.562,0.065-1.124,0.116-1.548,0.096C152.724,366.264,152.441,366.264,152.441,366.264z"/>
					<polygon points="145.713,366.264 146.319,367.972 151.163,367.936 150.231,366.264 					"/>
					<polygon points="138.984,366.264 139.104,368.028 143.948,367.991 143.501,366.264 					"/>
					<rect x="132.052" y="366.264" width="4.7" height="1.777"/>
					<rect x="125.053" y="366.264" width="4.699" height="1.777"/>
					<rect x="118.056" y="366.264" width="4.699" height="1.777"/>
				</g>
			</g>
			<g>
				<g>
					<rect x="111.056" y="366.264" width="4.7" height="1.777"/>
					<rect x="104.057" y="366.264" width="4.7" height="1.777"/>
					<rect x="97.059" y="366.264" width="4.7" height="1.777"/>
					<rect x="90.06" y="366.264" width="4.698" height="1.777"/>
					<polygon points="83.317,366.264 82.857,367.99 87.702,368.026 87.835,366.264 					"/>
					<polygon points="76.587,366.264 75.643,367.934 80.486,367.971 81.105,366.264 					"/>
					<path d="M70.027,365.356l-1.368,1.521c0,0,0.263,0.146,0.658,0.366c0.19,0.128,0.457,0.169,0.718,0.271
						c0.27,0.074,0.546,0.213,0.843,0.245c0.594,0.063,1.179,0.177,1.638,0.151c0.454,0.003,0.757,0.006,0.757,0.006l1.104-1.652
						c0,0-1.132,0.046-2.253-0.113c-0.546-0.12-1.094-0.29-1.478-0.459C70.275,365.491,70.027,365.356,70.027,365.356z"/>
				</g>
			</g>
			<g>
				<g>
					<path d="M66.913,359.747l-1.644,1.173c0,0,0.001,0.075,0.003,0.208c0.016,0.129,0.039,0.314,0.067,0.536
						c0.028,0.223,0.06,0.481,0.094,0.759c0.074,0.271,0.179,0.554,0.27,0.839l0.141,0.426c0.061,0.134,0.14,0.258,0.207,0.382
						c0.137,0.247,0.266,0.478,0.376,0.675c0.104,0.201,0.254,0.327,0.329,0.435c0.084,0.102,0.133,0.16,0.133,0.16l1.479-1.418
						c0,0-0.045-0.055-0.124-0.149c-0.07-0.102-0.21-0.219-0.306-0.408c-0.101-0.187-0.219-0.403-0.345-0.636
						c-0.061-0.117-0.134-0.234-0.189-0.361l-0.125-0.402c-0.081-0.271-0.174-0.538-0.239-0.794
						c-0.026-0.263-0.051-0.509-0.072-0.72c-0.021-0.211-0.039-0.386-0.051-0.509C66.914,359.817,66.913,359.747,66.913,359.747z"/>
					<polygon points="66.913,353.018 65.214,353.705 65.251,358.549 66.913,357.536 					"/>
					<polygon points="66.913,346.29 65.159,346.492 65.196,351.335 66.913,350.808 					"/>
					<polygon points="66.913,339.403 65.136,339.403 65.141,344.12 66.913,344.078 					"/>
					<polygon points="66.913,332.435 65.142,332.379 65.136,337.104 66.913,337.104 					"/>
					<polygon points="66.913,325.706 65.197,325.165 65.16,330.008 66.913,330.223 					"/>
					<polygon points="66.913,318.978 65.252,317.952 65.215,322.794 66.913,323.496 					"/>
				</g>
			</g>
			<g>
				<g>
					<path d="M68.482,312.633l-1.471-1.427c0,0-0.193,0.232-0.482,0.581c-0.129,0.185-0.244,0.424-0.386,0.668
						c-0.129,0.25-0.311,0.499-0.381,0.794c-0.094,0.285-0.188,0.57-0.276,0.837c-0.094,0.267-0.083,0.534-0.124,0.754
						c-0.056,0.443-0.092,0.74-0.092,0.74l1.643,1.186c0,0,0.028-0.281,0.071-0.702c0.034-0.208,0.018-0.463,0.102-0.715
						c0.078-0.252,0.162-0.522,0.246-0.792c0.061-0.279,0.229-0.514,0.347-0.749c0.131-0.23,0.235-0.456,0.355-0.63
						C68.303,312.851,68.482,312.633,68.482,312.633z"/>
					<path d="M74.559,310.43l-1.091-1.653c0,0-0.303,0.002-0.757,0.006c-0.459-0.021-1.053,0.045-1.643,0.129
						c-0.301,0.014-0.583,0.117-0.85,0.209c-0.268,0.088-0.517,0.17-0.73,0.241c-0.396,0.217-0.66,0.361-0.66,0.361l1.358,1.529
						c0,0,0.249-0.133,0.623-0.332c0.202-0.063,0.438-0.136,0.691-0.215c0.252-0.081,0.52-0.174,0.806-0.18
						c0.562-0.065,1.124-0.116,1.548-0.096C74.276,310.43,74.559,310.43,74.559,310.43z"/>
					<polygon points="81.287,310.43 80.681,308.722 75.837,308.758 76.769,310.43 					"/>
					<polygon points="88.016,310.43 87.896,308.667 83.052,308.704 83.499,310.43 					"/>
					<rect x="90.248" y="308.653" width="4.7" height="1.777"/>
					<rect x="97.248" y="308.653" width="4.699" height="1.777"/>
					<rect x="104.246" y="308.653" width="4.699" height="1.777"/>
				</g>
			</g>
			<g>
				<g>
					<rect x="111.245" y="308.653" width="4.7" height="1.777"/>
					<rect x="118.243" y="308.653" width="4.7" height="1.777"/>
					<rect x="125.241" y="308.653" width="4.7" height="1.777"/>
					<rect x="132.242" y="308.653" width="4.698" height="1.777"/>
					<polygon points="143.683,310.43 144.143,308.705 139.298,308.668 139.165,310.43 					"/>
					<polygon points="150.413,310.43 151.357,308.76 146.514,308.723 145.895,310.43 					"/>
					<path d="M156.973,311.338l1.368-1.521c0,0-0.263-0.146-0.658-0.366c-0.19-0.128-0.457-0.169-0.718-0.271
						c-0.27-0.074-0.546-0.213-0.843-0.245c-0.594-0.063-1.179-0.177-1.638-0.151c-0.454-0.003-0.757-0.006-0.757-0.006
						l-1.104,1.652c0,0,1.132-0.046,2.253,0.113c0.546,0.12,1.094,0.29,1.478,0.459
						C156.725,311.204,156.973,311.338,156.973,311.338z"/>
				</g>
			</g>
			<g>
				<g>
					<path d="M160.087,316.948l1.644-1.173c0,0-0.001-0.075-0.003-0.208c-0.016-0.129-0.039-0.314-0.067-0.536
						c-0.028-0.223-0.06-0.481-0.094-0.759c-0.074-0.271-0.179-0.554-0.27-0.839l-0.141-0.426c-0.061-0.134-0.14-0.258-0.207-0.382
						c-0.137-0.247-0.266-0.478-0.376-0.675c-0.104-0.201-0.254-0.327-0.329-0.435c-0.084-0.102-0.133-0.16-0.133-0.16l-1.479,1.418
						c0,0,0.045,0.055,0.124,0.149c0.07,0.102,0.21,0.219,0.306,0.408c0.101,0.187,0.219,0.403,0.345,0.636
						c0.061,0.117,0.134,0.234,0.189,0.361l0.125,0.402c0.081,0.271,0.174,0.538,0.239,0.794c0.026,0.263,0.051,0.509,0.072,0.72
						c0.021,0.211,0.039,0.386,0.051,0.509C160.086,316.877,160.087,316.948,160.087,316.948z"/>
					<polygon points="160.087,323.676 161.786,322.99 161.749,318.145 160.087,319.159 					"/>
					<polygon points="160.087,330.405 161.841,330.203 161.804,325.359 160.087,325.886 					"/>
					<polygon points="160.087,337.292 161.864,337.292 161.859,332.575 160.087,332.617 					"/>
					<polygon points="160.087,344.259 161.858,344.315 161.864,339.59 160.087,339.59 					"/>
					<polygon points="160.087,350.989 161.803,351.53 161.84,346.686 160.087,346.471 					"/>
					<polygon points="160.087,357.716 161.748,358.743 161.785,353.9 160.087,353.199 					"/>
				</g>
			</g>
		</g>
	</g>
</g>
<g>
	<path fill="#98CE83" stroke="#000000" stroke-width="2" stroke-miterlimit="10" d="M110.271,351.38
		c0,5.387-4.369,9.756-9.757,9.756H83.443c-5.389,0-9.756-4.369-9.756-9.756v-17.071c0-5.388,4.367-9.755,9.756-9.755h17.071
		c5.388,0,9.757,4.367,9.757,9.755V351.38z"/>
	<text transform="matrix(1 0 0 1 83.3789 345.9136)" font-family="'MyriadPro-Regular'" font-size="10.4571">EC2</text>
</g>
<g>
	<text transform="matrix(1 0 0 1 78.082 306.2222)" font-family="'MyriadPro-Regular'" font-size="10.4571">Availability Zone</text>
</g>
</svg>
