<?xml version="1.0" encoding="utf-8"?>
<!-- Generator: Adobe Illustrator 16.0.0, SVG Export Plug-In . SVG Version: 6.00 Build 0)  -->
<!DOCTYPE svg PUBLIC "-//W3C//DTD SVG 1.1//EN" "http://www.w3.org/Graphics/SVG/1.1/DTD/svg11.dtd">
<svg version="1.1" id="Layer_1" xmlns="http://www.w3.org/2000/svg" xmlns:xlink="http://www.w3.org/1999/xlink" x="0px" y="0px"
	 width="213.333px" height="291.111px" viewBox="0 0 213.333 291.111" enable-background="new 0 0 213.333 291.111"
	 xml:space="preserve">
<path fill="#882786" stroke="#000000" stroke-width="2" stroke-miterlimit="10" d="M205,269.932c0,4.395-5.889,7.957-13.152,7.957
	H24.152c-7.264,0-13.152-3.563-13.152-7.957V39.846c0-4.395,5.889-7.957,13.152-7.957h167.695c7.264,0,13.152,3.563,13.152,7.957
	V269.932z"/>
<g>
	<text transform="matrix(1 0 0 1 54 21.8887)" font-family="'MyriadPro-Bold'" font-size="19.043">ElastiCache</text>
</g>
<g>
	<path fill="#D2EAD6" d="M194.82,139.889c0,6.627-5.373,12-12,12h-149c-6.627,0-12-5.373-12-12v-81c0-6.627,5.373-12,12-12h149
		c6.627,0,12,5.373,12,12V139.889z"/>
	<g>
		<g>
			<g>
				<g>
					<path d="M193.042,143.814l1.588,1.132c0,0,0.466-1.11,0.718-2.286c0.097-0.591,0.217-1.18,0.224-1.63
						c0.031-0.448,0.051-0.746,0.051-0.746l-1.716-0.847c0,0-0.014,0.28-0.035,0.701c0.001,0.422-0.103,0.975-0.185,1.53
						C193.468,142.772,193.042,143.814,193.042,143.814z"/>
					<path d="M188.902,148.944l1.275,1.489c0,0,0.99-0.69,1.833-1.551c0.409-0.441,0.814-0.885,1.07-1.258
						c0.136-0.18,0.249-0.33,0.328-0.435c0.071-0.111,0.111-0.174,0.111-0.174l-1.5-1.261c0,0-0.037,0.06-0.103,0.163
						c-0.074,0.098-0.179,0.239-0.305,0.407c-0.236,0.35-0.615,0.764-0.996,1.176C189.829,148.304,188.901,148.944,188.902,148.944z
						"/>
					<path d="M182.629,150.962l0.864,1.71c0-0.001,1.199-0.043,2.369-0.319c1.171-0.271,2.271-0.766,2.271-0.767l-1.147-1.578
						c0,0-1.032,0.453-2.131,0.691C183.756,150.943,182.629,150.962,182.629,150.962z"/>
					<polygon points="175.945,150.976 176.307,152.727 181.133,152.702 180.433,150.976 					"/>
					<polygon points="169.185,150.976 169.185,152.753 173.946,152.739 173.749,150.976 					"/>
					<rect x="162.231" y="150.976" width="4.668" height="1.777"/>
					<rect x="155.28" y="150.976" width="4.667" height="1.777"/>
				</g>
			</g>
			<g>
				<g>
					<rect x="148.325" y="150.976" width="4.669" height="1.777"/>
					<rect x="141.373" y="150.976" width="4.668" height="1.777"/>
					<rect x="134.42" y="150.976" width="4.668" height="1.777"/>
					<rect x="127.467" y="150.976" width="4.668" height="1.777"/>
					<rect x="120.514" y="150.976" width="4.668" height="1.777"/>
					<rect x="113.56" y="150.976" width="4.668" height="1.777"/>
					<rect x="106.609" y="150.976" width="4.667" height="1.777"/>
				</g>
			</g>
			<g>
				<g>
					<rect x="99.655" y="150.976" width="4.668" height="1.777"/>
					<rect x="92.702" y="150.976" width="4.669" height="1.777"/>
					<rect x="85.75" y="150.976" width="4.668" height="1.777"/>
					<rect x="78.796" y="150.976" width="4.667" height="1.777"/>
					<rect x="71.843" y="150.976" width="4.669" height="1.777"/>
					<rect x="64.89" y="150.976" width="4.668" height="1.777"/>
					<rect x="57.938" y="150.976" width="4.667" height="1.777"/>
				</g>
			</g>
			<g>
				<g>
					<rect x="50.984" y="150.976" width="4.668" height="1.777"/>
					<polygon points="44.088,150.976 43.981,152.745 48.7,152.753 48.7,150.976 					"/>
					<polygon points="37.404,150.976 36.793,152.708 41.62,152.733 41.893,150.976 					"/>
					<path d="M30.773,150.433l-1.074,1.621c0,0,1.144,0.376,2.334,0.529c1.186,0.137,2.396,0.113,2.396,0.114l0.776-1.721
						c0,0-1.124,0.024-2.241-0.079C31.848,150.771,30.773,150.433,30.773,150.433z"/>
					<path d="M25.326,146.72l-1.446,1.327c0,0,0.769,0.929,1.689,1.707c0.929,0.768,1.979,1.359,1.979,1.359l1.207-1.54
						c0,0-0.984-0.546-1.854-1.26C26.042,147.588,25.325,146.72,25.326,146.72z"/>
					<path d="M22.795,140.631l-1.688,0.924c0,0,0.05,0.295,0.125,0.738c0.051,0.448,0.235,1.021,0.386,1.601
						c0.374,1.143,0.946,2.204,0.946,2.204l1.542-1.203c0,0-0.527-0.994-0.864-2.068c-0.134-0.544-0.3-1.082-0.341-1.503
						C22.837,140.909,22.795,140.631,22.795,140.631z"/>
					<polygon points="22.733,133.95 20.988,134.383 21.012,139.209 22.733,138.438 					"/>
				</g>
			</g>
			<g>
				<g>
					<polygon points="22.733,127.226 20.956,127.226 20.976,132.02 22.733,131.752 					"/>
					<rect x="20.956" y="120.273" width="1.777" height="4.669"/>
					<rect x="20.956" y="113.321" width="1.777" height="4.668"/>
					<rect x="20.956" y="106.368" width="1.777" height="4.667"/>
					<rect x="20.956" y="99.415" width="1.777" height="4.669"/>
					<rect x="20.956" y="92.461" width="1.777" height="4.668"/>
					<rect x="20.956" y="85.51" width="1.777" height="4.667"/>
				</g>
			</g>
			<g>
				<g>
					<rect x="20.956" y="78.555" width="1.777" height="4.669"/>
					<rect x="20.956" y="71.603" width="1.777" height="4.668"/>
					<polygon points="22.733,64.879 20.987,64.449 20.963,69.276 22.733,69.367 					"/>
					<path d="M22.791,58.195l-1.689-0.921c0,0-0.115,1.188-0.09,2.399C21.005,60.88,21,62.086,21,62.086l1.734,0.595
						c0,0,0-1.122,0-2.244C22.71,59.314,22.791,58.195,22.791,58.195z"/>
					<path d="M25.295,52.098l-1.448-1.324c0,0-0.761,0.937-1.33,1.998c-0.27,0.537-0.536,1.076-0.676,1.505
						c-0.08,0.21-0.146,0.386-0.193,0.509c-0.045,0.123-0.059,0.197-0.059,0.197l1.627,1.061c0,0,0.078-0.269,0.228-0.663
						c0.125-0.403,0.37-0.908,0.618-1.412C24.587,52.974,25.296,52.098,25.295,52.098z"/>
					<path d="M30.727,48.362l-1.077-1.619c0,0-1.141,0.384-2.19,0.976c-0.513,0.313-1.028,0.623-1.376,0.912
						c-0.364,0.267-0.591,0.463-0.591,0.463l1.338,1.436c0,0,0.213-0.183,0.553-0.43c0.325-0.269,0.808-0.556,1.289-0.845
						C29.656,48.708,30.728,48.362,30.727,48.362z"/>
					<path d="M37.353,47.802l-0.614-1.732c0,0-1.207,0.006-2.413,0.012c-0.605-0.009-1.205,0.013-1.65,0.056
						c-0.449,0.019-0.744,0.075-0.744,0.075l0.938,1.683c0,0,0.276-0.048,0.698-0.058c0.42-0.03,0.98-0.044,1.542-0.036
						C36.23,47.802,37.353,47.802,37.353,47.802z"/>
				</g>
			</g>
			<g>
				<g>
					<polygon points="44.039,47.802 43.928,46.033 39.101,46.057 39.55,47.802 					"/>
					<rect x="46.264" y="46.024" width="4.668" height="1.777"/>
					<rect x="53.216" y="46.024" width="4.669" height="1.777"/>
					<rect x="60.171" y="46.024" width="4.667" height="1.777"/>
					<rect x="67.123" y="46.024" width="4.668" height="1.777"/>
					<rect x="74.077" y="46.024" width="4.668" height="1.777"/>
					<rect x="81.029" y="46.024" width="4.667" height="1.777"/>
				</g>
			</g>
			<g>
				<g>
					<rect x="87.982" y="46.024" width="4.668" height="1.777"/>
					<rect x="94.935" y="46.024" width="4.669" height="1.777"/>
					<rect x="101.887" y="46.024" width="4.668" height="1.777"/>
					<rect x="108.841" y="46.024" width="4.668" height="1.777"/>
					<rect x="115.793" y="46.024" width="4.668" height="1.777"/>
					<rect x="122.748" y="46.024" width="4.668" height="1.777"/>
					<rect x="129.699" y="46.024" width="4.668" height="1.777"/>
				</g>
			</g>
			<g>
				<g>
					<rect x="136.653" y="46.024" width="4.668" height="1.777"/>
					<rect x="143.605" y="46.024" width="4.668" height="1.777"/>
					<rect x="150.558" y="46.024" width="4.669" height="1.777"/>
					<rect x="157.512" y="46.024" width="4.667" height="1.777"/>
					<rect x="164.464" y="46.024" width="4.669" height="1.777"/>
					<polygon points="175.896,47.802 176.254,46.051 171.428,46.026 171.407,47.802 					"/>
					<path d="M182.579,47.813l0.86-1.711c0,0-0.298-0.023-0.751-0.018c-0.452-0.002-1.056-0.005-1.659-0.008
						c-1.207-0.006-2.413-0.013-2.413-0.013l-0.524,1.739c0,0,1.122,0,2.244,0c0.561,0,1.122,0,1.542,0
						C182.298,47.796,182.579,47.813,182.579,47.813z"/>
				</g>
			</g>
			<g>
				<g>
					<path d="M188.862,49.804l1.273-1.491c0,0-0.997-0.678-2.097-1.168c-1.105-0.478-2.277-0.747-2.277-0.748l-1.002,1.656
						c0,0,1.101,0.238,2.138,0.673C187.929,49.175,188.862,49.804,188.862,49.804z"/>
					<path d="M193.025,54.917l1.586-1.135c0,0-0.478-1.106-1.147-2.108c-0.679-0.996-1.524-1.855-1.524-1.856l-1.39,1.387
						c0,0,0.789,0.803,1.418,1.735C192.588,53.878,193.025,54.916,193.025,54.917z"/>
					<path d="M193.907,61.485l1.728-0.685c0,0-0.01-1.206-0.019-2.413c-0.045-0.596-0.062-1.196-0.161-1.636
						c-0.075-0.443-0.125-0.738-0.125-0.738l-1.658,0.998c0,0,0.042,0.277,0.106,0.693c0.087,0.414,0.091,0.977,0.124,1.536
						C193.905,60.363,193.907,61.485,193.907,61.485z"/>
					<polygon points="193.907,68.171 195.671,67.989 195.646,63.164 193.907,63.683 					"/>
					<polygon points="193.907,75.027 195.685,75.027 195.684,70.351 193.907,70.367 					"/>
					<rect x="193.907" y="77.313" width="1.777" height="4.668"/>
					<rect x="193.907" y="84.265" width="1.777" height="4.667"/>
				</g>
			</g>
			<g>
				<g>
					<rect x="193.907" y="91.218" width="1.777" height="4.669"/>
					<rect x="193.907" y="98.171" width="1.777" height="4.668"/>
					<rect x="193.907" y="105.123" width="1.777" height="4.669"/>
					<rect x="193.907" y="112.077" width="1.777" height="4.668"/>
					<rect x="193.907" y="119.029" width="1.777" height="4.668"/>
					<polygon points="193.907,130.557 195.672,130.735 195.685,125.983 193.907,125.983 					"/>
					<polygon points="193.907,137.241 195.635,137.921 195.66,133.096 193.907,132.753 					"/>
				</g>
			</g>
		</g>
	</g>
</g>
<g>
	<path fill="#DB98C3" stroke="#000000" stroke-width="2" stroke-miterlimit="10" d="M103.131,120.742
		c0,9.811-7.955,17.766-17.766,17.766H54.277c-9.813,0-17.766-7.955-17.766-17.766V89.654c0-9.811,7.953-17.765,17.766-17.765
		h31.088c9.811,0,17.766,7.955,17.766,17.765V120.742z"/>
	<path fill="#DB98C3" stroke="#000000" stroke-width="2" stroke-miterlimit="10" d="M180.131,120.742
		c0,9.811-7.955,17.766-17.766,17.766h-31.09c-9.811,0-17.764-7.955-17.764-17.766V89.654c0-9.811,7.953-17.765,17.764-17.765h31.09
		c9.811,0,17.766,7.955,17.766,17.765V120.742z"/>
</g>
<g>
	<text transform="matrix(1 0 0 1 42.2046 65.8887)" font-family="'MyriadPro-Regular'" font-size="19.043">Availability Zone</text>
</g>
<g>
	<g>
		<path fill="#D2EAD6" d="M194.82,256.889c0,6.627-5.373,12-12,12h-149c-6.627,0-12-5.373-12-12v-81c0-6.627,5.373-12,12-12h149
			c6.627,0,12,5.373,12,12V256.889z"/>
		<g>
			<g>
				<g>
					<g>
						<path d="M193.042,260.814l1.588,1.132c0,0,0.466-1.11,0.718-2.286c0.097-0.591,0.217-1.18,0.224-1.63
							c0.031-0.447,0.051-0.745,0.051-0.745l-1.716-0.847c0,0-0.014,0.28-0.035,0.7c0.001,0.423-0.103,0.976-0.185,1.53
							C193.468,259.772,193.042,260.814,193.042,260.814z"/>
						<path d="M188.902,265.944l1.275,1.488c0,0,0.99-0.689,1.833-1.551c0.409-0.441,0.814-0.885,1.07-1.258
							c0.136-0.181,0.249-0.331,0.328-0.436c0.071-0.11,0.111-0.174,0.111-0.174l-1.5-1.261c0,0-0.037,0.059-0.103,0.163
							c-0.074,0.098-0.179,0.238-0.305,0.407c-0.236,0.35-0.615,0.764-0.996,1.176C189.829,265.304,188.901,265.943,188.902,265.944
							z"/>
						<path d="M182.629,267.963l0.864,1.709c0,0,1.199-0.042,2.369-0.318c1.171-0.271,2.271-0.766,2.271-0.767l-1.147-1.578
							c0,0.001-1.032,0.453-2.131,0.691C183.756,267.943,182.629,267.962,182.629,267.963z"/>
						<polygon points="175.945,267.976 176.307,269.727 181.133,269.702 180.433,267.976 						"/>
						<polygon points="169.185,267.976 169.185,269.753 173.946,269.738 173.749,267.976 						"/>
						<rect x="162.231" y="267.976" width="4.668" height="1.777"/>
						<rect x="155.28" y="267.976" width="4.667" height="1.777"/>
					</g>
				</g>
				<g>
					<g>
						<rect x="148.325" y="267.976" width="4.669" height="1.777"/>
						<rect x="141.373" y="267.976" width="4.668" height="1.777"/>
						<rect x="134.42" y="267.976" width="4.668" height="1.777"/>
						<rect x="127.467" y="267.976" width="4.668" height="1.777"/>
						<rect x="120.514" y="267.976" width="4.668" height="1.777"/>
						<rect x="113.561" y="267.976" width="4.668" height="1.777"/>
						<rect x="106.609" y="267.976" width="4.668" height="1.777"/>
					</g>
				</g>
				<g>
					<g>
						<rect x="99.655" y="267.976" width="4.668" height="1.777"/>
						<rect x="92.702" y="267.976" width="4.669" height="1.777"/>
						<rect x="85.75" y="267.976" width="4.668" height="1.777"/>
						<rect x="78.796" y="267.976" width="4.667" height="1.777"/>
						<rect x="71.843" y="267.976" width="4.669" height="1.777"/>
						<rect x="64.89" y="267.976" width="4.668" height="1.777"/>
						<rect x="57.938" y="267.976" width="4.667" height="1.777"/>
					</g>
				</g>
				<g>
					<g>
						<rect x="50.984" y="267.976" width="4.669" height="1.777"/>
						<polygon points="44.088,267.976 43.981,269.745 48.7,269.753 48.7,267.976 						"/>
						<polygon points="37.404,267.976 36.793,269.708 41.62,269.733 41.893,267.976 						"/>
						<path d="M30.773,267.433l-1.074,1.621c0,0,1.145,0.375,2.334,0.528c1.186,0.137,2.396,0.114,2.396,0.114l0.776-1.721
							c0,0-1.124,0.024-2.241-0.079C31.848,267.771,30.773,267.433,30.773,267.433z"/>
						<path d="M25.326,263.72l-1.446,1.327c0,0,0.769,0.93,1.689,1.707c0.929,0.768,1.979,1.359,1.979,1.359l1.207-1.54
							c0,0-0.984-0.546-1.854-1.26C26.042,264.588,25.326,263.72,25.326,263.72z"/>
						<path d="M22.795,257.632l-1.688,0.924c0,0,0.05,0.296,0.125,0.738c0.051,0.448,0.235,1.021,0.386,1.602
							c0.375,1.143,0.946,2.203,0.946,2.203l1.542-1.203c0,0-0.527-0.994-0.864-2.067c-0.134-0.545-0.3-1.083-0.341-1.503
							C22.837,257.909,22.795,257.632,22.795,257.632z"/>
						<polygon points="22.733,250.95 20.988,251.383 21.012,256.209 22.733,255.438 						"/>
					</g>
				</g>
				<g>
					<g>
						<polygon points="22.733,244.227 20.956,244.227 20.976,249.02 22.733,248.752 						"/>
						<rect x="20.956" y="237.273" width="1.777" height="4.668"/>
						<rect x="20.956" y="230.321" width="1.777" height="4.668"/>
						<rect x="20.956" y="223.367" width="1.777" height="4.668"/>
						<rect x="20.956" y="216.415" width="1.777" height="4.668"/>
						<rect x="20.956" y="209.461" width="1.777" height="4.668"/>
						<rect x="20.956" y="202.51" width="1.777" height="4.667"/>
					</g>
				</g>
				<g>
					<g>
						<rect x="20.956" y="195.555" width="1.777" height="4.669"/>
						<rect x="20.956" y="188.603" width="1.777" height="4.668"/>
						<polygon points="22.733,181.879 20.987,181.449 20.963,186.276 22.733,186.368 						"/>
						<path d="M22.791,175.195l-1.689-0.921c0,0-0.115,1.188-0.09,2.399C21.005,177.88,21,179.086,21,179.086l1.734,0.595
							c0,0,0-1.122,0-2.244C22.71,176.315,22.791,175.195,22.791,175.195z"/>
						<path d="M25.295,169.098l-1.448-1.324c0,0-0.761,0.937-1.33,1.998c-0.27,0.537-0.536,1.076-0.676,1.505
							c-0.08,0.21-0.146,0.386-0.193,0.509c-0.045,0.124-0.059,0.197-0.059,0.197l1.627,1.061c0,0,0.078-0.269,0.228-0.663
							c0.126-0.403,0.37-0.908,0.619-1.412C24.588,169.974,25.296,169.098,25.295,169.098z"/>
						<path d="M30.727,165.362l-1.077-1.619c0,0-1.141,0.384-2.19,0.976c-0.513,0.313-1.028,0.623-1.376,0.912
							c-0.364,0.267-0.591,0.463-0.591,0.463l1.338,1.436c0,0,0.213-0.182,0.553-0.43c0.326-0.269,0.808-0.556,1.289-0.844
							C29.656,165.708,30.728,165.362,30.727,165.362z"/>
						<path d="M37.353,164.802l-0.614-1.732c0,0-1.207,0.006-2.413,0.012c-0.605-0.009-1.205,0.013-1.65,0.056
							c-0.449,0.019-0.744,0.075-0.744,0.075l0.938,1.683c0,0,0.276-0.048,0.698-0.058c0.42-0.03,0.98-0.044,1.542-0.036
							C36.23,164.802,37.353,164.802,37.353,164.802z"/>
					</g>
				</g>
				<g>
					<g>
						<polygon points="44.039,164.802 43.928,163.033 39.101,163.057 39.55,164.802 						"/>
						<rect x="46.264" y="163.024" width="4.668" height="1.777"/>
						<rect x="53.216" y="163.024" width="4.668" height="1.777"/>
						<rect x="60.171" y="163.024" width="4.667" height="1.777"/>
						<rect x="67.123" y="163.024" width="4.668" height="1.777"/>
						<rect x="74.077" y="163.024" width="4.668" height="1.777"/>
						<rect x="81.029" y="163.024" width="4.667" height="1.777"/>
					</g>
				</g>
				<g>
					<g>
						<rect x="87.982" y="163.024" width="4.668" height="1.777"/>
						<rect x="94.935" y="163.024" width="4.669" height="1.777"/>
						<rect x="101.887" y="163.024" width="4.668" height="1.777"/>
						<rect x="108.841" y="163.024" width="4.667" height="1.777"/>
						<rect x="115.793" y="163.024" width="4.669" height="1.777"/>
						<rect x="122.748" y="163.024" width="4.668" height="1.777"/>
						<rect x="129.699" y="163.024" width="4.668" height="1.777"/>
					</g>
				</g>
				<g>
					<g>
						<rect x="136.653" y="163.024" width="4.668" height="1.777"/>
						<rect x="143.605" y="163.024" width="4.668" height="1.777"/>
						<rect x="150.558" y="163.024" width="4.669" height="1.777"/>
						<rect x="157.512" y="163.024" width="4.667" height="1.777"/>
						<rect x="164.464" y="163.024" width="4.668" height="1.777"/>
						<polygon points="175.896,164.802 176.254,163.051 171.428,163.026 171.407,164.802 						"/>
						<path d="M182.579,164.813l0.86-1.711c0,0-0.298-0.023-0.751-0.018c-0.453-0.002-1.056-0.005-1.659-0.008
							c-1.207-0.006-2.413-0.013-2.413-0.013l-0.524,1.739c0,0,1.122,0,2.244,0c0.561,0,1.122,0,1.542,0
							C182.298,164.796,182.579,164.813,182.579,164.813z"/>
					</g>
				</g>
				<g>
					<g>
						<path d="M188.862,166.804l1.273-1.491c0,0-0.997-0.678-2.097-1.168c-1.105-0.478-2.277-0.747-2.277-0.748l-1.002,1.656
							c0,0,1.1,0.238,2.138,0.673C187.929,166.175,188.862,166.804,188.862,166.804z"/>
						<path d="M193.025,171.917l1.586-1.135c0,0-0.478-1.106-1.147-2.108c-0.679-0.996-1.524-1.855-1.524-1.856l-1.391,1.387
							c0,0,0.79,0.803,1.419,1.735C192.588,170.879,193.025,171.916,193.025,171.917z"/>
						<path d="M193.907,178.485l1.728-0.685c0,0-0.01-1.206-0.019-2.413c-0.045-0.596-0.062-1.196-0.161-1.636
							c-0.075-0.443-0.125-0.738-0.125-0.738l-1.658,0.998c0,0,0.042,0.277,0.106,0.693c0.087,0.414,0.091,0.977,0.124,1.536
							C193.905,177.363,193.907,178.485,193.907,178.485z"/>
						<polygon points="193.907,185.171 195.671,184.989 195.646,180.164 193.907,180.683 						"/>
						<polygon points="193.907,192.027 195.685,192.027 195.684,187.351 193.907,187.367 						"/>
						<rect x="193.907" y="194.313" width="1.777" height="4.668"/>
						<rect x="193.907" y="201.265" width="1.777" height="4.667"/>
					</g>
				</g>
				<g>
					<g>
						<rect x="193.907" y="208.218" width="1.777" height="4.669"/>
						<rect x="193.907" y="215.171" width="1.777" height="4.668"/>
						<rect x="193.907" y="222.123" width="1.777" height="4.669"/>
						<rect x="193.907" y="229.077" width="1.777" height="4.668"/>
						<rect x="193.907" y="236.029" width="1.777" height="4.669"/>
						<polygon points="193.907,247.557 195.672,247.734 195.685,242.983 193.907,242.983 						"/>
						<polygon points="193.907,254.24 195.635,254.922 195.66,250.096 193.907,249.753 						"/>
					</g>
				</g>
			</g>
		</g>
	</g>
	<g>
		<path fill="#DB98C3" stroke="#000000" stroke-width="2" stroke-miterlimit="10" d="M103.131,237.742
			c0,9.811-7.955,17.766-17.766,17.766H54.277c-9.813,0-17.766-7.955-17.766-17.766v-31.088c0-9.811,7.953-17.766,17.766-17.766
			h31.088c9.811,0,17.766,7.955,17.766,17.766V237.742z"/>
		<path fill="#DB98C3" stroke="#000000" stroke-width="2" stroke-miterlimit="10" d="M180.131,237.742
			c0,9.811-7.955,17.766-17.766,17.766h-31.09c-9.811,0-17.764-7.955-17.764-17.766v-31.088c0-9.811,7.953-17.766,17.764-17.766
			h31.09c9.811,0,17.766,7.955,17.766,17.766V237.742z"/>
	</g>
	<g>
		<text transform="matrix(1 0 0 1 42.2046 182.8887)" font-family="'MyriadPro-Regular'" font-size="19.043">Availability Zone</text>
	</g>
</g>
</svg>
