<?xml version="1.0" encoding="utf-8"?>
<!-- Generator: Adobe Illustrator 16.0.0, SVG Export Plug-In . SVG Version: 6.00 Build 0)  -->
<!DOCTYPE svg PUBLIC "-//W3C//DTD SVG 1.1//EN" "http://www.w3.org/Graphics/SVG/1.1/DTD/svg11.dtd">
<svg version="1.1" id="Layer_1" xmlns="http://www.w3.org/2000/svg" xmlns:xlink="http://www.w3.org/1999/xlink" x="0px" y="0px"
	 width="1296px" height="980px" viewBox="0 0 1296 980" enable-background="new 0 0 1296 980" xml:space="preserve">
<line fill="none" stroke="#000000" stroke-width="6" stroke-miterlimit="10" x1="304" y1="358" x2="740" y2="572"/>
<line fill="none" stroke="#000000" stroke-width="6" stroke-miterlimit="10" x1="740" y1="572" x2="587" y2="358"/>
<line fill="none" stroke="#000000" stroke-width="6" stroke-miterlimit="10" x1="587" y1="358" x2="473" y2="556"/>
<line fill="none" stroke="#000000" stroke-width="6" stroke-miterlimit="10" x1="743" y1="742" x2="743" y2="922"/>
<line fill="none" stroke="#000000" stroke-width="6" stroke-miterlimit="10" x1="470" y1="572" x2="743" y2="742"/>
<path fill="#D8D823" stroke="#000000" stroke-width="2" stroke-miterlimit="10" d="M835,605c0,6.627-5.373,12-12,12H657
	c-6.627,0-12-5.373-12-12v-66c0-6.627,5.373-12,12-12h166c6.627,0,12,5.373,12,12V605z"/>
<path fill="#D8D823" stroke="#000000" stroke-width="2" stroke-miterlimit="10" d="M565,605c0,6.627-5.373,12-12,12H387
	c-6.627,0-12-5.373-12-12v-66c0-6.627,5.373-12,12-12h166c6.627,0,12,5.373,12,12V605z"/>
<path fill="#D8D823" stroke="#000000" stroke-width="2" stroke-miterlimit="10" d="M433.715,393.363c0,6.627-5.373,12-12,12h-236
	c-6.627,0-12-5.373-12-12v-70c0-6.627,5.373-12,12-12h236c6.627,0,12,5.373,12,12V393.363z"/>
<g>
	<polygon fill="#E9E313" stroke="#000000" stroke-width="2" stroke-miterlimit="10" points="303.715,80.238 316.605,106.358 
		345.432,110.547 324.573,130.879 329.497,159.588 303.715,146.033 277.933,159.588 282.856,130.879 261.998,110.547 
		290.824,106.358 	"/>
	<text transform="matrix(1 0 0 1 268.4805 65.9995)" font-family="'MyriadPro-Bold'" font-size="30">Login</text>
</g>
<text transform="matrix(1 0 0 1 243.1152 367.1689)" font-family="'MyriadPro-Regular'" font-size="30">“onLogin”</text>
<text transform="matrix(1 0 0 1 654.3809 580.8047)" font-family="'MyriadPro-Regular'" font-size="30">“Award Point”</text>
<text transform="matrix(1 0 0 1 388 580.8047)" font-family="'MyriadPro-Regular'" font-size="30">“Award Point”</text>
<path fill="#D8D823" stroke="#000000" stroke-width="2" stroke-miterlimit="10" d="M827,951c0,6.627-5.373,12-12,12H649
	c-6.627,0-12-5.373-12-12v-66c0-6.627,5.373-12,12-12h166c6.627,0,12,5.373,12,12V951z"/>
<text transform="matrix(1 0 0 1 655.2773 926.8047)" font-family="'MyriadPro-Regular'" font-size="30">“NotifyUser”</text>
<path fill="#D8D823" stroke="#000000" stroke-width="2" stroke-miterlimit="10" d="M835,781c0,6.627-5.373,12-12,12H657
	c-6.627,0-12-5.373-12-12v-66c0-6.627,5.373-12,12-12h166c6.627,0,12,5.373,12,12V781z"/>
<text transform="matrix(1 0 0 1 651.1113 756.8047)" font-family="'MyriadPro-Regular'" font-size="30">“AwardBadge”</text>
<path fill="#D8D823" stroke="#000000" stroke-width="2" stroke-miterlimit="10" d="M717.319,393.363c0,6.627-5.373,12-12,12h-236
	c-6.627,0-12-5.373-12-12v-70c0-6.627,5.373-12,12-12h236c6.627,0,12,5.373,12,12V393.363z"/>
<text transform="matrix(1 0 0 1 473.8306 371.9023)" font-family="'MyriadPro-Regular'" font-size="30">“onResourceView”</text>
<g>
	<text transform="matrix(1 0 0 1 474.3706 65.9995)" font-family="'MyriadPro-Bold'" font-size="30">Viewed Resource</text>
	<polygon fill="#E9E313" stroke="#000000" stroke-width="2" stroke-miterlimit="10" points="580.555,80.238 593.445,106.358 
		622.271,110.547 601.412,130.879 606.336,159.588 580.555,146.033 554.771,159.588 559.695,130.879 538.838,110.547 
		567.664,106.358 	"/>
</g>
<g>
	<g>
		<g>
			<g>
				<g>
					<rect x="442.261" y="10" fill="#828282" width="5.332" height="12.726"/>
					<rect x="442.261" y="28.952" fill="#828282" width="5.332" height="12.726"/>
					<rect x="442.261" y="47.903" fill="#828282" width="5.332" height="12.726"/>
					<rect x="442.261" y="66.859" fill="#828282" width="5.332" height="12.723"/>
					<rect x="442.261" y="85.808" fill="#828282" width="5.332" height="12.726"/>
					<rect x="442.261" y="104.764" fill="#828282" width="5.332" height="12.724"/>
					<rect x="442.261" y="123.713" fill="#828282" width="5.332" height="12.723"/>
				</g>
			</g>
			<g>
				<g>
					<rect x="442.261" y="142.667" fill="#828282" width="5.332" height="12.726"/>
					<rect x="442.261" y="161.619" fill="#828282" width="5.332" height="12.726"/>
					<rect x="442.261" y="180.569" fill="#828282" width="5.332" height="12.726"/>
					<rect x="442.261" y="199.525" fill="#828282" width="5.332" height="12.723"/>
					<rect x="442.261" y="218.475" fill="#828282" width="5.332" height="12.726"/>
					<rect x="442.261" y="237.431" fill="#828282" width="5.332" height="12.725"/>
					<rect x="442.261" y="256.38" fill="#828282" width="5.332" height="12.723"/>
				</g>
			</g>
			<g>
				<g>
					<rect x="442.261" y="275.333" fill="#828282" width="5.332" height="12.726"/>
					<rect x="442.261" y="294.285" fill="#828282" width="5.332" height="12.726"/>
					<rect x="442.261" y="313.236" fill="#828282" width="5.332" height="12.726"/>
					<rect x="442.261" y="332.192" fill="#828282" width="5.332" height="12.723"/>
					<rect x="442.261" y="351.141" fill="#828282" width="5.332" height="12.726"/>
					<rect x="442.261" y="370.097" fill="#828282" width="5.332" height="12.725"/>
					<rect x="442.261" y="389.047" fill="#828282" width="5.332" height="12.723"/>
				</g>
			</g>
		</g>
	</g>
</g>
<text transform="matrix(1 0 0 1 37.832 109.0435)" font-family="'MyriadPro-CondIt'" font-size="30">User Actions</text>
<text transform="matrix(1 0 0 1 13.3232 367.1689)" font-family="'MyriadPro-CondIt'" font-size="30">System Actions</text>
</svg>
