<?xml version="1.0" encoding="utf-8"?>
<!-- Generator: Adobe Illustrator 16.0.0, SVG Export Plug-In . SVG Version: 6.00 Build 0)  -->
<!DOCTYPE svg PUBLIC "-//W3C//DTD SVG 1.1//EN" "http://www.w3.org/Graphics/SVG/1.1/DTD/svg11.dtd">
<svg version="1.1" id="Layer_1" xmlns="http://www.w3.org/2000/svg" xmlns:xlink="http://www.w3.org/1999/xlink" x="0px" y="0px"
	 width="593.111px" height="257.778px" viewBox="0 0 593.111 257.778" enable-background="new 0 0 593.111 257.778"
	 xml:space="preserve">
<g>
	<path fill-rule="evenodd" clip-rule="evenodd" d="M287.159,72.819c1.668-0.522,3.364-0.972,4.997-1.587
		c1.801-0.679,3.545-1.509,4.596-1.963c1.032-2.094,1.903-3.857,3.214-6.514c2.382,5.489,5.523,6.937,10.112,5.962
		c2.173-0.462,4.399-0.667,6.934-1.037c2.097-4.435,2.097-4.435,14.717-8.021c0.007-0.46,0.013-0.92,0.02-1.38
		c-2.514-0.036-5.047,0.107-7.533-0.171c-1.527-0.171-2.982-0.985-4.472-1.511c0.803-1.35,1.438-2.844,2.457-4.003
		c0.839-0.956,2.13-1.513,3.91-2.711c-3.171-0.918-4.854-1.368-6.735,1.435c-1.354,2.02-4.307,2.967-6.847,4.584
		c0.823,0.996,1.609,1.947,2.382,2.881c-4.522,6.619-4.522,6.619-10.623,7.329c-0.645-1.707-1.321-3.498-2.024-5.363
		c-0.572,0.081-1.003,0.101-1.411,0.206c-1.748,0.448-3.813,1.702-5.138,1.153c-1.227-0.506-2.471-3.08-2.219-4.475
		c0.271-1.498,2.107-2.913,3.554-3.959c3.687-2.668,7.292-5.658,11.386-7.504c5.046-2.274,10.463-4.356,15.892-4.958
		c4.694-0.52,9.665,0.971,14.45,1.896c4.461,0.863,8.84,2.151,13.253,3.253c0.047,0.467,0.095,0.935,0.141,1.402
		c-3.156,0.497-6.314,0.994-9.925,1.563c0.199,0.412,0.669,2.151,1.098,2.142c2.366-0.056,4.788-0.302,7.062-0.944
		c2.077-0.585,3.991-1.757,6.598-2.956c0.16-0.342,0.826-1.761,1.49-3.181c0.961,0.755,1.922,1.51,2.59,2.036
		c11.924-0.523,23.778-4.71,37.018-1.427c-1.539-1.745-2.471-2.8-3.705-4.2c3.272-1.26,5.34-7.221,9.082-2.85
		c2.529,2.954,2.153,7.771-1.178,11.641c1.396-0.924,2.705-2.041,4.213-2.717c1.409-0.632,3.019-0.84,4.558-1.149
		c0.836-0.167,1.74-0.051,2.542-0.296c0.19-0.059,0.325-1.397,0.096-1.545c-0.809-0.522-1.79-1.076-2.7-1.069
		c-1.15,0.007-2.295,0.554-3.747,0.951c0-1.903,0-3.574,0-6.395c1.319,1.775,1.959,2.634,2.859,3.845
		c1.107-1.379,2.005-2.496,3.302-4.109c2.83,1.698,5.707,3.425,8.926,5.357c1.578-3.729-2.918-3.343-3.962-5.173
		c17.534-5.704,45.172-8.798,54.413-4.921c-0.396,1.052-0.795,2.113-1.227,3.261c0.603,0.238,1.005,0.536,1.405,0.534
		c6.463-0.037,12.901,2.063,19.423-0.275c2.479-0.888,5.283-0.567,5.72,3.294c0.074,0.661,1.545,1.727,2.279,1.657
		c3.992-0.382,8.004-0.851,11.905-1.745c1.538-0.353,2.806-1.882,5.302-3.665c-3.168-1.042-4.794-1.576-6.42-2.11
		c0.026-0.4,0.049-0.8,0.075-1.199c3.833,0.168,7.667,0.337,11.502,0.506c0.084,0.322,0.168,0.643,0.253,0.964
		c-1.162,0.623-2.325,1.247-4.552,2.441c16.02,4.274,31.455,6.104,47.631,7.468c1.163-0.843,13.172-1.554,14.202,0.193
		c1.059,1.791,0.925,4.402,0.925,6.655c0,1.204-0.819,2.408-1.333,3.787c-3.133,0.921-6.853,2.26-10.685,3.066
		c-3.241,0.681-6.605,0.899-9.927,1.035c-3.149,0.13-5.047,0.903-5.519,4.604c-0.803,6.285-7.46,7.462-11.531,11.507
		c0-3.339-1.175-7.393,0.309-9.829c1.706-2.8,5.764-4.167,8.813-6.167c-1.111-0.998-2.277-2.044-3.739-3.359
		c-1.405,0.922-2.937,1.883-4.423,2.912c-3.052,2.11-5.947,2.522-9.986,2.354c-5.896-0.246-12.952-2.208-18.11,3.62
		c-1.411,1.594-3.825,2.301-7.076,4.155c5.099,0.759,8.871,1.321,13.69,2.039c0,3.776,0,7.762,0,11.748
		c-0.604,0.059-1.205,0.118-1.81,0.177c-0.365-2.913-0.729-5.826-0.981-7.831c-3.271,3.567-6.826,7.486-10.439,11.348
		c-0.612,0.653-1.575,1.617-2.212,1.505c-4.991-0.877-7.348,2.628-8.961,4.48c0,3.786,0.276,6.358-0.171,8.799
		c-0.13,0.714-2.314,1.053-2.525,1.14c-1.734-3.664-3.097-6.543-4.574-9.664c-1.356,0.513-2.613,0.987-4.22,1.596
		c-0.213-1.027-0.398-1.928-0.644-3.113c-1.906,1.194-3.665,2.296-6.767,4.238c3.359,1.151,5.644,1.934,8.385,2.873
		c-1.599,1.181-2.955,2.183-4.45,3.288c0.934,1.33,1.983,2.476,2.628,3.816c1.644,3.423,1.967,6.617-1.408,9.5
		c-4.361,3.725-7.783,8.853-14.615,8.448c-0.65-0.038-1.568,1.949-2.1,3.116c-0.554,1.223-0.793,2.588-1.169,3.891
		c-0.555-0.131-1.107-0.263-1.661-0.395c0.208-2.191,0.415-4.382,0.636-6.706c-5.896,2.201-6.228,3.567-2.173,7.841
		c4.143,4.366,4.514,8.222,1.002,10.475c-1.519,0.976-3.05,1.935-5.59,3.543c-1.886-2.731-3.931-5.692-6.566-9.51
		c-1.362,3.211-1.931,4.549-2.498,5.887c-0.371,0.033-0.743,0.065-1.116,0.098c-0.634-3.3-1.268-6.598-2.014-10.48
		c-1.55,0.922-3,1.785-3.995,2.377c-1.943-3.817-3.886-7.632-5.422-10.651c-8.937-1.107-12.288,6.312-18.049,9.599
		c-0.931,0.53-0.932,2.685-1.366,4.088c-1.098,3.55-2.197,7.1-3.898,10.559c-3.009-7.844-9.949-13.819-8.669-23.381
		c-3.175,1.642-4.176,0.791-5.522-2.142c-1.055-2.298-3.476-5.21-7.939-3.82c-3.71,1.155-8.242,1.742-11.504-2.096
		c-0.367-0.432-1.127-1.021-1.485-0.899c-5.752,1.962-8.487-2.332-11.555-5.736c-2.862,2.765-2.673,3.158,5.311,11.372
		c1.493-0.896,3.049-1.829,4.655-2.794c0.222,0.025,0.568-0.037,0.783,0.104c6.504,4.214,6.891,8.305,0.115,12.395
		c-5.563,3.357-11.979,5.36-18.157,7.564c-0.905,0.323-3.152-1.256-3.833-2.48c-3.884-6.991-7.42-14.174-11.259-21.192
		c-0.434-0.792-2.015-0.957-3.064-1.412c-0.444,0.431-0.89,0.862-1.334,1.293c4.553,7.51,9.992,14.641,13.406,22.637
		c3.396,7.953,7.84,5.773,13.109,3.513c0.412-0.177,0.895-0.237,1.346-0.254c0.28-0.01,0.568,0.164,1.406,0.435
		c-1.272,6.222-4.391,11.243-9.084,15.541c-3.7,3.388-7.53,6.799-10.405,10.838c-1.121,1.574-0.397,5.159,0.548,7.375
		c3.011,7.064,2.021,11.17-4.447,15.338c-2.559,1.649-4.148,3.612-2.737,6.887c0.337,0.783,0.609,2.126,0.2,2.62
		c-4.322,5.196-8.203,11.027-13.437,15.1c-3.078,2.395-8.352,2.102-12.686,2.626c-0.769,0.093-2.145-1.585-2.606-2.706
		c-3.207-7.782-6.201-15.653-9.361-23.456c-1.474-3.635-1.765-6.805,0.896-10.293c2.765-3.625-0.541-7.279-1.183-10.908
		c-0.171-0.976-0.947-1.979-1.705-2.695c-3.744-3.543-4.572-7.264-2.155-12.133c1.217-2.447-1.266-3.817-3.39-2.797
		c-2.454,1.178-3.295,0.219-4.913-1.373c-1.159-1.14-3.624-1.481-5.43-1.32c-3.433,0.306-6.957,0.817-10.181,1.972
		c-7.929,2.837-11.863-1.883-15.374-7.583c-1.432-2.325-5.926-2.069-5.136-6.213c0.321-1.686,0.513-3.396,0.833-5.081
		c0.275-1.446,1.251-3.056,0.88-4.279c-2.191-7.232,1.822-11.452,6.862-15.391c1.2-0.938,2.635-2.269,2.874-3.612
		c0.739-4.159,3.724-6.275,7.065-7.081c7.366-1.778,14.895-2.915,22.395-4.07c1.404-0.216,3.478,0.267,4.327,1.232
		c0.689,0.785,0.008,2.775-0.093,4.771c3.427,1.509,7.295,3.27,11.22,4.887c0.774,0.319,2.231,0.484,2.603,0.054
		c4.568-5.298,9.991-0.908,15.718-2.135c-0.94,1.756-1.424,2.656-1.355,2.531c2.337-0.226,5.139-0.752,7.93-0.699
		c3.394,0.065,5.699-3.428,5.47-8.856c-5.92-1.16-14.489,3.413-16.076-7.948c-1.426,0.628-2.704,1.191-3.98,1.753
		c0.425,0.276,0.851,0.552,1.276,0.829c-0.767,1.804-1.532,3.609-2.298,5.414c-0.51-0.021-1.019-0.042-1.527-0.063
		c-3.322-6.967-8.105-12.361-15.062-15.416c-0.343,0.391-0.688,0.78-1.032,1.171c2.877,2.357,5.754,4.714,8.711,7.138
		c-0.359,0.842-0.869,2.035-1.13,2.644c-2.134-1.311-4.244-2.597-6.342-3.902c-1.281-0.797-2.943-1.347-3.73-2.493
		c-1.617-2.352-3.061-1.833-5.432-1.133c-3.289,0.971-6.91,0.82-9.393,3.76c-1.113,1.317-2.547,2.479-3.277,3.982
		c-2.146,4.417-11.81,5.658-14.73,1.312c-1.243-1.849-0.406-5.388,0.192-7.996c0.17-0.742,2.803-1.08,4.35-1.295
		c1.347-0.188,2.849,0.39,4.11,0.027c1.515-0.437,2.847-1.512,4.259-2.31c-0.834-1.415-1.599-2.877-2.54-4.216
		c-0.301-0.428-1.068-0.529-2.647-1.242c2.999-0.878,5.299-1.236,7.272-2.236c1.356-0.687,2.26-2.267,3.367-3.448L287.159,72.819z
		 M374.571,83.493c-2.483-3.879-11.74-4.141-13.412-1.016c-0.448,0.838-0.291,2.559,0.304,3.292
		c1.554,1.911,3.503,3.499,5.432,5.348c-0.043,0.061-0.299,0.404-0.533,0.762c-0.786,1.196-1.564,2.397-2.347,3.597
		c2.68,0.768,5.348,1.598,8.073,2.124c0.139,0.027,1.471-2.835,1.063-3.896c-1.312-3.401-3.181-6.587-5.013-10.21
		C370.162,83.493,372.049,83.493,374.571,83.493z M330.287,89.648c8.083,0,15.438,0,22.793,0c0.032-0.373,0.064-0.745,0.097-1.118
		c-2.757-2.328-5.513-4.655-8.642-7.297c-0.942,0.724-2.654,2.038-3.781,2.903c-2.357-1.202-5.357-3.067-5.572-2.788
		C333.136,84.006,328.8,85.688,330.287,89.648z"/>
	<path fill-rule="evenodd" clip-rule="evenodd" d="M90.286,34.882c-0.896-0.772-1.723-2.074-2.701-2.199
		c-1.744-0.223-3.578,0.267-6.399,0.567c3.566-3.659,6.927-3.884,10.58-3.009c3.791,0.909,7.252,3.94,11.624,1.016
		c1.067-0.714,3.533,0.662,5.791,1.176c-0.293,1.028-0.646,2.265-1.026,3.598c2.519,2.199,5.156,4.502,8.167,7.13
		c-2.04,0.576-4.238,1.197-6.436,1.817c0.008,0.423,0.017,0.846,0.025,1.268c3.727,0,7.456,0.055,11.173-0.13
		c0.238-0.012,0.381-1.898,0.69-3.566c0.857,0.591,1.69,1.154,2.511,1.735c1.019,0.723,2.027,1.461,3.041,2.191
		c0.34-1.187,0.881-2.362,0.957-3.566c0.062-0.969-0.438-1.974-0.872-3.683c4.391,2.598,8.151,4.822,12.137,7.181
		c0.976-0.755,2.14-1.657,3.623-2.806c-2.537-2.766-8.336,0.444-8.716-5.069c4.814-3.356,5.743-3.238,7.688,0.98
		c4.972-3.946,10.379-3.863,16.061-1.842c3.449,1.227,6.962,2.273,10.451,3.388c0.872,0.278,2.361,0.28,2.55,0.787
		c1.875,5.047,7.594,3.67,10.712,6.862c-2.177,4.371-5.731-0.167-9.1,0.859c1.877,1.656,3.315,2.925,4.753,4.195
		c-0.211,0.537-0.423,1.075-0.635,1.612c-7.4-1.35-14.801-2.7-22.854-4.168c3.315-1.541,6.235-2.897,9.155-4.254
		c-0.241-0.537-0.482-1.074-0.722-1.611c-1.598,0.694-3.196,1.388-5.414,2.352c0.286-1.504,0.476-2.5,0.817-4.293
		c-3.275,0-6.299,0-10.076,0c0.868,1.548,1.381,2.464,2.276,4.059c-2.955,0.438-5.42,0.805-8.604,1.277
		c3.458,1.334,6.349,2.449,9.24,3.564c-0.152,0.376-0.305,0.752-0.458,1.128c-3.219-0.572-6.438-1.143-9.657-1.715
		c-0.013-0.413-0.025-0.827-0.038-1.241c-3.277,1.682-6.666,3.184-9.779,5.127c-1.386,0.865-3.395,3.241-3.073,3.851
		c0.879,1.667,2.646,3.368,4.424,3.956c4.182,1.381,8.667,1.85,12.842,3.245c1.88,0.628,3.287,2.625,4.963,3.93
		c1,0.778,2.106,1.417,3.164,2.119c0.315-0.357,0.63-0.715,0.945-1.072c-0.428-1.586-0.855-3.173-1.296-4.806
		c2.784-0.729,6.53-0.741,2.649-5.332c-2.199-2.602,0.307-6.905,3.742-6.407c3.937,0.57,8.641,0.012,10.914,5.098
		c0.311,0.697,4.404-0.297,7.458-0.572c4.002,3.206,8.995,7.207,14.184,11.364c-0.462,0.988-1.079,2.31-1.693,3.625
		c2.066,1.24,3.938,2.361,5.808,3.483c-0.166,0.417-0.332,0.834-0.498,1.251c-2.781,0-5.563,0-9.08,0
		c1.077-2.135,1.985-3.935,3.346-6.632c-3.631,1.563-6.575,2.83-9.785,4.212c-3.342-4.083-6.309-1.873-9.04,1.587
		c1.148-0.355,2.29-0.955,3.448-0.991c1.011-0.033,2.85,0.424,2.936,0.913c0.605,3.39,3.121,3.106,5.505,3.31
		c0.619,0.053,1.206,0.484,1.808,0.742c-0.347,0.563-0.822,1.657-1.021,1.609c-3.407-0.827-6.304,4.732-10.229,0.48
		c-1.521-1.646-5.753,1.85-6.322,5.066c-5.137,1.006-7.8,3.913-8.802,9.267c-0.362,1.938-3.611,3.568-5.819,4.873
		c-3.013,1.782-4.26,3.51-2.021,6.895c0.911,1.376,0.705,3.491,1.201,6.412c-4.936-3.035-5.297-9.151-11.014-9.026
		c-4.018,0.088-14.51,2.757-17.503,4.81c-0.245,2.383-0.605,4.625-0.68,6.878c-0.193,5.803,4.365,9.271,9.471,7.285
		c0.52-0.202,1.38-0.493,1.419-0.82c0.562-4.833,3.907-2.854,7.498-3.149c-0.924,1.992-1.666,3.209-2.052,4.531
		c-0.379,1.295-0.396,2.695-0.556,3.932c0.257,0.234,0.381,0.429,0.466,0.413c8.951-1.608,6.648,5.521,8.018,9.991
		c0.238,0.775,2.42,1.193,3.752,1.34c2.008,0.222,4.059,0.058,7.111,0.058c1.751-1.358,4.435-3.44,7.589-5.889
		c0,2.337,0,3.757,0,6.567c1.885-3.574,3.14-5.975,6.676-3.353c1.302,0.965,4.142-0.425,6.153-0.053
		c1.71,0.315,3.324,1.491,4.827,2.514c2.646,1.799,5.195,5.378,7.75,5.347c5.969-0.074,8.063,3.995,11.403,7.719
		c-1.667,1.104-3.103,2.057-3.544,2.349c5.974,1.416,12.605,2.758,19.083,4.633c2.708,0.783,5.257,2.476,7.538,4.205
		c0.935,0.708,1.437,2.658,1.292,3.948c-0.18,1.594-0.826,3.619-1.995,4.526c-3.854,2.989-4.749,7.019-5.302,11.479
		c-0.616,4.958-2.542,8.712-8.36,9.869c-3.092,0.616-7.183,1.301-6.801,6.887c0.28,4.104-10.879,12.476-14.715,11.746
		c1.823,3.508,0.333,5.844-2.792,7.001c-2.437,0.902-5.782-0.353-7.014,3.301c-0.075,0.222-1.676-0.072-3.202-0.164
		c0.82,1.344,1.366,2.237,1.967,3.222c-1.76,1.842-3.541,3.705-5.483,5.738c1.028,0.674,1.882,1.234,3.015,1.979
		c-1.94,2.155-4.816,4.019-5.348,6.403c-0.365,1.637,2.529,3.999,3.924,5.977c-4.931,2.968-11.767,0.085-13.878-7.28
		c-1.013-3.533-1.176-7.177,1.027-10.909c1.384-2.345,0.891-5.804,1.212-8.765c0.16-1.471,0.111-2.979,0.408-4.417
		c1.671-8.097,3.469-16.165,5.114-24.266c0.647-3.189-0.353-5.938-3.471-7.255c-5.237-2.21-7.511-6.733-9.82-11.43
		c-1.174-2.388-2.993-4.458-4.521-6.672c-0.259-0.374-0.811-1.004-0.742-1.081c2.701-3.013-0.932-7.553,3.057-10.613
		c4.96-3.806,4.757-6.914,0.547-12.105c-4.1,2.208-9.012,0.191-11.718-4.243c-1.047-1.718-3.109-2.939-4.921-4.036
		c-2.164-1.308-4.554-2.246-6.852-3.334c-0.918-0.435-1.894-1.278-2.771-1.192c-7.466,0.729-14.828-3.557-17.87-9.963
		c-1.057-2.226-3.387-3.847-5.135-5.745c-1.554-1.687-3.134-3.351-4.651-5.07c-1.356-1.536-2.64-3.135-3.957-4.706
		c-0.383,0.267-0.767,0.533-1.151,0.799c3.099,4.244,6.197,8.489,9.295,12.733c-4.102-1.58-6.857-4.258-9.033-8.121
		c-2.131-3.782-5.365-6.985-8.331-10.245c-3.873-4.256-8.78-7.833-7.893-14.665c0.62-4.78,0.318-8.808-5.118-11.424
		c-2.599-1.25-3.956-5.079-6.823-7.168c0.277,1.042,0.554,2.083,1.043,3.922c-1.527-0.9-2.89-1.214-3.155-1.933
		c-3.947-10.708-13.745-11.114-22.681-12.801c-1.507-0.285-3.296,1.324-5.033,1.718c-1.315,0.299-2.753,0.059-4.141-0.943
		c-0.254,0.167-0.736,0.347-0.728,0.498c0.509,8.642-7.681,4.803-11.255,7.656c-1.897,1.513-5.047,1.455-7.958,1.244
		c3.486-1.611,6.973-3.223,11.254-5.203c-5.488-1.861-10.041-3.404-14.593-4.948c0.046-0.632,0.093-1.264,0.139-1.896
		c2.67-1.052,5.34-2.105,8.627-3.401c-4.055-0.305-7.456-0.56-10.856-0.815c0.042-0.695,0.084-1.39,0.126-2.085
		c3.204,0,6.407,0,9.611,0c0.101-0.296,0.201-0.593,0.301-0.889c-2.369-1.013-4.737-2.026-7.661-3.276
		c7.462-2.552,13.809-6.098,22.125-3.511c6.104,1.899,13.109,0.679,19.617,1.561c10.099,1.368,20.067-2.075,30.122-0.354
		c3.221,0.551,6.453,1.034,10.644,1.701c-1.862-2.16-3.105-3.602-3.848-4.464c-3.961,0.197-7.373,0.366-11.798,0.586
		c3.67-8.101,10.039-3.854,14.437-5.673c5.113,1.503,10.208,3.022,16.472,4.888c-1.379-1.878-2.075-3.803-2.996-3.917
		C99.387,35.202,94.826,35.127,90.286,34.882z M151.905,82.336c-3.307-2.388-10.859-2.921-11.704-0.542
		c-0.79,2.225-0.169,4.95-0.169,7.987c1.907-3.132,3.21-5.274,4.514-7.416c1.343,1.285,2.686,2.57,4.194,4.013
		C149.594,85.287,150.656,83.93,151.905,82.336z M144.739,78.722c-4.428-4.589-5.718-4.526-10.834,0
		C137.437,78.722,140.815,78.722,144.739,78.722z M148.901,89.973c3.125-1.654,6.251-3.308,10.229-5.413
		C153.276,83.088,151.48,87.278,148.901,89.973z"/>
	<path fill-rule="evenodd" clip-rule="evenodd" d="M254.697,19.932c-6.944,3.418-12.719,7.493-9.374,16.211
		c-2.591,0.498-4.311,0.828-6.017,1.156c0.599,4.024,0.599,4.024-5.54,2.99c0.962,1.258,1.694,2.217,2.695,3.527
		c-3.543,0.873-6.823,1.58-10.044,2.497c-4.112,1.17-8.301,2.223-12.207,3.904c-1.789,0.769-3.944,2.733-4.28,4.475
		c-1.426,7.39-6.252,3.323-8.729,2.156c-4.363-2.057-8.001-5.359-8.311-11.14c-0.236-4.405-0.672-4.382,1.456-6.203
		c-1.401,0.272-2.803,0.544-4.578,0.889c0.187-6.504-4.825-7.446-9.757-8.015c-2.974-0.343-6.093,0.541-9.058,0.164
		c-2.089-0.266-4.027-1.724-5.201-2.265c3.032-2.298,6.153-5.132,9.705-7.236c4.652-2.755,9.246-6.339,15.328-4.375
		c3.505,1.131,6.195,0.781,6.323-4.503c3.658,4.081,4.518-0.625,6.667-1.418c7.617-2.812,15.327-3.808,23.458-0.86
		c-2.17,0.505-4.342,1.01-6.513,1.516c0.018,0.259,0.036,0.518,0.053,0.776c3.192-0.57,6.404-1.048,9.57-1.734
		c3.819-0.828,7.037-1.87,8.762,3.682c1.814,5.84,3.342,5.777,8.951,2.857c1.562-0.813,3.758-0.408,5.664-0.562
		C254.046,18.923,254.371,19.428,254.697,19.932z"/>
	<path fill-rule="evenodd" clip-rule="evenodd" d="M511.114,213.262c-1.147,0.95-2.168,1.793-3.257,2.691
		c-1.659-4.476-5.954-6.829-10.379-5.41c-5.589,1.792-11.066,3.941-16.559,6.023c-3.375,1.28-4.115,1.166-6.745-1.823
		c0.441-0.52,0.912-1.065,1.377-1.617c0.383-0.455,0.759-0.917,0.459-0.554c-1.62-5.313-3.494-9.846-4.292-14.563
		c-0.695-4.11,3.414-5.966,6.166-5.916c6.366,0.115,9.098-4.868,12.604-8.204c2.562-2.437,3.954-3.252,6.793-0.585
		c2.573-6.63,7.709-5.001,12.953-4.714c-2.895,7.06,3.607,6.466,7.532,10.031c0.565-4.707,0.991-8.254,1.582-13.168
		c2.857,5.382,4.826,9.818,7.467,13.811c1.854,2.803,4.767,4.881,6.953,7.494c4.115,4.915,4.587,12.029,1.128,17.533
		c-1.937,3.083-2.664,7.02-7.216,8.233c-5.694,1.52-8.888,0.578-12.071-4.456C514.524,216.355,512.809,215.04,511.114,213.262z"/>
	<path fill-rule="evenodd" clip-rule="evenodd" d="M504.687,164.54c-1.234-2.184-2.055-3.635-2.797-4.95
		c9.465-2.831,27.659,6.576,30.206,17.145c-2.331-1.648-4.387-2.467-5.438-3.981c-1.919-2.768-3.414-2.522-5.374-0.271
		c-1.337,1.536-7.713,0.324-7.467-1.413c0.645-4.523-2.644-4.308-5.202-5.169C507.066,165.378,505.525,164.83,504.687,164.54z"/>
	<path fill-rule="evenodd" clip-rule="evenodd" d="M475.849,164.101c-7.707,0.763-10.368-1.095-10.979-7.481
		c4.474-3,8.771-5.881,13.253-8.888C481.343,153.142,479.177,158.482,475.849,164.101z"/>
	<path fill-rule="evenodd" clip-rule="evenodd" d="M366.56,178.736c0.248,2.077,1.013,4.037,0.583,5.687
		c-1.229,4.7-2.791,9.335-4.575,13.857c-0.427,1.08-2.219,2.168-3.41,2.199c-0.725,0.019-2.022-1.918-2.158-3.082
		c-0.391-3.378-0.387-6.81-0.376-10.22c0.001-0.587,0.688-1.3,1.234-1.735C360.388,183.422,362.98,181.48,366.56,178.736z"/>
	<path fill-rule="evenodd" clip-rule="evenodd" d="M499.878,105.994c-0.485-0.802-1.085-1.792-2.217-3.661
		c2.902-1.091,5.349-2.506,7.946-2.885c5.792-0.845,9.586-3.092,9.959-8.506c0.446-6.47,3.614-8.347,10.678-4.034
		c-3.341,0.753-5.989,1.352-8.637,1.95c1.682,8.293-0.854,11.408-11.653,14.718C504.111,104.141,502.357,104.996,499.878,105.994z"
		/>
	<path fill-rule="evenodd" clip-rule="evenodd" d="M460.109,162.225c-1.6,5.546,0.169,7.631,5.916,7.838
		c2.411,0.087,4.813,0.461,7.152,1.147c-4.527,1.593-12.305-0.274-15.597-3.14c-3.779-3.291-7.575-6.351-9.367-11.487
		c-0.862-2.474-3.714-4.253-5.665-6.346c0.267-0.359,0.532-0.719,0.799-1.078C448.889,153.479,454.429,157.798,460.109,162.225z"/>
	<path fill-rule="evenodd" clip-rule="evenodd" d="M287.252,72.673c-3.465,2.419-8.365,2.294-11.542-0.517
		c0.847-0.975,1.698-1.952,2.524-2.9c-2.096-1.764-4.242-3.57-6.744-5.675c4.999-2.691,8.163-3.635,9.885,2.5
		c0.728,2.591,3.774,4.531,5.775,6.752C287.159,72.819,287.252,72.673,287.252,72.673z"/>
	<path fill-rule="evenodd" clip-rule="evenodd" d="M378.028,42.129c-2.775-0.729-5.551-1.457-9.001-2.363
		c8.388-7.983,18.327-8.171,28.131-8.795c0.139,0.368,0.277,0.734,0.415,1.102c-1.884,0.589-3.733,1.375-5.66,1.727
		c-3.701,0.675-7.543,0.76-11.138,1.764c-2.179,0.608-5.427,1.898-0.664,5.964C379.418,41.728,378.723,41.928,378.028,42.129z"/>
	<path fill-rule="evenodd" clip-rule="evenodd" d="M243.882,49.452c4.959,0,9.597,0,15.219,0
		C251.993,55.118,244.811,54.5,243.882,49.452z"/>
	<path fill-rule="evenodd" clip-rule="evenodd" d="M559.118,234.321c4.376-3.2,7.778-5.728,11.285-8.103
		c0.132-0.09,1.907,1.386,1.827,1.99C571.852,231.122,563.93,235.488,559.118,234.321z"/>
	<path fill-rule="evenodd" clip-rule="evenodd" d="M457.419,156.631c-7.63-2.01-6.717-9.524-10.376-13.629
		C452.482,145.779,455.036,150.709,457.419,156.631z"/>
	<path fill-rule="evenodd" clip-rule="evenodd" d="M150.642,34.757c-10.073,0.653-19.05,0.005-27.128-5.412
		C132.31,31.1,141.039,32.842,150.642,34.757z"/>
	<path fill-rule="evenodd" clip-rule="evenodd" d="M486.719,129.071c-0.319,0.911-0.876,2.502-1.546,4.411
		c1.072,0.344,2.279,0.731,3.807,1.223c-2.031,1.597-3.903,3.069-5.775,4.541c-0.13-0.103-0.262-0.204-0.393-0.307
		c0.635-0.878,1.27-1.755,2.005-2.771c-0.99-1.24-2.004-2.508-3.369-4.217C483.28,130.949,485.011,130.003,486.719,129.071z"/>
	<path fill-rule="evenodd" clip-rule="evenodd" d="M267.906,73.176c-1.216-3.85,0.579-5.618,3.511-6.244
		c0.711-0.152,2.606,1.472,2.566,2.203C273.788,72.738,270.983,73.017,267.906,73.176z"/>
	<path fill-rule="evenodd" clip-rule="evenodd" d="M572.022,216.996c2.367,1.853,4.364,3.417,6.591,5.161
		c-0.944,1.335-2.11,2.984-4.034,5.704C573.585,223.633,572.854,220.525,572.022,216.996z"/>
	<path fill-rule="evenodd" clip-rule="evenodd" d="M488.237,160.036c-1.153,0.963-1.746,1.458-2.21,1.845
		c0.78,1.496,1.546,2.966,2.925,5.61c-3.137-1.911-5.001-3.047-7.522-4.582c0.042-0.203,0.299-1.478,0.579-2.873
		C483.889,160.036,485.534,160.036,488.237,160.036z"/>
	<path fill-rule="evenodd" clip-rule="evenodd" d="M485.169,145.16c2.703-0.677,4.774-1.354,6.896-1.577
		c0.391-0.042,0.976,1.756,1.473,2.705c-1.089,0.528-2.275,1.621-3.243,1.453C488.785,147.478,487.427,146.359,485.169,145.16z"/>
	<path fill-rule="evenodd" clip-rule="evenodd" d="M114.058,36.979c3.093-0.197,5.009-0.462,6.907-0.367
		c0.705,0.035,1.81,0.826,1.931,1.433c0.132,0.659-0.489,1.793-1.115,2.18c-0.529,0.326-1.614,0.056-2.313-0.261
		C118.038,39.317,116.701,38.46,114.058,36.979z"/>
	<path fill-rule="evenodd" clip-rule="evenodd" d="M145.265,121.432c5.819-3.542,9.071,2.028,13.518,1.987
		c-0.203,0.532-0.407,1.065-0.61,1.598c-1.735-0.798-3.405-1.838-5.224-2.333C150.673,122.068,148.275,121.898,145.265,121.432z"/>
	<path fill-rule="evenodd" clip-rule="evenodd" d="M118.484,29.853c-2.706-0.528-5.411-1.057-8.116-1.585
		c3.313-1.934,6.271-2.054,8.703,0.585C118.875,29.187,118.68,29.52,118.484,29.853z"/>
	<path fill-rule="evenodd" clip-rule="evenodd" d="M121.258,33.524c-3.154,0.143-6.308,0.287-9.448,0.43
		c0.372-2.665,1.71-2.999,9.148-1.758C121.058,32.64,121.158,33.082,121.258,33.524z"/>
	<path fill-rule="evenodd" clip-rule="evenodd" fill="#FFFFFF" d="M374.571,83.493c-2.522,0-4.409,0-6.433,0
		c1.832,3.624,3.701,6.809,5.013,10.21c0.407,1.06-0.925,3.922-1.063,3.896c-2.726-0.526-5.394-1.356-8.073-2.124
		c0.782-1.2,1.561-2.4,2.347-3.597c0.234-0.358,0.49-0.702,0.533-0.762c-1.929-1.849-3.878-3.437-5.432-5.348
		c-0.595-0.733-0.752-2.453-0.304-3.292C362.831,79.352,372.088,79.614,374.571,83.493z"/>
	<path fill-rule="evenodd" clip-rule="evenodd" fill="#FFFFFF" d="M330.287,89.648c-1.487-3.96,2.849-5.642,4.895-8.3
		c0.215-0.279,3.215,1.586,5.572,2.788c1.127-0.865,2.839-2.179,3.781-2.903c3.129,2.643,5.885,4.97,8.642,7.297
		c-0.032,0.373-0.064,0.745-0.097,1.118C345.726,89.648,338.37,89.648,330.287,89.648z"/>
	<path fill-rule="evenodd" clip-rule="evenodd" fill="#FFFFFF" d="M151.905,82.336c-1.249,1.594-2.311,2.951-3.166,4.042
		c-1.508-1.443-2.851-2.729-4.194-4.013c-1.304,2.142-2.607,4.284-4.514,7.416c0-3.038-0.62-5.763,0.169-7.987
		C141.045,79.415,148.598,79.948,151.905,82.336z"/>
	<path fill-rule="evenodd" clip-rule="evenodd" fill="#FFFFFF" d="M90.286,34.882c4.54,0.246,9.102,0.32,13.604,0.878
		c0.921,0.113,1.617,2.038,2.996,3.917c-6.264-1.866-11.358-3.385-16.472-4.888C90.396,34.802,90.286,34.882,90.286,34.882z"/>
	<path fill-rule="evenodd" clip-rule="evenodd" fill="#FFFFFF" d="M144.739,78.722c-3.924,0-7.303,0-10.834,0
		C139.021,74.195,140.312,74.132,144.739,78.722z"/>
	<path fill-rule="evenodd" clip-rule="evenodd" fill="#FFFFFF" d="M148.901,89.973c2.58-2.694,4.375-6.884,10.229-5.413
		C155.152,86.665,152.026,88.319,148.901,89.973z"/>
</g>
<polygon fill-rule="evenodd" clip-rule="evenodd" fill="#FFF200" stroke="#000000" stroke-width="2" stroke-miterlimit="10" points="
	157.682,86.242 160.642,92.24 167.262,93.203 162.472,97.871 163.603,104.464 157.682,101.352 151.761,104.464 152.892,97.871 
	148.101,93.203 154.721,92.24 "/>
<polygon fill-rule="evenodd" clip-rule="evenodd" fill="#FFF200" stroke="#000000" stroke-width="2" stroke-miterlimit="10" points="
	82.152,87.624 85.113,93.623 91.732,94.584 86.942,99.253 88.073,105.847 82.152,102.734 76.231,105.847 77.362,99.253 
	72.571,94.584 79.191,93.623 "/>
<polygon fill-rule="evenodd" clip-rule="evenodd" fill="#FFF200" stroke="#000000" stroke-width="2" stroke-miterlimit="10" points="
	90.039,73.994 92.999,79.992 99.619,80.954 94.829,85.624 95.96,92.217 90.039,89.104 84.118,92.217 85.249,85.624 80.458,80.954 
	87.078,79.992 "/>
<polygon fill-rule="evenodd" clip-rule="evenodd" fill="#FFF200" stroke="#000000" stroke-width="2" stroke-miterlimit="10" points="
	95.652,95.279 98.613,101.277 105.233,102.239 100.442,106.909 101.573,113.502 95.652,110.389 89.731,113.502 90.862,106.909 
	86.072,102.239 92.692,101.277 "/>
<polygon fill-rule="evenodd" clip-rule="evenodd" fill="#FFF200" stroke="#000000" stroke-width="2" stroke-miterlimit="10" points="
	201.292,190.861 204.253,196.86 210.873,197.822 206.083,202.491 207.213,209.083 201.292,205.971 195.371,209.083 196.502,202.491 
	191.712,197.822 198.332,196.86 "/>
<polygon fill-rule="evenodd" clip-rule="evenodd" fill="#FFF200" stroke="#000000" stroke-width="2" stroke-miterlimit="10" points="
	297.235,66.7 300.196,72.698 306.816,73.66 302.026,78.33 303.156,84.923 297.235,81.81 291.315,84.923 292.445,78.33 
	287.655,73.66 294.274,72.698 "/>
<polygon fill-rule="evenodd" clip-rule="evenodd" fill="#FFF200" stroke="#000000" stroke-width="2" stroke-miterlimit="10" points="
	452.146,146.313 455.107,152.311 461.727,153.273 456.937,157.943 458.067,164.536 452.146,161.423 446.226,164.536 
	447.356,157.943 442.566,153.273 449.186,152.311 "/>
<polygon fill-rule="evenodd" clip-rule="evenodd" fill="#FFF200" stroke="#000000" stroke-width="2" stroke-miterlimit="10" points="
	525.635,206.681 528.596,212.68 535.216,213.642 530.425,218.311 531.556,224.905 525.635,221.792 519.714,224.905 520.845,218.311 
	516.055,213.642 522.675,212.68 "/>
<polygon fill-rule="evenodd" clip-rule="evenodd" fill="#FFF200" stroke="#000000" stroke-width="2" stroke-miterlimit="10" points="
	514.918,87.113 517.879,93.112 524.499,94.074 519.708,98.743 520.839,105.336 514.918,102.223 508.997,105.336 510.128,98.743 
	505.338,94.074 511.957,93.112 "/>
</svg>
