<?xml version="1.0" encoding="utf-8"?>
<!-- Generator: Adobe Illustrator 16.0.0, SVG Export Plug-In . SVG Version: 6.00 Build 0)  -->
<!DOCTYPE svg PUBLIC "-//W3C//DTD SVG 1.1//EN" "http://www.w3.org/Graphics/SVG/1.1/DTD/svg11.dtd">
<svg version="1.1" id="Layer_1" xmlns="http://www.w3.org/2000/svg" xmlns:xlink="http://www.w3.org/1999/xlink" x="0px" y="0px"
	 width="1090px" height="830.002px" viewBox="0 0 1090 830.002" enable-background="new 0 0 1090 830.002" xml:space="preserve">
<path fill="#D22026" stroke="#000000" stroke-width="2" stroke-miterlimit="10" d="M837.889,199.444c0,6.627-5.373,12-12,12h-145
	c-6.627,0-12-5.373-12-12v-145c0-6.627,5.373-12,12-12h145c6.627,0,12,5.373,12,12V199.444z"/>
<g>
	<path fill="#882786" stroke="#000000" stroke-width="2" stroke-miterlimit="10" d="M866.889,548.487
		c0,4.395-5.889,7.957-13.152,7.957H686.041c-7.264,0-13.152-3.563-13.152-7.957V318.401c0-4.395,5.889-7.957,13.152-7.957h167.695
		c7.264,0,13.152,3.563,13.152,7.957V548.487z"/>
	<g>
		<text transform="matrix(1 0 0 1 715.8887 300.4443)" font-family="'MyriadPro-Bold'" font-size="19.043">ElastiCache</text>
	</g>
	<g>
		<path fill="#D2EAD6" d="M856.709,418.444c0,6.627-5.373,12-12,12h-149c-6.627,0-12-5.373-12-12v-81c0-6.627,5.373-12,12-12h149
			c6.627,0,12,5.373,12,12V418.444z"/>
		<g>
			<g>
				<g>
					<g>
						<path d="M854.931,422.37l1.589,1.132c-0.001,0,0.466-1.11,0.717-2.286c0.097-0.591,0.217-1.18,0.224-1.63
							c0.031-0.447,0.052-0.745,0.052-0.745l-1.716-0.847c0,0-0.015,0.28-0.035,0.7c0.001,0.423-0.103,0.976-0.185,1.53
							C855.356,421.328,854.931,422.37,854.931,422.37z"/>
						<path d="M850.79,427.5l1.276,1.488c-0.001,0,0.989-0.689,1.832-1.551c0.409-0.441,0.814-0.885,1.07-1.258
							c0.136-0.181,0.249-0.331,0.328-0.436c0.07-0.11,0.11-0.174,0.11-0.174l-1.5-1.261c0,0-0.037,0.059-0.103,0.163
							c-0.074,0.098-0.179,0.238-0.305,0.407c-0.236,0.35-0.615,0.764-0.996,1.176C851.717,426.859,850.79,427.499,850.79,427.5z"/>
						<path d="M844.519,429.519l0.863,1.709c0,0,1.199-0.042,2.369-0.318c1.171-0.271,2.271-0.766,2.271-0.767l-1.147-1.578
							c0,0.001-1.032,0.453-2.131,0.691C845.645,429.499,844.519,429.518,844.519,429.519z"/>
						<polygon points="837.833,429.531 838.196,431.282 843.021,431.258 842.321,429.531 						"/>
						<polygon points="831.073,429.531 831.073,431.309 835.834,431.294 835.637,429.531 						"/>
						<rect x="824.12" y="429.531" width="4.668" height="1.777"/>
						<rect x="817.168" y="429.531" width="4.668" height="1.777"/>
					</g>
				</g>
				<g>
					<g>
						<rect x="810.214" y="429.531" width="4.669" height="1.777"/>
						<rect x="803.262" y="429.531" width="4.668" height="1.777"/>
						<rect x="796.309" y="429.531" width="4.669" height="1.777"/>
						<rect x="789.355" y="429.531" width="4.668" height="1.777"/>
						<rect x="782.402" y="429.531" width="4.669" height="1.777"/>
						<rect x="775.449" y="429.531" width="4.668" height="1.777"/>
						<rect x="768.498" y="429.531" width="4.667" height="1.777"/>
					</g>
				</g>
				<g>
					<g>
						<rect x="761.543" y="429.531" width="4.669" height="1.777"/>
						<rect x="754.591" y="429.531" width="4.668" height="1.777"/>
						<rect x="747.639" y="429.531" width="4.668" height="1.777"/>
						<rect x="740.685" y="429.531" width="4.668" height="1.777"/>
						<rect x="733.732" y="429.531" width="4.668" height="1.777"/>
						<rect x="726.778" y="429.531" width="4.668" height="1.777"/>
						<rect x="719.827" y="429.531" width="4.667" height="1.777"/>
					</g>
				</g>
				<g>
					<g>
						<rect x="712.873" y="429.531" width="4.668" height="1.777"/>
						<polygon points="705.977,429.531 705.87,431.301 710.589,431.309 710.589,429.531 						"/>
						<polygon points="699.292,429.531 698.682,431.264 703.509,431.289 703.781,429.531 						"/>
						<path d="M692.662,428.988l-1.074,1.621c0,0,1.145,0.375,2.335,0.528c1.186,0.137,2.396,0.114,2.396,0.114l0.776-1.721
							c0,0-1.123,0.024-2.241-0.079C693.736,429.327,692.662,428.988,692.662,428.988z"/>
						<path d="M687.214,425.275l-1.445,1.327c0,0,0.769,0.93,1.689,1.707c0.929,0.768,1.979,1.359,1.979,1.359l1.207-1.54
							c0,0-0.984-0.546-1.854-1.26C687.931,426.144,687.214,425.275,687.214,425.275z"/>
						<path d="M684.684,419.188l-1.688,0.924c0,0,0.05,0.295,0.124,0.738c0.051,0.448,0.235,1.021,0.387,1.602
							c0.374,1.143,0.946,2.203,0.946,2.203l1.542-1.203c0.001,0-0.526-0.994-0.864-2.067c-0.134-0.545-0.3-1.083-0.34-1.503
							C684.727,419.465,684.684,419.188,684.684,419.188z"/>
						<polygon points="684.622,412.505 682.876,412.938 682.901,417.765 684.622,416.993 						"/>
					</g>
				</g>
				<g>
					<g>
						<polygon points="684.622,405.782 682.845,405.782 682.864,410.576 684.622,410.308 						"/>
						<rect x="682.845" y="398.829" width="1.777" height="4.669"/>
						<rect x="682.845" y="391.876" width="1.777" height="4.668"/>
						<rect x="682.845" y="384.923" width="1.777" height="4.667"/>
						<rect x="682.845" y="377.97" width="1.777" height="4.669"/>
						<rect x="682.845" y="371.017" width="1.777" height="4.668"/>
						<rect x="682.845" y="364.065" width="1.777" height="4.667"/>
					</g>
				</g>
				<g>
					<g>
						<rect x="682.845" y="357.111" width="1.777" height="4.669"/>
						<rect x="682.845" y="350.158" width="1.777" height="4.668"/>
						<polygon points="684.622,343.435 682.876,343.005 682.852,347.832 684.622,347.923 						"/>
						<path d="M684.68,336.75l-1.689-0.921c0,0-0.115,1.188-0.09,2.399c-0.006,1.207-0.013,2.413-0.013,2.413l1.734,0.595
							c0,0,0-1.122,0-2.244C684.599,337.87,684.68,336.75,684.68,336.75z"/>
						<path d="M687.185,330.653l-1.449-1.324c0.001,0-0.761,0.937-1.329,1.998c-0.271,0.537-0.536,1.076-0.676,1.505
							c-0.08,0.21-0.146,0.386-0.192,0.509c-0.045,0.123-0.06,0.197-0.06,0.197l1.628,1.061c0,0,0.077-0.269,0.228-0.663
							c0.126-0.403,0.37-0.908,0.618-1.412C686.477,331.529,687.185,330.653,687.185,330.653z"/>
						<path d="M692.616,326.917l-1.077-1.619c0,0-1.142,0.384-2.19,0.976c-0.514,0.313-1.028,0.623-1.377,0.912
							c-0.363,0.267-0.591,0.463-0.591,0.463l1.338,1.436c0,0,0.213-0.183,0.553-0.43c0.326-0.269,0.809-0.556,1.29-0.845
							C691.545,327.264,692.616,326.918,692.616,326.917z"/>
						<path d="M699.241,326.357l-0.614-1.732c0,0-1.207,0.006-2.413,0.012c-0.605-0.009-1.205,0.013-1.65,0.056
							c-0.449,0.019-0.743,0.075-0.743,0.075l0.938,1.683c0,0,0.276-0.048,0.698-0.058c0.42-0.03,0.98-0.044,1.541-0.036
							C698.119,326.357,699.241,326.357,699.241,326.357z"/>
					</g>
				</g>
				<g>
					<g>
						<polygon points="705.928,326.357 705.816,324.588 700.99,324.613 701.438,326.357 						"/>
						<rect x="708.152" y="324.58" width="4.669" height="1.777"/>
						<rect x="715.105" y="324.58" width="4.668" height="1.777"/>
						<rect x="722.06" y="324.58" width="4.667" height="1.777"/>
						<rect x="729.011" y="324.58" width="4.669" height="1.777"/>
						<rect x="735.966" y="324.58" width="4.668" height="1.777"/>
						<rect x="742.917" y="324.58" width="4.668" height="1.777"/>
					</g>
				</g>
				<g>
					<g>
						<rect x="749.871" y="324.58" width="4.668" height="1.777"/>
						<rect x="756.823" y="324.58" width="4.669" height="1.777"/>
						<rect x="763.775" y="324.58" width="4.669" height="1.777"/>
						<rect x="770.73" y="324.58" width="4.667" height="1.777"/>
						<rect x="777.682" y="324.58" width="4.669" height="1.777"/>
						<rect x="784.637" y="324.58" width="4.668" height="1.777"/>
						<rect x="791.588" y="324.58" width="4.668" height="1.777"/>
					</g>
				</g>
				<g>
					<g>
						<rect x="798.541" y="324.58" width="4.669" height="1.777"/>
						<rect x="805.494" y="324.58" width="4.669" height="1.777"/>
						<rect x="812.446" y="324.58" width="4.669" height="1.777"/>
						<rect x="819.4" y="324.58" width="4.668" height="1.777"/>
						<rect x="826.353" y="324.58" width="4.669" height="1.777"/>
						<polygon points="837.784,326.357 838.143,324.606 833.316,324.582 833.296,326.357 						"/>
						<path d="M844.467,326.368l0.86-1.711c0,0-0.298-0.023-0.751-0.018c-0.453-0.002-1.056-0.005-1.659-0.008
							c-1.206-0.006-2.413-0.013-2.413-0.013l-0.524,1.739c0,0,1.122,0,2.244,0c0.561,0,1.122,0,1.543,0
							C844.188,326.352,844.467,326.368,844.467,326.368z"/>
					</g>
				</g>
				<g>
					<g>
						<path d="M850.751,328.359l1.272-1.491c0,0-0.996-0.678-2.096-1.168c-1.105-0.478-2.277-0.747-2.277-0.748l-1.002,1.656
							c0,0,1.1,0.238,2.138,0.673C849.817,327.73,850.751,328.359,850.751,328.359z"/>
						<path d="M854.914,333.472l1.586-1.135c0.001,0-0.478-1.106-1.147-2.108c-0.679-0.996-1.524-1.855-1.523-1.856l-1.391,1.387
							c0,0,0.789,0.803,1.418,1.735C854.477,332.434,854.914,333.472,854.914,333.472z"/>
						<path d="M855.796,340.041l1.728-0.685c0,0-0.01-1.206-0.02-2.413c-0.045-0.596-0.062-1.196-0.16-1.636
							c-0.075-0.443-0.125-0.738-0.125-0.738l-1.658,0.998c0,0,0.043,0.277,0.106,0.693c0.087,0.414,0.091,0.977,0.124,1.536
							C855.793,338.919,855.796,340.041,855.796,340.041z"/>
						<polygon points="855.796,346.727 857.56,346.545 857.535,341.719 855.796,342.239 						"/>
						<polygon points="855.796,353.583 857.573,353.583 857.572,348.907 855.796,348.923 						"/>
						<rect x="855.796" y="355.869" width="1.777" height="4.668"/>
						<rect x="855.796" y="362.82" width="1.777" height="4.667"/>
					</g>
				</g>
				<g>
					<g>
						<rect x="855.796" y="369.773" width="1.777" height="4.669"/>
						<rect x="855.796" y="376.727" width="1.777" height="4.668"/>
						<rect x="855.796" y="383.679" width="1.777" height="4.669"/>
						<rect x="855.796" y="390.633" width="1.777" height="4.668"/>
						<rect x="855.796" y="397.585" width="1.777" height="4.668"/>
						<polygon points="855.796,409.113 857.561,409.291 857.573,404.539 855.796,404.539 						"/>
						<polygon points="855.796,415.796 857.523,416.478 857.548,411.651 855.796,411.309 						"/>
					</g>
				</g>
			</g>
		</g>
	</g>
	<g>
		<path fill="#DB98C3" stroke="#000000" stroke-width="2" stroke-miterlimit="10" d="M765.02,399.298
			c0,9.811-7.955,17.766-17.766,17.766h-31.088c-9.813,0-17.766-7.955-17.766-17.766v-31.088c0-9.811,7.953-17.765,17.766-17.765
			h31.088c9.811,0,17.766,7.955,17.766,17.765V399.298z"/>
		<path fill="#DB98C3" stroke="#000000" stroke-width="2" stroke-miterlimit="10" d="M842.02,399.298
			c0,9.811-7.955,17.766-17.766,17.766h-31.09c-9.811,0-17.764-7.955-17.764-17.766v-31.088c0-9.811,7.953-17.765,17.764-17.765
			h31.09c9.811,0,17.766,7.955,17.766,17.765V399.298z"/>
	</g>
	<g>
		<text transform="matrix(1 0 0 1 704.0938 344.4443)" font-family="'MyriadPro-Regular'" font-size="19.043">Availability Zone</text>
	</g>
	<g>
		<g>
			<path fill="#D2EAD6" d="M856.709,535.444c0,6.627-5.373,12-12,12h-149c-6.627,0-12-5.373-12-12v-81c0-6.627,5.373-12,12-12h149
				c6.627,0,12,5.373,12,12V535.444z"/>
			<g>
				<g>
					<g>
						<g>
							<path d="M854.931,539.37l1.589,1.132c-0.001,0,0.466-1.11,0.717-2.286c0.097-0.591,0.217-1.18,0.224-1.629
								c0.031-0.448,0.052-0.746,0.052-0.746l-1.716-0.847c0,0-0.015,0.28-0.035,0.7c0.001,0.423-0.103,0.976-0.185,1.53
								C855.356,538.328,854.931,539.37,854.931,539.37z"/>
							<path d="M850.79,544.5l1.276,1.488c-0.001,0,0.989-0.689,1.832-1.551c0.409-0.441,0.814-0.885,1.07-1.258
								c0.136-0.181,0.249-0.331,0.328-0.436c0.07-0.11,0.11-0.174,0.11-0.174l-1.5-1.261c0,0-0.037,0.059-0.103,0.163
								c-0.074,0.098-0.179,0.238-0.305,0.407c-0.236,0.35-0.615,0.764-0.996,1.176C851.717,543.859,850.79,544.499,850.79,544.5z"
								/>
							<path d="M844.519,546.519l0.863,1.709c0,0,1.199-0.042,2.369-0.318c1.171-0.271,2.271-0.766,2.271-0.767l-1.147-1.578
								c0,0.001-1.032,0.453-2.131,0.691C845.645,546.499,844.519,546.518,844.519,546.519z"/>
							<polygon points="837.833,546.531 838.196,548.282 843.021,548.258 842.321,546.531 							"/>
							<polygon points="831.073,546.531 831.073,548.309 835.834,548.294 835.637,546.531 							"/>
							<rect x="824.12" y="546.531" width="4.668" height="1.777"/>
							<rect x="817.168" y="546.531" width="4.668" height="1.777"/>
						</g>
					</g>
					<g>
						<g>
							<rect x="810.214" y="546.531" width="4.669" height="1.777"/>
							<rect x="803.262" y="546.531" width="4.668" height="1.777"/>
							<rect x="796.309" y="546.531" width="4.669" height="1.777"/>
							<rect x="789.355" y="546.531" width="4.668" height="1.777"/>
							<rect x="782.402" y="546.531" width="4.669" height="1.777"/>
							<rect x="775.449" y="546.531" width="4.668" height="1.777"/>
							<rect x="768.498" y="546.531" width="4.667" height="1.777"/>
						</g>
					</g>
					<g>
						<g>
							<rect x="761.543" y="546.531" width="4.669" height="1.777"/>
							<rect x="754.591" y="546.531" width="4.668" height="1.777"/>
							<rect x="747.639" y="546.531" width="4.668" height="1.777"/>
							<rect x="740.685" y="546.531" width="4.668" height="1.777"/>
							<rect x="733.732" y="546.531" width="4.668" height="1.777"/>
							<rect x="726.778" y="546.531" width="4.668" height="1.777"/>
							<rect x="719.827" y="546.531" width="4.667" height="1.777"/>
						</g>
					</g>
					<g>
						<g>
							<rect x="712.873" y="546.531" width="4.668" height="1.777"/>
							<polygon points="705.977,546.531 705.87,548.301 710.589,548.309 710.589,546.531 							"/>
							<polygon points="699.293,546.531 698.682,548.264 703.509,548.289 703.781,546.531 							"/>
							<path d="M692.662,545.988l-1.074,1.621c0,0,1.145,0.375,2.335,0.528c1.186,0.137,2.396,0.114,2.396,0.114l0.776-1.721
								c0,0-1.123,0.024-2.24-0.079C693.736,546.327,692.662,545.988,692.662,545.988z"/>
							<path d="M687.214,542.275l-1.445,1.327c0,0,0.769,0.93,1.689,1.707c0.929,0.768,1.979,1.359,1.979,1.359l1.207-1.54
								c0,0-0.984-0.546-1.854-1.26C687.931,543.144,687.214,542.275,687.214,542.275z"/>
							<path d="M684.684,536.188l-1.688,0.924c0,0,0.05,0.296,0.124,0.738c0.051,0.448,0.235,1.021,0.387,1.602
								c0.374,1.143,0.946,2.203,0.946,2.203l1.542-1.203c0.001,0-0.526-0.994-0.864-2.067c-0.134-0.545-0.3-1.083-0.34-1.503
								C684.727,536.465,684.684,536.188,684.684,536.188z"/>
							<polygon points="684.622,529.506 682.876,529.938 682.901,534.765 684.622,533.993 							"/>
						</g>
					</g>
					<g>
						<g>
							<polygon points="684.622,522.782 682.845,522.782 682.864,527.575 684.622,527.308 							"/>
							<rect x="682.845" y="515.829" width="1.777" height="4.668"/>
							<rect x="682.845" y="508.877" width="1.777" height="4.668"/>
							<rect x="682.845" y="501.923" width="1.777" height="4.668"/>
							<rect x="682.845" y="494.971" width="1.777" height="4.668"/>
							<rect x="682.845" y="488.017" width="1.777" height="4.668"/>
							<rect x="682.845" y="481.065" width="1.777" height="4.668"/>
						</g>
					</g>
					<g>
						<g>
							<rect x="682.845" y="474.111" width="1.777" height="4.668"/>
							<rect x="682.845" y="467.158" width="1.777" height="4.669"/>
							<polygon points="684.622,460.435 682.876,460.005 682.852,464.832 684.622,464.923 							"/>
							<path d="M684.68,453.751l-1.689-0.922c0,0-0.115,1.188-0.09,2.4c-0.006,1.206-0.013,2.412-0.013,2.412l1.734,0.596
								c0,0,0-1.122,0-2.244C684.599,454.87,684.68,453.751,684.68,453.751z"/>
							<path d="M687.185,447.653l-1.448-1.324c0,0-0.762,0.937-1.33,1.998c-0.271,0.537-0.536,1.076-0.676,1.505
								c-0.08,0.211-0.146,0.386-0.192,0.509c-0.045,0.123-0.06,0.197-0.06,0.197l1.628,1.062c0,0,0.077-0.27,0.228-0.663
								c0.126-0.403,0.37-0.908,0.618-1.412C686.477,448.529,687.185,447.653,687.185,447.653z"/>
							<path d="M692.616,443.917l-1.077-1.619c0,0.001-1.142,0.385-2.19,0.977c-0.514,0.313-1.028,0.623-1.377,0.912
								c-0.363,0.267-0.591,0.463-0.591,0.463l1.338,1.436c0,0,0.213-0.183,0.553-0.43c0.326-0.27,0.809-0.557,1.29-0.845
								C691.545,444.265,692.616,443.918,692.616,443.917z"/>
							<path d="M699.241,443.357l-0.614-1.732c0,0-1.207,0.006-2.413,0.013c-0.605-0.009-1.205,0.013-1.65,0.056
								c-0.449,0.019-0.743,0.075-0.743,0.074l0.938,1.684c0,0,0.276-0.048,0.698-0.059c0.42-0.03,0.98-0.044,1.541-0.035
								C698.119,443.357,699.241,443.357,699.241,443.357z"/>
						</g>
					</g>
					<g>
						<g>
							<polygon points="705.928,443.357 705.816,441.588 700.99,441.612 701.438,443.357 							"/>
							<rect x="708.152" y="441.58" width="4.669" height="1.777"/>
							<rect x="715.105" y="441.58" width="4.668" height="1.777"/>
							<rect x="722.06" y="441.58" width="4.667" height="1.777"/>
							<rect x="729.011" y="441.58" width="4.669" height="1.777"/>
							<rect x="735.966" y="441.58" width="4.668" height="1.777"/>
							<rect x="742.917" y="441.58" width="4.668" height="1.777"/>
						</g>
					</g>
					<g>
						<g>
							<rect x="749.871" y="441.58" width="4.668" height="1.777"/>
							<rect x="756.823" y="441.58" width="4.669" height="1.777"/>
							<rect x="763.775" y="441.58" width="4.669" height="1.777"/>
							<rect x="770.73" y="441.58" width="4.667" height="1.777"/>
							<rect x="777.682" y="441.58" width="4.669" height="1.777"/>
							<rect x="784.636" y="441.58" width="4.669" height="1.777"/>
							<rect x="791.588" y="441.58" width="4.668" height="1.777"/>
						</g>
					</g>
					<g>
						<g>
							<rect x="798.541" y="441.58" width="4.669" height="1.777"/>
							<rect x="805.494" y="441.58" width="4.669" height="1.777"/>
							<rect x="812.446" y="441.58" width="4.669" height="1.777"/>
							<rect x="819.4" y="441.58" width="4.668" height="1.777"/>
							<rect x="826.353" y="441.58" width="4.669" height="1.777"/>
							<polygon points="837.784,443.357 838.143,441.606 833.316,441.582 833.296,443.357 							"/>
							<path d="M844.467,443.368l0.86-1.711c0,0-0.298-0.023-0.751-0.019c-0.453-0.002-1.056-0.005-1.659-0.008
								c-1.207-0.007-2.413-0.013-2.413-0.013l-0.524,1.739c0,0,1.122,0,2.244,0c0.561,0,1.122,0,1.543,0
								C844.188,443.352,844.467,443.368,844.467,443.368z"/>
						</g>
					</g>
					<g>
						<g>
							<path d="M850.751,445.359l1.272-1.491c0,0-0.996-0.679-2.096-1.169c-1.105-0.477-2.277-0.747-2.277-0.747l-1.002,1.656
								c0,0,1.1,0.237,2.138,0.674C849.817,444.73,850.751,445.359,850.751,445.359z"/>
							<path d="M854.914,450.472l1.586-1.135c0.001,0-0.478-1.105-1.147-2.107c-0.679-0.995-1.524-1.855-1.524-1.855l-1.39,1.387
								c0,0,0.789,0.803,1.418,1.735C854.477,449.435,854.914,450.472,854.914,450.472z"/>
							<path d="M855.796,457.041l1.728-0.685c0,0-0.01-1.206-0.02-2.412c-0.045-0.597-0.062-1.196-0.16-1.637
								c-0.075-0.442-0.125-0.738-0.125-0.738l-1.658,0.998c0,0,0.043,0.277,0.106,0.693c0.087,0.414,0.091,0.977,0.124,1.536
								C855.793,455.919,855.796,457.041,855.796,457.041z"/>
							<polygon points="855.796,463.727 857.56,463.545 857.535,458.72 855.796,459.239 							"/>
							<polygon points="855.796,470.583 857.573,470.583 857.572,465.906 855.796,465.923 							"/>
							<rect x="855.796" y="472.868" width="1.777" height="4.669"/>
							<rect x="855.796" y="479.82" width="1.777" height="4.668"/>
						</g>
					</g>
					<g>
						<g>
							<rect x="855.796" y="486.773" width="1.777" height="4.669"/>
							<rect x="855.796" y="493.727" width="1.777" height="4.669"/>
							<rect x="855.796" y="500.679" width="1.777" height="4.669"/>
							<rect x="855.796" y="507.633" width="1.777" height="4.668"/>
							<rect x="855.796" y="514.585" width="1.777" height="4.669"/>
							<polygon points="855.796,526.112 857.561,526.29 857.573,521.539 855.796,521.539 							"/>
							<polygon points="855.796,532.796 857.523,533.478 857.548,528.651 855.796,528.309 							"/>
						</g>
					</g>
				</g>
			</g>
		</g>
		<g>
			<path fill="#DB98C3" stroke="#000000" stroke-width="2" stroke-miterlimit="10" d="M765.02,516.298
				c0,9.811-7.955,17.766-17.766,17.766h-31.088c-9.813,0-17.766-7.955-17.766-17.766V485.21c0-9.811,7.953-17.766,17.766-17.766
				h31.088c9.811,0,17.766,7.955,17.766,17.766V516.298z"/>
			<path fill="#DB98C3" stroke="#000000" stroke-width="2" stroke-miterlimit="10" d="M842.02,516.298
				c0,9.811-7.955,17.766-17.766,17.766h-31.09c-9.811,0-17.764-7.955-17.764-17.766V485.21c0-9.811,7.953-17.766,17.764-17.766
				h31.09c9.811,0,17.766,7.955,17.766,17.766V516.298z"/>
		</g>
		<g>
			<text transform="matrix(1 0 0 1 704.0938 461.4443)" font-family="'MyriadPro-Regular'" font-size="19.043">Availability Zone</text>
		</g>
	</g>
	<polygon opacity="0.4" fill="#D34699" stroke="#000000" stroke-width="2" stroke-miterlimit="10" points="895.889,702.444 
		775.889,522.444 776.889,478.444 779.889,472.444 783.889,469.444 790.889,468.444 827.889,468.444 1076.889,525.444 	"/>
	<g>
		<path fill="#DB98C3" stroke="#000000" stroke-width="2" stroke-miterlimit="10" d="M1083.889,700.444c0,6.627-5.373,12-12,12h-164
			c-6.627,0-12-5.373-12-12v-164c0-6.627,5.373-12,12-12h164c6.627,0,12,5.373,12,12V700.444z"/>
		<g>
			<path fill-rule="evenodd" clip-rule="evenodd" fill="#020202" d="M952.344,580.803c0,9.938,0.023,19.875-0.013,29.813
				c-0.014,3.805-0.716,4.479-4.397,4.487c-7.228,0.017-14.456,0.017-21.686-0.001c-3.744-0.009-4.33-0.555-4.35-4.17
				c-0.067-12.731-0.442-25.474-0.046-38.19c0.316-10.121,4.479-18.602,14.405-22.599c4.152-1.673,8.951-1.76,13.465-2.509
				c2.382-0.395,3.113,0.739,3.091,3.082c-0.1,10.028-0.043,20.058-0.043,30.087C952.629,580.803,952.486,580.803,952.344,580.803z"
				/>
			<path fill-rule="evenodd" clip-rule="evenodd" fill="#020202" d="M959.807,616.634c-0.449-1.915-1.286-3.829-1.289-5.745
				c-0.029-20.153,0.094-40.309,0.111-60.462c0.001-2.108,0.753-2.861,2.861-2.84c8.135,0.08,16.271,0.05,24.407,0.018
				c1.55-0.007,2.646,0.241,2.64,2.155c-0.035,10.214-0.021,20.43-0.045,30.645c-0.001,0.421-0.208,0.843-0.367,1.451
				c-6.028-0.756-11.29,0.854-15.994,5.361c-0.093-1.627-0.161-2.826-0.244-4.293c-3.616,0-7.142,0-11.055,0
				c0,11.313,0,22.43,0,33.549C960.49,616.526,960.149,616.58,959.807,616.634z"/>
			<path fill-rule="evenodd" clip-rule="evenodd" fill="#020202" d="M1024.889,588.097c-10.719-8.883-17.426-8.566-27.253,0.532
				c-3.611-2.795-4.856-6.349-4.664-11.005c0.356-8.656,0.034-17.341,0.001-26.016c-0.015-4.013-0.004-4.122,4.11-3.962
				c8.781,0.342,16.957,2.242,22.085,10.294c1.625,2.552,3.318,5.407,3.744,8.306
				C1023.94,573.236,1024.238,580.334,1024.889,588.097z"/>
			<path fill-rule="evenodd" clip-rule="evenodd" fill="#020202" d="M988.012,622.444c-0.658-5.715-0.658-5.715-6.49-5.716
				c-3.051,0-6.103,0-9.694,0c0.32-5.684,0.396-11.537,1.116-17.313c0.252-2.016,1.728-4.236,3.288-5.657
				c4.172-3.802,10.099-1.695,11.195,3.826c0.418,2.104,0.535,4.291,0.56,6.443C988.059,610.167,988.012,616.306,988.012,622.444z"
				/>
			<path fill-rule="evenodd" clip-rule="evenodd" fill="#020202" d="M999.695,616.631c0-4.879-0.136-10.271,0.042-15.65
				c0.151-4.626,2.72-7.775,6.657-8.775c3.953-1.004,7.511,0.778,7.884,4.747c0.53,5.613,0.325,11.301,0.268,16.955
				c-0.004,0.456-1.287,1.26-1.997,1.286c-2.877,0.105-5.774-0.198-8.64-0.004C1002.474,615.287,1001.089,616.13,999.695,616.631z"
				/>
		</g>
		<g>
			<text transform="matrix(1 0 0 1 927.3887 647.9443)"><tspan x="0" y="0" font-family="'MyriadPro-Regular'" font-size="18">Memcached</tspan><tspan x="0" y="21.6" font-family="'MyriadPro-Regular'" font-size="18">compatible API</tspan></text>
		</g>
	</g>
</g>
<path fill="#4B853D" stroke="#000000" stroke-width="2" stroke-miterlimit="10" d="M442.889,651.487
	c0,4.395-5.889,7.957-13.152,7.957H262.041c-7.264,0-13.152-3.563-13.152-7.957V421.401c0-4.395,5.889-7.957,13.152-7.957h167.695
	c7.264,0,13.152,3.563,13.152,7.957V651.487z"/>
<g>
	<text transform="matrix(1 0 0 1 274.7451 403.4443)" font-family="'MyriadPro-Bold'" font-size="19.043">Elastic Beanstalk</text>
</g>
<g>
	<g>
		<path fill="#D2EAD6" d="M432.889,521.444c0,6.627-5.373,12-12,12h-149c-6.627,0-12-5.373-12-12v-81c0-6.627,5.373-12,12-12h149
			c6.627,0,12,5.373,12,12V521.444z"/>
		<g>
			<g>
				<g>
					<g>
						<path d="M431.111,525.37l1.588,1.132c0,0,0.466-1.11,0.718-2.286c0.097-0.591,0.217-1.18,0.224-1.63
							c0.031-0.447,0.051-0.745,0.051-0.745l-1.716-0.847c0,0-0.014,0.28-0.035,0.7c0.001,0.423-0.103,0.976-0.185,1.53
							C431.536,524.328,431.11,525.37,431.111,525.37z"/>
						<path d="M426.97,530.5l1.275,1.488c0,0,0.99-0.689,1.833-1.551c0.409-0.441,0.814-0.885,1.07-1.258
							c0.136-0.181,0.249-0.331,0.328-0.436c0.071-0.11,0.111-0.174,0.111-0.174l-1.5-1.261c0,0-0.037,0.059-0.103,0.163
							c-0.074,0.098-0.179,0.238-0.305,0.407c-0.236,0.35-0.615,0.764-0.996,1.176C427.897,529.859,426.97,530.499,426.97,530.5z"/>
						<path d="M420.698,532.519l0.864,1.709c0,0,1.199-0.042,2.369-0.318c1.171-0.271,2.271-0.766,2.271-0.767l-1.147-1.578
							c0,0.001-1.032,0.453-2.131,0.691C421.824,532.499,420.698,532.518,420.698,532.519z"/>
						<polygon points="414.013,532.531 414.375,534.282 419.201,534.258 418.501,532.531 						"/>
						<polygon points="407.253,532.531 407.253,534.309 412.014,534.294 411.817,532.531 						"/>
						<rect x="400.299" y="532.531" width="4.668" height="1.777"/>
						<rect x="393.348" y="532.531" width="4.667" height="1.777"/>
					</g>
				</g>
				<g>
					<g>
						<rect x="386.394" y="532.531" width="4.669" height="1.777"/>
						<rect x="379.441" y="532.531" width="4.668" height="1.777"/>
						<rect x="372.489" y="532.531" width="4.668" height="1.777"/>
						<rect x="365.535" y="532.531" width="4.668" height="1.777"/>
						<rect x="358.583" y="532.531" width="4.668" height="1.777"/>
						<rect x="351.629" y="532.531" width="4.668" height="1.777"/>
						<rect x="344.677" y="532.531" width="4.668" height="1.777"/>
					</g>
				</g>
				<g>
					<g>
						<rect x="337.723" y="532.531" width="4.668" height="1.777"/>
						<rect x="330.77" y="532.531" width="4.669" height="1.777"/>
						<rect x="323.818" y="532.531" width="4.668" height="1.777"/>
						<rect x="316.865" y="532.531" width="4.667" height="1.777"/>
						<rect x="309.912" y="532.531" width="4.669" height="1.777"/>
						<rect x="302.958" y="532.531" width="4.668" height="1.777"/>
						<rect x="296.007" y="532.531" width="4.667" height="1.777"/>
					</g>
				</g>
				<g>
					<g>
						<rect x="289.052" y="532.531" width="4.669" height="1.777"/>
						<polygon points="282.157,532.531 282.049,534.301 286.768,534.309 286.768,532.531 						"/>
						<polygon points="275.472,532.531 274.862,534.264 279.688,534.289 279.961,532.531 						"/>
						<path d="M268.842,531.988l-1.074,1.621c0,0,1.145,0.375,2.334,0.528c1.186,0.137,2.396,0.114,2.396,0.114l0.776-1.721
							c0,0-1.124,0.024-2.241-0.079C269.916,532.327,268.842,531.988,268.842,531.988z"/>
						<path d="M263.394,528.275l-1.446,1.327c0,0,0.769,0.93,1.689,1.707c0.929,0.768,1.979,1.359,1.979,1.359l1.207-1.54
							c0,0-0.984-0.546-1.854-1.26C264.11,529.144,263.394,528.275,263.394,528.275z"/>
						<path d="M260.863,522.188l-1.688,0.924c0,0,0.05,0.296,0.125,0.738c0.051,0.448,0.235,1.021,0.386,1.602
							c0.375,1.143,0.946,2.203,0.946,2.203l1.542-1.203c0,0-0.527-0.994-0.864-2.067c-0.134-0.545-0.3-1.083-0.341-1.503
							C260.906,522.465,260.863,522.188,260.863,522.188z"/>
						<polygon points="260.802,515.506 259.056,515.938 259.081,520.765 260.802,519.993 						"/>
					</g>
				</g>
				<g>
					<g>
						<polygon points="260.802,508.782 259.024,508.782 259.044,513.575 260.802,513.308 						"/>
						<rect x="259.024" y="501.829" width="1.777" height="4.668"/>
						<rect x="259.024" y="494.877" width="1.777" height="4.668"/>
						<rect x="259.024" y="487.923" width="1.777" height="4.668"/>
						<rect x="259.024" y="480.971" width="1.777" height="4.668"/>
						<rect x="259.024" y="474.017" width="1.777" height="4.668"/>
						<rect x="259.024" y="467.065" width="1.777" height="4.668"/>
					</g>
				</g>
				<g>
					<g>
						<rect x="259.024" y="460.111" width="1.777" height="4.668"/>
						<rect x="259.024" y="453.158" width="1.777" height="4.669"/>
						<polygon points="260.802,446.435 259.056,446.005 259.031,450.832 260.802,450.923 						"/>
						<path d="M260.859,439.751l-1.689-0.922c0,0-0.115,1.188-0.09,2.4c-0.006,1.206-0.012,2.412-0.012,2.412l1.734,0.596
							c0,0,0-1.122,0-2.244C260.778,440.87,260.859,439.751,260.859,439.751z"/>
						<path d="M263.364,433.653l-1.448-1.324c0,0-0.761,0.937-1.33,1.998c-0.27,0.537-0.536,1.076-0.676,1.505
							c-0.08,0.211-0.146,0.386-0.193,0.509c-0.045,0.123-0.059,0.197-0.059,0.197l1.627,1.062c0,0,0.078-0.27,0.228-0.663
							c0.126-0.403,0.37-0.908,0.619-1.412C262.656,434.529,263.364,433.653,263.364,433.653z"/>
						<path d="M268.795,429.917l-1.077-1.619c0,0.001-1.141,0.385-2.19,0.977c-0.513,0.313-1.028,0.623-1.376,0.912
							c-0.364,0.267-0.591,0.463-0.591,0.463l1.338,1.436c0,0,0.213-0.183,0.553-0.43c0.326-0.27,0.808-0.557,1.289-0.845
							C267.724,430.265,268.796,429.918,268.795,429.917z"/>
						<path d="M275.421,429.357l-0.614-1.732c0,0-1.207,0.006-2.413,0.013c-0.605-0.009-1.205,0.013-1.65,0.056
							c-0.449,0.019-0.744,0.075-0.744,0.074l0.938,1.684c0,0,0.276-0.048,0.698-0.059c0.42-0.03,0.98-0.044,1.542-0.035
							C274.299,429.357,275.421,429.357,275.421,429.357z"/>
					</g>
				</g>
				<g>
					<g>
						<polygon points="282.107,429.357 281.997,427.588 277.169,427.612 277.619,429.357 						"/>
						<rect x="284.333" y="427.58" width="4.668" height="1.777"/>
						<rect x="291.285" y="427.58" width="4.669" height="1.777"/>
						<rect x="298.239" y="427.58" width="4.667" height="1.777"/>
						<rect x="305.191" y="427.58" width="4.668" height="1.777"/>
						<rect x="312.145" y="427.58" width="4.668" height="1.777"/>
						<rect x="319.097" y="427.58" width="4.667" height="1.777"/>
					</g>
				</g>
				<g>
					<g>
						<rect x="326.05" y="427.58" width="4.668" height="1.777"/>
						<rect x="333.003" y="427.58" width="4.669" height="1.777"/>
						<rect x="339.956" y="427.58" width="4.668" height="1.777"/>
						<rect x="346.91" y="427.58" width="4.667" height="1.777"/>
						<rect x="353.861" y="427.58" width="4.669" height="1.777"/>
						<rect x="360.816" y="427.58" width="4.668" height="1.777"/>
						<rect x="367.768" y="427.58" width="4.668" height="1.777"/>
					</g>
				</g>
				<g>
					<g>
						<rect x="374.721" y="427.58" width="4.668" height="1.777"/>
						<rect x="381.674" y="427.58" width="4.668" height="1.777"/>
						<rect x="388.626" y="427.58" width="4.669" height="1.777"/>
						<rect x="395.581" y="427.58" width="4.667" height="1.777"/>
						<rect x="402.532" y="427.58" width="4.668" height="1.777"/>
						<polygon points="413.964,429.357 414.323,427.606 409.496,427.582 409.476,429.357 						"/>
						<path d="M420.647,429.368l0.86-1.711c0,0-0.298-0.023-0.751-0.019c-0.453-0.002-1.056-0.005-1.659-0.008
							c-1.207-0.007-2.413-0.013-2.413-0.013l-0.524,1.739c0,0,1.122,0,2.244,0c0.561,0,1.122,0,1.542,0
							C420.367,429.352,420.647,429.368,420.647,429.368z"/>
					</g>
				</g>
				<g>
					<g>
						<path d="M426.931,431.359l1.273-1.491c0,0-0.997-0.679-2.097-1.169c-1.105-0.477-2.277-0.747-2.277-0.747l-1.002,1.656
							c0,0,1.1,0.237,2.138,0.674C425.997,430.73,426.931,431.359,426.931,431.359z"/>
						<path d="M431.094,436.472l1.586-1.135c0,0-0.478-1.105-1.147-2.107c-0.679-0.995-1.524-1.855-1.524-1.855l-1.391,1.387
							c0,0,0.79,0.803,1.419,1.735C430.657,435.435,431.094,436.472,431.094,436.472z"/>
						<path d="M431.976,443.041l1.728-0.685c0,0-0.01-1.206-0.019-2.412c-0.045-0.597-0.062-1.196-0.161-1.637
							c-0.075-0.442-0.125-0.738-0.125-0.738l-1.658,0.998c0,0,0.042,0.277,0.106,0.693c0.087,0.414,0.091,0.977,0.124,1.536
							C431.973,441.919,431.976,443.041,431.976,443.041z"/>
						<polygon points="431.976,449.727 433.74,449.545 433.715,444.72 431.976,445.239 						"/>
						<polygon points="431.976,456.583 433.753,456.583 433.752,451.906 431.976,451.923 						"/>
						<rect x="431.976" y="458.868" width="1.777" height="4.669"/>
						<rect x="431.976" y="465.82" width="1.777" height="4.668"/>
					</g>
				</g>
				<g>
					<g>
						<rect x="431.976" y="472.773" width="1.777" height="4.669"/>
						<rect x="431.976" y="479.727" width="1.777" height="4.669"/>
						<rect x="431.976" y="486.679" width="1.777" height="4.669"/>
						<rect x="431.976" y="493.633" width="1.777" height="4.668"/>
						<rect x="431.976" y="500.585" width="1.777" height="4.669"/>
						<polygon points="431.976,512.112 433.74,512.29 433.753,507.539 431.976,507.539 						"/>
						<polygon points="431.976,518.796 433.703,519.478 433.728,514.651 431.976,514.309 						"/>
					</g>
				</g>
			</g>
		</g>
	</g>
	<g>
		<text transform="matrix(1 0 0 1 280.2725 447.4443)" font-family="'MyriadPro-Regular'" font-size="19.043">Availability Zone</text>
	</g>
	<g>
		<path fill="#98CE83" stroke="#000000" stroke-width="2" stroke-miterlimit="10" d="M418.543,504.679
			c0,9.811-7.955,17.766-17.766,17.766h-31.09c-9.811,0-17.764-7.955-17.764-17.766v-31.088c0-9.811,7.953-17.766,17.764-17.766
			h31.09c9.811,0,17.766,7.955,17.766,17.766V504.679z"/>
		<text transform="matrix(1 0 0 1 369.5713 494.7236)" font-family="'MyriadPro-Regular'" font-size="19.043">EC2</text>
	</g>
	<g>
		<path fill="#98CE83" stroke="#000000" stroke-width="2" stroke-miterlimit="10" d="M340.508,504.679
			c0,9.811-7.955,17.766-17.766,17.766h-31.09c-9.811,0-17.764-7.955-17.764-17.766v-31.088c0-9.811,7.953-17.766,17.764-17.766
			h31.09c9.811,0,17.766,7.955,17.766,17.766V504.679z"/>
		<text transform="matrix(1 0 0 1 291.5356 494.7236)" font-family="'MyriadPro-Regular'" font-size="19.043">EC2</text>
	</g>
</g>
<g>
	<g>
		<path fill="#D2EAD6" d="M432.889,638.444c0,6.627-5.373,12-12,12h-149c-6.627,0-12-5.373-12-12v-81c0-6.627,5.373-12,12-12h149
			c6.627,0,12,5.373,12,12V638.444z"/>
		<g>
			<g>
				<g>
					<g>
						<path d="M431.111,642.37l1.588,1.132c0,0,0.466-1.11,0.718-2.286c0.097-0.591,0.217-1.18,0.224-1.629
							c0.031-0.448,0.051-0.746,0.051-0.746l-1.716-0.847c0,0-0.014,0.28-0.035,0.7c0.001,0.423-0.103,0.976-0.185,1.53
							C431.536,641.328,431.11,642.37,431.111,642.37z"/>
						<path d="M426.97,647.5l1.275,1.488c0,0,0.99-0.689,1.833-1.551c0.409-0.441,0.814-0.885,1.07-1.258
							c0.136-0.181,0.249-0.331,0.328-0.436c0.071-0.11,0.111-0.174,0.111-0.174l-1.5-1.261c0,0-0.037,0.059-0.103,0.163
							c-0.074,0.098-0.179,0.238-0.305,0.407c-0.236,0.35-0.615,0.764-0.996,1.176C427.897,646.859,426.97,647.499,426.97,647.5z"/>
						<path d="M420.698,649.519l0.864,1.709c0,0,1.199-0.042,2.369-0.318c1.171-0.271,2.271-0.766,2.271-0.767l-1.147-1.578
							c0,0.001-1.032,0.453-2.131,0.691C421.824,649.499,420.698,649.518,420.698,649.519z"/>
						<polygon points="414.013,649.531 414.375,651.282 419.201,651.258 418.501,649.531 						"/>
						<polygon points="407.253,649.531 407.253,651.309 412.014,651.294 411.817,649.531 						"/>
						<rect x="400.299" y="649.531" width="4.668" height="1.777"/>
						<rect x="393.348" y="649.531" width="4.667" height="1.777"/>
					</g>
				</g>
				<g>
					<g>
						<rect x="386.394" y="649.531" width="4.669" height="1.777"/>
						<rect x="379.441" y="649.531" width="4.668" height="1.777"/>
						<rect x="372.489" y="649.531" width="4.668" height="1.777"/>
						<rect x="365.535" y="649.531" width="4.668" height="1.777"/>
						<rect x="358.583" y="649.531" width="4.668" height="1.777"/>
						<rect x="351.629" y="649.531" width="4.668" height="1.777"/>
						<rect x="344.677" y="649.531" width="4.668" height="1.777"/>
					</g>
				</g>
				<g>
					<g>
						<rect x="337.723" y="649.531" width="4.668" height="1.777"/>
						<rect x="330.77" y="649.531" width="4.669" height="1.777"/>
						<rect x="323.818" y="649.531" width="4.668" height="1.777"/>
						<rect x="316.865" y="649.531" width="4.667" height="1.777"/>
						<rect x="309.912" y="649.531" width="4.669" height="1.777"/>
						<rect x="302.958" y="649.531" width="4.668" height="1.777"/>
						<rect x="296.007" y="649.531" width="4.667" height="1.777"/>
					</g>
				</g>
				<g>
					<g>
						<rect x="289.052" y="649.531" width="4.669" height="1.777"/>
						<polygon points="282.157,649.531 282.049,651.301 286.768,651.309 286.768,649.531 						"/>
						<polygon points="275.472,649.531 274.862,651.264 279.688,651.289 279.961,649.531 						"/>
						<path d="M268.842,648.988l-1.074,1.621c0,0,1.145,0.375,2.334,0.528c1.186,0.137,2.396,0.114,2.396,0.114l0.776-1.721
							c0,0-1.124,0.024-2.241-0.079C269.916,649.327,268.842,648.988,268.842,648.988z"/>
						<path d="M263.394,645.275l-1.446,1.327c0,0,0.769,0.93,1.689,1.707c0.929,0.768,1.979,1.359,1.979,1.359l1.207-1.54
							c0,0-0.984-0.546-1.854-1.26C264.11,646.144,263.394,645.275,263.394,645.275z"/>
						<path d="M260.863,639.188l-1.688,0.924c0,0,0.05,0.296,0.125,0.738c0.051,0.448,0.235,1.021,0.386,1.602
							c0.375,1.143,0.946,2.203,0.946,2.203l1.542-1.203c0,0-0.527-0.994-0.864-2.067c-0.134-0.545-0.3-1.083-0.341-1.503
							C260.906,639.465,260.863,639.188,260.863,639.188z"/>
						<polygon points="260.802,632.506 259.056,632.938 259.081,637.765 260.802,636.993 						"/>
					</g>
				</g>
				<g>
					<g>
						<polygon points="260.802,625.782 259.024,625.782 259.044,630.575 260.802,630.308 						"/>
						<rect x="259.024" y="618.829" width="1.777" height="4.668"/>
						<rect x="259.024" y="611.877" width="1.777" height="4.668"/>
						<rect x="259.024" y="604.923" width="1.777" height="4.668"/>
						<rect x="259.024" y="597.971" width="1.777" height="4.668"/>
						<rect x="259.024" y="591.017" width="1.777" height="4.668"/>
						<rect x="259.024" y="584.065" width="1.777" height="4.668"/>
					</g>
				</g>
				<g>
					<g>
						<rect x="259.024" y="577.111" width="1.777" height="4.668"/>
						<rect x="259.024" y="570.158" width="1.777" height="4.669"/>
						<polygon points="260.802,563.435 259.056,563.005 259.031,567.832 260.802,567.923 						"/>
						<path d="M260.859,556.751l-1.689-0.922c0,0-0.115,1.188-0.09,2.4c-0.006,1.206-0.012,2.412-0.012,2.412l1.734,0.596
							c0,0,0-1.122,0-2.244C260.778,557.87,260.859,556.751,260.859,556.751z"/>
						<path d="M263.364,550.653l-1.448-1.324c0,0-0.761,0.937-1.33,1.998c-0.27,0.537-0.536,1.076-0.676,1.505
							c-0.08,0.211-0.146,0.386-0.193,0.509c-0.045,0.123-0.059,0.197-0.059,0.197l1.627,1.062c0,0,0.078-0.27,0.228-0.663
							c0.126-0.403,0.37-0.908,0.619-1.412C262.656,551.529,263.364,550.653,263.364,550.653z"/>
						<path d="M268.795,546.917l-1.077-1.619c0,0.001-1.141,0.385-2.19,0.977c-0.513,0.313-1.028,0.623-1.376,0.912
							c-0.364,0.267-0.591,0.463-0.591,0.463l1.338,1.436c0,0,0.213-0.183,0.553-0.43c0.326-0.27,0.808-0.557,1.289-0.845
							C267.724,547.265,268.796,546.918,268.795,546.917z"/>
						<path d="M275.421,546.357l-0.614-1.732c0,0-1.207,0.006-2.413,0.013c-0.605-0.009-1.205,0.013-1.65,0.056
							c-0.449,0.019-0.744,0.075-0.744,0.074l0.938,1.684c0,0,0.276-0.048,0.698-0.059c0.42-0.03,0.98-0.044,1.542-0.035
							C274.299,546.357,275.421,546.357,275.421,546.357z"/>
					</g>
				</g>
				<g>
					<g>
						<polygon points="282.107,546.357 281.997,544.588 277.169,544.612 277.619,546.357 						"/>
						<rect x="284.333" y="544.58" width="4.668" height="1.777"/>
						<rect x="291.285" y="544.58" width="4.669" height="1.777"/>
						<rect x="298.239" y="544.58" width="4.667" height="1.777"/>
						<rect x="305.191" y="544.58" width="4.668" height="1.777"/>
						<rect x="312.145" y="544.58" width="4.668" height="1.777"/>
						<rect x="319.097" y="544.58" width="4.667" height="1.777"/>
					</g>
				</g>
				<g>
					<g>
						<rect x="326.05" y="544.58" width="4.668" height="1.777"/>
						<rect x="333.003" y="544.58" width="4.669" height="1.777"/>
						<rect x="339.956" y="544.58" width="4.668" height="1.777"/>
						<rect x="346.91" y="544.58" width="4.667" height="1.777"/>
						<rect x="353.861" y="544.58" width="4.669" height="1.777"/>
						<rect x="360.816" y="544.58" width="4.668" height="1.777"/>
						<rect x="367.768" y="544.58" width="4.668" height="1.777"/>
					</g>
				</g>
				<g>
					<g>
						<rect x="374.721" y="544.58" width="4.668" height="1.777"/>
						<rect x="381.674" y="544.58" width="4.668" height="1.777"/>
						<rect x="388.626" y="544.58" width="4.669" height="1.777"/>
						<rect x="395.581" y="544.58" width="4.667" height="1.777"/>
						<rect x="402.532" y="544.58" width="4.668" height="1.777"/>
						<polygon points="413.964,546.357 414.323,544.606 409.496,544.582 409.476,546.357 						"/>
						<path d="M420.647,546.368l0.86-1.711c0,0-0.298-0.023-0.751-0.019c-0.453-0.002-1.056-0.005-1.659-0.008
							c-1.207-0.007-2.413-0.013-2.413-0.013l-0.524,1.739c0,0,1.122,0,2.244,0c0.561,0,1.122,0,1.542,0
							C420.367,546.352,420.647,546.368,420.647,546.368z"/>
					</g>
				</g>
				<g>
					<g>
						<path d="M426.931,548.359l1.273-1.491c0,0-0.997-0.679-2.097-1.169c-1.105-0.477-2.277-0.747-2.277-0.747l-1.002,1.656
							c0,0,1.1,0.238,2.138,0.674C425.997,547.73,426.931,548.359,426.931,548.359z"/>
						<path d="M431.094,553.472l1.586-1.135c0,0-0.478-1.105-1.147-2.107c-0.679-0.995-1.524-1.855-1.524-1.855l-1.391,1.387
							c0,0,0.79,0.803,1.419,1.735C430.657,552.435,431.094,553.472,431.094,553.472z"/>
						<path d="M431.976,560.041l1.728-0.685c0,0-0.01-1.206-0.019-2.412c-0.045-0.597-0.062-1.196-0.161-1.637
							c-0.075-0.443-0.125-0.738-0.125-0.738l-1.658,0.998c0,0,0.042,0.277,0.106,0.693c0.087,0.414,0.091,0.977,0.124,1.536
							C431.973,558.919,431.976,560.041,431.976,560.041z"/>
						<polygon points="431.976,566.727 433.74,566.545 433.715,561.72 431.976,562.239 						"/>
						<polygon points="431.976,573.583 433.753,573.583 433.752,568.907 431.976,568.923 						"/>
						<rect x="431.976" y="575.868" width="1.777" height="4.669"/>
						<rect x="431.976" y="582.82" width="1.777" height="4.668"/>
					</g>
				</g>
				<g>
					<g>
						<rect x="431.976" y="589.773" width="1.777" height="4.669"/>
						<rect x="431.976" y="596.727" width="1.777" height="4.669"/>
						<rect x="431.976" y="603.679" width="1.777" height="4.669"/>
						<rect x="431.976" y="610.633" width="1.777" height="4.668"/>
						<rect x="431.976" y="617.585" width="1.777" height="4.669"/>
						<polygon points="431.976,629.112 433.74,629.29 433.753,624.539 431.976,624.539 						"/>
						<polygon points="431.976,635.796 433.703,636.478 433.728,631.651 431.976,631.309 						"/>
					</g>
				</g>
			</g>
		</g>
	</g>
	<g>
		<text transform="matrix(1 0 0 1 280.2725 564.4443)" font-family="'MyriadPro-Regular'" font-size="19.043">Availability Zone</text>
	</g>
	<g>
		<path fill="#98CE83" stroke="#000000" stroke-width="2" stroke-miterlimit="10" d="M418.543,621.679
			c0,9.811-7.955,17.766-17.766,17.766h-31.09c-9.811,0-17.764-7.955-17.764-17.766v-31.088c0-9.811,7.953-17.766,17.764-17.766
			h31.09c9.811,0,17.766,7.955,17.766,17.766V621.679z"/>
		<text transform="matrix(1 0 0 1 369.5713 611.7236)" font-family="'MyriadPro-Regular'" font-size="19.043">EC2</text>
	</g>
	<g>
		<path fill="#98CE83" stroke="#000000" stroke-width="2" stroke-miterlimit="10" d="M340.508,621.679
			c0,9.811-7.955,17.766-17.766,17.766h-31.09c-9.811,0-17.764-7.955-17.764-17.766v-31.088c0-9.811,7.953-17.766,17.764-17.766
			h31.09c9.811,0,17.766,7.955,17.766,17.766V621.679z"/>
		<text transform="matrix(1 0 0 1 291.5356 611.7236)" font-family="'MyriadPro-Regular'" font-size="19.043">EC2</text>
	</g>
</g>
<polygon opacity="0.4" fill="#96CA4E" stroke="#000000" stroke-width="2" stroke-miterlimit="10" points="471.889,807.444 
	351.889,627.444 352.889,583.444 355.889,577.444 359.889,574.444 366.889,573.444 403.889,573.444 652.889,630.444 "/>
<path fill="#98CE83" stroke="#000000" stroke-width="2" stroke-miterlimit="10" d="M659.889,805.444c0,6.627-5.373,12-12,12h-164
	c-6.627,0-12-5.373-12-12v-164c0-6.627,5.373-12,12-12h164c6.627,0,12,5.373,12,12V805.444z"/>
<g>
	<path fill-rule="evenodd" clip-rule="evenodd" d="M553.333,645.444c0.194,0,0.386,0,0.58,0c2.214,7.968,1.754,15.805-1.244,23.51
		c0.822,0.319,1.546,0.598,2.881,1.114c-1.764,0.328-2.843,0.53-3.922,0.732c0.021,0.199,0.044,0.399,0.065,0.599
		c1.082,0.183,2.163,0.366,3.243,0.547c-1.68,0.774-3.716,0.668-4.761,1.635c-2.727,2.525-5.021,5.521-7.532,8.379
		c3.146,3.381,6.412,6.931,9.741,10.421c0.491,0.516,1.265,0.781,1.935,1.104c2.183,1.051,4.379,2.075,6.569,3.11
		c0,0.775,0,1.55,0,2.326c-2.906,0-5.813,0-8.72,0c-12.483-7.024-25.483-12.554-39.953-14.147c-0.136,4.028,0.64,4.876,3.889,5.555
		c1.136,0.238,2.101,1.3,3.145,1.984c-3.842,1.278-7.08,1.397-9.838-1.308c-1.442-1.416-3.396-2.364-4.648-3.904
		c-2.148-2.645-4.428-2.232-6.358-0.33c-1.855,1.827-3.322,4.141-4.576,6.449c-0.625,1.146-0.393,2.76-0.589,4.537
		c-2.733,0-5.325,0-7.916,0c0-0.58,0-1.162,0-1.744c3.889-5.611,7.777-11.223,11.547-16.661c-1.158-2.641-2.723-5.358-3.558-8.281
		c-2.226-7.798,2.977-14.252,11.042-14.023c0.961,0.025,1.994,0.244,2.873-0.02c3.998-1.196,7.177,0.005,9.583,3.796
		c-3.753,1.559-8.069,1.124-9.769-0.742c-0.726-0.796-1.874-1.578-2.894-1.671c-4.698-0.43-8.452,2.402-9.609,7.023
		c-1.253,5.012,1.127,8.884,3.849,12.944c7.709-7.065,16.26-11.965,26.243-14.846c-1.371-6.112-1.472-12.128,0.219-18.089
		c0.386,0,0.775,0,1.162,0c2.074,1.938,4.122,3.903,6.242,5.789c0.426,0.381,1.123,0.64,1.697,0.646
		c3.757,0.036,7.517,0.019,11.272-0.066c0.573-0.012,1.232-0.354,1.687-0.739C549.083,649.234,551.197,647.328,553.333,645.444z
		 M531.436,670.191c-0.425,0.161-1.105,0.42-2.299,0.873c1.195,0.359,1.859,0.559,2.533,0.762c-0.81,2.041,1.139,4.602,5.773,7.774
		c2.602,1.78,3.361,1.748,7.013-1.943c1.484-1.5,4.727-2.489,2.952-5.848c0.768-0.202,1.534-0.406,2.927-0.775
		c-1.424-0.446-2.21-0.694-3.191-1.002c1.174-1.655,4.946,0.51,4.033-2.834c-0.443-1.622,4.053-2.784-0.028-4.097
		c2.657-1.717,3.489-8.448,1.838-13.306c-1.558,1.63-1.604,4.963-5.313,4.111c-5.277-1.213-5.31-1.068-7.604,3.767
		c-0.311-0.477-0.672-0.819-0.781-1.229c-0.724-2.735-2.372-3.699-5.098-2.835c-0.542,0.172-1.196,0.024-1.715,0.233
		c-2.961,1.188-4.534-0.458-5.808-2.757c-0.319-0.577-0.597-1.178-0.894-1.768c-0.521,2.641-0.478,5.146-0.531,7.647
		c-0.051,2.327,0.631,4.129,3.042,4.908c0.085,0.026,0.08,0.327,0.138,0.598c-0.673,0.218-1.354,0.438-1.662,0.535
		c0.348,1.605,0.3,3.232,1.043,4.323C528.617,668.53,530.162,669.234,531.436,670.191z"/>
	<path fill-rule="evenodd" clip-rule="evenodd" fill="#FFFFFF" d="M531.436,670.191c-1.273-0.957-2.818-1.661-3.633-2.861
		c-0.743-1.091-0.695-2.718-1.043-4.323c0.309-0.098,0.989-0.317,1.662-0.535c-0.058-0.271-0.053-0.571-0.138-0.598
		c-2.411-0.779-3.093-2.581-3.042-4.908c0.054-2.502,0.011-5.007,0.531-7.647c0.297,0.59,0.574,1.19,0.894,1.768
		c1.273,2.299,2.847,3.945,5.808,2.757c0.519-0.209,1.173-0.062,1.715-0.233c2.726-0.864,4.374,0.1,5.098,2.835
		c0.109,0.41,0.471,0.753,0.781,1.229c2.295-4.835,2.327-4.979,7.604-3.767c3.709,0.852,3.756-2.481,5.314-4.11
		c1.65,4.856,0.818,11.588-1.839,13.305c4.081,1.313-0.415,2.475,0.028,4.097c0.913,3.344-2.859,1.179-4.033,2.834
		c0.981,0.308,1.768,0.556,3.191,1.002c-1.393,0.369-2.159,0.573-2.927,0.775c1.774,3.358-1.468,4.348-2.952,5.848
		c-3.651,3.691-4.411,3.724-7.013,1.943c-4.635-3.173-6.583-5.733-5.773-7.774c-0.674-0.203-1.338-0.402-2.533-0.762
		C530.33,670.611,531.011,670.353,531.436,670.191z M549.58,659.571c-0.07-0.25-0.144-0.501-0.215-0.753
		c-1.368,0.504-3.377,0.605-3.988,1.583c-2.104,3.364-5.111,2.241-7.95,2.298c-0.366-2.336,1.252-5.579-2.481-6.162
		c-1.878-0.294-3.25,1.095-3.921,2.827c1.836-0.512,3.229-0.901,4.625-1.291c0.2,1.496,0.399,2.993,0.596,4.465
		c-1.792,0.245-2.903,0.397-4.015,0.55c0.02,0.227,0.041,0.452,0.061,0.678c0.975,0.19,1.948,0.383,3.11,0.61
		c-0.441,1.307-0.834,2.467-1.3,3.846c1.359,0.906,2.693,1.794,4.083,2.721c-0.705,0.834-1.297,1.537-1.89,2.24
		c0.106,0.269,0.211,0.537,0.314,0.804c2.174-2.809,4.425-1.445,6.677-0.177c0.059-0.239,0.116-0.479,0.173-0.717
		c-0.758-0.621-1.515-1.243-2.443-2.005c1.507-1.08,2.813-2.017,4.044-2.9c-0.243-1.326-0.463-2.514-0.705-3.826
		c1.516-0.229,2.727-0.412,3.938-0.596c-0.02-0.221-0.039-0.442-0.058-0.664c-0.953-0.188-1.907-0.375-2.861-0.562
		c-0.079-0.205-0.158-0.409-0.237-0.614C546.618,661.143,548.101,660.356,549.58,659.571z"/>
	<path fill-rule="evenodd" clip-rule="evenodd" d="M549.58,659.571c-1.479,0.785-2.962,1.571-4.443,2.354
		c0.079,0.205,0.158,0.409,0.237,0.614c0.954,0.187,1.908,0.373,2.861,0.562c0.019,0.222,0.038,0.443,0.058,0.664
		c-1.212,0.184-2.423,0.366-3.938,0.596c0.242,1.313,0.462,2.5,0.705,3.826c-1.231,0.884-2.537,1.82-4.044,2.9
		c0.929,0.762,1.686,1.384,2.443,2.005c-0.057,0.237-0.114,0.478-0.173,0.717c-2.252-1.269-4.503-2.632-6.677,0.177
		c-0.104-0.267-0.208-0.535-0.314-0.804c0.593-0.703,1.185-1.406,1.89-2.24c-1.39-0.927-2.724-1.814-4.083-2.721
		c0.466-1.379,0.858-2.539,1.3-3.846c-1.162-0.228-2.136-0.42-3.11-0.61c-0.02-0.226-0.041-0.451-0.061-0.678
		c1.111-0.152,2.223-0.305,4.015-0.55c-0.196-1.472-0.396-2.969-0.596-4.465c-1.396,0.39-2.789,0.779-4.625,1.291
		c0.671-1.732,2.043-3.121,3.921-2.827c3.733,0.583,2.115,3.826,2.481,6.162c2.839-0.057,5.846,1.066,7.95-2.298
		c0.611-0.978,2.62-1.079,3.988-1.583C549.437,659.07,549.51,659.321,549.58,659.571z M542.945,664.364
		c-5.885-0.851-6.363-0.642-6.667,2.861c2.288,0,4.57,0,7.084,0C543.205,666.146,543.071,665.229,542.945,664.364z"/>
	<path fill-rule="evenodd" clip-rule="evenodd" fill="#FFFFFF" d="M542.945,664.364c0.126,0.865,0.26,1.782,0.417,2.861
		c-2.514,0-4.796,0-7.084,0C536.582,663.723,537.061,663.514,542.945,664.364z"/>
</g>
<g>
	<text transform="matrix(1 0 0 1 574.8887 662.4443)" font-family="'MyriadPro-Regular'" font-size="18">Tomcat 6</text>
</g>
<text transform="matrix(1 0 0 1 543.8838 731.4443)" font-family="'MyriadPro-Regular'" font-size="19.043">WAR</text>
<g>
	<path fill-rule="evenodd" clip-rule="evenodd" fill="#FFFFFF" d="M648.889,799.444c0,6.627-5.373,12-12,12h-140
		c-6.627,0-12-5.373-12-12v-72c0-6.627,5.373-12,12-12h140c6.627,0,12,5.373,12,12V799.444z"/>
	<g>
		<g>
			<g>
				<g>
					<path d="M647.215,803.087l1.599,1.113c0,0,0.099-0.262,0.247-0.654c0.109-0.404,0.284-0.939,0.383-1.488
						c0.098-0.551,0.191-1.102,0.2-1.521c0.028-0.417,0.048-0.695,0.048-0.695l-1.716-0.847c0,0-0.013,0.261-0.033,0.653
						c0,0.394-0.08,0.911-0.164,1.428c-0.084,0.516-0.242,1.018-0.339,1.397C647.305,802.841,647.215,803.087,647.215,803.087z"/>
					<path d="M643.572,808.05l1.316,1.455c0-0.001,0.23-0.161,0.534-0.453c0.156-0.142,0.337-0.307,0.531-0.483
						c0.179-0.193,0.368-0.4,0.558-0.606c0.395-0.4,0.691-0.882,0.957-1.208c0.223-0.356,0.371-0.594,0.371-0.594l-1.52-1.235
						c0,0-0.138,0.223-0.344,0.557c-0.247,0.305-0.521,0.757-0.89,1.13c-0.177,0.192-0.354,0.386-0.52,0.566
						c-0.182,0.165-0.351,0.318-0.496,0.451C643.788,807.901,643.571,808.05,643.572,808.05z"/>
					<path d="M637.895,810.43l0.941,1.682c0,0,0.275-0.047,0.688-0.116c0.413-0.067,0.95-0.236,1.487-0.387
						c1.064-0.356,2.053-0.891,2.053-0.891l-1.201-1.544c0,0-0.927,0.492-1.926,0.813c-0.505,0.135-1.008,0.287-1.396,0.344
						C638.153,810.39,637.895,810.43,637.895,810.43z"/>
					<polygon points="631.663,810.531 632.15,812.273 636.651,812.25 635.85,810.531 					"/>
					<polygon points="625.428,810.531 625.445,812.308 629.947,812.284 629.615,810.531 					"/>
					<rect x="618.951" y="810.531" width="4.354" height="1.777"/>
					<rect x="612.467" y="810.531" width="4.354" height="1.777"/>
				</g>
			</g>
			<g>
				<g>
					<rect x="605.98" y="810.531" width="4.354" height="1.777"/>
					<rect x="599.495" y="810.531" width="4.354" height="1.777"/>
					<rect x="593.01" y="810.531" width="4.355" height="1.777"/>
					<rect x="586.524" y="810.531" width="4.354" height="1.777"/>
					<rect x="580.039" y="810.531" width="4.354" height="1.777"/>
					<rect x="573.553" y="810.531" width="4.354" height="1.777"/>
					<rect x="567.069" y="810.531" width="4.354" height="1.777"/>
				</g>
			</g>
			<g>
				<g>
					<rect x="560.582" y="810.531" width="4.355" height="1.777"/>
					<rect x="554.097" y="810.531" width="4.355" height="1.777"/>
					<rect x="547.612" y="810.531" width="4.354" height="1.777"/>
					<rect x="541.126" y="810.531" width="4.354" height="1.777"/>
					<rect x="534.641" y="810.531" width="4.355" height="1.777"/>
					<rect x="528.155" y="810.531" width="4.354" height="1.777"/>
					<rect x="521.671" y="810.531" width="4.354" height="1.777"/>
				</g>
			</g>
			<g>
				<g>
					<rect x="515.185" y="810.531" width="4.354" height="1.777"/>
					<rect x="508.699" y="810.531" width="4.354" height="1.777"/>
					<polygon points="502.459,810.531 501.999,812.275 506.501,812.298 506.646,810.531 					"/>
					<path d="M496.225,810.475l-0.919,1.69c0,0.001,1.107,0.111,2.238,0.087c1.125,0.006,2.25,0.012,2.25,0.012l0.615-1.732
						c0,0-1.046,0-2.093,0C497.27,810.554,496.225,810.476,496.225,810.475z"/>
					<path d="M490.482,808.257l-1.298,1.471c0,0,0.216,0.181,0.568,0.409c0.363,0.211,0.821,0.54,1.336,0.766
						c0.994,0.522,2.078,0.823,2.078,0.822l1.05-1.633c0,0-1.019-0.268-1.951-0.748c-0.482-0.207-0.912-0.512-1.252-0.707
						C490.684,808.425,490.482,808.257,490.482,808.257z"/>
					<path d="M486.681,803.41l-1.586,1.135c0,0,0.115,0.255,0.302,0.631c0.168,0.387,0.46,0.865,0.759,1.339
						c0.305,0.47,0.656,0.91,0.918,1.237c0.283,0.311,0.472,0.519,0.472,0.519l1.406-1.371c0,0-0.176-0.194-0.44-0.484
						c-0.244-0.306-0.57-0.718-0.853-1.157c-0.277-0.444-0.546-0.893-0.701-1.255C486.787,803.649,486.681,803.41,486.681,803.41z"
						/>
					<path d="M485.802,797.291l-1.725,0.719c0,0,0.001,0.281,0.004,0.703c0.014,0.42-0.021,0.989,0.034,1.543
						c0.019,0.278,0.038,0.556,0.056,0.817c0.042,0.258,0.083,0.499,0.116,0.706c0.035,0.206,0.064,0.378,0.084,0.499
						c0.024,0.119,0.046,0.187,0.046,0.187l1.654-1.007c0,0-0.06-0.255-0.113-0.645c-0.029-0.193-0.063-0.42-0.099-0.662
						c-0.013-0.245-0.026-0.507-0.039-0.768c-0.039-0.522-0.011-1.047-0.02-1.438C485.802,797.553,485.802,797.291,485.802,797.291z
						"/>
				</g>
			</g>
			<g>
				<g>
					<polygon points="485.802,791.055 484.042,791.303 484.065,795.805 485.802,795.241 					"/>
					<polygon points="485.802,784.701 484.024,784.701 484.031,789.101 485.802,789.006 					"/>
					<rect x="484.024" y="778.217" width="1.777" height="4.354"/>
					<rect x="484.024" y="771.73" width="1.777" height="4.354"/>
					<rect x="484.024" y="765.245" width="1.777" height="4.355"/>
					<rect x="484.024" y="758.759" width="1.777" height="4.354"/>
					<rect x="484.024" y="752.275" width="1.777" height="4.354"/>
				</g>
			</g>
			<g>
				<g>
					<rect x="484.024" y="745.789" width="1.777" height="4.354"/>
					<rect x="484.024" y="739.304" width="1.777" height="4.354"/>
					<polygon points="485.802,733.062 484.058,732.604 484.035,737.106 485.802,737.249 					"/>
					<path d="M485.855,726.827l-1.691-0.916c0,0-0.107,1.108-0.083,2.238c-0.006,1.126-0.012,2.251-0.012,2.251l1.733,0.611
						c0,0,0-1.046,0-2.093C485.78,727.872,485.855,726.827,485.855,726.827z"/>
					<path d="M488.048,721.075l-1.473-1.296c0,0.001-0.686,0.895-1.167,1.909c-0.517,0.996-0.813,2.081-0.813,2.082l1.635,1.047
						c0-0.001,0.263-1.02,0.739-1.954C487.411,721.911,488.049,721.075,488.048,721.075z"/>
					<path d="M492.879,717.253l-1.137-1.585c0,0-0.252,0.122-0.63,0.306c-0.387,0.168-0.86,0.469-1.336,0.764
						c-0.463,0.314-0.911,0.655-1.231,0.926c-0.311,0.283-0.519,0.473-0.519,0.473l1.374,1.402c0,0,0.193-0.176,0.484-0.439
						c0.299-0.252,0.719-0.568,1.152-0.86c0.446-0.273,0.89-0.551,1.253-0.704C492.643,717.365,492.879,717.253,492.879,717.253z"/>
					<path d="M498.995,716.357l-0.722-1.725c0,0-0.281,0.001-0.703,0.004c-0.42,0.011-0.989-0.018-1.542,0.037
						c-0.278,0.02-0.556,0.04-0.817,0.059c-0.258,0.043-0.5,0.084-0.706,0.119s-0.378,0.064-0.499,0.085
						c-0.118,0.032-0.186,0.05-0.186,0.05l1.01,1.653c0,0,0.253-0.068,0.643-0.118c0.194-0.029,0.42-0.063,0.663-0.101
						c0.245-0.014,0.506-0.027,0.767-0.041c0.522-0.039,1.046-0.016,1.438-0.022C498.734,716.357,498.995,716.357,498.995,716.357z"
						/>
				</g>
			</g>
			<g>
				<g>
					<polygon points="505.232,716.357 504.98,714.599 500.478,714.621 501.045,716.357 					"/>
					<polygon points="511.583,716.357 511.583,714.58 507.183,714.587 507.28,716.357 					"/>
					<rect x="513.713" y="714.58" width="4.354" height="1.777"/>
					<rect x="520.2" y="714.58" width="4.354" height="1.777"/>
					<rect x="526.685" y="714.58" width="4.354" height="1.777"/>
					<rect x="533.171" y="714.58" width="4.354" height="1.777"/>
					<rect x="539.655" y="714.58" width="4.354" height="1.777"/>
				</g>
			</g>
			<g>
				<g>
					<rect x="546.142" y="714.58" width="4.354" height="1.777"/>
					<rect x="552.626" y="714.58" width="4.355" height="1.777"/>
					<rect x="559.111" y="714.58" width="4.354" height="1.777"/>
					<rect x="565.598" y="714.58" width="4.354" height="1.777"/>
					<rect x="572.082" y="714.58" width="4.355" height="1.777"/>
					<rect x="578.569" y="714.58" width="4.354" height="1.777"/>
					<rect x="585.054" y="714.58" width="4.354" height="1.777"/>
				</g>
			</g>
			<g>
				<g>
					<rect x="591.539" y="714.58" width="4.354" height="1.777"/>
					<rect x="598.024" y="714.58" width="4.354" height="1.777"/>
					<rect x="604.509" y="714.58" width="4.355" height="1.777"/>
					<rect x="610.996" y="714.58" width="4.354" height="1.777"/>
					<rect x="617.48" y="714.58" width="4.354" height="1.777"/>
					<polygon points="628.201,716.357 628.427,714.597 623.967,714.58 623.967,716.357 					"/>
					<polygon points="634.435,716.357 635.131,714.631 630.629,714.607 630.249,716.357 					"/>
				</g>
			</g>
			<g>
				<g>
					<path d="M640.575,717.135l1.116-1.597c0,0-0.262-0.1-0.655-0.248c-0.4-0.12-0.938-0.282-1.485-0.392
						c-0.551-0.094-1.101-0.198-1.521-0.205c-0.418-0.029-0.696-0.048-0.696-0.048l-0.85,1.714c0,0,0.262,0.014,0.653,0.033
						c0.395-0.001,0.91,0.09,1.428,0.169c0.514,0.096,1.019,0.24,1.396,0.349C640.329,717.045,640.575,717.135,640.575,717.135z"/>
					<path d="M645.522,720.799l1.456-1.314c0.001-0.001-0.681-0.899-1.535-1.63c-0.399-0.396-0.878-0.696-1.205-0.96
						c-0.348-0.236-0.591-0.375-0.591-0.375l-1.238,1.518c0-0.001,0.229,0.128,0.554,0.347c0.306,0.246,0.755,0.522,1.127,0.894
						C644.889,719.958,645.522,720.798,645.522,720.799z"/>
					<path d="M647.881,726.484l1.683-0.938c-0.001,0.001-0.154-1.108-0.493-2.178c-0.357-1.064-0.886-2.055-0.886-2.056
						l-1.546,1.199c0,0,0.487,0.929,0.809,1.928C647.753,725.443,647.88,726.484,647.881,726.484z"/>
					<polygon points="647.976,732.716 649.718,732.232 649.694,727.731 647.976,728.53 					"/>
					<polygon points="647.976,738.951 649.752,738.938 649.729,734.436 647.976,734.765 					"/>
					<rect x="647.976" y="741.076" width="1.777" height="4.354"/>
					<rect x="647.976" y="747.561" width="1.777" height="4.354"/>
				</g>
			</g>
			<g>
				<g>
					<rect x="647.976" y="754.046" width="1.777" height="4.355"/>
					<rect x="647.976" y="760.531" width="1.777" height="4.355"/>
					<rect x="647.976" y="767.017" width="1.777" height="4.354"/>
					<rect x="647.976" y="773.503" width="1.777" height="4.354"/>
					<rect x="647.976" y="779.987" width="1.777" height="4.354"/>
					<polygon points="647.976,790.71 649.736,790.933 649.753,786.475 647.976,786.475 					"/>
					<polygon points="647.976,796.944 649.702,797.636 649.726,793.135 647.976,792.758 					"/>
				</g>
			</g>
		</g>
	</g>
</g>
<g>
	<path fill-rule="evenodd" clip-rule="evenodd" d="M561.889,792.444c-19.688,0-39.321,0-59,0c0-19.096,0-38.165,0-57.288
		c19.641,0,39.291,0,59,0C561.889,754.216,561.889,773.303,561.889,792.444z M533.432,750.724c0-0.556-0.055-1.118,0.014-1.664
		c0.102-0.8-0.279-1.189-0.96-1.469c-1.819-0.747-3.712-0.975-5.662-0.932c-5.337,0.117-9.337,2.489-11.863,7.18
		c-2.332,4.326-2.483,8.952-1.473,13.653c0.724,3.372,2.375,6.2,5.282,8.179c2.848,1.938,6.05,2.503,9.391,2.084
		c1.602-0.2,3.157-0.794,4.719-1.26c0.615-0.183,0.881-0.65,0.853-1.339c-0.049-1.157-0.008-2.318-0.016-3.477
		c-0.005-0.677-0.141-0.726-0.776-0.546c-1.455,0.408-2.904,0.896-4.39,1.116c-3.664,0.544-6.928-1.313-8.229-4.727
		c-1.335-3.502-1.374-7.09-0.029-10.604c1.275-3.335,3.881-5.023,7.451-4.998c1.693,0.011,3.28,0.465,4.791,1.218
		c0.75,0.373,0.891,0.283,0.897-0.531C533.437,751.979,533.432,751.352,533.432,750.724z M550.969,749.182
		c0-1.333-0.046-2.563,0.018-3.786c0.037-0.706-0.271-1.016-0.879-1.172c-1.26-0.323-2.531-0.354-3.797-0.083
		c-3.305,0.707-5.524,3.203-5.953,6.717c-0.133,1.091-0.16,2.194-0.238,3.344c-0.71,0-1.408,0.021-2.103-0.008
		c-0.45-0.019-0.589,0.153-0.58,0.589c0.023,1.038,0.027,2.077,0,3.115c-0.013,0.476,0.187,0.642,0.627,0.671
		c0.692,0.044,1.382,0.122,2.135,0.191c0,0.273,0,0.51,0,0.747c0.001,5.699,0.011,11.397-0.009,17.097
		c-0.002,0.619,0.144,0.854,0.803,0.832c1.472-0.047,2.947-0.055,4.419,0.002c0.747,0.028,0.935-0.224,0.931-0.946
		c-0.026-5.626-0.013-11.253-0.012-16.88c0-0.28,0-0.56,0-0.855c1.084-0.07,2.067-0.157,3.053-0.191
		c0.614-0.021,0.926-0.194,0.875-0.896c-0.063-0.865-0.062-1.741-0.001-2.606c0.051-0.719-0.22-0.91-0.899-0.875
		c-0.998,0.054-2.002,0.015-3.088,0.015c0.07-1.067,0.076-2.013,0.207-2.938c0.255-1.803,1.359-2.579,3.162-2.302
		C550.039,749.023,550.439,749.094,550.969,749.182z"/>
	<path fill-rule="evenodd" clip-rule="evenodd" fill="#FFFFFF" d="M533.432,750.724c0,0.628,0.004,1.256-0.001,1.884
		c-0.007,0.814-0.148,0.904-0.897,0.531c-1.511-0.753-3.098-1.207-4.791-1.218c-3.57-0.025-6.175,1.663-7.451,4.998
		c-1.345,3.515-1.306,7.103,0.029,10.604c1.301,3.414,4.566,5.271,8.229,4.727c1.485-0.221,2.935-0.708,4.39-1.116
		c0.635-0.18,0.771-0.131,0.776,0.546c0.008,1.158-0.034,2.319,0.016,3.477c0.029,0.688-0.238,1.156-0.853,1.339
		c-1.562,0.466-3.118,1.06-4.719,1.26c-3.341,0.419-6.543-0.146-9.391-2.084c-2.906-1.979-4.558-4.807-5.282-8.179
		c-1.01-4.701-0.858-9.327,1.473-13.653c2.526-4.69,6.526-7.063,11.863-7.18c1.949-0.043,3.843,0.185,5.662,0.932
		c0.681,0.279,1.062,0.669,0.96,1.469C533.377,749.605,533.432,750.168,533.432,750.724z"/>
	<path fill-rule="evenodd" clip-rule="evenodd" fill="#FFFFFF" d="M550.969,749.182c-0.529-0.088-0.93-0.158-1.33-0.22
		c-1.803-0.277-2.907,0.499-3.162,2.302c-0.131,0.926-0.137,1.871-0.207,2.938c1.086,0,2.09,0.039,3.088-0.015
		c0.68-0.035,0.95,0.156,0.899,0.875c-0.061,0.865-0.062,1.741,0.001,2.606c0.051,0.701-0.261,0.874-0.875,0.896
		c-0.985,0.034-1.969,0.121-3.053,0.191c0,0.296,0,0.575,0,0.855c-0.001,5.627-0.015,11.254,0.012,16.88
		c0.004,0.723-0.184,0.975-0.931,0.946c-1.472-0.057-2.947-0.049-4.419-0.002c-0.659,0.021-0.805-0.213-0.803-0.832
		c0.021-5.699,0.01-11.397,0.009-17.097c0-0.237,0-0.474,0-0.747c-0.753-0.069-1.442-0.147-2.135-0.191
		c-0.441-0.029-0.641-0.195-0.627-0.671c0.028-1.038,0.024-2.077,0-3.115c-0.009-0.436,0.13-0.607,0.58-0.589
		c0.695,0.029,1.392,0.008,2.103,0.008c0.079-1.149,0.105-2.253,0.238-3.344c0.428-3.514,2.648-6.01,5.953-6.717
		c1.266-0.271,2.537-0.24,3.797,0.083c0.608,0.156,0.916,0.466,0.879,1.172C550.923,746.619,550.969,747.849,550.969,749.182z"/>
</g>
<text transform="matrix(1 0 0 1 583.4844 746.4443)"><tspan x="0" y="0" fill="#C91F46" font-family="'MyriadPro-Bold'" font-size="19.043">Your</tspan><tspan x="-3.199" y="22.852" fill="#C91F46" font-family="'MyriadPro-Bold'" font-size="19.043">CFML</tspan><tspan x="0.172" y="45.703" fill="#C91F46" font-family="'MyriadPro-Bold'" font-size="19.043">Here</tspan></text>
<g>
	<rect x="544.889" y="703.444" fill-rule="evenodd" clip-rule="evenodd" width="47" height="21"/>
	<g>
		<text transform="matrix(1 0 0 1 549.8887 720.4443)" fill="#FFFFFF" font-family="'MyriadPro-Bold'" font-size="18">WAR</text>
	</g>
</g>
<text transform="matrix(1 0 0 1 439.9746 26.1108)" font-family="'MyriadPro-Bold'" font-size="19.043">RDS</text>
<text transform="matrix(1 0 0 1 96.8887 27.4448)" font-family="'MyriadPro-Bold'" font-size="19.043">S3</text>
<text transform="matrix(1 0 0 1 704.8887 26.1108)" font-family="'MyriadPro-Bold'" font-size="19.043">DynamoDB</text>
<g>
	<path fill-rule="evenodd" clip-rule="evenodd" fill="#751113" stroke="#000000" stroke-width="2" stroke-miterlimit="10" d="
		M618.889,55.444c0-6.627-5.373-12-12-12h-299c-6.627,0-12,5.373-12,12v144c0,6.627,5.373,12,12,12h299c6.627,0,12-5.373,12-12
		V55.444z"/>
	<g>
		<g>
			<path fill="#D2EAD6" d="M304.889,66.944c0-6.627,5.373-12,12-12h123c6.627,0,12,5.373,12,12v121c0,6.627-5.373,12-12,12h-123
				c-6.627,0-12-5.373-12-12V66.944z"/>
			<g>
				<g>
					<g>
						<g>
							<path d="M306.612,63.167l-1.594-1.122c0,0-0.103,0.271-0.256,0.677c-0.14,0.41-0.292,0.971-0.415,1.534
								c-0.098,0.569-0.204,1.138-0.211,1.572c-0.03,0.432-0.05,0.72-0.05,0.72l1.716,0.847c0,0,0.014-0.271,0.034-0.676
								c0-0.408,0.091-0.941,0.174-1.477c0.108-0.529,0.244-1.055,0.37-1.44C306.519,63.422,306.612,63.167,306.612,63.167z"/>
							<path d="M310.491,58.126l-1.297-1.471c0,0-0.23,0.177-0.575,0.441c-0.312,0.303-0.775,0.658-1.148,1.105
								c-0.808,0.837-1.414,1.833-1.414,1.833l1.51,1.248c0,0,0.56-0.934,1.314-1.715c0.347-0.418,0.781-0.748,1.071-1.031
								C310.275,58.29,310.491,58.126,310.491,58.126z"/>
							<path d="M316.448,55.902l-0.905-1.695c0,0-0.289,0.005-0.715,0.09c-0.43,0.062-0.998,0.166-1.552,0.337
								c-0.566,0.125-1.091,0.384-1.502,0.521c-0.391,0.188-0.652,0.313-0.652,0.313l1.176,1.561c0,0,0.245-0.115,0.612-0.288
								c0.386-0.124,0.878-0.361,1.41-0.471C315.361,55.965,316.448,55.901,316.448,55.902z"/>
							<polygon points="322.896,55.857 322.468,54.111 317.813,54.135 318.567,55.857 							"/>
							<polygon points="329.375,55.857 329.375,54.08 324.746,54.1 325.014,55.857 							"/>
							<rect x="331.58" y="54.08" width="4.503" height="1.777"/>
							<rect x="338.285" y="54.08" width="4.502" height="1.777"/>
						</g>
					</g>
					<g>
						<g>
							<rect x="344.992" y="54.08" width="4.503" height="1.777"/>
							<rect x="351.699" y="54.08" width="4.503" height="1.777"/>
							<rect x="358.405" y="54.08" width="4.503" height="1.777"/>
							<rect x="365.114" y="54.08" width="4.502" height="1.777"/>
							<rect x="371.819" y="54.08" width="4.503" height="1.777"/>
							<rect x="378.527" y="54.08" width="4.503" height="1.777"/>
							<rect x="385.233" y="54.08" width="4.502" height="1.777"/>
						</g>
					</g>
					<g>
						<g>
							<rect x="391.94" y="54.08" width="4.503" height="1.777"/>
							<rect x="398.647" y="54.08" width="4.503" height="1.777"/>
							<rect x="405.354" y="54.08" width="4.503" height="1.777"/>
							<rect x="412.062" y="54.08" width="4.502" height="1.777"/>
							<rect x="418.768" y="54.08" width="4.503" height="1.777"/>
							<polygon points="429.91,55.857 430.039,54.089 425.476,54.08 425.476,55.857 							"/>
							<polygon points="436.357,55.857 436.971,54.125 432.316,54.101 432.028,55.857 							"/>
						</g>
					</g>
					<g>
						<g>
							<path d="M442.759,56.348l1.063-1.627c0,0-1.109-0.341-2.258-0.489c-1.146-0.112-2.313-0.095-2.313-0.095l-0.774,1.721
								c0,0,1.083-0.017,2.163,0.063C441.719,56.042,442.759,56.348,442.759,56.348z"/>
							<path d="M448.105,59.797l1.426-1.349c0,0-0.195-0.214-0.488-0.536c-0.318-0.294-0.729-0.709-1.193-1.056
								c-0.231-0.175-0.463-0.349-0.68-0.513c-0.231-0.143-0.447-0.276-0.631-0.391c-0.365-0.238-0.629-0.358-0.629-0.358
								l-1.191,1.55c0,0,0.248,0.11,0.589,0.331c0.173,0.106,0.375,0.229,0.592,0.361c0.203,0.152,0.42,0.314,0.637,0.476
								c0.434,0.322,0.816,0.71,1.114,0.984C447.924,59.597,448.105,59.797,448.105,59.797z"/>
							<path d="M450.814,65.55l1.671-0.966c0,0-0.181-1.148-0.609-2.227c-0.387-1.095-1.008-2.081-1.008-2.081l-1.522,1.232
								c0,0,0.575,0.924,0.925,1.952C450.662,64.473,450.814,65.55,450.814,65.55z"/>
							<polygon points="450.976,71.99 452.716,71.489 452.693,66.834 450.976,67.661 							"/>
							<polygon points="450.976,78.438 452.752,78.423 452.728,73.768 450.976,74.108 							"/>
							<rect x="450.976" y="80.635" width="1.777" height="4.503"/>
							<rect x="450.976" y="87.341" width="1.777" height="4.502"/>
						</g>
					</g>
					<g>
						<g>
							<rect x="450.976" y="94.048" width="1.777" height="4.503"/>
							<rect x="450.976" y="100.755" width="1.777" height="4.503"/>
							<rect x="450.976" y="107.461" width="1.777" height="4.503"/>
							<rect x="450.976" y="114.169" width="1.777" height="4.502"/>
							<rect x="450.976" y="120.875" width="1.777" height="4.503"/>
							<rect x="450.976" y="127.583" width="1.777" height="4.503"/>
							<rect x="450.976" y="134.289" width="1.777" height="4.502"/>
						</g>
					</g>
					<g>
						<g>
							<rect x="450.976" y="140.996" width="1.777" height="4.503"/>
							<rect x="450.976" y="147.703" width="1.777" height="4.503"/>
							<rect x="450.976" y="154.409" width="1.777" height="4.503"/>
							<rect x="450.976" y="161.117" width="1.777" height="4.502"/>
							<rect x="450.976" y="167.823" width="1.777" height="4.503"/>
							<polygon points="450.976,178.927 452.738,179.128 452.753,174.531 450.976,174.531 							"/>
							<polygon points="450.976,185.374 452.703,186.061 452.727,181.406 450.976,181.045 							"/>
						</g>
					</g>
					<g>
						<g>
							<path d="M450.165,191.721l1.594,1.122c0,0,0.103-0.271,0.256-0.677c0.14-0.41,0.292-0.971,0.415-1.534
								c0.098-0.569,0.204-1.138,0.211-1.572c0.03-0.432,0.05-0.72,0.05-0.72l-1.716-0.847c0,0-0.014,0.271-0.034,0.676
								c0.001,0.408-0.091,0.941-0.174,1.477c-0.108,0.529-0.244,1.055-0.37,1.44C450.258,191.467,450.165,191.721,450.165,191.721z
								"/>
							<path d="M446.287,196.763l1.297,1.471c0,0,0.23-0.177,0.575-0.441c0.312-0.303,0.775-0.658,1.148-1.105
								c0.808-0.837,1.414-1.833,1.414-1.833l-1.51-1.248c0,0-0.56,0.934-1.314,1.715c-0.347,0.418-0.781,0.748-1.071,1.031
								C446.502,196.599,446.287,196.763,446.287,196.763z"/>
							<path d="M440.329,198.986l0.905,1.695c0,0,0.289-0.005,0.715-0.09c0.43-0.062,0.998-0.166,1.552-0.337
								c0.566-0.125,1.091-0.384,1.502-0.521c0.391-0.188,0.652-0.313,0.652-0.313l-1.176-1.561c0,0-0.245,0.115-0.612,0.288
								c-0.386,0.124-0.878,0.361-1.41,0.471C441.417,198.923,440.33,198.987,440.329,198.986z"/>
							<polygon points="433.882,199.031 434.31,200.777 438.965,200.753 438.21,199.031 							"/>
							<polygon points="427.403,199.031 427.403,200.809 432.032,200.789 431.763,199.031 							"/>
							<rect x="420.695" y="199.031" width="4.503" height="1.777"/>
							<rect x="413.99" y="199.031" width="4.502" height="1.777"/>
						</g>
					</g>
					<g>
						<g>
							<rect x="407.282" y="199.031" width="4.503" height="1.777"/>
							<rect x="400.575" y="199.031" width="4.503" height="1.777"/>
							<rect x="393.869" y="199.031" width="4.503" height="1.777"/>
							<rect x="387.161" y="199.031" width="4.502" height="1.777"/>
							<rect x="380.455" y="199.031" width="4.503" height="1.777"/>
							<rect x="373.747" y="199.031" width="4.503" height="1.777"/>
							<rect x="367.042" y="199.031" width="4.502" height="1.777"/>
						</g>
					</g>
					<g>
						<g>
							<rect x="360.333" y="199.031" width="4.503" height="1.777"/>
							<rect x="353.626" y="199.031" width="4.503" height="1.777"/>
							<rect x="346.92" y="199.031" width="4.503" height="1.777"/>
							<rect x="340.213" y="199.031" width="4.502" height="1.777"/>
							<rect x="333.506" y="199.031" width="4.503" height="1.777"/>
							<polygon points="326.867,199.031 326.738,200.799 331.302,200.809 331.302,199.031 							"/>
							<polygon points="320.42,199.031 319.806,200.764 324.461,200.788 324.75,199.031 							"/>
						</g>
					</g>
					<g>
						<g>
							<path d="M314.018,198.541l-1.063,1.627c0,0,1.109,0.341,2.258,0.489c1.146,0.112,2.313,0.095,2.313,0.095l0.774-1.721
								c0,0-1.083,0.017-2.163-0.063C315.059,198.847,314.018,198.541,314.018,198.541z"/>
							<path d="M308.672,195.091l-1.426,1.349c0,0,0.195,0.214,0.488,0.536c0.318,0.294,0.729,0.709,1.193,1.056
								c0.231,0.175,0.463,0.349,0.68,0.513c0.231,0.143,0.447,0.276,0.631,0.391c0.365,0.238,0.629,0.358,0.629,0.358l1.192-1.55
								c0,0-0.248-0.11-0.59-0.331c-0.173-0.106-0.375-0.229-0.592-0.361c-0.203-0.152-0.42-0.314-0.637-0.476
								c-0.434-0.322-0.816-0.71-1.114-0.984C308.854,195.292,308.672,195.091,308.672,195.091z"/>
							<path d="M305.963,189.338l-1.671,0.966c0,0,0.181,1.148,0.609,2.227c0.387,1.095,1.008,2.081,1.008,2.081l1.522-1.232
								c0,0-0.575-0.924-0.925-1.952C306.116,190.416,305.963,189.338,305.963,189.338z"/>
							<polygon points="305.802,182.899 304.061,183.399 304.084,188.054 305.802,187.228 							"/>
							<polygon points="305.802,176.451 304.025,176.465 304.049,181.121 305.802,180.78 							"/>
							<rect x="304.024" y="169.75" width="1.777" height="4.503"/>
							<rect x="304.024" y="163.045" width="1.777" height="4.502"/>
						</g>
					</g>
					<g>
						<g>
							<rect x="304.024" y="156.337" width="1.777" height="4.503"/>
							<rect x="304.024" y="149.63" width="1.777" height="4.503"/>
							<rect x="304.024" y="142.924" width="1.777" height="4.503"/>
							<rect x="304.024" y="136.217" width="1.777" height="4.502"/>
							<rect x="304.024" y="129.51" width="1.777" height="4.503"/>
							<rect x="304.024" y="122.803" width="1.777" height="4.503"/>
							<rect x="304.024" y="116.097" width="1.777" height="4.502"/>
						</g>
					</g>
					<g>
						<g>
							<rect x="304.024" y="109.389" width="1.777" height="4.503"/>
							<rect x="304.024" y="102.682" width="1.777" height="4.503"/>
							<rect x="304.024" y="95.976" width="1.777" height="4.503"/>
							<rect x="304.024" y="89.269" width="1.777" height="4.502"/>
							<rect x="304.024" y="82.562" width="1.777" height="4.503"/>
							<polygon points="305.802,75.961 304.039,75.76 304.024,80.357 305.802,80.357 							"/>
							<polygon points="305.802,69.515 304.075,68.828 304.051,73.483 305.802,73.844 							"/>
						</g>
					</g>
				</g>
			</g>
		</g>
		<g>
			<text transform="matrix(1 0 0 1 312.2729 89.2773)" font-family="'MyriadPro-Regular'" font-size="19.043">Availability Zone</text>
		</g>
		<g>
			
				<rect x="317.889" y="116.086" fill-rule="evenodd" clip-rule="evenodd" fill="#EF4136" stroke="#000000" stroke-width="2" stroke-miterlimit="10" width="121" height="56.782"/>
			
				<ellipse fill-rule="evenodd" clip-rule="evenodd" fill="#F48281" stroke="#000000" stroke-width="2" stroke-miterlimit="10" cx="378.389" cy="116.424" rx="60.5" ry="13.857"/>
			<path fill-rule="evenodd" clip-rule="evenodd" fill="#EF4136" stroke="#000000" stroke-width="2" stroke-miterlimit="10" d="
				M317.926,143.801c0,0,3.361,14.196,59.468,14.196s61.495-14.196,61.495-14.196"/>
			<path fill-rule="evenodd" clip-rule="evenodd" fill="#EF4136" stroke="#000000" stroke-width="2" stroke-miterlimit="10" d="
				M317.926,170.749c0,0,3.361,14.196,59.468,14.196s61.495-14.196,61.495-14.196"/>
		</g>
	</g>
	<g>
		<g>
			<path fill="#D2EAD6" d="M464.889,66.944c0-6.627,5.373-12,12-12h123c6.627,0,12,5.373,12,12v121c0,6.627-5.373,12-12,12h-123
				c-6.627,0-12-5.373-12-12V66.944z"/>
			<g>
				<g>
					<g>
						<g>
							<path d="M466.612,63.167l-1.594-1.122c0,0-0.103,0.271-0.256,0.677c-0.14,0.41-0.292,0.971-0.415,1.534
								c-0.098,0.569-0.204,1.138-0.211,1.572c-0.03,0.432-0.05,0.72-0.05,0.72l1.716,0.847c0,0,0.014-0.271,0.034-0.676
								c-0.001-0.408,0.091-0.941,0.174-1.477c0.108-0.529,0.244-1.055,0.37-1.44C466.519,63.422,466.612,63.167,466.612,63.167z"/>
							<path d="M470.491,58.126l-1.297-1.471c0,0-0.23,0.177-0.575,0.441c-0.312,0.303-0.775,0.658-1.148,1.105
								c-0.808,0.837-1.414,1.833-1.414,1.833l1.51,1.248c0,0,0.56-0.934,1.314-1.715c0.347-0.418,0.781-0.748,1.071-1.031
								C470.275,58.29,470.491,58.126,470.491,58.126z"/>
							<path d="M476.448,55.902l-0.905-1.695c0,0-0.289,0.005-0.715,0.09c-0.43,0.062-0.998,0.166-1.552,0.337
								c-0.566,0.125-1.091,0.384-1.502,0.521c-0.391,0.188-0.652,0.313-0.652,0.313l1.176,1.561c0,0,0.245-0.115,0.612-0.288
								c0.386-0.124,0.878-0.361,1.41-0.471C475.361,55.965,476.448,55.901,476.448,55.902z"/>
							<polygon points="482.896,55.857 482.468,54.111 477.813,54.135 478.567,55.857 							"/>
							<polygon points="489.375,55.857 489.375,54.08 484.746,54.1 485.014,55.857 							"/>
							<rect x="491.58" y="54.08" width="4.503" height="1.777"/>
							<rect x="498.285" y="54.08" width="4.502" height="1.777"/>
						</g>
					</g>
					<g>
						<g>
							<rect x="504.992" y="54.08" width="4.503" height="1.777"/>
							<rect x="511.699" y="54.08" width="4.503" height="1.777"/>
							<rect x="518.405" y="54.08" width="4.503" height="1.777"/>
							<rect x="525.114" y="54.08" width="4.502" height="1.777"/>
							<rect x="531.819" y="54.08" width="4.503" height="1.777"/>
							<rect x="538.527" y="54.08" width="4.503" height="1.777"/>
							<rect x="545.233" y="54.08" width="4.502" height="1.777"/>
						</g>
					</g>
					<g>
						<g>
							<rect x="551.94" y="54.08" width="4.504" height="1.777"/>
							<rect x="558.647" y="54.08" width="4.503" height="1.777"/>
							<rect x="565.354" y="54.08" width="4.504" height="1.777"/>
							<rect x="572.062" y="54.08" width="4.503" height="1.777"/>
							<rect x="578.768" y="54.08" width="4.503" height="1.777"/>
							<polygon points="589.91,55.857 590.039,54.089 585.476,54.08 585.476,55.857 							"/>
							<polygon points="596.356,55.857 596.972,54.125 592.316,54.101 592.028,55.857 							"/>
						</g>
					</g>
					<g>
						<g>
							<path d="M602.76,56.348l1.063-1.627c0,0-1.109-0.341-2.258-0.489c-1.146-0.112-2.313-0.095-2.313-0.095l-0.774,1.721
								c0,0,1.083-0.017,2.163,0.063C601.719,56.042,602.759,56.348,602.76,56.348z"/>
							<path d="M608.105,59.797l1.426-1.349c0,0-0.195-0.214-0.488-0.536c-0.318-0.294-0.729-0.709-1.192-1.056
								c-0.231-0.175-0.463-0.349-0.68-0.513c-0.231-0.143-0.447-0.276-0.632-0.391c-0.365-0.238-0.629-0.358-0.629-0.358
								l-1.191,1.55c0,0,0.247,0.11,0.589,0.331c0.174,0.106,0.376,0.229,0.592,0.361c0.203,0.152,0.42,0.314,0.637,0.476
								c0.435,0.322,0.816,0.71,1.114,0.984C607.924,59.597,608.105,59.797,608.105,59.797z"/>
							<path d="M610.814,65.55l1.671-0.966c0,0-0.181-1.148-0.608-2.227c-0.387-1.095-1.008-2.081-1.008-2.081l-1.521,1.232
								c0,0,0.575,0.924,0.925,1.952C610.662,64.473,610.814,65.55,610.814,65.55z"/>
							<polygon points="610.976,71.99 612.717,71.489 612.692,66.834 610.976,67.661 							"/>
							<polygon points="610.976,78.438 612.752,78.423 612.729,73.768 610.976,74.108 							"/>
							<rect x="610.976" y="80.635" width="1.777" height="4.503"/>
							<rect x="610.976" y="87.341" width="1.777" height="4.502"/>
						</g>
					</g>
					<g>
						<g>
							<rect x="610.976" y="94.048" width="1.777" height="4.503"/>
							<rect x="610.976" y="100.755" width="1.777" height="4.503"/>
							<rect x="610.976" y="107.461" width="1.777" height="4.503"/>
							<rect x="610.976" y="114.169" width="1.777" height="4.502"/>
							<rect x="610.976" y="120.875" width="1.777" height="4.503"/>
							<rect x="610.976" y="127.583" width="1.777" height="4.503"/>
							<rect x="610.976" y="134.289" width="1.777" height="4.502"/>
						</g>
					</g>
					<g>
						<g>
							<rect x="610.976" y="140.996" width="1.777" height="4.503"/>
							<rect x="610.976" y="147.703" width="1.777" height="4.503"/>
							<rect x="610.976" y="154.409" width="1.777" height="4.503"/>
							<rect x="610.976" y="161.117" width="1.777" height="4.502"/>
							<rect x="610.976" y="167.823" width="1.777" height="4.503"/>
							<polygon points="610.976,178.927 612.738,179.128 612.753,174.531 610.976,174.531 							"/>
							<polygon points="610.976,185.374 612.703,186.061 612.727,181.406 610.976,181.045 							"/>
						</g>
					</g>
					<g>
						<g>
							<path d="M610.165,191.721l1.594,1.122c0,0,0.103-0.271,0.256-0.677c0.14-0.41,0.293-0.971,0.416-1.534
								c0.097-0.569,0.203-1.138,0.211-1.572c0.03-0.432,0.05-0.72,0.05-0.72l-1.716-0.847c0,0-0.014,0.271-0.034,0.676
								c0.001,0.408-0.091,0.941-0.174,1.477c-0.107,0.529-0.244,1.055-0.37,1.44C610.258,191.467,610.165,191.721,610.165,191.721z
								"/>
							<path d="M606.287,196.763l1.297,1.471c0,0,0.23-0.177,0.575-0.441c0.312-0.303,0.775-0.658,1.147-1.105
								c0.808-0.837,1.414-1.833,1.414-1.833l-1.511-1.248c0,0-0.56,0.934-1.314,1.715c-0.346,0.418-0.78,0.748-1.071,1.031
								C606.502,196.599,606.287,196.763,606.287,196.763z"/>
							<path d="M600.329,198.986l0.904,1.695c0,0,0.29-0.005,0.716-0.09c0.43-0.062,0.998-0.166,1.552-0.337
								c0.566-0.125,1.091-0.384,1.502-0.521c0.392-0.188,0.653-0.313,0.653-0.313l-1.176-1.561c0,0-0.245,0.115-0.612,0.288
								c-0.386,0.124-0.878,0.361-1.41,0.471C601.417,198.923,600.329,198.987,600.329,198.986z"/>
							<polygon points="593.882,199.031 594.31,200.777 598.965,200.753 598.211,199.031 							"/>
							<polygon points="587.402,199.031 587.402,200.809 592.031,200.789 591.764,199.031 							"/>
							<rect x="580.695" y="199.031" width="4.503" height="1.777"/>
							<rect x="573.989" y="199.031" width="4.503" height="1.777"/>
						</g>
					</g>
					<g>
						<g>
							<rect x="567.281" y="199.031" width="4.504" height="1.777"/>
							<rect x="560.575" y="199.031" width="4.503" height="1.777"/>
							<rect x="553.868" y="199.031" width="4.504" height="1.777"/>
							<rect x="547.161" y="199.031" width="4.503" height="1.777"/>
							<rect x="540.455" y="199.031" width="4.503" height="1.777"/>
							<rect x="533.747" y="199.031" width="4.503" height="1.777"/>
							<rect x="527.042" y="199.031" width="4.502" height="1.777"/>
						</g>
					</g>
					<g>
						<g>
							<rect x="520.333" y="199.031" width="4.503" height="1.777"/>
							<rect x="513.626" y="199.031" width="4.503" height="1.777"/>
							<rect x="506.92" y="199.031" width="4.503" height="1.777"/>
							<rect x="500.213" y="199.031" width="4.502" height="1.777"/>
							<rect x="493.506" y="199.031" width="4.503" height="1.777"/>
							<polygon points="486.867,199.031 486.738,200.799 491.302,200.809 491.302,199.031 							"/>
							<polygon points="480.42,199.031 479.806,200.764 484.461,200.788 484.75,199.031 							"/>
						</g>
					</g>
					<g>
						<g>
							<path d="M474.018,198.541l-1.063,1.627c0,0,1.109,0.341,2.258,0.489c1.146,0.112,2.313,0.095,2.313,0.095l0.774-1.721
								c0,0-1.083,0.017-2.163-0.063C475.059,198.847,474.018,198.541,474.018,198.541z"/>
							<path d="M468.672,195.091l-1.426,1.349c0,0,0.195,0.214,0.488,0.536c0.318,0.294,0.729,0.709,1.193,1.056
								c0.231,0.175,0.463,0.349,0.68,0.513c0.231,0.143,0.447,0.276,0.631,0.391c0.365,0.238,0.629,0.358,0.629,0.358l1.191-1.55
								c0,0-0.248-0.11-0.589-0.331c-0.173-0.106-0.375-0.229-0.592-0.361c-0.203-0.152-0.42-0.314-0.637-0.476
								c-0.434-0.322-0.816-0.71-1.114-0.984C468.854,195.292,468.672,195.091,468.672,195.091z"/>
							<path d="M465.963,189.338l-1.671,0.966c0,0,0.181,1.148,0.609,2.227c0.387,1.095,1.008,2.081,1.008,2.081l1.522-1.232
								c0,0-0.575-0.924-0.925-1.952C466.116,190.416,465.963,189.338,465.963,189.338z"/>
							<polygon points="465.802,182.899 464.061,183.399 464.084,188.054 465.802,187.228 							"/>
							<polygon points="465.802,176.451 464.025,176.465 464.049,181.121 465.802,180.78 							"/>
							<rect x="464.024" y="169.75" width="1.777" height="4.503"/>
							<rect x="464.024" y="163.045" width="1.777" height="4.502"/>
						</g>
					</g>
					<g>
						<g>
							<rect x="464.024" y="156.337" width="1.777" height="4.503"/>
							<rect x="464.024" y="149.63" width="1.777" height="4.503"/>
							<rect x="464.024" y="142.924" width="1.777" height="4.503"/>
							<rect x="464.024" y="136.217" width="1.777" height="4.502"/>
							<rect x="464.024" y="129.51" width="1.777" height="4.503"/>
							<rect x="464.024" y="122.803" width="1.777" height="4.503"/>
							<rect x="464.024" y="116.097" width="1.777" height="4.502"/>
						</g>
					</g>
					<g>
						<g>
							<rect x="464.024" y="109.389" width="1.777" height="4.503"/>
							<rect x="464.024" y="102.682" width="1.777" height="4.503"/>
							<rect x="464.024" y="95.976" width="1.777" height="4.503"/>
							<rect x="464.024" y="89.269" width="1.777" height="4.502"/>
							<rect x="464.024" y="82.562" width="1.777" height="4.503"/>
							<polygon points="465.802,75.961 464.039,75.76 464.024,80.357 465.802,80.357 							"/>
							<polygon points="465.802,69.515 464.075,68.828 464.051,73.483 465.802,73.844 							"/>
						</g>
					</g>
				</g>
			</g>
		</g>
		<g>
			<text transform="matrix(1 0 0 1 472.2729 89.2773)" font-family="'MyriadPro-Regular'" font-size="19.043">Availability Zone</text>
		</g>
		<g>
			
				<rect x="477.889" y="116.086" fill-rule="evenodd" clip-rule="evenodd" fill="#EF4136" stroke="#000000" stroke-width="2" stroke-miterlimit="10" width="121" height="56.782"/>
			
				<ellipse fill-rule="evenodd" clip-rule="evenodd" fill="#F48281" stroke="#000000" stroke-width="2" stroke-miterlimit="10" cx="538.389" cy="116.424" rx="60.5" ry="13.857"/>
			<path fill-rule="evenodd" clip-rule="evenodd" fill="#EF4136" stroke="#000000" stroke-width="2" stroke-miterlimit="10" d="
				M477.926,143.801c0,0,3.361,14.196,59.468,14.196s61.495-14.196,61.495-14.196"/>
			<path fill-rule="evenodd" clip-rule="evenodd" fill="#EF4136" stroke="#000000" stroke-width="2" stroke-miterlimit="10" d="
				M477.926,170.749c0,0,3.361,14.196,59.468,14.196s61.495-14.196,61.495-14.196"/>
		</g>
	</g>
</g>
<path fill-rule="evenodd" clip-rule="evenodd" fill="#48A2DA" stroke="#000000" stroke-width="2" stroke-miterlimit="10" d="
	M145.472,494.444c0,6.627-5.373,12-12,12h-57c-6.627,0-12-5.373-12-12v-221c0-6.627,5.373-12,12-12h57c6.627,0,12,5.373,12,12
	V494.444z"/>
<g>
	<text transform="matrix(1 0 0 1 91.3623 250.4443)" font-family="'MyriadPro-Bold'" font-size="19.043">SQS</text>
</g>
<g>
	
		<rect x="79.472" y="288.444" fill-rule="evenodd" clip-rule="evenodd" fill="#DEDDDD" stroke="#000000" stroke-width="2" stroke-miterlimit="10" width="51" height="28"/>
	
		<polygon fill-rule="evenodd" clip-rule="evenodd" fill="#ABABAB" stroke="#000000" stroke-width="2" stroke-miterlimit="10" points="
		82.472,289.327 105.414,302.562 127.472,289.327 	"/>
</g>
<g>
	
		<rect x="79.472" y="337.444" fill-rule="evenodd" clip-rule="evenodd" fill="#DEDDDD" stroke="#000000" stroke-width="2" stroke-miterlimit="10" width="51" height="28"/>
	
		<polygon fill-rule="evenodd" clip-rule="evenodd" fill="#ABABAB" stroke="#000000" stroke-width="2" stroke-miterlimit="10" points="
		82.472,338.327 105.414,351.562 127.472,338.327 	"/>
</g>
<g>
	
		<rect x="79.472" y="383.444" fill-rule="evenodd" clip-rule="evenodd" fill="#DEDDDD" stroke="#000000" stroke-width="2" stroke-miterlimit="10" width="51" height="28"/>
	
		<polygon fill-rule="evenodd" clip-rule="evenodd" fill="#ABABAB" stroke="#000000" stroke-width="2" stroke-miterlimit="10" points="
		82.472,384.327 105.414,397.562 127.472,384.327 	"/>
</g>
<g>
	
		<rect x="79.472" y="432.444" fill-rule="evenodd" clip-rule="evenodd" fill="#DEDDDD" stroke="#000000" stroke-width="2" stroke-miterlimit="10" width="51" height="28"/>
	
		<polygon fill-rule="evenodd" clip-rule="evenodd" fill="#ABABAB" stroke="#000000" stroke-width="2" stroke-miterlimit="10" points="
		82.472,433.327 105.414,446.562 127.472,433.327 	"/>
</g>
<path fill="none" stroke="#000000" stroke-width="4" stroke-miterlimit="10" d="M300.889,366.444c0-43.666-59.934-79-134-79"/>
<path fill="none" stroke="#000000" stroke-width="4" stroke-miterlimit="10" d="M102.889,515.444c0,42.561,55.908,77,125,77"/>
<polygon points="163.889,286.444 174.889,297.444 174.889,277.444 "/>
<polygon points="235.889,593.444 224.889,582.444 224.889,602.444 "/>
<g>
	
		<line fill="none" stroke="#000000" stroke-width="4" stroke-miterlimit="10" x1="485.889" y1="517.444" x2="648.889" y2="517.444"/>
	<polygon points="477.889,517.444 488.889,528.444 488.889,508.444 	"/>
	
		<line fill="none" stroke="#000000" stroke-width="4" stroke-miterlimit="10" x1="485.889" y1="496.444" x2="648.889" y2="496.444"/>
	<polygon points="653.889,497.444 642.889,486.444 642.889,506.444 	"/>
</g>
<text transform="matrix(1 0 0 1 701.9502 89.4443)" fill="#FFFFFF" font-family="'MyriadPro-Bold'" font-size="19.043">key = {value}</text>
<text transform="matrix(1 0 0 1 701.9502 124.4443)" fill="#FFFFFF" font-family="'MyriadPro-Bold'" font-size="19.043">key = {value}</text>
<text transform="matrix(1 0 0 1 701.9502 156.4443)" fill="#FFFFFF" font-family="'MyriadPro-Bold'" font-size="19.043">key = {value}</text>
<path fill="none" stroke="#000000" stroke-width="4" stroke-miterlimit="10" d="M739.889,212.444c0,54.168-97.951,98-219,98"/>
<path fill="none" stroke="#000000" stroke-width="4" stroke-miterlimit="10" d="M584.889,212.444c0,54.168-28.625,98-64,98"/>
<path fill="none" stroke="#000000" stroke-width="4" stroke-miterlimit="10" d="M552.889,310.444c0,76.83-31.309,139-70,139"/>
<rect x="466.889" y="286.444" fill="#F1E912" stroke="#000000" stroke-width="2" stroke-miterlimit="10" width="130" height="48"/>
<text transform="matrix(1 0 0 1 474.9702 303.4443)" font-family="'MyriadPro-Bold'" font-size="19.043">SerializedList</text>
<text transform="matrix(1 0 0 1 491.4912 326.4443)" font-family="'MyriadPro-Bold'" font-size="24.2411">[A,B,C]</text>
<polygon points="475.889,448.444 486.889,459.444 486.889,439.444 "/>
<g>
	<path fill="#CCCCCC" stroke="#000000" stroke-width="2" stroke-miterlimit="10" d="M177.467,88.95
		c0.119-1.15,0.181-2.318,0.181-3.5c0-18.647-15.117-33.765-33.765-33.765c-2.104,0-4.16,0.202-6.158,0.57
		c-5.694-10.602-16.885-17.812-29.761-17.812c-9.826,0-18.667,4.2-24.838,10.899c-4.617-2.37-9.846-3.715-15.392-3.715
		c-16.621,0-30.428,12.014-33.234,27.829C18.685,72.264,6.67,86.07,6.67,102.691c0,7.863,2.695,15.092,7.202,20.831
		c-0.005,0.241-0.019,0.479-0.019,0.721c0,18.647,15.117,33.764,33.765,33.764c5.24,0,10.201-1.194,14.626-3.324
		c1.787,0.292,3.619,0.451,5.488,0.451c5.218,0,10.159-1.186,14.571-3.298c5.818,4.754,13.25,7.609,21.349,7.609
		c6.477,0,12.525-1.827,17.665-4.989c2.185,0.444,4.445,0.678,6.761,0.678c7.078,0,13.644-2.182,19.07-5.903
		c4.261,1.94,8.989,3.03,13.976,3.03c18.647,0,33.764-15.117,33.764-33.764C194.889,105.778,187.854,94.708,177.467,88.95z"/>
	<text transform="matrix(1 0 0 1 30.939 107.4604)" font-family="'MyriadPro-Bold'" font-size="16.9965">JS,CSS,IMG, ETC...</text>
</g>
</svg>
