<?xml version="1.0" encoding="utf-8"?>
<!-- Generator: Adobe Illustrator 16.0.0, SVG Export Plug-In . SVG Version: 6.00 Build 0)  -->
<!DOCTYPE svg PUBLIC "-//W3C//DTD SVG 1.1//EN" "http://www.w3.org/Graphics/SVG/1.1/DTD/svg11.dtd">
<svg version="1.1" id="Layer_1" xmlns="http://www.w3.org/2000/svg" xmlns:xlink="http://www.w3.org/1999/xlink" x="0px" y="0px"
	 width="351.111px" height="227.777px" viewBox="0 0 351.111 227.777" enable-background="new 0 0 351.111 227.777"
	 xml:space="preserve">
<text transform="matrix(1 0 0 1 157.9746 24.5552)" font-family="'MyriadPro-Bold'" font-size="19.043">RDS</text>
<g>
	<path fill-rule="evenodd" clip-rule="evenodd" fill="#751113" stroke="#000000" stroke-width="2" stroke-miterlimit="10" d="
		M336.889,53.889c0-6.627-5.373-12-12-12h-299c-6.627,0-12,5.373-12,12v144c0,6.627,5.373,12,12,12h299c6.627,0,12-5.373,12-12
		V53.889z"/>
	<g>
		<g>
			<path fill="#D2EAD6" d="M22.889,65.389c0-6.627,5.373-12,12-12h123c6.627,0,12,5.373,12,12v121c0,6.627-5.373,12-12,12h-123
				c-6.627,0-12-5.373-12-12V65.389z"/>
			<g>
				<g>
					<g>
						<g>
							<path d="M24.612,61.612l-1.594-1.122c0,0-0.103,0.271-0.256,0.677c-0.14,0.41-0.292,0.971-0.415,1.534
								c-0.098,0.569-0.204,1.138-0.211,1.572c-0.03,0.432-0.05,0.72-0.05,0.72l1.716,0.847c0,0,0.014-0.271,0.034-0.676
								c-0.001-0.408,0.091-0.941,0.174-1.477c0.108-0.529,0.244-1.055,0.37-1.44C24.519,61.866,24.612,61.612,24.612,61.612z"/>
							<path d="M28.491,56.57l-1.297-1.471c0,0-0.23,0.177-0.575,0.441c-0.312,0.303-0.775,0.658-1.148,1.105
								c-0.808,0.837-1.414,1.833-1.414,1.833l1.51,1.248c0,0,0.56-0.934,1.314-1.715c0.347-0.418,0.781-0.748,1.071-1.031
								C28.275,56.734,28.491,56.57,28.491,56.57z"/>
							<path d="M34.448,54.347l-0.905-1.695c0,0-0.289,0.005-0.715,0.09c-0.43,0.062-0.998,0.166-1.552,0.337
								c-0.566,0.125-1.091,0.384-1.502,0.521c-0.391,0.188-0.652,0.313-0.652,0.313l1.176,1.561c0,0,0.245-0.115,0.612-0.288
								c0.386-0.124,0.878-0.361,1.41-0.471C33.361,54.41,34.448,54.346,34.448,54.347z"/>
							<polygon points="40.896,54.302 40.468,52.556 35.813,52.58 36.567,54.302 							"/>
							<polygon points="47.375,54.302 47.375,52.524 42.746,52.544 43.014,54.302 							"/>
							<rect x="49.58" y="52.524" width="4.503" height="1.777"/>
							<rect x="56.285" y="52.524" width="4.502" height="1.777"/>
						</g>
					</g>
					<g>
						<g>
							<rect x="62.992" y="52.524" width="4.503" height="1.777"/>
							<rect x="69.699" y="52.524" width="4.503" height="1.777"/>
							<rect x="76.405" y="52.524" width="4.503" height="1.777"/>
							<rect x="83.114" y="52.524" width="4.502" height="1.777"/>
							<rect x="89.819" y="52.524" width="4.503" height="1.777"/>
							<rect x="96.527" y="52.524" width="4.503" height="1.777"/>
							<rect x="103.233" y="52.524" width="4.502" height="1.777"/>
						</g>
					</g>
					<g>
						<g>
							<rect x="109.94" y="52.524" width="4.503" height="1.777"/>
							<rect x="116.647" y="52.524" width="4.503" height="1.777"/>
							<rect x="123.354" y="52.524" width="4.503" height="1.777"/>
							<rect x="130.062" y="52.524" width="4.502" height="1.777"/>
							<rect x="136.768" y="52.524" width="4.503" height="1.777"/>
							<polygon points="147.91,54.302 148.039,52.534 143.476,52.524 143.476,54.302 							"/>
							<polygon points="154.357,54.302 154.971,52.569 150.316,52.545 150.028,54.302 							"/>
						</g>
					</g>
					<g>
						<g>
							<path d="M160.759,54.792l1.063-1.627c0,0-1.109-0.341-2.258-0.489c-1.146-0.112-2.313-0.095-2.313-0.095l-0.774,1.721
								c0,0,1.083-0.017,2.163,0.063C159.719,54.486,160.759,54.792,160.759,54.792z"/>
							<path d="M166.105,58.242l1.426-1.35c0,0-0.195-0.214-0.488-0.536c-0.318-0.294-0.729-0.709-1.193-1.056
								c-0.231-0.175-0.463-0.349-0.68-0.513c-0.231-0.143-0.447-0.276-0.631-0.391c-0.365-0.238-0.629-0.358-0.629-0.358
								l-1.191,1.55c0,0,0.248,0.11,0.589,0.331c0.173,0.106,0.375,0.229,0.592,0.361c0.203,0.152,0.42,0.314,0.637,0.476
								c0.434,0.322,0.816,0.71,1.114,0.984C165.924,58.042,166.105,58.242,166.105,58.242z"/>
							<path d="M168.814,63.995l1.671-0.966c0,0-0.181-1.148-0.609-2.227c-0.387-1.095-1.008-2.081-1.008-2.081l-1.522,1.232
								c0,0,0.575,0.924,0.925,1.952C168.662,62.917,168.814,63.995,168.814,63.995z"/>
							<polygon points="168.976,70.434 170.716,69.934 170.693,65.279 168.976,66.105 							"/>
							<polygon points="168.976,76.882 170.752,76.868 170.728,72.212 168.976,72.553 							"/>
							<rect x="168.976" y="79.08" width="1.777" height="4.503"/>
							<rect x="168.976" y="85.785" width="1.777" height="4.502"/>
						</g>
					</g>
					<g>
						<g>
							<rect x="168.976" y="92.492" width="1.777" height="4.503"/>
							<rect x="168.976" y="99.199" width="1.777" height="4.503"/>
							<rect x="168.976" y="105.905" width="1.777" height="4.503"/>
							<rect x="168.976" y="112.613" width="1.777" height="4.503"/>
							<rect x="168.976" y="119.319" width="1.777" height="4.503"/>
							<rect x="168.976" y="126.027" width="1.777" height="4.503"/>
							<rect x="168.976" y="132.733" width="1.777" height="4.502"/>
						</g>
					</g>
					<g>
						<g>
							<rect x="168.976" y="139.44" width="1.777" height="4.504"/>
							<rect x="168.976" y="146.147" width="1.777" height="4.503"/>
							<rect x="168.976" y="152.854" width="1.777" height="4.504"/>
							<rect x="168.976" y="159.562" width="1.777" height="4.503"/>
							<rect x="168.976" y="166.268" width="1.777" height="4.503"/>
							<polygon points="168.976,177.371 170.738,177.573 170.753,172.976 168.976,172.976 							"/>
							<polygon points="168.976,183.818 170.703,184.505 170.727,179.851 168.976,179.489 							"/>
						</g>
					</g>
					<g>
						<g>
							<path d="M168.165,190.165l1.594,1.122c0,0,0.103-0.271,0.256-0.677c0.14-0.409,0.292-0.97,0.416-1.533
								c0.097-0.57,0.204-1.139,0.211-1.573c0.03-0.432,0.05-0.719,0.05-0.719l-1.716-0.847c0,0-0.014,0.27-0.034,0.675
								c0.001,0.408-0.091,0.942-0.174,1.477c-0.108,0.529-0.244,1.056-0.37,1.44C168.258,189.911,168.165,190.165,168.165,190.165z
								"/>
							<path d="M164.287,195.207l1.297,1.471c0,0,0.23-0.176,0.575-0.44c0.312-0.303,0.775-0.659,1.148-1.105
								c0.808-0.837,1.414-1.833,1.414-1.833l-1.51-1.247c0,0-0.56,0.934-1.314,1.714c-0.347,0.419-0.781,0.749-1.071,1.031
								C164.502,195.043,164.287,195.207,164.287,195.207z"/>
							<path d="M158.329,197.431l0.905,1.695c0,0,0.289-0.005,0.715-0.09c0.43-0.062,0.998-0.166,1.552-0.337
								c0.566-0.126,1.091-0.385,1.502-0.522c0.391-0.188,0.652-0.313,0.652-0.313l-1.176-1.56c0,0-0.245,0.114-0.612,0.287
								c-0.386,0.124-0.878,0.361-1.41,0.472C159.417,197.367,158.33,197.432,158.329,197.431z"/>
							<polygon points="151.882,197.476 152.31,199.222 156.965,199.198 156.21,197.476 							"/>
							<polygon points="145.403,197.476 145.403,199.253 150.032,199.233 149.763,197.476 							"/>
							<rect x="138.695" y="197.476" width="4.503" height="1.777"/>
							<rect x="131.99" y="197.476" width="4.502" height="1.777"/>
						</g>
					</g>
					<g>
						<g>
							<rect x="125.282" y="197.476" width="4.503" height="1.777"/>
							<rect x="118.575" y="197.476" width="4.503" height="1.777"/>
							<rect x="111.869" y="197.476" width="4.503" height="1.777"/>
							<rect x="105.161" y="197.476" width="4.502" height="1.777"/>
							<rect x="98.455" y="197.476" width="4.503" height="1.777"/>
							<rect x="91.747" y="197.476" width="4.503" height="1.777"/>
							<rect x="85.042" y="197.476" width="4.502" height="1.777"/>
						</g>
					</g>
					<g>
						<g>
							<rect x="78.333" y="197.476" width="4.503" height="1.777"/>
							<rect x="71.626" y="197.476" width="4.503" height="1.777"/>
							<rect x="64.92" y="197.476" width="4.503" height="1.777"/>
							<rect x="58.213" y="197.476" width="4.502" height="1.777"/>
							<rect x="51.506" y="197.476" width="4.503" height="1.777"/>
							<polygon points="44.867,197.476 44.738,199.243 49.302,199.253 49.302,197.476 							"/>
							<polygon points="38.42,197.476 37.806,199.208 42.461,199.231 42.75,197.476 							"/>
						</g>
					</g>
					<g>
						<g>
							<path d="M32.018,196.985l-1.063,1.626c0,0,1.109,0.342,2.258,0.489c1.146,0.112,2.313,0.096,2.313,0.096l0.774-1.721
								c0,0-1.083,0.018-2.163-0.063C33.059,197.292,32.018,196.984,32.018,196.985z"/>
							<path d="M26.672,193.535l-1.426,1.35c0,0,0.195,0.214,0.488,0.536c0.318,0.294,0.729,0.709,1.193,1.057
								c0.231,0.174,0.463,0.349,0.68,0.512c0.231,0.144,0.447,0.276,0.631,0.391c0.365,0.238,0.629,0.358,0.629,0.358l1.191-1.55
								c0,0-0.248-0.11-0.589-0.331c-0.173-0.105-0.375-0.229-0.592-0.36c-0.203-0.152-0.42-0.314-0.637-0.477
								c-0.434-0.322-0.816-0.711-1.114-0.984C26.854,193.735,26.672,193.535,26.672,193.535z"/>
							<path d="M23.963,187.782l-1.671,0.967c0,0,0.181,1.147,0.609,2.228c0.387,1.094,1.008,2.081,1.008,2.081l1.522-1.232
								c0,0-0.575-0.925-0.925-1.952C24.116,188.86,23.963,187.782,23.963,187.782z"/>
							<polygon points="23.802,181.343 22.061,181.844 22.084,186.499 23.802,185.672 							"/>
							<polygon points="23.802,174.895 22.025,174.909 22.049,179.565 23.802,179.225 							"/>
							<rect x="22.024" y="168.195" width="1.777" height="4.503"/>
							<rect x="22.024" y="161.489" width="1.777" height="4.503"/>
						</g>
					</g>
					<g>
						<g>
							<rect x="22.024" y="154.781" width="1.777" height="4.504"/>
							<rect x="22.024" y="148.075" width="1.777" height="4.503"/>
							<rect x="22.024" y="141.368" width="1.777" height="4.504"/>
							<rect x="22.024" y="134.661" width="1.777" height="4.503"/>
							<rect x="22.024" y="127.955" width="1.777" height="4.503"/>
							<rect x="22.024" y="121.247" width="1.777" height="4.503"/>
							<rect x="22.024" y="114.542" width="1.777" height="4.502"/>
						</g>
					</g>
					<g>
						<g>
							<rect x="22.024" y="107.833" width="1.777" height="4.503"/>
							<rect x="22.024" y="101.126" width="1.777" height="4.503"/>
							<rect x="22.024" y="94.42" width="1.777" height="4.503"/>
							<rect x="22.024" y="87.713" width="1.777" height="4.502"/>
							<rect x="22.024" y="81.006" width="1.777" height="4.503"/>
							<polygon points="23.802,74.406 22.039,74.205 22.024,78.802 23.802,78.802 							"/>
							<polygon points="23.802,67.959 22.075,67.272 22.051,71.927 23.802,72.288 							"/>
						</g>
					</g>
				</g>
			</g>
		</g>
		<g>
			<text transform="matrix(1 0 0 1 30.2729 87.7217)" font-family="'MyriadPro-Regular'" font-size="19.043">Availability Zone</text>
		</g>
		<g>
			
				<rect x="35.889" y="114.531" fill-rule="evenodd" clip-rule="evenodd" fill="#EF4136" stroke="#000000" stroke-width="2" stroke-miterlimit="10" width="121" height="56.781"/>
			
				<ellipse fill-rule="evenodd" clip-rule="evenodd" fill="#F48281" stroke="#000000" stroke-width="2" stroke-miterlimit="10" cx="96.389" cy="114.869" rx="60.5" ry="13.857"/>
			<path fill-rule="evenodd" clip-rule="evenodd" fill="#EF4136" stroke="#000000" stroke-width="2" stroke-miterlimit="10" d="
				M35.926,142.246c0,0,3.361,14.195,59.468,14.195s61.495-14.195,61.495-14.195"/>
			<path fill-rule="evenodd" clip-rule="evenodd" fill="#EF4136" stroke="#000000" stroke-width="2" stroke-miterlimit="10" d="
				M35.926,169.193c0,0,3.361,14.195,59.468,14.195s61.495-14.195,61.495-14.195"/>
		</g>
	</g>
	<g>
		<g>
			<path fill="#D2EAD6" d="M182.889,65.389c0-6.627,5.373-12,12-12h123c6.627,0,12,5.373,12,12v121c0,6.627-5.373,12-12,12h-123
				c-6.627,0-12-5.373-12-12V65.389z"/>
			<g>
				<g>
					<g>
						<g>
							<path d="M184.612,61.612l-1.594-1.122c0,0-0.103,0.271-0.256,0.677c-0.14,0.41-0.293,0.971-0.416,1.534
								c-0.097,0.569-0.203,1.138-0.211,1.572c-0.03,0.432-0.05,0.72-0.05,0.72l1.716,0.847c0,0,0.014-0.271,0.034-0.676
								c-0.001-0.408,0.091-0.941,0.174-1.477c0.107-0.529,0.244-1.055,0.37-1.44C184.52,61.866,184.612,61.612,184.612,61.612z"/>
							<path d="M188.49,56.57l-1.297-1.471c0,0-0.23,0.177-0.575,0.441c-0.312,0.303-0.775,0.658-1.147,1.105
								c-0.808,0.837-1.414,1.833-1.414,1.833l1.511,1.248c0,0,0.56-0.934,1.314-1.715c0.346-0.418,0.78-0.748,1.071-1.031
								C188.275,56.734,188.49,56.57,188.49,56.57z"/>
							<path d="M194.448,54.347l-0.904-1.695c0,0-0.29,0.005-0.716,0.09c-0.43,0.062-0.998,0.166-1.552,0.337
								c-0.566,0.125-1.091,0.384-1.502,0.521c-0.392,0.188-0.653,0.313-0.653,0.313l1.176,1.561c0,0,0.245-0.115,0.612-0.288
								c0.386-0.124,0.878-0.361,1.41-0.471C193.36,54.41,194.448,54.346,194.448,54.347z"/>
							<polygon points="200.896,54.302 200.468,52.556 195.813,52.58 196.566,54.302 							"/>
							<polygon points="207.375,54.302 207.375,52.524 202.746,52.544 203.014,54.302 							"/>
							<rect x="209.579" y="52.524" width="4.503" height="1.777"/>
							<rect x="216.285" y="52.524" width="4.503" height="1.777"/>
						</g>
					</g>
					<g>
						<g>
							<rect x="222.992" y="52.524" width="4.504" height="1.777"/>
							<rect x="229.699" y="52.524" width="4.503" height="1.777"/>
							<rect x="236.405" y="52.524" width="4.504" height="1.777"/>
							<rect x="243.113" y="52.524" width="4.503" height="1.777"/>
							<rect x="249.819" y="52.524" width="4.503" height="1.777"/>
							<rect x="256.527" y="52.524" width="4.503" height="1.777"/>
							<rect x="263.233" y="52.524" width="4.502" height="1.777"/>
						</g>
					</g>
					<g>
						<g>
							<rect x="269.94" y="52.524" width="4.504" height="1.777"/>
							<rect x="276.647" y="52.524" width="4.503" height="1.777"/>
							<rect x="283.354" y="52.524" width="4.504" height="1.777"/>
							<rect x="290.062" y="52.524" width="4.503" height="1.777"/>
							<rect x="296.768" y="52.524" width="4.503" height="1.777"/>
							<polygon points="307.91,54.302 308.039,52.534 303.476,52.524 303.476,54.302 							"/>
							<polygon points="314.356,54.302 314.972,52.569 310.316,52.545 310.028,54.302 							"/>
						</g>
					</g>
					<g>
						<g>
							<path d="M320.76,54.792l1.063-1.627c0,0-1.109-0.341-2.258-0.489c-1.146-0.112-2.313-0.095-2.313-0.095l-0.774,1.721
								c0,0,1.083-0.017,2.163,0.063C319.719,54.486,320.759,54.792,320.76,54.792z"/>
							<path d="M326.105,58.242l1.426-1.35c0,0-0.195-0.214-0.488-0.536c-0.318-0.294-0.729-0.709-1.192-1.056
								c-0.231-0.175-0.463-0.349-0.68-0.513c-0.231-0.143-0.447-0.276-0.632-0.391c-0.365-0.238-0.629-0.358-0.629-0.358
								l-1.191,1.55c0,0,0.247,0.11,0.589,0.331c0.174,0.106,0.376,0.229,0.592,0.361c0.203,0.152,0.42,0.314,0.637,0.476
								c0.435,0.322,0.816,0.71,1.114,0.984C325.924,58.042,326.105,58.242,326.105,58.242z"/>
							<path d="M328.814,63.995l1.671-0.966c0,0-0.181-1.148-0.608-2.227c-0.387-1.095-1.008-2.081-1.008-2.081l-1.521,1.232
								c0,0,0.575,0.924,0.925,1.952C328.662,62.917,328.814,63.995,328.814,63.995z"/>
							<polygon points="328.976,70.434 330.717,69.934 330.692,65.279 328.976,66.105 							"/>
							<polygon points="328.976,76.882 330.752,76.868 330.729,72.212 328.976,72.553 							"/>
							<rect x="328.976" y="79.08" width="1.777" height="4.503"/>
							<rect x="328.976" y="85.785" width="1.777" height="4.502"/>
						</g>
					</g>
					<g>
						<g>
							<rect x="328.976" y="92.492" width="1.777" height="4.503"/>
							<rect x="328.976" y="99.199" width="1.777" height="4.503"/>
							<rect x="328.976" y="105.905" width="1.777" height="4.503"/>
							<rect x="328.976" y="112.613" width="1.777" height="4.503"/>
							<rect x="328.976" y="119.319" width="1.777" height="4.503"/>
							<rect x="328.976" y="126.027" width="1.777" height="4.503"/>
							<rect x="328.976" y="132.733" width="1.777" height="4.502"/>
						</g>
					</g>
					<g>
						<g>
							<rect x="328.976" y="139.44" width="1.777" height="4.504"/>
							<rect x="328.976" y="146.147" width="1.777" height="4.503"/>
							<rect x="328.976" y="152.854" width="1.777" height="4.504"/>
							<rect x="328.976" y="159.562" width="1.777" height="4.503"/>
							<rect x="328.976" y="166.268" width="1.777" height="4.503"/>
							<polygon points="328.976,177.371 330.738,177.573 330.753,172.976 328.976,172.976 							"/>
							<polygon points="328.976,183.818 330.703,184.505 330.727,179.851 328.976,179.489 							"/>
						</g>
					</g>
					<g>
						<g>
							<path d="M328.165,190.165l1.594,1.122c0,0,0.103-0.271,0.256-0.677c0.14-0.409,0.293-0.97,0.416-1.533
								c0.097-0.57,0.203-1.139,0.211-1.573c0.03-0.432,0.05-0.719,0.05-0.719l-1.716-0.847c0,0-0.014,0.27-0.034,0.675
								c0.001,0.408-0.091,0.942-0.174,1.477c-0.107,0.529-0.244,1.056-0.37,1.44C328.258,189.911,328.165,190.165,328.165,190.165z
								"/>
							<path d="M324.287,195.207l1.297,1.471c0,0,0.23-0.176,0.575-0.44c0.312-0.303,0.775-0.659,1.147-1.105
								c0.808-0.837,1.414-1.833,1.414-1.833l-1.511-1.247c0,0-0.56,0.934-1.314,1.714c-0.346,0.419-0.78,0.749-1.071,1.031
								C324.502,195.043,324.287,195.207,324.287,195.207z"/>
							<path d="M318.329,197.431l0.904,1.695c0,0,0.29-0.005,0.716-0.09c0.43-0.062,0.998-0.166,1.552-0.337
								c0.566-0.126,1.091-0.385,1.502-0.522c0.392-0.188,0.653-0.313,0.653-0.313l-1.176-1.56c0,0-0.245,0.114-0.612,0.287
								c-0.386,0.124-0.878,0.361-1.41,0.472C319.417,197.367,318.329,197.432,318.329,197.431z"/>
							<polygon points="311.882,197.476 312.31,199.222 316.965,199.198 316.211,197.476 							"/>
							<polygon points="305.402,197.476 305.402,199.253 310.031,199.233 309.764,197.476 							"/>
							<rect x="298.695" y="197.476" width="4.503" height="1.777"/>
							<rect x="291.989" y="197.476" width="4.503" height="1.777"/>
						</g>
					</g>
					<g>
						<g>
							<rect x="285.281" y="197.476" width="4.504" height="1.777"/>
							<rect x="278.575" y="197.476" width="4.503" height="1.777"/>
							<rect x="271.868" y="197.476" width="4.504" height="1.777"/>
							<rect x="265.161" y="197.476" width="4.503" height="1.777"/>
							<rect x="258.455" y="197.476" width="4.503" height="1.777"/>
							<rect x="251.747" y="197.476" width="4.503" height="1.777"/>
							<rect x="245.042" y="197.476" width="4.502" height="1.777"/>
						</g>
					</g>
					<g>
						<g>
							<rect x="238.333" y="197.476" width="4.504" height="1.777"/>
							<rect x="231.627" y="197.476" width="4.503" height="1.777"/>
							<rect x="224.92" y="197.476" width="4.504" height="1.777"/>
							<rect x="218.213" y="197.476" width="4.503" height="1.777"/>
							<rect x="211.507" y="197.476" width="4.503" height="1.777"/>
							<polygon points="204.867,197.476 204.738,199.243 209.302,199.253 209.302,197.476 							"/>
							<polygon points="198.421,197.476 197.806,199.208 202.461,199.231 202.749,197.476 							"/>
						</g>
					</g>
					<g>
						<g>
							<path d="M192.018,196.985l-1.063,1.626c0,0,1.109,0.342,2.258,0.489c1.146,0.112,2.313,0.096,2.313,0.096l0.774-1.721
								c0,0-1.083,0.018-2.163-0.063C193.059,197.292,192.019,196.984,192.018,196.985z"/>
							<path d="M186.672,193.535l-1.426,1.35c0,0,0.195,0.214,0.488,0.536c0.318,0.294,0.729,0.709,1.192,1.057
								c0.231,0.174,0.463,0.349,0.68,0.512c0.231,0.144,0.447,0.276,0.632,0.391c0.365,0.238,0.629,0.358,0.629,0.358l1.191-1.55
								c0,0-0.247-0.11-0.589-0.331c-0.174-0.105-0.376-0.229-0.592-0.36c-0.203-0.152-0.42-0.314-0.637-0.477
								c-0.435-0.322-0.816-0.711-1.114-0.984C186.854,193.735,186.672,193.535,186.672,193.535z"/>
							<path d="M183.963,187.782l-1.671,0.967c0,0,0.181,1.147,0.608,2.228c0.387,1.094,1.008,2.081,1.008,2.081l1.521-1.232
								c0,0-0.575-0.925-0.925-1.952C184.115,188.86,183.963,187.782,183.963,187.782z"/>
							<polygon points="183.802,181.343 182.061,181.844 182.085,186.499 183.802,185.672 							"/>
							<polygon points="183.802,174.895 182.025,174.909 182.049,179.565 183.802,179.225 							"/>
							<rect x="182.024" y="168.195" width="1.777" height="4.503"/>
							<rect x="182.024" y="161.489" width="1.777" height="4.503"/>
						</g>
					</g>
					<g>
						<g>
							<rect x="182.024" y="154.781" width="1.777" height="4.504"/>
							<rect x="182.024" y="148.075" width="1.777" height="4.503"/>
							<rect x="182.024" y="141.368" width="1.777" height="4.504"/>
							<rect x="182.024" y="134.661" width="1.777" height="4.503"/>
							<rect x="182.024" y="127.955" width="1.777" height="4.503"/>
							<rect x="182.024" y="121.247" width="1.777" height="4.503"/>
							<rect x="182.024" y="114.542" width="1.777" height="4.502"/>
						</g>
					</g>
					<g>
						<g>
							<rect x="182.024" y="107.833" width="1.777" height="4.503"/>
							<rect x="182.024" y="101.126" width="1.777" height="4.503"/>
							<rect x="182.024" y="94.42" width="1.777" height="4.503"/>
							<rect x="182.024" y="87.713" width="1.777" height="4.502"/>
							<rect x="182.024" y="81.006" width="1.777" height="4.503"/>
							<polygon points="183.802,74.406 182.039,74.205 182.024,78.802 183.802,78.802 							"/>
							<polygon points="183.802,67.959 182.074,67.272 182.051,71.927 183.802,72.288 							"/>
						</g>
					</g>
				</g>
			</g>
		</g>
		<g>
			<text transform="matrix(1 0 0 1 190.2734 87.7217)" font-family="'MyriadPro-Regular'" font-size="19.043">Availability Zone</text>
		</g>
		<g>
			
				<rect x="195.889" y="114.531" fill-rule="evenodd" clip-rule="evenodd" fill="#EF4136" stroke="#000000" stroke-width="2" stroke-miterlimit="10" width="121" height="56.781"/>
			
				<ellipse fill-rule="evenodd" clip-rule="evenodd" fill="#F48281" stroke="#000000" stroke-width="2" stroke-miterlimit="10" cx="256.389" cy="114.869" rx="60.5" ry="13.857"/>
			<path fill-rule="evenodd" clip-rule="evenodd" fill="#EF4136" stroke="#000000" stroke-width="2" stroke-miterlimit="10" d="
				M195.926,142.246c0,0,3.361,14.195,59.468,14.195s61.495-14.195,61.495-14.195"/>
			<path fill-rule="evenodd" clip-rule="evenodd" fill="#EF4136" stroke="#000000" stroke-width="2" stroke-miterlimit="10" d="
				M195.926,169.193c0,0,3.361,14.195,59.468,14.195s61.495-14.195,61.495-14.195"/>
		</g>
	</g>
</g>
</svg>
