<?xml version="1.0" encoding="utf-8"?>
<!-- Generator: Adobe Illustrator 16.0.0, SVG Export Plug-In . SVG Version: 6.00 Build 0)  -->
<!DOCTYPE svg PUBLIC "-//W3C//DTD SVG 1.1//EN" "http://www.w3.org/Graphics/SVG/1.1/DTD/svg11.dtd">
<svg version="1.1" id="Layer_1" xmlns="http://www.w3.org/2000/svg" xmlns:xlink="http://www.w3.org/1999/xlink" x="0px" y="0px"
	 width="834.444px" height="420px" viewBox="0 0 834.444 420" enable-background="new 0 0 834.444 420" xml:space="preserve">
<g>
	<text transform="matrix(1 0 0 1 260 53)" font-family="'MyriadPro-Bold'" font-size="28.3708">Amazon Web Services AWS</text>
</g>
<path fill="#05BCE7" stroke="#000000" stroke-width="2" stroke-miterlimit="10" d="M607,380c0,6.627-5.372,12-12,12H246
	c-6.627,0-12-5.373-12-12V146c0-6.627,5.373-12,12-12h349c6.628,0,12,5.373,12,12V380z"/>
<g>
	<text transform="matrix(1 0 0 1 321 123)"><tspan x="0" y="0" font-family="'MyriadPro-Bold'" font-size="21.3119">Region  </tspan><tspan x="75.592" y="0" font-family="'MyriadPro-Regular'" font-size="21.3119">(North Virgina)</tspan></text>
</g>
<g>
	<g>
		<path fill="#D2EAD6" d="M416,368c0,6.627-5.373,12-12,12H255c-6.627,0-12-5.373-12-12v-81c0-6.627,5.373-12,12-12h149
			c6.627,0,12,5.373,12,12V368z"/>
		<g>
			<g>
				<g>
					<g>
						<path d="M414.222,371.926l1.588,1.132c0,0,0.466-1.11,0.718-2.286c0.097-0.591,0.217-1.18,0.224-1.629
							c0.031-0.448,0.051-0.746,0.051-0.746l-1.716-0.847c0,0-0.014,0.28-0.035,0.7c0.001,0.423-0.103,0.976-0.185,1.53
							C414.647,370.884,414.222,371.926,414.222,371.926z"/>
						<path d="M410.082,377.056l1.275,1.488c0,0,0.99-0.689,1.833-1.551c0.409-0.441,0.814-0.885,1.07-1.258
							c0.136-0.181,0.249-0.331,0.328-0.436c0.071-0.11,0.111-0.174,0.111-0.174l-1.5-1.261c0,0-0.037,0.059-0.103,0.163
							c-0.074,0.098-0.179,0.238-0.305,0.407c-0.236,0.35-0.615,0.764-0.996,1.176C411.008,376.415,410.081,377.055,410.082,377.056
							z"/>
						<path d="M403.809,379.074l0.864,1.709c0,0,1.199-0.042,2.369-0.318c1.171-0.271,2.271-0.766,2.271-0.767l-1.147-1.578
							c0,0.001-1.032,0.453-2.131,0.691C404.936,379.055,403.809,379.073,403.809,379.074z"/>
						<polygon points="397.125,379.087 397.487,380.838 402.313,380.813 401.612,379.087 						"/>
						<polygon points="390.364,379.087 390.364,380.864 395.125,380.85 394.928,379.087 						"/>
						<rect x="383.411" y="379.087" width="4.668" height="1.777"/>
						<rect x="376.459" y="379.087" width="4.667" height="1.777"/>
					</g>
				</g>
				<g>
					<g>
						<rect x="369.505" y="379.087" width="4.669" height="1.777"/>
						<rect x="362.552" y="379.087" width="4.668" height="1.777"/>
						<rect x="355.6" y="379.087" width="4.668" height="1.777"/>
						<rect x="348.646" y="379.087" width="4.668" height="1.777"/>
						<rect x="341.694" y="379.087" width="4.668" height="1.777"/>
						<rect x="334.74" y="379.087" width="4.668" height="1.777"/>
						<rect x="327.789" y="379.087" width="4.668" height="1.777"/>
					</g>
				</g>
				<g>
					<g>
						<rect x="320.834" y="379.087" width="4.668" height="1.777"/>
						<rect x="313.881" y="379.087" width="4.669" height="1.777"/>
						<rect x="306.929" y="379.087" width="4.668" height="1.777"/>
						<rect x="299.976" y="379.087" width="4.667" height="1.777"/>
						<rect x="293.023" y="379.087" width="4.669" height="1.777"/>
						<rect x="286.069" y="379.087" width="4.668" height="1.777"/>
						<rect x="279.118" y="379.087" width="4.667" height="1.777"/>
					</g>
				</g>
				<g>
					<g>
						<rect x="272.164" y="379.087" width="4.669" height="1.777"/>
						<polygon points="265.268,379.087 265.161,380.856 269.879,380.864 269.879,379.087 						"/>
						<polygon points="258.583,379.087 257.973,380.819 262.8,380.845 263.072,379.087 						"/>
						<path d="M251.953,378.544l-1.074,1.621c0,0,1.145,0.375,2.334,0.528c1.186,0.137,2.396,0.114,2.396,0.114l0.776-1.721
							c0,0-1.124,0.024-2.241-0.079C253.027,378.883,251.953,378.544,251.953,378.544z"/>
						<path d="M246.505,374.831l-1.446,1.327c0,0,0.769,0.93,1.689,1.707c0.929,0.768,1.979,1.359,1.979,1.359l1.207-1.54
							c0,0-0.984-0.546-1.854-1.26C247.222,375.699,246.505,374.831,246.505,374.831z"/>
						<path d="M243.975,368.743l-1.688,0.924c0,0,0.05,0.296,0.125,0.738c0.051,0.448,0.235,1.021,0.386,1.602
							c0.375,1.143,0.946,2.203,0.946,2.203l1.542-1.203c0,0-0.527-0.994-0.864-2.067c-0.134-0.545-0.3-1.083-0.341-1.503
							C244.017,369.021,243.975,368.743,243.975,368.743z"/>
						<polygon points="243.913,362.062 242.167,362.494 242.192,367.32 243.913,366.549 						"/>
					</g>
				</g>
				<g>
					<g>
						<polygon points="243.913,355.338 242.136,355.338 242.155,360.131 243.913,359.863 						"/>
						<rect x="242.136" y="348.385" width="1.777" height="4.668"/>
						<rect x="242.136" y="341.433" width="1.777" height="4.668"/>
						<rect x="242.136" y="334.479" width="1.777" height="4.668"/>
						<rect x="242.136" y="327.526" width="1.777" height="4.668"/>
						<rect x="242.136" y="320.572" width="1.777" height="4.668"/>
						<rect x="242.136" y="313.621" width="1.777" height="4.668"/>
					</g>
				</g>
				<g>
					<g>
						<rect x="242.136" y="306.667" width="1.777" height="4.668"/>
						<rect x="242.136" y="299.714" width="1.777" height="4.669"/>
						<polygon points="243.913,292.99 242.167,292.561 242.143,297.388 243.913,297.479 						"/>
						<path d="M243.971,286.307l-1.689-0.922c0,0-0.115,1.188-0.09,2.4c-0.006,1.206-0.012,2.412-0.012,2.412l1.734,0.596
							c0,0,0-1.122,0-2.244C243.89,287.426,243.971,286.307,243.971,286.307z"/>
						<path d="M246.475,280.209l-1.448-1.324c0,0-0.761,0.937-1.33,1.998c-0.27,0.537-0.536,1.076-0.676,1.505
							c-0.08,0.211-0.146,0.386-0.193,0.509c-0.045,0.123-0.059,0.197-0.059,0.197l1.627,1.062c0,0,0.078-0.27,0.228-0.663
							c0.126-0.403,0.37-0.908,0.619-1.412C245.768,281.085,246.476,280.209,246.475,280.209z"/>
						<path d="M251.907,276.473l-1.078-1.619c0,0.001-1.141,0.385-2.19,0.977c-0.514,0.313-1.028,0.623-1.376,0.912
							c-0.364,0.267-0.591,0.463-0.591,0.463l1.338,1.436c0,0,0.213-0.183,0.553-0.43c0.326-0.27,0.808-0.557,1.289-0.845
							C250.835,276.82,251.907,276.474,251.907,276.473z"/>
						<path d="M258.532,275.913l-0.614-1.732c0,0-1.207,0.006-2.413,0.013c-0.605-0.009-1.205,0.013-1.65,0.056
							c-0.449,0.019-0.744,0.075-0.744,0.074l0.938,1.684c0,0,0.276-0.048,0.698-0.059c0.42-0.03,0.98-0.044,1.542-0.035
							C257.41,275.913,258.532,275.913,258.532,275.913z"/>
					</g>
				</g>
				<g>
					<g>
						<polygon points="265.219,275.913 265.108,274.144 260.281,274.168 260.73,275.913 						"/>
						<rect x="267.444" y="274.136" width="4.668" height="1.777"/>
						<rect x="274.396" y="274.136" width="4.668" height="1.777"/>
						<rect x="281.351" y="274.136" width="4.667" height="1.777"/>
						<rect x="288.302" y="274.136" width="4.668" height="1.777"/>
						<rect x="295.256" y="274.136" width="4.668" height="1.777"/>
						<rect x="302.208" y="274.136" width="4.667" height="1.777"/>
					</g>
				</g>
				<g>
					<g>
						<rect x="309.162" y="274.136" width="4.668" height="1.777"/>
						<rect x="316.114" y="274.136" width="4.669" height="1.777"/>
						<rect x="323.067" y="274.136" width="4.668" height="1.777"/>
						<rect x="330.021" y="274.136" width="4.667" height="1.777"/>
						<rect x="336.973" y="274.136" width="4.669" height="1.777"/>
						<rect x="343.927" y="274.136" width="4.668" height="1.777"/>
						<rect x="350.879" y="274.136" width="4.668" height="1.777"/>
					</g>
				</g>
				<g>
					<g>
						<rect x="357.833" y="274.136" width="4.668" height="1.777"/>
						<rect x="364.785" y="274.136" width="4.668" height="1.777"/>
						<rect x="371.737" y="274.136" width="4.669" height="1.777"/>
						<rect x="378.692" y="274.136" width="4.667" height="1.777"/>
						<rect x="385.644" y="274.136" width="4.668" height="1.777"/>
						<polygon points="397.075,275.913 397.434,274.162 392.607,274.138 392.587,275.913 						"/>
						<path d="M403.758,275.924l0.86-1.711c0,0-0.298-0.023-0.751-0.019c-0.453-0.002-1.056-0.005-1.659-0.008
							c-1.207-0.007-2.413-0.013-2.413-0.013l-0.524,1.739c0,0,1.122,0,2.244,0c0.561,0,1.122,0,1.542,0
							C403.478,275.907,403.758,275.924,403.758,275.924z"/>
					</g>
				</g>
				<g>
					<g>
						<path d="M410.042,277.915l1.273-1.491c0,0-0.997-0.679-2.097-1.169c-1.105-0.477-2.277-0.747-2.277-0.747l-1.002,1.656
							c0,0,1.1,0.237,2.138,0.674C409.108,277.286,410.042,277.915,410.042,277.915z"/>
						<path d="M414.205,283.027l1.586-1.135c0,0-0.478-1.105-1.147-2.107c-0.679-0.995-1.524-1.855-1.524-1.855l-1.391,1.387
							c0,0,0.79,0.803,1.419,1.735C413.768,281.99,414.205,283.027,414.205,283.027z"/>
						<path d="M415.087,289.597l1.728-0.685c0,0-0.01-1.206-0.019-2.412c-0.045-0.597-0.062-1.196-0.161-1.637
							c-0.075-0.442-0.125-0.738-0.125-0.738l-1.658,0.998c0,0,0.042,0.277,0.106,0.693c0.087,0.414,0.091,0.977,0.124,1.536
							C415.084,288.475,415.087,289.597,415.087,289.597z"/>
						<polygon points="415.087,296.282 416.851,296.101 416.826,291.275 415.087,291.795 						"/>
						<polygon points="415.087,303.139 416.864,303.139 416.863,298.462 415.087,298.479 						"/>
						<rect x="415.087" y="305.424" width="1.777" height="4.669"/>
						<rect x="415.087" y="312.376" width="1.777" height="4.668"/>
					</g>
				</g>
				<g>
					<g>
						<rect x="415.087" y="319.329" width="1.777" height="4.669"/>
						<rect x="415.087" y="326.282" width="1.777" height="4.669"/>
						<rect x="415.087" y="333.234" width="1.777" height="4.669"/>
						<rect x="415.087" y="340.188" width="1.777" height="4.668"/>
						<rect x="415.087" y="347.141" width="1.777" height="4.669"/>
						<polygon points="415.087,358.668 416.852,358.846 416.864,354.095 415.087,354.095 						"/>
						<polygon points="415.087,365.352 416.814,366.033 416.839,361.207 415.087,360.864 						"/>
					</g>
				</g>
			</g>
		</g>
	</g>
	<path fill="#42489D" stroke="#000000" stroke-width="2" stroke-miterlimit="10" d="M318.717,348.854
		c0,9.811-7.955,17.766-17.766,17.766h-31.088c-9.813,0-17.766-7.955-17.766-17.766v-31.088c0-9.811,7.953-17.766,17.766-17.766
		h31.088c9.811,0,17.766,7.955,17.766,17.766V348.854z"/>
	<g>
		<text transform="matrix(1 0 0 1 263.3843 294)" font-family="'MyriadPro-Regular'" font-size="19.043">AZ (C)</text>
	</g>
	<g>
		
			<rect x="325.098" y="316.051" fill-rule="evenodd" clip-rule="evenodd" fill="#EF4136" stroke="#000000" stroke-width="2" stroke-miterlimit="10" width="81" height="38.01"/>
		
			<ellipse fill-rule="evenodd" clip-rule="evenodd" fill="#F48281" stroke="#000000" stroke-width="2" stroke-miterlimit="10" cx="365.598" cy="316.276" rx="40.5" ry="9.276"/>
		<path fill-rule="evenodd" clip-rule="evenodd" fill="#EF4136" stroke="#000000" stroke-width="2" stroke-miterlimit="10" d="
			M325.123,334.604c0,0,2.25,9.502,39.809,9.502c37.559,0,41.166-9.502,41.166-9.502"/>
		<path fill-rule="evenodd" clip-rule="evenodd" fill="#EF4136" stroke="#000000" stroke-width="2" stroke-miterlimit="10" d="
			M325.123,352.643c0,0,2.25,9.502,39.809,9.502c37.559,0,41.166-9.502,41.166-9.502"/>
	</g>
</g>
<g>
	<g>
		<path fill="#D2EAD6" d="M599.098,368c0,6.627-5.373,12-12,12h-149c-6.627,0-12-5.373-12-12v-81c0-6.627,5.373-12,12-12h149
			c6.627,0,12,5.373,12,12V368z"/>
		<g>
			<g>
				<g>
					<g>
						<path d="M597.319,371.926l1.588,1.132c0,0,0.467-1.11,0.718-2.286c0.097-0.591,0.217-1.18,0.224-1.629
							c0.031-0.448,0.052-0.746,0.052-0.746l-1.716-0.847c0,0-0.014,0.28-0.035,0.7c0.001,0.423-0.103,0.976-0.185,1.53
							C597.745,370.884,597.319,371.926,597.319,371.926z"/>
						<path d="M593.179,377.056l1.276,1.488c-0.001,0,0.989-0.689,1.833-1.551c0.408-0.441,0.813-0.885,1.069-1.258
							c0.136-0.181,0.249-0.331,0.328-0.436c0.07-0.11,0.11-0.174,0.11-0.174l-1.5-1.261c0,0-0.037,0.059-0.103,0.163
							c-0.074,0.098-0.179,0.238-0.305,0.407c-0.236,0.35-0.615,0.764-0.996,1.176C594.105,376.415,593.179,377.055,593.179,377.056
							z"/>
						<path d="M586.907,379.074l0.863,1.709c0,0,1.199-0.042,2.369-0.318c1.171-0.271,2.271-0.766,2.271-0.767l-1.147-1.578
							c0,0.001-1.032,0.453-2.131,0.691C588.033,379.055,586.907,379.073,586.907,379.074z"/>
						<polygon points="580.222,379.087 580.585,380.838 585.41,380.813 584.71,379.087 						"/>
						<polygon points="573.462,379.087 573.462,380.864 578.223,380.85 578.025,379.087 						"/>
						<rect x="566.509" y="379.087" width="4.668" height="1.777"/>
						<rect x="559.557" y="379.087" width="4.668" height="1.777"/>
					</g>
				</g>
				<g>
					<g>
						<rect x="552.603" y="379.087" width="4.669" height="1.777"/>
						<rect x="545.649" y="379.087" width="4.669" height="1.777"/>
						<rect x="538.697" y="379.087" width="4.669" height="1.777"/>
						<rect x="531.744" y="379.087" width="4.668" height="1.777"/>
						<rect x="524.791" y="379.087" width="4.669" height="1.777"/>
						<rect x="517.838" y="379.087" width="4.668" height="1.777"/>
						<rect x="510.887" y="379.087" width="4.667" height="1.777"/>
					</g>
				</g>
				<g>
					<g>
						<rect x="503.932" y="379.087" width="4.669" height="1.777"/>
						<rect x="496.979" y="379.087" width="4.668" height="1.777"/>
						<rect x="490.027" y="379.087" width="4.668" height="1.777"/>
						<rect x="483.073" y="379.087" width="4.668" height="1.777"/>
						<rect x="476.121" y="379.087" width="4.668" height="1.777"/>
						<rect x="469.167" y="379.087" width="4.668" height="1.777"/>
						<rect x="462.216" y="379.087" width="4.668" height="1.777"/>
					</g>
				</g>
				<g>
					<g>
						<rect x="455.262" y="379.087" width="4.668" height="1.777"/>
						<polygon points="448.365,379.087 448.259,380.856 452.978,380.864 452.978,379.087 						"/>
						<polygon points="441.682,379.087 441.07,380.819 445.897,380.845 446.17,379.087 						"/>
						<path d="M435.051,378.544l-1.074,1.621c0,0,1.145,0.375,2.335,0.528c1.186,0.137,2.396,0.114,2.396,0.114l0.776-1.721
							c0,0-1.123,0.024-2.24-0.079C436.125,378.883,435.051,378.544,435.051,378.544z"/>
						<path d="M429.603,374.831l-1.445,1.327c0,0,0.769,0.93,1.689,1.707c0.929,0.768,1.979,1.359,1.979,1.359l1.207-1.54
							c0,0-0.984-0.546-1.854-1.26C430.319,375.699,429.603,374.831,429.603,374.831z"/>
						<path d="M427.072,368.743l-1.688,0.924c0,0,0.05,0.296,0.124,0.738c0.051,0.448,0.235,1.021,0.387,1.602
							c0.374,1.143,0.946,2.203,0.946,2.203l1.542-1.203c0.001,0-0.526-0.994-0.864-2.067c-0.134-0.545-0.3-1.083-0.34-1.503
							C427.114,369.021,427.072,368.743,427.072,368.743z"/>
						<polygon points="427.011,362.062 425.265,362.494 425.29,367.32 427.011,366.549 						"/>
					</g>
				</g>
				<g>
					<g>
						<polygon points="427.011,355.338 425.233,355.338 425.253,360.131 427.011,359.863 						"/>
						<rect x="425.233" y="348.385" width="1.777" height="4.668"/>
						<rect x="425.233" y="341.433" width="1.777" height="4.668"/>
						<rect x="425.233" y="334.479" width="1.777" height="4.668"/>
						<rect x="425.233" y="327.526" width="1.777" height="4.668"/>
						<rect x="425.233" y="320.572" width="1.777" height="4.668"/>
						<rect x="425.233" y="313.621" width="1.777" height="4.668"/>
					</g>
				</g>
				<g>
					<g>
						<rect x="425.233" y="306.667" width="1.777" height="4.668"/>
						<rect x="425.233" y="299.714" width="1.777" height="4.669"/>
						<polygon points="427.011,292.99 425.265,292.561 425.24,297.388 427.011,297.479 						"/>
						<path d="M427.068,286.307l-1.689-0.922c0,0-0.115,1.188-0.09,2.4c-0.006,1.206-0.013,2.412-0.013,2.412l1.734,0.596
							c0,0,0-1.122,0-2.244C426.987,287.426,427.068,286.307,427.068,286.307z"/>
						<path d="M429.573,280.209l-1.448-1.324c0,0-0.762,0.937-1.33,1.998c-0.271,0.537-0.536,1.076-0.676,1.505
							c-0.08,0.211-0.146,0.386-0.192,0.509c-0.045,0.123-0.06,0.197-0.06,0.197l1.628,1.062c0,0,0.077-0.27,0.228-0.663
							c0.126-0.403,0.37-0.908,0.618-1.412C428.865,281.085,429.573,280.209,429.573,280.209z"/>
						<path d="M435.005,276.473l-1.077-1.619c0,0.001-1.142,0.385-2.19,0.977c-0.514,0.313-1.028,0.623-1.377,0.912
							c-0.363,0.267-0.591,0.463-0.591,0.463l1.338,1.436c0,0,0.213-0.183,0.553-0.43c0.326-0.27,0.809-0.557,1.29-0.845
							C433.934,276.82,435.005,276.474,435.005,276.473z"/>
						<path d="M441.63,275.913l-0.614-1.732c0,0-1.207,0.006-2.413,0.013c-0.605-0.009-1.205,0.013-1.65,0.056
							c-0.449,0.019-0.743,0.075-0.744,0.074l0.938,1.684c0,0,0.276-0.048,0.698-0.059c0.42-0.03,0.98-0.044,1.541-0.035
							C440.508,275.913,441.63,275.913,441.63,275.913z"/>
					</g>
				</g>
				<g>
					<g>
						<polygon points="448.316,275.913 448.205,274.144 443.379,274.168 443.827,275.913 						"/>
						<rect x="450.541" y="274.136" width="4.669" height="1.777"/>
						<rect x="457.494" y="274.136" width="4.668" height="1.777"/>
						<rect x="464.448" y="274.136" width="4.667" height="1.777"/>
						<rect x="471.399" y="274.136" width="4.669" height="1.777"/>
						<rect x="478.354" y="274.136" width="4.668" height="1.777"/>
						<rect x="485.306" y="274.136" width="4.668" height="1.777"/>
					</g>
				</g>
				<g>
					<g>
						<rect x="492.259" y="274.136" width="4.669" height="1.777"/>
						<rect x="499.212" y="274.136" width="4.669" height="1.777"/>
						<rect x="506.164" y="274.136" width="4.669" height="1.777"/>
						<rect x="513.119" y="274.136" width="4.667" height="1.777"/>
						<rect x="520.07" y="274.136" width="4.669" height="1.777"/>
						<rect x="527.024" y="274.136" width="4.669" height="1.777"/>
						<rect x="533.977" y="274.136" width="4.668" height="1.777"/>
					</g>
				</g>
				<g>
					<g>
						<rect x="540.93" y="274.136" width="4.669" height="1.777"/>
						<rect x="547.883" y="274.136" width="4.669" height="1.777"/>
						<rect x="554.835" y="274.136" width="4.669" height="1.777"/>
						<rect x="561.789" y="274.136" width="4.668" height="1.777"/>
						<rect x="568.741" y="274.136" width="4.669" height="1.777"/>
						<polygon points="580.173,275.913 580.531,274.162 575.705,274.138 575.685,275.913 						"/>
						<path d="M586.855,275.924l0.86-1.711c0,0-0.298-0.023-0.751-0.019c-0.453-0.002-1.056-0.005-1.659-0.008
							c-1.207-0.007-2.413-0.013-2.413-0.013l-0.524,1.739c0,0,1.122,0,2.244,0c0.561,0,1.122,0,1.543,0
							C586.576,275.907,586.855,275.924,586.855,275.924z"/>
					</g>
				</g>
				<g>
					<g>
						<path d="M593.14,277.915l1.272-1.491c0,0-0.996-0.679-2.096-1.169c-1.105-0.477-2.277-0.747-2.277-0.747l-1.002,1.656
							c0,0,1.1,0.237,2.138,0.674C592.206,277.286,593.14,277.915,593.14,277.915z"/>
						<path d="M597.303,283.027l1.586-1.135c0.001,0-0.478-1.105-1.147-2.107c-0.679-0.995-1.524-1.855-1.524-1.855l-1.39,1.387
							c0,0,0.789,0.803,1.418,1.735C596.865,281.99,597.303,283.027,597.303,283.027z"/>
						<path d="M598.185,289.597l1.728-0.685c0,0-0.01-1.206-0.02-2.412c-0.045-0.597-0.062-1.196-0.16-1.637
							c-0.075-0.442-0.125-0.738-0.125-0.738l-1.658,0.998c0,0,0.043,0.277,0.106,0.693c0.087,0.414,0.091,0.977,0.124,1.536
							C598.182,288.475,598.185,289.597,598.185,289.597z"/>
						<polygon points="598.185,296.282 599.948,296.101 599.924,291.275 598.185,291.795 						"/>
						<polygon points="598.185,303.139 599.962,303.139 599.961,298.462 598.185,298.479 						"/>
						<rect x="598.185" y="305.424" width="1.777" height="4.669"/>
						<rect x="598.185" y="312.376" width="1.777" height="4.668"/>
					</g>
				</g>
				<g>
					<g>
						<rect x="598.185" y="319.329" width="1.777" height="4.669"/>
						<rect x="598.185" y="326.282" width="1.777" height="4.669"/>
						<rect x="598.185" y="333.234" width="1.777" height="4.669"/>
						<rect x="598.185" y="340.188" width="1.777" height="4.668"/>
						<rect x="598.185" y="347.141" width="1.777" height="4.669"/>
						<polygon points="598.185,358.668 599.949,358.846 599.962,354.095 598.185,354.095 						"/>
						<polygon points="598.185,365.352 599.912,366.033 599.937,361.207 598.185,360.864 						"/>
					</g>
				</g>
			</g>
		</g>
	</g>
	<path fill="#42489D" stroke="#000000" stroke-width="2" stroke-miterlimit="10" d="M501.814,348.854
		c0,9.811-7.955,17.766-17.766,17.766h-31.088c-9.813,0-17.766-7.955-17.766-17.766v-31.088c0-9.811,7.953-17.766,17.766-17.766
		h31.088c9.811,0,17.766,7.955,17.766,17.766V348.854z"/>
	<g>
		<text transform="matrix(1 0 0 1 446.4814 294)" font-family="'MyriadPro-Regular'" font-size="19.043">AZ (D)</text>
	</g>
	<g>
		
			<rect x="508.195" y="316.051" fill-rule="evenodd" clip-rule="evenodd" fill="#EF4136" stroke="#000000" stroke-width="2" stroke-miterlimit="10" width="81" height="38.01"/>
		
			<ellipse fill-rule="evenodd" clip-rule="evenodd" fill="#F48281" stroke="#000000" stroke-width="2" stroke-miterlimit="10" cx="548.695" cy="316.276" rx="40.5" ry="9.276"/>
		<path fill-rule="evenodd" clip-rule="evenodd" fill="#EF4136" stroke="#000000" stroke-width="2" stroke-miterlimit="10" d="
			M508.22,334.604c0,0,2.25,9.502,39.81,9.502c37.559,0,41.166-9.502,41.166-9.502"/>
		<path fill-rule="evenodd" clip-rule="evenodd" fill="#EF4136" stroke="#000000" stroke-width="2" stroke-miterlimit="10" d="
			M508.22,352.643c0,0,2.25,9.502,39.81,9.502c37.559,0,41.166-9.502,41.166-9.502"/>
	</g>
</g>
<g>
	<path fill="#D2EAD6" d="M593,241c0,6.627-10.87,12-24.277,12H267.277C253.87,253,243,247.627,243,241v-81
		c0-6.627,10.87-12,24.277-12h301.445C582.13,148,593,153.373,593,160V241z"/>
	<g>
		<g>
			<g>
				<g>
					<path d="M590.649,244.503l1.56,1.11c0,0,0.17-0.231,0.424-0.578c0.183-0.39,0.51-0.873,0.693-1.415
						c0.181-0.545,0.368-1.088,0.379-1.521c0.052-0.426,0.086-0.709,0.086-0.709l-1.704-0.842c0,0-0.027,0.267-0.068,0.666
						c-0.001,0.407-0.171,0.916-0.334,1.426c-0.166,0.509-0.472,0.959-0.639,1.323C590.809,244.287,590.649,244.503,590.649,244.503
						z"/>
					<path d="M585.718,248.452l1.227,1.432c0,0,0.251-0.139,0.627-0.348c0.387-0.193,0.859-0.519,1.335-0.841
						c0.489-0.303,0.93-0.671,1.259-0.949c0.332-0.274,0.553-0.457,0.553-0.457l-1.463-1.229c0,0-0.207,0.169-0.519,0.423
						c-0.309,0.257-0.722,0.598-1.18,0.877c-0.445,0.297-0.889,0.597-1.251,0.773C585.953,248.324,585.718,248.452,585.718,248.452z
						"/>
					<path d="M579.772,250.717l0.803,1.644c0,0,0.277-0.076,0.689-0.204c0.413-0.127,0.962-0.297,1.512-0.467
						c0.538-0.203,1.076-0.406,1.479-0.559c0.406-0.145,0.665-0.271,0.665-0.271l-1.096-1.514c0,0-0.241,0.116-0.621,0.248
						c-0.376,0.14-0.878,0.325-1.38,0.511c-0.513,0.154-1.025,0.309-1.409,0.425C580.031,250.647,579.772,250.717,579.772,250.717z"
						/>
					<path d="M573.502,251.845l0.326,1.756c0,0,1.144-0.148,2.287-0.297c1.134-0.208,2.268-0.415,2.268-0.415l-0.65-1.691
						c0,0-1.054,0.189-2.106,0.378C574.563,251.71,573.502,251.845,573.502,251.845z"/>
					<path d="M567.046,252.087v1.777c0,0,1.104,0.014,2.236-0.014c0.572-0.015,1.146-0.029,1.575-0.04
						c0.433-0.005,0.72-0.034,0.72-0.034l-0.164-1.771c0,0-0.267,0.026-0.667,0.03c-0.405,0.01-0.944,0.023-1.483,0.037
						C568.17,252.101,567.046,252.087,567.046,252.087z"/>
					<rect x="560.413" y="252.087" width="4.453" height="1.777"/>
					<rect x="553.782" y="252.087" width="4.452" height="1.777"/>
				</g>
			</g>
			<g>
				<g>
					<rect x="547.148" y="252.087" width="4.453" height="1.777"/>
					<rect x="540.516" y="252.087" width="4.454" height="1.777"/>
					<rect x="533.884" y="252.087" width="4.454" height="1.777"/>
					<rect x="527.251" y="252.087" width="4.453" height="1.777"/>
					<rect x="520.619" y="252.087" width="4.453" height="1.777"/>
					<rect x="513.985" y="252.087" width="4.453" height="1.777"/>
					<rect x="507.354" y="252.087" width="4.453" height="1.777"/>
				</g>
			</g>
			<g>
				<g>
					<rect x="500.721" y="252.087" width="4.454" height="1.777"/>
					<rect x="494.089" y="252.087" width="4.453" height="1.777"/>
					<rect x="487.457" y="252.087" width="4.453" height="1.777"/>
					<rect x="480.824" y="252.087" width="4.452" height="1.777"/>
					<rect x="474.191" y="252.087" width="4.454" height="1.777"/>
					<rect x="467.559" y="252.087" width="4.453" height="1.777"/>
					<rect x="460.928" y="252.087" width="4.452" height="1.777"/>
				</g>
			</g>
			<g>
				<g>
					<rect x="454.294" y="252.087" width="4.453" height="1.777"/>
					<rect x="447.661" y="252.087" width="4.454" height="1.777"/>
					<rect x="441.03" y="252.087" width="4.453" height="1.777"/>
					<rect x="434.397" y="252.087" width="4.452" height="1.777"/>
					<rect x="427.765" y="252.087" width="4.453" height="1.777"/>
					<rect x="421.131" y="252.087" width="4.453" height="1.777"/>
					<rect x="414.5" y="252.087" width="4.453" height="1.777"/>
				</g>
			</g>
			<g>
				<g>
					<rect x="407.867" y="252.087" width="4.454" height="1.777"/>
					<rect x="401.234" y="252.087" width="4.454" height="1.777"/>
					<rect x="394.603" y="252.087" width="4.454" height="1.777"/>
					<rect x="387.97" y="252.087" width="4.453" height="1.777"/>
					<rect x="381.337" y="252.087" width="4.454" height="1.777"/>
					<rect x="374.704" y="252.087" width="4.453" height="1.777"/>
					<rect x="368.073" y="252.087" width="4.453" height="1.777"/>
				</g>
			</g>
			<g>
				<g>
					<rect x="361.44" y="252.087" width="4.453" height="1.777"/>
					<rect x="354.808" y="252.087" width="4.453" height="1.777"/>
					<rect x="348.176" y="252.087" width="4.453" height="1.777"/>
					<rect x="341.543" y="252.087" width="4.452" height="1.777"/>
					<rect x="334.911" y="252.087" width="4.453" height="1.777"/>
					<rect x="328.277" y="252.087" width="4.453" height="1.777"/>
					<rect x="321.646" y="252.087" width="4.452" height="1.777"/>
				</g>
			</g>
			<g>
				<g>
					<rect x="315.013" y="252.087" width="4.453" height="1.777"/>
					<rect x="308.38" y="252.087" width="4.454" height="1.777"/>
					<rect x="301.749" y="252.087" width="4.454" height="1.777"/>
					<rect x="295.116" y="252.087" width="4.453" height="1.777"/>
					<rect x="288.483" y="252.087" width="4.454" height="1.777"/>
					<rect x="281.85" y="252.087" width="4.453" height="1.777"/>
					<rect x="275.219" y="252.087" width="4.453" height="1.777"/>
				</g>
			</g>
			<g>
				<g>
					<rect x="268.585" y="252.087" width="4.454" height="1.777"/>
					<path d="M262.146,251.801l-0.354,1.75c0,0.001,0.285,0.052,0.716,0.079c0.432,0.033,1.007,0.077,1.582,0.122
						c0.574,0.055,1.152,0.062,1.585,0.072c0.429,0.011,0.715,0.019,0.715,0.019l0.031-1.777c0,0-0.27-0.007-0.675-0.018
						c-0.401-0.01-0.936-0.014-1.469-0.065c-0.534-0.04-1.067-0.081-1.468-0.111C262.411,251.848,262.146,251.801,262.146,251.801z"
						/>
					<path d="M255.887,250.621l-0.828,1.635c0,0,0.273,0.09,0.695,0.186c0.419,0.102,0.979,0.238,1.539,0.374
						c1.128,0.234,2.264,0.432,2.264,0.432l0.513-1.724c0,0-1.056-0.18-2.104-0.393c-0.521-0.124-1.042-0.248-1.432-0.341
						C256.142,250.704,255.888,250.621,255.887,250.621z"/>
					<path d="M249.971,248.283l-1.247,1.416c0,0,0.251,0.14,0.628,0.349c0.375,0.211,0.908,0.428,1.427,0.675
						c0.516,0.254,1.06,0.442,1.462,0.597c0.403,0.152,0.672,0.253,0.672,0.253l0.973-1.574c0,0-0.251-0.093-0.627-0.231
						c-0.375-0.142-0.883-0.313-1.366-0.546c-0.484-0.226-0.983-0.424-1.335-0.618C250.206,248.411,249.971,248.283,249.971,248.283
						z"/>
					<path d="M245.139,244.218l-1.574,1.09c0,0,0.643,0.958,1.486,1.745c0.396,0.417,0.872,0.745,1.193,1.031
						c0.324,0.285,0.575,0.428,0.575,0.427l1.367-1.321c0,0-0.236-0.131-0.539-0.396c-0.301-0.265-0.749-0.566-1.119-0.953
						C245.737,245.111,245.14,244.218,245.139,244.218z"/>
					<path d="M243.913,238.099l-1.72,0.659c0,0,0.007,1.15,0.014,2.301c-0.007,0.576,0.116,1.136,0.151,1.563
						c0.129,0.41,0.214,0.684,0.214,0.684l1.652-0.959c0,0-0.077-0.257-0.193-0.641c-0.027-0.4-0.126-0.93-0.118-1.466
						C243.913,239.169,243.913,238.099,243.913,238.099z"/>
					<polygon points="243.913,231.724 242.151,231.905 242.179,236.506 243.913,236.004 					"/>
				</g>
			</g>
			<g>
				<g>
					<polygon points="243.913,225.188 242.136,225.188 242.138,229.652 243.913,229.627 					"/>
					<rect x="242.136" y="218.555" width="1.777" height="4.453"/>
					<rect x="242.136" y="211.923" width="1.777" height="4.453"/>
					<rect x="242.136" y="205.29" width="1.777" height="4.453"/>
					<rect x="242.136" y="198.658" width="1.777" height="4.454"/>
					<rect x="242.136" y="192.024" width="1.777" height="4.453"/>
					<rect x="242.136" y="185.394" width="1.777" height="4.453"/>
				</g>
			</g>
			<g>
				<g>
					<rect x="242.136" y="178.76" width="1.777" height="4.454"/>
					<rect x="242.136" y="172.128" width="1.777" height="4.453"/>
					<polygon points="243.913,165.735 242.174,165.289 242.146,169.891 243.913,170.017 					"/>
					<path d="M244.024,159.364l-1.675-0.912c0,0-0.034,0.283-0.086,0.708c-0.079,0.421-0.051,1-0.061,1.575
						c-0.007,1.15-0.014,2.3-0.014,2.3l1.725,0.604c0,0,0-1.07,0-2.14c0.005-0.535-0.021-1.071,0.043-1.469
						C243.997,159.63,244.024,159.364,244.024,159.364z"/>
					<path d="M247.593,154.25l-1.407-1.286c0,0-0.221,0.183-0.553,0.457c-0.35,0.254-0.731,0.687-1.133,1.096
						c-0.422,0.393-0.706,0.904-0.979,1.235c-0.263,0.342-0.352,0.625-0.365,0.616l1.603,1.044c0.014,0.009,0.093-0.256,0.339-0.574
						c0.257-0.308,0.518-0.786,0.915-1.15c0.377-0.38,0.733-0.782,1.062-1.017C247.385,154.419,247.593,154.25,247.593,154.25z"/>
					<path d="M253.194,151.257l-1.023-1.55c0,0-0.269,0.102-0.672,0.254c-0.401,0.157-0.917,0.412-1.441,0.647
						c-0.531,0.223-1.021,0.525-1.4,0.729c-0.376,0.208-0.627,0.348-0.627,0.348l1.291,1.385c0,0,0.235-0.128,0.587-0.319
						c0.355-0.187,0.814-0.465,1.311-0.668c0.49-0.214,0.972-0.449,1.347-0.592C252.943,151.35,253.194,151.257,253.194,151.257z"/>
					<path d="M259.342,149.608l-0.568-1.71c0,0-0.283,0.052-0.708,0.131c-0.428,0.066-0.986,0.206-1.545,0.344
						c-1.126,0.247-2.22,0.605-2.22,0.604l0.88,1.614c0,0,1.02-0.327,2.067-0.551c0.521-0.125,1.041-0.252,1.438-0.313
						C259.079,149.656,259.342,149.608,259.342,149.608z"/>
				</g>
			</g>
			<g>
				<g>
					<path d="M265.679,148.954l-0.078-1.776c0,0-0.289,0.007-0.722,0.019c-0.432,0.018-1.007,0.072-1.582,0.113
						c-1.153,0.064-2.293,0.242-2.293,0.242l0.41,1.741c0,0,1.059-0.162,2.129-0.219c0.534-0.037,1.067-0.088,1.468-0.104
						C265.411,148.96,265.679,148.954,265.679,148.954z"/>
					<rect x="267.817" y="147.136" width="4.453" height="1.777"/>
					<rect x="274.449" y="147.136" width="4.453" height="1.777"/>
					<rect x="281.083" y="147.136" width="4.453" height="1.777"/>
					<rect x="287.714" y="147.136" width="4.454" height="1.777"/>
					<rect x="294.348" y="147.136" width="4.453" height="1.777"/>
					<rect x="300.979" y="147.136" width="4.453" height="1.777"/>
				</g>
			</g>
			<g>
				<g>
					<rect x="307.612" y="147.136" width="4.454" height="1.777"/>
					<rect x="314.244" y="147.136" width="4.454" height="1.777"/>
					<rect x="320.876" y="147.136" width="4.454" height="1.777"/>
					<rect x="327.51" y="147.136" width="4.453" height="1.777"/>
					<rect x="334.141" y="147.136" width="4.454" height="1.777"/>
					<rect x="340.775" y="147.136" width="4.453" height="1.777"/>
					<rect x="347.406" y="147.136" width="4.453" height="1.777"/>
				</g>
			</g>
			<g>
				<g>
					<rect x="354.039" y="147.136" width="4.454" height="1.777"/>
					<rect x="360.671" y="147.136" width="4.454" height="1.777"/>
					<rect x="367.303" y="147.136" width="4.454" height="1.777"/>
					<rect x="373.937" y="147.136" width="4.453" height="1.777"/>
					<rect x="380.568" y="147.136" width="4.453" height="1.777"/>
					<rect x="387.202" y="147.136" width="4.453" height="1.777"/>
					<rect x="393.833" y="147.136" width="4.453" height="1.777"/>
				</g>
			</g>
			<g>
				<g>
					<rect x="400.466" y="147.136" width="4.453" height="1.777"/>
					<rect x="407.099" y="147.136" width="4.453" height="1.777"/>
					<rect x="413.73" y="147.136" width="4.453" height="1.777"/>
					<rect x="420.364" y="147.136" width="4.452" height="1.777"/>
					<rect x="426.995" y="147.136" width="4.454" height="1.777"/>
					<rect x="433.629" y="147.136" width="4.453" height="1.777"/>
					<rect x="440.261" y="147.136" width="4.452" height="1.777"/>
				</g>
			</g>
			<g>
				<g>
					<rect x="446.894" y="147.136" width="4.453" height="1.777"/>
					<rect x="453.525" y="147.136" width="4.454" height="1.777"/>
					<rect x="460.157" y="147.136" width="4.454" height="1.777"/>
					<rect x="466.791" y="147.136" width="4.452" height="1.777"/>
					<rect x="473.423" y="147.136" width="4.453" height="1.777"/>
					<rect x="480.057" y="147.136" width="4.452" height="1.777"/>
					<rect x="486.688" y="147.136" width="4.452" height="1.777"/>
				</g>
			</g>
			<g>
				<g>
					<rect x="493.32" y="147.136" width="4.453" height="1.777"/>
					<rect x="499.953" y="147.136" width="4.453" height="1.777"/>
					<rect x="506.585" y="147.136" width="4.453" height="1.777"/>
					<rect x="513.219" y="147.136" width="4.452" height="1.777"/>
					<rect x="519.85" y="147.136" width="4.453" height="1.777"/>
					<rect x="526.483" y="147.136" width="4.453" height="1.777"/>
					<rect x="533.114" y="147.136" width="4.453" height="1.777"/>
				</g>
			</g>
			<g>
				<g>
					<rect x="539.747" y="147.136" width="4.454" height="1.777"/>
					<rect x="546.38" y="147.136" width="4.453" height="1.777"/>
					<rect x="553.012" y="147.136" width="4.453" height="1.777"/>
					<rect x="559.646" y="147.136" width="4.452" height="1.777"/>
					<path d="M570.675,148.962l0.106-1.775c0,0-1.139-0.026-2.277-0.052c-1.114,0-2.228,0-2.228,0v1.777c0,0,1.113,0,2.228,0
						C569.589,148.938,570.675,148.962,570.675,148.962z"/>
					<path d="M577.006,149.671l0.596-1.704c0,0-0.283-0.053-0.709-0.131c-0.423-0.088-0.992-0.178-1.565-0.243
						c-0.572-0.074-1.144-0.147-1.573-0.203c-0.431-0.034-0.719-0.056-0.719-0.056l-0.269,1.762c0,0,0.267,0.02,0.667,0.05
						c0.397,0.05,0.929,0.118,1.46,0.185c0.532,0.059,1.061,0.14,1.454,0.221C576.743,149.624,577.006,149.671,577.006,149.671z"/>
					<path d="M583.138,151.38l1.047-1.539c0,0-0.27-0.102-0.673-0.254c-0.4-0.158-0.94-0.356-1.494-0.513
						c-0.552-0.165-1.098-0.348-1.517-0.453c-0.419-0.102-0.699-0.17-0.699-0.17l-0.749,1.661c0,0,0.261,0.062,0.651,0.155
						c0.39,0.096,0.898,0.264,1.412,0.414c0.516,0.142,1.02,0.323,1.394,0.468C582.887,151.287,583.138,151.38,583.138,151.38z"/>
				</g>
			</g>
			<g>
				<g>
					<path d="M588.683,154.474l1.425-1.267c0,0-0.222-0.183-0.554-0.457c-0.347-0.254-0.831-0.564-1.305-0.887
						c-0.481-0.313-0.999-0.566-1.37-0.783c-0.373-0.216-0.636-0.333-0.636-0.333l-1.181,1.462c0,0,0.245,0.107,0.595,0.306
						c0.348,0.199,0.832,0.431,1.283,0.719c0.444,0.298,0.897,0.584,1.223,0.818C588.475,154.305,588.683,154.474,588.683,154.474z"
						/>
					<path d="M592.012,159.716l1.685-0.89c-0.02,0.004,0.01-0.292-0.13-0.7c-0.147-0.402-0.259-0.975-0.567-1.466
						c-0.136-0.252-0.262-0.511-0.396-0.743c-0.16-0.217-0.31-0.419-0.438-0.592c-0.129-0.173-0.235-0.317-0.31-0.418
						c-0.071-0.104-0.125-0.152-0.125-0.152l-1.527,1.154c0,0,0.051,0.045,0.117,0.142c0.069,0.094,0.169,0.229,0.288,0.39
						s0.259,0.349,0.408,0.551c0.125,0.217,0.242,0.458,0.367,0.694c0.288,0.458,0.383,0.996,0.518,1.373
						C592.027,159.441,591.993,159.72,592.012,159.716z"/>
					<polygon points="592.087,166.088 593.828,165.668 593.8,161.066 592.087,161.807 					"/>
					<polygon points="592.087,172.496 593.864,172.496 593.842,167.921 592.087,168.185 					"/>
					<rect x="592.087" y="174.675" width="1.777" height="4.454"/>
					<rect x="592.087" y="181.309" width="1.777" height="4.453"/>
					<rect x="592.087" y="187.94" width="1.777" height="4.453"/>
				</g>
			</g>
			<g>
				<g>
					<rect x="592.087" y="194.573" width="1.777" height="4.454"/>
					<rect x="592.087" y="201.205" width="1.777" height="4.454"/>
					<rect x="592.087" y="207.837" width="1.777" height="4.453"/>
					<rect x="592.087" y="214.471" width="1.777" height="4.452"/>
					<rect x="592.087" y="221.103" width="1.777" height="4.453"/>
					<polygon points="592.087,232.077 593.847,232.285 593.864,227.736 592.087,227.736 					"/>
					<polygon points="592.087,238.452 593.805,239.138 593.833,234.536 592.087,234.172 					"/>
				</g>
			</g>
		</g>
	</g>
</g>
<path fill="#42489D" stroke="#000000" stroke-width="2" stroke-miterlimit="10" d="M318.717,221.854
	c0,9.811-7.955,17.766-17.766,17.766h-31.088c-9.813,0-17.766-7.955-17.766-17.766v-31.088c0-9.811,7.953-17.765,17.766-17.765
	h31.088c9.811,0,17.766,7.955,17.766,17.765V221.854z"/>
<g>
	<text transform="matrix(1 0 0 1 263.3843 167)" font-family="'MyriadPro-Regular'" font-size="19.043">Availability Zone (B)</text>
</g>
<g>
	
		<rect x="329" y="190.906" fill-rule="evenodd" clip-rule="evenodd" fill="#EF4136" stroke="#000000" stroke-width="2" stroke-miterlimit="10" width="81" height="38.01"/>
	
		<ellipse fill-rule="evenodd" clip-rule="evenodd" fill="#F48281" stroke="#000000" stroke-width="2" stroke-miterlimit="10" cx="369.5" cy="191.132" rx="40.5" ry="9.277"/>
	<path fill-rule="evenodd" clip-rule="evenodd" fill="#EF4136" stroke="#000000" stroke-width="2" stroke-miterlimit="10" d="
		M329.025,209.458c0,0,2.25,9.502,39.809,9.502c37.559,0,41.166-9.502,41.166-9.502"/>
	<path fill-rule="evenodd" clip-rule="evenodd" fill="#EF4136" stroke="#000000" stroke-width="2" stroke-miterlimit="10" d="
		M329.025,227.498c0,0,2.25,9.502,39.809,9.502c37.559,0,41.166-9.502,41.166-9.502"/>
</g>
</svg>
