<?xml version="1.0" encoding="utf-8"?>
<!-- Generator: Adobe Illustrator 16.0.0, SVG Export Plug-In . SVG Version: 6.00 Build 0)  -->
<!DOCTYPE svg PUBLIC "-//W3C//DTD SVG 1.1//EN" "http://www.w3.org/Graphics/SVG/1.1/DTD/svg11.dtd">
<svg version="1.1" id="Layer_1" xmlns="http://www.w3.org/2000/svg" xmlns:xlink="http://www.w3.org/1999/xlink" x="0px" y="0px"
	 width="834.445px" height="420px" viewBox="0 0 834.445 420" enable-background="new 0 0 834.445 420" xml:space="preserve">
<g>
	<text transform="matrix(1 0 0 1 260 53)" font-family="'MyriadPro-Bold'" font-size="28.3708">Amazon Web Services AWS</text>
</g>
<path fill="#05BCE7" stroke="#000000" stroke-width="2" stroke-miterlimit="10" d="M381.445,380c0,6.627-5.372,12-12,12h-349
	c-6.627,0-12-5.373-12-12V146c0-6.627,5.373-12,12-12h349c6.628,0,12,5.373,12,12V380z"/>
<g>
	<text transform="matrix(1 0 0 1 95.4448 123)" font-family="'MyriadPro-Bold'" font-size="21.3119">Region  </text>
	<text transform="matrix(1 0 0 1 171.0366 123)" font-family="'MyriadPro-Regular'" font-size="21.3119">(North Virgina)</text>
</g>
<g>
	<g>
		<path fill="#D2EAD6" d="M190.445,368c0,6.627-5.373,12-12,12h-149c-6.627,0-12-5.373-12-12v-81c0-6.627,5.373-12,12-12h149
			c6.627,0,12,5.373,12,12V368z"/>
		<g>
			<g>
				<g>
					<g>
						<path d="M188.667,371.926l1.588,1.133c0,0,0.466-1.11,0.718-2.287c0.097-0.59,0.217-1.18,0.224-1.629
							c0.031-0.447,0.051-0.746,0.051-0.746l-1.716-0.847c0,0-0.014,0.28-0.035,0.7c0.001,0.423-0.103,0.977-0.185,1.529
							C189.092,370.884,188.667,371.926,188.667,371.926z"/>
						<path d="M184.526,377.057l1.275,1.487c0,0,0.99-0.688,1.833-1.551c0.409-0.441,0.814-0.886,1.07-1.259
							c0.136-0.18,0.249-0.33,0.328-0.436c0.071-0.109,0.111-0.174,0.111-0.174l-1.5-1.261c0,0-0.037,0.059-0.103,0.163
							c-0.074,0.098-0.179,0.238-0.305,0.406c-0.236,0.351-0.615,0.765-0.996,1.176
							C185.453,376.415,184.526,377.055,184.526,377.057z"/>
						<path d="M178.254,379.074l0.864,1.709c0,0,1.199-0.042,2.369-0.318c1.171-0.271,2.271-0.766,2.271-0.767l-1.147-1.578
							c0,0.001-1.032,0.453-2.131,0.69C179.38,379.055,178.254,379.073,178.254,379.074z"/>
						<polygon points="171.569,379.087 171.932,380.838 176.757,380.813 176.057,379.087 						"/>
						<polygon points="164.809,379.087 164.809,380.864 169.57,380.85 169.373,379.087 						"/>
						<rect x="157.855" y="379.087" width="4.668" height="1.777"/>
						<rect x="150.904" y="379.087" width="4.667" height="1.777"/>
					</g>
				</g>
				<g>
					<g>
						<rect x="143.95" y="379.087" width="4.669" height="1.777"/>
						<rect x="136.997" y="379.087" width="4.668" height="1.777"/>
						<rect x="130.045" y="379.087" width="4.668" height="1.777"/>
						<rect x="123.091" y="379.087" width="4.668" height="1.777"/>
						<rect x="116.139" y="379.087" width="4.668" height="1.777"/>
						<rect x="109.185" y="379.087" width="4.668" height="1.777"/>
						<rect x="102.233" y="379.087" width="4.668" height="1.777"/>
					</g>
				</g>
				<g>
					<g>
						<rect x="95.279" y="379.087" width="4.668" height="1.777"/>
						<rect x="88.326" y="379.087" width="4.669" height="1.777"/>
						<rect x="81.374" y="379.087" width="4.668" height="1.777"/>
						<rect x="74.421" y="379.087" width="4.667" height="1.777"/>
						<rect x="67.468" y="379.087" width="4.669" height="1.777"/>
						<rect x="60.514" y="379.087" width="4.668" height="1.777"/>
						<rect x="53.563" y="379.087" width="4.667" height="1.777"/>
					</g>
				</g>
				<g>
					<g>
						<rect x="46.608" y="379.087" width="4.669" height="1.777"/>
						<polygon points="39.713,379.087 39.605,380.855 44.324,380.864 44.324,379.087 						"/>
						<polygon points="33.028,379.087 32.418,380.818 37.245,380.846 37.517,379.087 						"/>
						<path d="M26.398,378.544l-1.074,1.621c0,0,1.145,0.375,2.334,0.528c1.186,0.137,2.396,0.113,2.396,0.113l0.776-1.721
							c0,0-1.124,0.023-2.241-0.079C27.472,378.883,26.398,378.544,26.398,378.544z"/>
						<path d="M20.95,374.831l-1.446,1.327c0,0,0.769,0.93,1.689,1.707c0.929,0.768,1.979,1.359,1.979,1.359l1.207-1.541
							c0,0-0.984-0.545-1.854-1.26C21.667,375.699,20.95,374.831,20.95,374.831z"/>
						<path d="M18.419,368.743l-1.688,0.924c0,0,0.05,0.296,0.125,0.738c0.051,0.448,0.235,1.021,0.386,1.602
							c0.375,1.144,0.946,2.203,0.946,2.203l1.542-1.203c0,0-0.527-0.993-0.864-2.067c-0.134-0.545-0.3-1.082-0.341-1.502
							C18.462,369.021,18.419,368.743,18.419,368.743z"/>
						<polygon points="18.358,362.063 16.612,362.494 16.637,367.32 18.358,366.549 						"/>
					</g>
				</g>
				<g>
					<g>
						<polygon points="18.358,355.338 16.581,355.338 16.6,360.131 18.358,359.863 						"/>
						<rect x="16.581" y="348.385" width="1.777" height="4.668"/>
						<rect x="16.581" y="341.434" width="1.777" height="4.668"/>
						<rect x="16.581" y="334.479" width="1.777" height="4.668"/>
						<rect x="16.581" y="327.525" width="1.777" height="4.668"/>
						<rect x="16.581" y="320.572" width="1.777" height="4.668"/>
						<rect x="16.581" y="313.621" width="1.777" height="4.668"/>
					</g>
				</g>
				<g>
					<g>
						<rect x="16.581" y="306.667" width="1.777" height="4.668"/>
						<rect x="16.581" y="299.714" width="1.777" height="4.669"/>
						<polygon points="18.358,292.99 16.612,292.561 16.587,297.389 18.358,297.479 						"/>
						<path d="M18.416,286.307l-1.689-0.922c0,0-0.115,1.188-0.09,2.4c-0.006,1.206-0.012,2.412-0.012,2.412l1.734,0.596
							c0,0,0-1.122,0-2.244C18.334,287.426,18.416,286.307,18.416,286.307z"/>
						<path d="M20.92,280.209l-1.448-1.324c0,0-0.761,0.938-1.33,1.998c-0.27,0.537-0.536,1.076-0.676,1.506
							c-0.08,0.211-0.146,0.385-0.193,0.508c-0.045,0.123-0.059,0.197-0.059,0.197l1.627,1.063c0,0,0.078-0.27,0.228-0.663
							c0.126-0.403,0.37-0.908,0.619-1.412C20.212,281.085,20.92,280.209,20.92,280.209z"/>
						<path d="M26.352,276.473l-1.078-1.619c0,0.002-1.141,0.386-2.19,0.978c-0.514,0.313-1.028,0.623-1.376,0.912
							c-0.364,0.267-0.591,0.463-0.591,0.463l1.338,1.437c0,0,0.213-0.184,0.553-0.431c0.326-0.271,0.808-0.557,1.289-0.845
							C25.28,276.82,26.352,276.475,26.352,276.473z"/>
						<path d="M32.977,275.913l-0.614-1.731c0,0-1.207,0.006-2.413,0.012c-0.605-0.008-1.205,0.014-1.65,0.057
							c-0.449,0.02-0.744,0.075-0.744,0.074l0.938,1.684c0,0,0.276-0.048,0.698-0.059c0.42-0.03,0.98-0.044,1.542-0.035
							C31.855,275.913,32.977,275.913,32.977,275.913z"/>
					</g>
				</g>
				<g>
					<g>
						<polygon points="39.664,275.913 39.553,274.145 34.726,274.168 35.175,275.913 						"/>
						<rect x="41.889" y="274.136" width="4.668" height="1.777"/>
						<rect x="48.841" y="274.136" width="4.668" height="1.777"/>
						<rect x="55.795" y="274.136" width="4.667" height="1.777"/>
						<rect x="62.747" y="274.136" width="4.668" height="1.777"/>
						<rect x="69.701" y="274.136" width="4.668" height="1.777"/>
						<rect x="76.653" y="274.136" width="4.667" height="1.777"/>
					</g>
				</g>
				<g>
					<g>
						<rect x="83.606" y="274.136" width="4.668" height="1.777"/>
						<rect x="90.559" y="274.136" width="4.669" height="1.777"/>
						<rect x="97.512" y="274.136" width="4.668" height="1.777"/>
						<rect x="104.466" y="274.136" width="4.667" height="1.777"/>
						<rect x="111.417" y="274.136" width="4.669" height="1.777"/>
						<rect x="118.372" y="274.136" width="4.668" height="1.777"/>
						<rect x="125.324" y="274.136" width="4.668" height="1.777"/>
					</g>
				</g>
				<g>
					<g>
						<rect x="132.277" y="274.136" width="4.668" height="1.777"/>
						<rect x="139.23" y="274.136" width="4.668" height="1.777"/>
						<rect x="146.182" y="274.136" width="4.669" height="1.777"/>
						<rect x="153.137" y="274.136" width="4.667" height="1.777"/>
						<rect x="160.088" y="274.136" width="4.668" height="1.777"/>
						<polygon points="171.52,275.913 171.879,274.162 167.052,274.139 167.032,275.913 						"/>
						<path d="M178.203,275.924l0.86-1.711c0,0-0.298-0.023-0.751-0.02c-0.453-0.002-1.056-0.004-1.659-0.008
							c-1.207-0.006-2.413-0.013-2.413-0.013l-0.524,1.739c0,0,1.122,0,2.244,0c0.561,0,1.122,0,1.542,0
							C177.923,275.907,178.203,275.924,178.203,275.924z"/>
					</g>
				</g>
				<g>
					<g>
						<path d="M184.487,277.915l1.273-1.491c0,0-0.997-0.679-2.097-1.169c-1.105-0.478-2.277-0.747-2.277-0.747l-1.002,1.656
							c0,0,1.1,0.236,2.138,0.674C183.553,277.286,184.487,277.915,184.487,277.915z"/>
						<path d="M188.65,283.027l1.586-1.135c0,0-0.478-1.105-1.147-2.107c-0.679-0.995-1.524-1.855-1.524-1.855l-1.391,1.387
							c0,0,0.79,0.804,1.419,1.735C188.213,281.99,188.65,283.027,188.65,283.027z"/>
						<path d="M189.532,289.598l1.728-0.686c0,0-0.01-1.206-0.019-2.412c-0.045-0.598-0.062-1.195-0.161-1.637
							c-0.075-0.442-0.125-0.738-0.125-0.738l-1.658,0.998c0,0,0.042,0.277,0.106,0.693c0.087,0.414,0.091,0.977,0.124,1.535
							C189.529,288.475,189.532,289.598,189.532,289.598z"/>
						<polygon points="189.532,296.282 191.296,296.102 191.271,291.275 189.532,291.795 						"/>
						<polygon points="189.532,303.139 191.309,303.139 191.308,298.462 189.532,298.479 						"/>
						<rect x="189.532" y="305.424" width="1.777" height="4.669"/>
						<rect x="189.532" y="312.376" width="1.777" height="4.668"/>
					</g>
				</g>
				<g>
					<g>
						<rect x="189.532" y="319.329" width="1.777" height="4.669"/>
						<rect x="189.532" y="326.282" width="1.777" height="4.669"/>
						<rect x="189.532" y="333.234" width="1.777" height="4.668"/>
						<rect x="189.532" y="340.188" width="1.777" height="4.668"/>
						<rect x="189.532" y="347.141" width="1.777" height="4.67"/>
						<polygon points="189.532,358.668 191.296,358.846 191.309,354.096 189.532,354.096 						"/>
						<polygon points="189.532,365.352 191.259,366.033 191.284,361.207 189.532,360.864 						"/>
					</g>
				</g>
			</g>
		</g>
	</g>
	<path fill="#42489D" stroke="#000000" stroke-width="2" stroke-miterlimit="10" d="M93.162,348.854
		c0,9.812-7.955,17.767-17.766,17.767H44.308c-9.813,0-17.766-7.955-17.766-17.767v-31.088c0-9.811,7.953-17.766,17.766-17.766
		h31.088c9.811,0,17.766,7.955,17.766,17.766V348.854z"/>
	<g>
		<text transform="matrix(1 0 0 1 37.8291 294)" font-family="'MyriadPro-Regular'" font-size="19.043">AZ (C)</text>
	</g>
	<g>
		
			<rect x="99.542" y="316.051" fill="#EF4136" stroke="#000000" stroke-width="2" stroke-miterlimit="10" width="81" height="38.01"/>
		
			<ellipse fill="#F48281" stroke="#000000" stroke-width="2" stroke-miterlimit="10" cx="140.042" cy="316.276" rx="40.5" ry="9.276"/>
		<path fill="#EF4136" stroke="#000000" stroke-width="2" stroke-miterlimit="10" d="M99.567,334.604c0,0,2.25,9.502,39.809,9.502
			s41.166-9.502,41.166-9.502"/>
		<path fill="#EF4136" stroke="#000000" stroke-width="2" stroke-miterlimit="10" d="M99.567,352.643c0,0,2.25,9.502,39.809,9.502
			s41.166-9.502,41.166-9.502"/>
	</g>
</g>
<g>
	<g>
		<path fill="#D2EAD6" d="M373.542,368c0,6.627-5.373,12-12,12h-149c-6.627,0-12-5.373-12-12v-81c0-6.627,5.373-12,12-12h149
			c6.627,0,12,5.373,12,12V368z"/>
		<g>
			<g>
				<g>
					<g>
						<path d="M371.764,371.926l1.588,1.133c0,0,0.468-1.11,0.719-2.287c0.097-0.59,0.217-1.18,0.224-1.629
							c0.031-0.447,0.052-0.746,0.052-0.746l-1.716-0.847c0,0-0.014,0.28-0.035,0.7c0.001,0.423-0.103,0.977-0.185,1.529
							C372.19,370.884,371.764,371.926,371.764,371.926z"/>
						<path d="M367.624,377.057l1.276,1.487c-0.001,0,0.988-0.688,1.833-1.551c0.407-0.441,0.813-0.886,1.068-1.259
							c0.136-0.18,0.249-0.33,0.328-0.436c0.07-0.109,0.11-0.174,0.11-0.174l-1.5-1.261c0,0-0.037,0.059-0.104,0.163
							c-0.074,0.098-0.179,0.238-0.305,0.406c-0.236,0.351-0.615,0.765-0.996,1.176C368.55,376.415,367.624,377.055,367.624,377.057
							z"/>
						<path d="M361.352,379.074l0.863,1.709c0,0,1.199-0.042,2.369-0.318c1.171-0.271,2.271-0.766,2.271-0.767l-1.147-1.578
							c0,0.001-1.032,0.453-2.131,0.69C362.478,379.055,361.352,379.073,361.352,379.074z"/>
						<polygon points="354.667,379.087 355.03,380.838 359.855,380.813 359.155,379.087 						"/>
						<polygon points="347.907,379.087 347.907,380.864 352.667,380.85 352.47,379.087 						"/>
						<rect x="340.954" y="379.087" width="4.668" height="1.777"/>
						<rect x="334.001" y="379.087" width="4.668" height="1.777"/>
					</g>
				</g>
				<g>
					<g>
						<rect x="327.047" y="379.087" width="4.669" height="1.777"/>
						<rect x="320.094" y="379.087" width="4.669" height="1.777"/>
						<rect x="313.142" y="379.087" width="4.669" height="1.777"/>
						<rect x="306.189" y="379.087" width="4.668" height="1.777"/>
						<rect x="299.236" y="379.087" width="4.669" height="1.777"/>
						<rect x="292.283" y="379.087" width="4.668" height="1.777"/>
						<rect x="285.332" y="379.087" width="4.667" height="1.777"/>
					</g>
				</g>
				<g>
					<g>
						<rect x="278.376" y="379.087" width="4.669" height="1.777"/>
						<rect x="271.424" y="379.087" width="4.668" height="1.777"/>
						<rect x="264.472" y="379.087" width="4.668" height="1.777"/>
						<rect x="257.518" y="379.087" width="4.668" height="1.777"/>
						<rect x="250.566" y="379.087" width="4.668" height="1.777"/>
						<rect x="243.612" y="379.087" width="4.668" height="1.777"/>
						<rect x="236.661" y="379.087" width="4.668" height="1.777"/>
					</g>
				</g>
				<g>
					<g>
						<rect x="229.707" y="379.087" width="4.668" height="1.777"/>
						<polygon points="222.81,379.087 222.704,380.855 227.422,380.864 227.422,379.087 						"/>
						<polygon points="216.126,379.087 215.515,380.818 220.342,380.846 220.615,379.087 						"/>
						<path d="M209.496,378.544l-1.074,1.621c0,0,1.145,0.375,2.335,0.528c1.186,0.137,2.396,0.113,2.396,0.113l0.776-1.721
							c0,0-1.123,0.023-2.24-0.079C210.57,378.883,209.496,378.544,209.496,378.544z"/>
						<path d="M204.047,374.831l-1.445,1.327c0,0,0.769,0.93,1.689,1.707c0.929,0.768,1.979,1.359,1.979,1.359l1.207-1.541
							c0,0-0.984-0.545-1.854-1.26C204.764,375.699,204.047,374.831,204.047,374.831z"/>
						<path d="M201.517,368.743l-1.688,0.924c0,0,0.05,0.296,0.124,0.738c0.051,0.448,0.235,1.021,0.387,1.602
							c0.374,1.144,0.946,2.203,0.946,2.203l1.542-1.203c0.001,0-0.526-0.993-0.864-2.067c-0.134-0.545-0.3-1.082-0.34-1.502
							C201.559,369.021,201.517,368.743,201.517,368.743z"/>
						<polygon points="201.456,362.063 199.709,362.494 199.735,367.32 201.456,366.549 						"/>
					</g>
				</g>
				<g>
					<g>
						<polygon points="201.456,355.338 199.678,355.338 199.698,360.131 201.456,359.863 						"/>
						<rect x="199.678" y="348.385" width="1.777" height="4.668"/>
						<rect x="199.678" y="341.434" width="1.777" height="4.668"/>
						<rect x="199.678" y="334.479" width="1.777" height="4.668"/>
						<rect x="199.678" y="327.525" width="1.777" height="4.668"/>
						<rect x="199.678" y="320.572" width="1.777" height="4.668"/>
						<rect x="199.678" y="313.621" width="1.777" height="4.668"/>
					</g>
				</g>
				<g>
					<g>
						<rect x="199.678" y="306.667" width="1.777" height="4.668"/>
						<rect x="199.678" y="299.714" width="1.777" height="4.669"/>
						<polygon points="201.456,292.99 199.709,292.561 199.685,297.389 201.456,297.479 						"/>
						<path d="M201.513,286.307l-1.689-0.922c0,0-0.115,1.188-0.09,2.4c-0.006,1.206-0.013,2.412-0.013,2.412l1.734,0.596
							c0,0,0-1.122,0-2.244C201.432,287.426,201.513,286.307,201.513,286.307z"/>
						<path d="M204.018,280.209l-1.448-1.324c0,0-0.762,0.938-1.33,1.998c-0.271,0.537-0.536,1.076-0.676,1.506
							c-0.08,0.211-0.146,0.385-0.192,0.508c-0.045,0.123-0.06,0.197-0.06,0.197l1.628,1.063c0,0,0.077-0.27,0.228-0.663
							c0.126-0.403,0.37-0.908,0.618-1.412C203.31,281.085,204.018,280.209,204.018,280.209z"/>
						<path d="M209.45,276.473l-1.077-1.619c0,0.002-1.142,0.386-2.19,0.978c-0.514,0.313-1.028,0.623-1.377,0.912
							c-0.363,0.267-0.591,0.463-0.591,0.463l1.338,1.437c0,0,0.213-0.184,0.553-0.431c0.326-0.271,0.809-0.557,1.29-0.845
							C208.378,276.82,209.45,276.475,209.45,276.473z"/>
						<path d="M216.075,275.913l-0.614-1.731c0,0-1.207,0.006-2.413,0.012c-0.605-0.008-1.205,0.014-1.65,0.057
							c-0.449,0.02-0.743,0.075-0.744,0.074l0.938,1.684c0,0,0.276-0.048,0.698-0.059c0.42-0.03,0.98-0.044,1.541-0.035
							C214.953,275.913,216.075,275.913,216.075,275.913z"/>
					</g>
				</g>
				<g>
					<g>
						<polygon points="222.761,275.913 222.65,274.145 217.824,274.168 218.272,275.913 						"/>
						<rect x="224.986" y="274.136" width="4.669" height="1.777"/>
						<rect x="231.939" y="274.136" width="4.668" height="1.777"/>
						<rect x="238.893" y="274.136" width="4.667" height="1.777"/>
						<rect x="245.844" y="274.136" width="4.669" height="1.777"/>
						<rect x="252.799" y="274.136" width="4.668" height="1.777"/>
						<rect x="259.75" y="274.136" width="4.668" height="1.777"/>
					</g>
				</g>
				<g>
					<g>
						<rect x="266.704" y="274.136" width="4.669" height="1.777"/>
						<rect x="273.657" y="274.136" width="4.669" height="1.777"/>
						<rect x="280.609" y="274.136" width="4.669" height="1.777"/>
						<rect x="287.564" y="274.136" width="4.667" height="1.777"/>
						<rect x="294.515" y="274.136" width="4.669" height="1.777"/>
						<rect x="301.469" y="274.136" width="4.669" height="1.777"/>
						<rect x="308.421" y="274.136" width="4.668" height="1.777"/>
					</g>
				</g>
				<g>
					<g>
						<rect x="315.375" y="274.136" width="4.669" height="1.777"/>
						<rect x="322.328" y="274.136" width="4.669" height="1.777"/>
						<rect x="329.28" y="274.136" width="4.669" height="1.777"/>
						<rect x="336.234" y="274.136" width="4.668" height="1.777"/>
						<rect x="343.186" y="274.136" width="4.67" height="1.777"/>
						<polygon points="354.618,275.913 354.976,274.162 350.15,274.139 350.129,275.913 						"/>
						<path d="M361.3,275.924l0.86-1.711c0,0-0.298-0.023-0.751-0.02c-0.453-0.002-1.057-0.004-1.659-0.008
							c-1.207-0.006-2.413-0.013-2.413-0.013l-0.524,1.739c0,0,1.122,0,2.244,0c0.562,0,1.122,0,1.543,0
							C361.021,275.907,361.3,275.924,361.3,275.924z"/>
					</g>
				</g>
				<g>
					<g>
						<path d="M367.584,277.915l1.272-1.491c0,0-0.996-0.679-2.097-1.169c-1.104-0.478-2.276-0.747-2.276-0.747l-1.002,1.656
							c0,0,1.1,0.236,2.138,0.674C366.651,277.286,367.584,277.915,367.584,277.915z"/>
						<path d="M371.748,283.027l1.586-1.135c0.001,0-0.478-1.105-1.147-2.107c-0.679-0.995-1.523-1.855-1.523-1.855l-1.39,1.387
							c0,0,0.788,0.804,1.418,1.735C371.31,281.99,371.748,283.027,371.748,283.027z"/>
						<path d="M372.629,289.598l1.729-0.686c0,0-0.011-1.206-0.021-2.412c-0.045-0.598-0.062-1.195-0.16-1.637
							c-0.075-0.442-0.125-0.738-0.125-0.738l-1.658,0.998c0,0,0.044,0.277,0.106,0.693c0.087,0.414,0.091,0.977,0.124,1.535
							C372.626,288.475,372.629,289.598,372.629,289.598z"/>
						<polygon points="372.629,296.282 374.393,296.102 374.369,291.275 372.629,291.795 						"/>
						<polygon points="372.629,303.139 374.407,303.139 374.406,298.462 372.629,298.479 						"/>
						<rect x="372.629" y="305.424" width="1.777" height="4.669"/>
						<rect x="372.629" y="312.376" width="1.777" height="4.668"/>
					</g>
				</g>
				<g>
					<g>
						<rect x="372.629" y="319.329" width="1.777" height="4.669"/>
						<rect x="372.629" y="326.282" width="1.777" height="4.669"/>
						<rect x="372.629" y="333.234" width="1.777" height="4.668"/>
						<rect x="372.629" y="340.188" width="1.777" height="4.668"/>
						<rect x="372.629" y="347.141" width="1.777" height="4.67"/>
						<polygon points="372.629,358.668 374.394,358.846 374.407,354.096 372.629,354.096 						"/>
						<polygon points="372.629,365.352 374.357,366.033 374.381,361.207 372.629,360.864 						"/>
					</g>
				</g>
			</g>
		</g>
	</g>
	<path fill="#42489D" stroke="#000000" stroke-width="2" stroke-miterlimit="10" d="M276.259,348.854
		c0,9.812-7.955,17.767-17.766,17.767h-31.088c-9.813,0-17.766-7.955-17.766-17.767v-31.088c0-9.811,7.953-17.766,17.766-17.766
		h31.088c9.811,0,17.766,7.955,17.766,17.766V348.854z"/>
	<g>
		<text transform="matrix(1 0 0 1 220.9268 294)" font-family="'MyriadPro-Regular'" font-size="19.043">AZ (D)</text>
	</g>
	<g>
		
			<rect x="282.64" y="316.051" fill="#EF4136" stroke="#000000" stroke-width="2" stroke-miterlimit="10" width="81" height="38.01"/>
		
			<ellipse fill="#F48281" stroke="#000000" stroke-width="2" stroke-miterlimit="10" cx="323.14" cy="316.276" rx="40.5" ry="9.276"/>
		<path fill="#EF4136" stroke="#000000" stroke-width="2" stroke-miterlimit="10" d="M282.665,334.604c0,0,2.25,9.502,39.81,9.502
			s41.166-9.502,41.166-9.502"/>
		<path fill="#EF4136" stroke="#000000" stroke-width="2" stroke-miterlimit="10" d="M282.665,352.643c0,0,2.25,9.502,39.81,9.502
			s41.166-9.502,41.166-9.502"/>
	</g>
</g>
<g>
	<path fill="#D2EAD6" d="M367.445,241c0,6.627-10.87,12-24.277,12H41.722c-13.407,0-24.277-5.373-24.277-12v-81
		c0-6.627,10.87-12,24.277-12h301.445c13.407,0,24.277,5.373,24.277,12L367.445,241L367.445,241z"/>
	<g>
		<g>
			<g>
				<g>
					<path d="M365.094,244.503l1.561,1.11c0,0,0.17-0.231,0.424-0.578c0.183-0.391,0.51-0.873,0.693-1.415
						c0.181-0.545,0.367-1.088,0.379-1.521c0.052-0.427,0.086-0.709,0.086-0.709l-1.704-0.843c0,0-0.027,0.267-0.068,0.666
						c-0.001,0.407-0.171,0.916-0.334,1.427c-0.166,0.508-0.472,0.959-0.639,1.322C365.253,244.287,365.094,244.503,365.094,244.503
						z"/>
					<path d="M360.163,248.452l1.227,1.432c0,0,0.251-0.139,0.627-0.348c0.388-0.193,0.859-0.519,1.335-0.841
						c0.489-0.303,0.931-0.672,1.26-0.949c0.332-0.273,0.553-0.457,0.553-0.457l-1.463-1.229c0,0-0.207,0.168-0.52,0.422
						c-0.309,0.258-0.722,0.599-1.18,0.877c-0.445,0.298-0.889,0.598-1.251,0.773C360.398,248.324,360.163,248.452,360.163,248.452z
						"/>
					<path d="M354.217,250.717l0.803,1.645c0,0,0.277-0.076,0.689-0.204c0.413-0.127,0.962-0.298,1.512-0.468
						c0.538-0.203,1.076-0.405,1.479-0.559c0.406-0.145,0.665-0.271,0.665-0.271l-1.097-1.514c0,0-0.24,0.116-0.62,0.248
						c-0.376,0.141-0.879,0.325-1.381,0.512c-0.513,0.153-1.024,0.309-1.408,0.425S354.217,250.717,354.217,250.717z"/>
					<path d="M347.947,251.845l0.326,1.757c0,0,1.144-0.148,2.286-0.297c1.135-0.209,2.269-0.416,2.269-0.416l-0.65-1.69
						c0,0-1.054,0.188-2.105,0.378C349.008,251.71,347.947,251.845,347.947,251.845z"/>
					<path d="M341.491,252.087v1.777c0,0,1.104,0.014,2.235-0.015c0.572-0.015,1.146-0.029,1.575-0.039
						c0.434-0.006,0.721-0.035,0.721-0.035l-0.164-1.771c0,0-0.268,0.026-0.667,0.03c-0.405,0.01-0.944,0.023-1.483,0.037
						C342.615,252.102,341.491,252.087,341.491,252.087z"/>
					<rect x="334.858" y="252.087" width="4.452" height="1.777"/>
					<rect x="328.227" y="252.087" width="4.452" height="1.777"/>
				</g>
			</g>
			<g>
				<g>
					<rect x="321.593" y="252.087" width="4.453" height="1.777"/>
					<rect x="314.96" y="252.087" width="4.454" height="1.777"/>
					<rect x="308.329" y="252.087" width="4.454" height="1.777"/>
					<rect x="301.696" y="252.087" width="4.454" height="1.777"/>
					<rect x="295.064" y="252.087" width="4.453" height="1.777"/>
					<rect x="288.43" y="252.087" width="4.453" height="1.777"/>
					<rect x="281.799" y="252.087" width="4.453" height="1.777"/>
				</g>
			</g>
			<g>
				<g>
					<rect x="275.166" y="252.087" width="4.454" height="1.777"/>
					<rect x="268.534" y="252.087" width="4.453" height="1.777"/>
					<rect x="261.902" y="252.087" width="4.453" height="1.777"/>
					<rect x="255.269" y="252.087" width="4.452" height="1.777"/>
					<rect x="248.636" y="252.087" width="4.454" height="1.777"/>
					<rect x="242.003" y="252.087" width="4.453" height="1.777"/>
					<rect x="235.373" y="252.087" width="4.452" height="1.777"/>
				</g>
			</g>
			<g>
				<g>
					<rect x="228.739" y="252.087" width="4.453" height="1.777"/>
					<rect x="222.106" y="252.087" width="4.454" height="1.777"/>
					<rect x="215.475" y="252.087" width="4.453" height="1.777"/>
					<rect x="208.842" y="252.087" width="4.452" height="1.777"/>
					<rect x="202.209" y="252.087" width="4.453" height="1.777"/>
					<rect x="195.576" y="252.087" width="4.453" height="1.777"/>
					<rect x="188.945" y="252.087" width="4.453" height="1.777"/>
				</g>
			</g>
			<g>
				<g>
					<rect x="182.312" y="252.087" width="4.454" height="1.777"/>
					<rect x="175.679" y="252.087" width="4.454" height="1.777"/>
					<rect x="169.047" y="252.087" width="4.454" height="1.777"/>
					<rect x="162.415" y="252.087" width="4.453" height="1.777"/>
					<rect x="155.782" y="252.087" width="4.454" height="1.777"/>
					<rect x="149.149" y="252.087" width="4.453" height="1.777"/>
					<rect x="142.518" y="252.087" width="4.453" height="1.777"/>
				</g>
			</g>
			<g>
				<g>
					<rect x="135.885" y="252.087" width="4.453" height="1.777"/>
					<rect x="129.252" y="252.087" width="4.453" height="1.777"/>
					<rect x="122.621" y="252.087" width="4.453" height="1.777"/>
					<rect x="115.988" y="252.087" width="4.452" height="1.777"/>
					<rect x="109.355" y="252.087" width="4.453" height="1.777"/>
					<rect x="102.722" y="252.087" width="4.453" height="1.777"/>
					<rect x="96.091" y="252.087" width="4.452" height="1.777"/>
				</g>
			</g>
			<g>
				<g>
					<rect x="89.458" y="252.087" width="4.453" height="1.777"/>
					<rect x="82.825" y="252.087" width="4.454" height="1.777"/>
					<rect x="76.193" y="252.087" width="4.454" height="1.777"/>
					<rect x="69.561" y="252.087" width="4.453" height="1.777"/>
					<rect x="62.928" y="252.087" width="4.454" height="1.777"/>
					<rect x="56.295" y="252.087" width="4.453" height="1.777"/>
					<rect x="49.664" y="252.087" width="4.453" height="1.777"/>
				</g>
			</g>
			<g>
				<g>
					<rect x="43.03" y="252.087" width="4.454" height="1.777"/>
					<path d="M36.591,251.801l-0.354,1.75c0,0.001,0.285,0.053,0.716,0.079c0.432,0.033,1.007,0.077,1.582,0.122
						c0.574,0.055,1.152,0.063,1.585,0.072c0.429,0.011,0.715,0.019,0.715,0.019l0.031-1.776c0,0-0.27-0.008-0.675-0.019
						c-0.401-0.01-0.936-0.014-1.469-0.065c-0.534-0.039-1.067-0.08-1.468-0.11C36.855,251.848,36.591,251.801,36.591,251.801z"/>
					<path d="M30.332,250.621l-0.828,1.635c0,0,0.273,0.09,0.695,0.186c0.419,0.103,0.979,0.238,1.539,0.375
						c1.128,0.233,2.264,0.432,2.264,0.432l0.513-1.725c0,0-1.056-0.18-2.104-0.393c-0.521-0.124-1.042-0.248-1.432-0.341
						C30.587,250.704,30.333,250.621,30.332,250.621z"/>
					<path d="M24.416,248.283l-1.247,1.416c0,0,0.251,0.14,0.628,0.349c0.375,0.211,0.908,0.429,1.427,0.675
						c0.516,0.254,1.06,0.442,1.462,0.598c0.403,0.152,0.672,0.253,0.672,0.253l0.973-1.574c0,0-0.251-0.093-0.627-0.231
						c-0.375-0.142-0.883-0.313-1.366-0.545c-0.484-0.227-0.983-0.425-1.335-0.619C24.65,248.411,24.416,248.283,24.416,248.283z"/>
					<path d="M19.584,244.218l-1.574,1.091c0,0,0.643,0.957,1.486,1.744c0.396,0.417,0.872,0.745,1.193,1.031
						c0.324,0.285,0.575,0.428,0.575,0.427l1.367-1.321c0,0-0.236-0.131-0.539-0.396c-0.301-0.265-0.749-0.565-1.119-0.953
						C20.182,245.111,19.584,244.218,19.584,244.218z"/>
					<path d="M18.358,238.1l-1.72,0.658c0,0,0.007,1.15,0.014,2.301c-0.007,0.576,0.116,1.137,0.151,1.563
						c0.129,0.41,0.214,0.685,0.214,0.685l1.652-0.959c0,0-0.077-0.258-0.193-0.642c-0.027-0.399-0.126-0.931-0.118-1.466
						C18.358,239.169,18.358,238.1,18.358,238.1z"/>
					<polygon points="18.358,231.725 16.596,231.905 16.624,236.506 18.358,236.004 					"/>
				</g>
			</g>
			<g>
				<g>
					<polygon points="18.358,225.188 16.581,225.188 16.583,229.652 18.358,229.627 					"/>
					<rect x="16.581" y="218.555" width="1.777" height="4.453"/>
					<rect x="16.581" y="211.923" width="1.777" height="4.453"/>
					<rect x="16.581" y="205.29" width="1.777" height="4.453"/>
					<rect x="16.581" y="198.658" width="1.777" height="4.454"/>
					<rect x="16.581" y="192.024" width="1.777" height="4.453"/>
					<rect x="16.581" y="185.394" width="1.777" height="4.453"/>
				</g>
			</g>
			<g>
				<g>
					<rect x="16.581" y="178.76" width="1.777" height="4.454"/>
					<rect x="16.581" y="172.128" width="1.777" height="4.453"/>
					<polygon points="18.358,165.735 16.619,165.289 16.591,169.891 18.358,170.017 					"/>
					<path d="M18.469,159.364l-1.675-0.912c0,0-0.034,0.283-0.086,0.708c-0.079,0.421-0.051,1-0.061,1.575
						c-0.007,1.15-0.014,2.3-0.014,2.3l1.725,0.604c0,0,0-1.07,0-2.14c0.005-0.535-0.021-1.071,0.043-1.469
						C18.442,159.63,18.469,159.364,18.469,159.364z"/>
					<path d="M22.038,154.25l-1.407-1.286c0,0-0.221,0.183-0.553,0.457c-0.35,0.254-0.731,0.687-1.133,1.096
						c-0.422,0.393-0.706,0.904-0.979,1.235c-0.263,0.342-0.352,0.625-0.365,0.616l1.603,1.044c0.014,0.009,0.093-0.256,0.339-0.574
						c0.257-0.308,0.518-0.786,0.915-1.15c0.377-0.38,0.733-0.782,1.062-1.017C21.83,154.419,22.038,154.25,22.038,154.25z"/>
					<path d="M27.639,151.257l-1.023-1.55c0,0-0.269,0.102-0.672,0.254c-0.401,0.157-0.917,0.412-1.441,0.647
						c-0.531,0.223-1.021,0.525-1.4,0.729c-0.376,0.208-0.627,0.348-0.627,0.348l1.291,1.385c0,0,0.235-0.128,0.587-0.319
						c0.355-0.187,0.814-0.465,1.311-0.668c0.49-0.214,0.972-0.449,1.347-0.592C27.388,151.35,27.639,151.257,27.639,151.257z"/>
					<path d="M33.787,149.608l-0.568-1.71c0,0-0.283,0.052-0.708,0.131c-0.428,0.066-0.986,0.206-1.545,0.344
						c-1.126,0.247-2.22,0.605-2.22,0.604l0.88,1.614c0,0,1.02-0.327,2.067-0.551c0.521-0.125,1.041-0.252,1.438-0.313
						C33.523,149.656,33.787,149.608,33.787,149.608z"/>
				</g>
			</g>
			<g>
				<g>
					<path d="M40.124,148.954l-0.078-1.776c0,0-0.289,0.007-0.722,0.02c-0.432,0.018-1.007,0.072-1.582,0.113
						c-1.153,0.064-2.293,0.242-2.293,0.242l0.41,1.741c0,0,1.059-0.162,2.129-0.219c0.534-0.037,1.067-0.088,1.468-0.104
						C39.856,148.96,40.124,148.954,40.124,148.954z"/>
					<rect x="42.262" y="147.136" width="4.453" height="1.777"/>
					<rect x="48.894" y="147.136" width="4.453" height="1.777"/>
					<rect x="55.527" y="147.136" width="4.453" height="1.777"/>
					<rect x="62.159" y="147.136" width="4.454" height="1.777"/>
					<rect x="68.792" y="147.136" width="4.453" height="1.777"/>
					<rect x="75.424" y="147.136" width="4.453" height="1.777"/>
				</g>
			</g>
			<g>
				<g>
					<rect x="82.057" y="147.136" width="4.454" height="1.777"/>
					<rect x="88.689" y="147.136" width="4.454" height="1.777"/>
					<rect x="95.321" y="147.136" width="4.454" height="1.777"/>
					<rect x="101.955" y="147.136" width="4.453" height="1.777"/>
					<rect x="108.586" y="147.136" width="4.454" height="1.777"/>
					<rect x="115.22" y="147.136" width="4.453" height="1.777"/>
					<rect x="121.851" y="147.136" width="4.453" height="1.777"/>
				</g>
			</g>
			<g>
				<g>
					<rect x="128.484" y="147.136" width="4.454" height="1.777"/>
					<rect x="135.116" y="147.136" width="4.454" height="1.777"/>
					<rect x="141.748" y="147.136" width="4.454" height="1.777"/>
					<rect x="148.382" y="147.136" width="4.453" height="1.777"/>
					<rect x="155.013" y="147.136" width="4.453" height="1.777"/>
					<rect x="161.647" y="147.136" width="4.453" height="1.777"/>
					<rect x="168.278" y="147.136" width="4.453" height="1.777"/>
				</g>
			</g>
			<g>
				<g>
					<rect x="174.911" y="147.136" width="4.453" height="1.777"/>
					<rect x="181.543" y="147.136" width="4.453" height="1.777"/>
					<rect x="188.175" y="147.136" width="4.453" height="1.777"/>
					<rect x="194.809" y="147.136" width="4.452" height="1.777"/>
					<rect x="201.44" y="147.136" width="4.454" height="1.777"/>
					<rect x="208.074" y="147.136" width="4.453" height="1.777"/>
					<rect x="214.706" y="147.136" width="4.452" height="1.777"/>
				</g>
			</g>
			<g>
				<g>
					<rect x="221.338" y="147.136" width="4.453" height="1.777"/>
					<rect x="227.97" y="147.136" width="4.454" height="1.777"/>
					<rect x="234.602" y="147.136" width="4.454" height="1.777"/>
					<rect x="241.236" y="147.136" width="4.452" height="1.777"/>
					<rect x="247.868" y="147.136" width="4.453" height="1.777"/>
					<rect x="254.501" y="147.136" width="4.452" height="1.777"/>
					<rect x="261.132" y="147.136" width="4.452" height="1.777"/>
				</g>
			</g>
			<g>
				<g>
					<rect x="267.765" y="147.136" width="4.453" height="1.777"/>
					<rect x="274.398" y="147.136" width="4.453" height="1.777"/>
					<rect x="281.03" y="147.136" width="4.453" height="1.777"/>
					<rect x="287.664" y="147.136" width="4.452" height="1.777"/>
					<rect x="294.294" y="147.136" width="4.453" height="1.777"/>
					<rect x="300.928" y="147.136" width="4.453" height="1.777"/>
					<rect x="307.559" y="147.136" width="4.453" height="1.777"/>
				</g>
			</g>
			<g>
				<g>
					<rect x="314.192" y="147.136" width="4.454" height="1.777"/>
					<rect x="320.825" y="147.136" width="4.453" height="1.777"/>
					<rect x="327.457" y="147.136" width="4.453" height="1.777"/>
					<rect x="334.09" y="147.136" width="4.452" height="1.777"/>
					<path d="M345.12,148.962l0.105-1.775c0,0-1.139-0.026-2.276-0.052c-1.114,0-2.229,0-2.229,0v1.777c0,0,1.113,0,2.229,0
						C344.034,148.938,345.12,148.962,345.12,148.962z"/>
					<path d="M351.451,149.671l0.596-1.704c0,0-0.283-0.053-0.709-0.131c-0.423-0.088-0.992-0.178-1.564-0.243
						c-0.572-0.074-1.145-0.146-1.573-0.203c-0.432-0.034-0.719-0.056-0.719-0.056l-0.27,1.762c0,0,0.267,0.02,0.667,0.05
						c0.397,0.05,0.929,0.118,1.46,0.185c0.532,0.059,1.062,0.14,1.454,0.221C351.188,149.624,351.451,149.671,351.451,149.671z"/>
					<path d="M357.583,151.38l1.047-1.539c0,0-0.27-0.102-0.673-0.254c-0.4-0.158-0.94-0.356-1.494-0.513
						c-0.552-0.165-1.098-0.348-1.517-0.453c-0.419-0.102-0.699-0.17-0.699-0.17l-0.749,1.661c0,0,0.261,0.062,0.651,0.155
						c0.39,0.096,0.897,0.264,1.411,0.414c0.517,0.142,1.021,0.323,1.395,0.468C357.332,151.287,357.583,151.38,357.583,151.38z"/>
				</g>
			</g>
			<g>
				<g>
					<path d="M363.127,154.474l1.425-1.267c0,0-0.222-0.183-0.554-0.457c-0.347-0.254-0.831-0.564-1.305-0.887
						c-0.481-0.313-0.999-0.566-1.37-0.783c-0.373-0.216-0.636-0.333-0.636-0.333l-1.182,1.462c0,0,0.245,0.107,0.595,0.306
						c0.349,0.199,0.832,0.431,1.283,0.719c0.444,0.298,0.897,0.584,1.224,0.818C362.919,154.305,363.127,154.474,363.127,154.474z"
						/>
					<path d="M366.457,159.716l1.685-0.89c-0.02,0.004,0.011-0.292-0.13-0.7c-0.146-0.402-0.259-0.975-0.566-1.466
						c-0.137-0.252-0.263-0.511-0.396-0.743c-0.16-0.217-0.31-0.419-0.438-0.592c-0.129-0.173-0.235-0.317-0.311-0.418
						c-0.07-0.104-0.125-0.152-0.125-0.152l-1.526,1.154c0,0,0.051,0.045,0.116,0.142c0.069,0.094,0.169,0.229,0.288,0.39
						c0.119,0.161,0.26,0.349,0.408,0.551c0.125,0.217,0.242,0.458,0.367,0.694c0.288,0.458,0.383,0.996,0.518,1.373
						C366.472,159.441,366.438,159.72,366.457,159.716z"/>
					<polygon points="366.532,166.088 368.273,165.668 368.245,161.066 366.532,161.807 					"/>
					<polygon points="366.532,172.496 368.309,172.496 368.287,167.921 366.532,168.185 					"/>
					<rect x="366.532" y="174.675" width="1.776" height="4.454"/>
					<rect x="366.532" y="181.309" width="1.776" height="4.453"/>
					<rect x="366.532" y="187.94" width="1.776" height="4.453"/>
				</g>
			</g>
			<g>
				<g>
					<rect x="366.532" y="194.573" width="1.776" height="4.454"/>
					<rect x="366.532" y="201.205" width="1.776" height="4.454"/>
					<rect x="366.532" y="207.837" width="1.776" height="4.453"/>
					<rect x="366.532" y="214.471" width="1.776" height="4.452"/>
					<rect x="366.532" y="221.104" width="1.776" height="4.453"/>
					<polygon points="366.532,232.077 368.292,232.285 368.309,227.736 366.532,227.736 					"/>
					<polygon points="366.532,238.452 368.25,239.139 368.278,234.536 366.532,234.172 					"/>
				</g>
			</g>
		</g>
	</g>
</g>
<path fill="#42489D" stroke="#000000" stroke-width="2" stroke-miterlimit="10" d="M93.162,221.854
	c0,9.812-7.955,17.767-17.766,17.767H44.308c-9.813,0-17.766-7.955-17.766-17.767v-31.087c0-9.811,7.953-17.765,17.766-17.765
	h31.088c9.811,0,17.766,7.955,17.766,17.765V221.854z"/>
<g>
	<text transform="matrix(1 0 0 1 37.8291 167)" font-family="'MyriadPro-Regular'" font-size="19.043">Availability Zone (B)</text>
</g>
<g>
	
		<rect x="103.445" y="190.906" fill="#EF4136" stroke="#000000" stroke-width="2" stroke-miterlimit="10" width="81" height="38.01"/>
	
		<ellipse fill="#F48281" stroke="#000000" stroke-width="2" stroke-miterlimit="10" cx="143.945" cy="191.132" rx="40.5" ry="9.277"/>
	<path fill="#EF4136" stroke="#000000" stroke-width="2" stroke-miterlimit="10" d="M103.47,209.458c0,0,2.25,9.502,39.809,9.502
		c37.559,0,41.166-9.502,41.166-9.502"/>
	<path fill="#EF4136" stroke="#000000" stroke-width="2" stroke-miterlimit="10" d="M103.47,227.498c0,0,2.25,9.502,39.809,9.502
		c37.559,0,41.166-9.502,41.166-9.502"/>
</g>
<path fill="#05BCE7" stroke="#000000" stroke-width="2" stroke-miterlimit="10" d="M812.556,380c0,6.627-5.373,12-12,12h-349
	c-6.627,0-12-5.373-12-12V146c0-6.627,5.373-12,12-12h349c6.627,0,12,5.373,12,12V380z"/>
<g>
	<text transform="matrix(1 0 0 1 526.5562 123)" font-family="'MyriadPro-Bold'" font-size="21.3119">Region  </text>
	<text transform="matrix(1 0 0 1 602.1479 123)" font-family="'MyriadPro-Regular'" font-size="21.3119">(Oregon)</text>
</g>
<g>
	<path fill="#D2EAD6" d="M621.556,368c0,6.627-5.373,12-12,12h-149c-6.627,0-12-5.373-12-12v-81c0-6.627,5.373-12,12-12h149
		c6.627,0,12,5.373,12,12V368z"/>
	<g>
		<g>
			<g>
				<g>
					<path d="M619.779,371.926l1.588,1.133c-0.002,0,0.465-1.11,0.717-2.287c0.098-0.59,0.217-1.18,0.225-1.629
						c0.029-0.447,0.051-0.746,0.051-0.746l-1.717-0.847c0,0-0.014,0.28-0.033,0.7c0,0.423-0.104,0.977-0.186,1.529
						C620.203,370.884,619.777,371.926,619.779,371.926z"/>
					<path d="M615.638,377.057l1.275,1.487c0,0,0.988-0.688,1.832-1.551c0.408-0.441,0.813-0.886,1.07-1.259
						c0.135-0.18,0.246-0.33,0.326-0.436c0.07-0.109,0.111-0.174,0.111-0.174l-1.5-1.261c0,0-0.037,0.059-0.104,0.163
						c-0.074,0.098-0.18,0.238-0.305,0.406c-0.236,0.351-0.615,0.765-0.996,1.176C616.562,376.415,615.636,377.055,615.638,377.057z
						"/>
					<path d="M609.365,379.074l0.863,1.709c0,0,1.199-0.042,2.369-0.318c1.17-0.271,2.271-0.766,2.271-0.767l-1.148-1.578
						c0.002,0.001-1.031,0.453-2.131,0.69C610.492,379.055,609.365,379.073,609.365,379.074z"/>
					<polygon points="602.681,379.087 603.042,380.838 607.869,380.813 607.167,379.087 					"/>
					<polygon points="595.919,379.087 595.919,380.864 600.681,380.85 600.484,379.087 					"/>
					<rect x="588.966" y="379.087" width="4.668" height="1.777"/>
					<rect x="582.015" y="379.087" width="4.668" height="1.777"/>
				</g>
			</g>
			<g>
				<g>
					<rect x="575.06" y="379.087" width="4.67" height="1.777"/>
					<rect x="568.109" y="379.087" width="4.668" height="1.777"/>
					<rect x="561.156" y="379.087" width="4.668" height="1.777"/>
					<rect x="554.203" y="379.087" width="4.668" height="1.777"/>
					<rect x="547.25" y="379.087" width="4.668" height="1.777"/>
					<rect x="540.296" y="379.087" width="4.668" height="1.777"/>
					<rect x="533.345" y="379.087" width="4.668" height="1.777"/>
				</g>
			</g>
			<g>
				<g>
					<rect x="526.39" y="379.087" width="4.668" height="1.777"/>
					<rect x="519.437" y="379.087" width="4.67" height="1.777"/>
					<rect x="512.486" y="379.087" width="4.668" height="1.777"/>
					<rect x="505.533" y="379.087" width="4.666" height="1.777"/>
					<rect x="498.58" y="379.087" width="4.668" height="1.777"/>
					<rect x="491.625" y="379.087" width="4.668" height="1.777"/>
					<rect x="484.673" y="379.087" width="4.668" height="1.777"/>
				</g>
			</g>
			<g>
				<g>
					<rect x="477.72" y="379.087" width="4.668" height="1.777"/>
					<polygon points="470.824,379.087 470.716,380.855 475.435,380.864 475.435,379.087 					"/>
					<polygon points="464.14,379.087 463.529,380.818 468.355,380.846 468.628,379.087 					"/>
					<path d="M457.509,378.544l-1.074,1.621c0,0,1.145,0.375,2.334,0.528c1.188,0.137,2.396,0.113,2.396,0.113l0.775-1.721
						c0,0-1.123,0.023-2.24-0.079C458.583,378.883,457.509,378.544,457.509,378.544z"/>
					<path d="M452.062,374.831l-1.445,1.327c-0.002,0,0.768,0.93,1.688,1.707c0.93,0.768,1.98,1.359,1.98,1.359l1.207-1.541
						c0,0-0.984-0.545-1.855-1.26C452.777,375.699,452.062,374.831,452.062,374.831z"/>
					<path d="M449.531,368.743l-1.689,0.924c0,0,0.051,0.296,0.125,0.738c0.051,0.448,0.236,1.021,0.387,1.602
						c0.375,1.144,0.945,2.203,0.945,2.203l1.543-1.203c0,0-0.527-0.993-0.863-2.067c-0.135-0.545-0.301-1.082-0.342-1.502
						C449.574,369.021,449.531,368.743,449.531,368.743z"/>
					<polygon points="449.468,362.063 447.724,362.494 447.748,367.32 449.468,366.549 					"/>
				</g>
			</g>
			<g>
				<g>
					<polygon points="449.468,355.338 447.691,355.338 447.71,360.131 449.468,359.863 					"/>
					<rect x="447.691" y="348.385" width="1.777" height="4.668"/>
					<rect x="447.691" y="341.434" width="1.777" height="4.668"/>
					<rect x="447.691" y="334.479" width="1.777" height="4.668"/>
					<rect x="447.691" y="327.525" width="1.777" height="4.668"/>
					<rect x="447.691" y="320.572" width="1.777" height="4.668"/>
					<rect x="447.691" y="313.621" width="1.777" height="4.668"/>
				</g>
			</g>
			<g>
				<g>
					<rect x="447.691" y="306.667" width="1.777" height="4.668"/>
					<rect x="447.691" y="299.714" width="1.777" height="4.669"/>
					<polygon points="449.468,292.99 447.722,292.561 447.699,297.389 449.468,297.479 					"/>
					<path d="M449.527,286.307l-1.689-0.922c0,0-0.115,1.188-0.09,2.4c-0.006,1.206-0.012,2.412-0.012,2.412l1.732,0.596
						c0,0,0-1.122,0-2.244C449.445,287.426,449.527,286.307,449.527,286.307z"/>
					<path d="M452.031,280.209l-1.447-1.324c0,0-0.762,0.938-1.33,1.998c-0.27,0.537-0.537,1.076-0.676,1.506
						c-0.08,0.211-0.146,0.385-0.193,0.508c-0.045,0.123-0.059,0.197-0.059,0.197l1.627,1.063c0,0,0.078-0.27,0.229-0.663
						c0.125-0.403,0.369-0.908,0.619-1.412C451.324,281.085,452.031,280.209,452.031,280.209z"/>
					<path d="M457.462,276.473l-1.076-1.619c0,0.002-1.143,0.386-2.189,0.978c-0.516,0.313-1.029,0.623-1.377,0.912
						c-0.363,0.267-0.592,0.463-0.592,0.463l1.338,1.437c0,0,0.213-0.184,0.553-0.431c0.326-0.271,0.809-0.557,1.289-0.845
						C456.392,276.82,457.462,276.475,457.462,276.473z"/>
					<path d="M464.087,275.913l-0.613-1.731c0,0-1.207,0.006-2.414,0.012c-0.604-0.008-1.203,0.014-1.648,0.057
						c-0.449,0.02-0.744,0.075-0.744,0.074l0.939,1.684c0,0,0.275-0.048,0.695-0.059c0.42-0.03,0.98-0.044,1.543-0.035
						C462.966,275.913,464.087,275.913,464.087,275.913z"/>
				</g>
			</g>
			<g>
				<g>
					<polygon points="470.775,275.913 470.664,274.145 465.837,274.168 466.287,275.913 					"/>
					<rect x="473" y="274.136" width="4.668" height="1.777"/>
					<rect x="479.953" y="274.136" width="4.668" height="1.777"/>
					<rect x="486.906" y="274.136" width="4.668" height="1.777"/>
					<rect x="493.859" y="274.136" width="4.668" height="1.777"/>
					<rect x="500.812" y="274.136" width="4.67" height="1.777"/>
					<rect x="507.765" y="274.136" width="4.666" height="1.777"/>
				</g>
			</g>
			<g>
				<g>
					<rect x="514.718" y="274.136" width="4.668" height="1.777"/>
					<rect x="521.669" y="274.136" width="4.67" height="1.777"/>
					<rect x="528.623" y="274.136" width="4.668" height="1.777"/>
					<rect x="535.578" y="274.136" width="4.666" height="1.777"/>
					<rect x="542.529" y="274.136" width="4.668" height="1.777"/>
					<rect x="549.484" y="274.136" width="4.668" height="1.777"/>
					<rect x="556.435" y="274.136" width="4.668" height="1.777"/>
				</g>
			</g>
			<g>
				<g>
					<rect x="563.388" y="274.136" width="4.668" height="1.777"/>
					<rect x="570.341" y="274.136" width="4.668" height="1.777"/>
					<rect x="577.292" y="274.136" width="4.67" height="1.777"/>
					<rect x="584.248" y="274.136" width="4.668" height="1.777"/>
					<rect x="591.199" y="274.136" width="4.67" height="1.777"/>
					<polygon points="602.63,275.913 602.99,274.162 598.164,274.139 598.142,275.913 					"/>
					<path d="M609.312,275.924l0.861-1.711c0,0-0.299-0.023-0.752-0.02c-0.453-0.002-1.057-0.004-1.658-0.008
						c-1.207-0.006-2.414-0.013-2.414-0.013l-0.523,1.739c0,0,1.123,0,2.244,0c0.563,0,1.123,0,1.543,0
						C609.035,275.907,609.312,275.924,609.312,275.924z"/>
				</g>
			</g>
			<g>
				<g>
					<path d="M615.597,277.915l1.273-1.491c0,0-0.996-0.679-2.096-1.169c-1.105-0.478-2.277-0.747-2.277-0.747l-1.002,1.656
						c0,0,1.1,0.236,2.137,0.674C614.664,277.286,615.597,277.915,615.597,277.915z"/>
					<path d="M619.761,283.027l1.586-1.135c0,0-0.479-1.105-1.146-2.107c-0.68-0.995-1.525-1.855-1.525-1.855l-1.391,1.387
						c0,0,0.791,0.804,1.42,1.735C619.324,281.99,619.761,283.027,619.761,283.027z"/>
					<path d="M620.642,289.598l1.729-0.686c0,0-0.01-1.206-0.02-2.412c-0.045-0.598-0.063-1.195-0.16-1.637
						c-0.074-0.442-0.125-0.738-0.125-0.738l-1.658,0.998c0,0,0.043,0.277,0.105,0.693c0.088,0.414,0.092,0.977,0.125,1.535
						C620.64,288.475,620.642,289.598,620.642,289.598z"/>
					<polygon points="620.642,296.282 622.408,296.102 622.382,291.275 620.642,291.795 					"/>
					<polygon points="620.642,303.139 622.419,303.139 622.419,298.462 620.642,298.479 					"/>
					<rect x="620.642" y="305.424" width="1.777" height="4.669"/>
					<rect x="620.642" y="312.376" width="1.777" height="4.668"/>
				</g>
			</g>
			<g>
				<g>
					<rect x="620.642" y="319.329" width="1.777" height="4.669"/>
					<rect x="620.642" y="326.282" width="1.777" height="4.669"/>
					<rect x="620.642" y="333.234" width="1.777" height="4.668"/>
					<rect x="620.642" y="340.188" width="1.777" height="4.668"/>
					<rect x="620.642" y="347.141" width="1.777" height="4.67"/>
					<polygon points="620.642,358.668 622.408,358.846 622.419,354.096 620.642,354.096 					"/>
					<polygon points="620.642,365.352 622.371,366.033 622.396,361.207 620.642,360.864 					"/>
				</g>
			</g>
		</g>
	</g>
</g>
<path fill="#42489D" stroke="#000000" stroke-width="2" stroke-miterlimit="10" d="M524.271,348.854
	c0,9.812-7.953,17.767-17.766,17.767h-31.088c-9.813,0-17.766-7.955-17.766-17.767v-31.088c0-9.811,7.953-17.766,17.766-17.766
	h31.088c9.813,0,17.766,7.955,17.766,17.766V348.854z"/>
<g>
	<text transform="matrix(1 0 0 1 468.9409 294)" font-family="'MyriadPro-Regular'" font-size="19.043">AZ</text>
</g>
<g>
	<g>
		<path fill="#D2EAD6" d="M621.556,241c0,6.627-5.373,12-12,12h-149c-6.627,0-12-5.373-12-12v-81c0-6.627,5.373-12,12-12h149
			c6.627,0,12,5.373,12,12V241z"/>
		<g>
			<g>
				<g>
					<g>
						<path d="M619.779,244.926l1.588,1.133c-0.002,0,0.465-1.11,0.717-2.287c0.098-0.59,0.217-1.18,0.225-1.629
							c0.029-0.447,0.051-0.746,0.051-0.746l-1.717-0.847c0,0-0.014,0.28-0.033,0.7c0,0.423-0.104,0.977-0.186,1.53
							C620.203,243.884,619.777,244.926,619.779,244.926z"/>
						<path d="M615.638,250.057l1.275,1.487c0,0,0.988-0.688,1.832-1.551c0.408-0.441,0.813-0.886,1.07-1.259
							c0.135-0.18,0.246-0.33,0.326-0.436c0.07-0.109,0.111-0.174,0.111-0.174l-1.5-1.261c0,0-0.037,0.059-0.104,0.163
							c-0.074,0.098-0.18,0.238-0.305,0.406c-0.236,0.351-0.615,0.765-0.996,1.176C616.562,249.415,615.636,250.055,615.638,250.057
							z"/>
						<path d="M609.365,252.074l0.863,1.709c0,0,1.199-0.042,2.369-0.318c1.17-0.271,2.271-0.766,2.271-0.767l-1.148-1.578
							c0.002,0.001-1.031,0.453-2.131,0.69C610.492,252.055,609.365,252.073,609.365,252.074z"/>
						<polygon points="602.681,252.087 603.042,253.838 607.869,253.813 607.167,252.087 						"/>
						<polygon points="595.919,252.087 595.919,253.864 600.681,253.85 600.484,252.087 						"/>
						<rect x="588.966" y="252.087" width="4.668" height="1.777"/>
						<rect x="582.015" y="252.087" width="4.668" height="1.777"/>
					</g>
				</g>
				<g>
					<g>
						<rect x="575.06" y="252.087" width="4.67" height="1.777"/>
						<rect x="568.109" y="252.087" width="4.668" height="1.777"/>
						<rect x="561.156" y="252.087" width="4.668" height="1.777"/>
						<rect x="554.203" y="252.087" width="4.668" height="1.777"/>
						<rect x="547.25" y="252.087" width="4.668" height="1.777"/>
						<rect x="540.296" y="252.087" width="4.668" height="1.777"/>
						<rect x="533.345" y="252.087" width="4.668" height="1.777"/>
					</g>
				</g>
				<g>
					<g>
						<rect x="526.39" y="252.087" width="4.668" height="1.777"/>
						<rect x="519.437" y="252.087" width="4.67" height="1.777"/>
						<rect x="512.486" y="252.087" width="4.668" height="1.777"/>
						<rect x="505.533" y="252.087" width="4.666" height="1.777"/>
						<rect x="498.58" y="252.087" width="4.668" height="1.777"/>
						<rect x="491.625" y="252.087" width="4.668" height="1.777"/>
						<rect x="484.673" y="252.087" width="4.668" height="1.777"/>
					</g>
				</g>
				<g>
					<g>
						<rect x="477.72" y="252.087" width="4.668" height="1.777"/>
						<polygon points="470.824,252.087 470.716,253.855 475.435,253.864 475.435,252.087 						"/>
						<polygon points="464.14,252.087 463.529,253.818 468.355,253.845 468.628,252.087 						"/>
						<path d="M457.509,251.544l-1.074,1.621c0,0,1.145,0.375,2.334,0.528c1.188,0.137,2.396,0.113,2.396,0.113l0.775-1.721
							c0,0-1.123,0.023-2.24-0.079C458.583,251.883,457.509,251.544,457.509,251.544z"/>
						<path d="M452.062,247.831l-1.445,1.327c-0.002,0,0.768,0.93,1.688,1.707c0.93,0.768,1.98,1.359,1.98,1.359l1.207-1.541
							c0,0-0.984-0.545-1.855-1.26C452.777,248.699,452.062,247.831,452.062,247.831z"/>
						<path d="M449.531,241.743l-1.689,0.924c0,0,0.051,0.296,0.125,0.738c0.051,0.448,0.236,1.021,0.387,1.602
							c0.375,1.144,0.945,2.203,0.945,2.203l1.543-1.203c0,0-0.527-0.993-0.863-2.067c-0.135-0.545-0.301-1.082-0.342-1.502
							C449.574,242.021,449.531,241.743,449.531,241.743z"/>
						<polygon points="449.468,235.063 447.724,235.494 447.748,240.32 449.468,239.549 						"/>
					</g>
				</g>
				<g>
					<g>
						<polygon points="449.468,228.338 447.691,228.338 447.71,233.131 449.468,232.863 						"/>
						<rect x="447.691" y="221.385" width="1.777" height="4.668"/>
						<rect x="447.691" y="214.434" width="1.777" height="4.668"/>
						<rect x="447.691" y="207.479" width="1.777" height="4.667"/>
						<rect x="447.691" y="200.526" width="1.777" height="4.668"/>
						<rect x="447.691" y="193.572" width="1.777" height="4.668"/>
						<rect x="447.691" y="186.621" width="1.777" height="4.668"/>
					</g>
				</g>
				<g>
					<g>
						<rect x="447.691" y="179.667" width="1.777" height="4.668"/>
						<rect x="447.691" y="172.714" width="1.777" height="4.669"/>
						<polygon points="449.468,165.99 447.722,165.561 447.699,170.388 449.468,170.479 						"/>
						<path d="M449.527,159.307l-1.689-0.922c0,0-0.115,1.188-0.09,2.4c-0.006,1.206-0.012,2.412-0.012,2.412l1.732,0.596
							c0,0,0-1.122,0-2.244C449.445,160.426,449.527,159.307,449.527,159.307z"/>
						<path d="M452.031,153.209l-1.447-1.324c0,0-0.762,0.938-1.33,1.998c-0.27,0.537-0.537,1.076-0.676,1.505
							c-0.08,0.211-0.146,0.386-0.193,0.509c-0.045,0.123-0.059,0.197-0.059,0.197l1.627,1.063c0,0,0.078-0.271,0.229-0.663
							c0.125-0.403,0.369-0.908,0.619-1.412C451.324,154.085,452.031,153.209,452.031,153.209z"/>
						<path d="M457.462,149.473l-1.076-1.619c0,0.001-1.143,0.385-2.189,0.977c-0.516,0.313-1.029,0.623-1.377,0.912
							c-0.363,0.267-0.592,0.463-0.592,0.463l1.338,1.436c0,0,0.213-0.183,0.553-0.43c0.326-0.27,0.809-0.557,1.289-0.845
							C456.392,149.82,457.462,149.474,457.462,149.473z"/>
						<path d="M464.087,148.913l-0.613-1.732c0,0-1.207,0.006-2.414,0.013c-0.604-0.009-1.203,0.013-1.648,0.056
							c-0.449,0.019-0.744,0.075-0.744,0.074l0.939,1.684c0,0,0.275-0.048,0.695-0.059c0.42-0.03,0.98-0.044,1.543-0.035
							C462.966,148.913,464.087,148.913,464.087,148.913z"/>
					</g>
				</g>
				<g>
					<g>
						<polygon points="470.775,148.913 470.664,147.144 465.837,147.168 466.287,148.913 						"/>
						<rect x="473" y="147.136" width="4.668" height="1.777"/>
						<rect x="479.953" y="147.136" width="4.668" height="1.777"/>
						<rect x="486.906" y="147.136" width="4.668" height="1.777"/>
						<rect x="493.859" y="147.136" width="4.668" height="1.777"/>
						<rect x="500.812" y="147.136" width="4.67" height="1.777"/>
						<rect x="507.765" y="147.136" width="4.666" height="1.777"/>
					</g>
				</g>
				<g>
					<g>
						<rect x="514.718" y="147.136" width="4.668" height="1.777"/>
						<rect x="521.669" y="147.136" width="4.67" height="1.777"/>
						<rect x="528.623" y="147.136" width="4.668" height="1.777"/>
						<rect x="535.578" y="147.136" width="4.666" height="1.777"/>
						<rect x="542.529" y="147.136" width="4.668" height="1.777"/>
						<rect x="549.484" y="147.136" width="4.668" height="1.777"/>
						<rect x="556.435" y="147.136" width="4.668" height="1.777"/>
					</g>
				</g>
				<g>
					<g>
						<rect x="563.388" y="147.136" width="4.668" height="1.777"/>
						<rect x="570.341" y="147.136" width="4.668" height="1.777"/>
						<rect x="577.292" y="147.136" width="4.67" height="1.777"/>
						<rect x="584.248" y="147.136" width="4.668" height="1.777"/>
						<rect x="591.199" y="147.136" width="4.67" height="1.777"/>
						<polygon points="602.63,148.913 602.99,147.162 598.164,147.138 598.142,148.913 						"/>
						<path d="M609.312,148.924l0.861-1.711c0,0-0.299-0.023-0.752-0.019c-0.453-0.002-1.057-0.005-1.658-0.008
							c-1.207-0.007-2.414-0.013-2.414-0.013l-0.523,1.739c0,0,1.123,0,2.244,0c0.563,0,1.123,0,1.543,0
							C609.035,148.907,609.312,148.924,609.312,148.924z"/>
					</g>
				</g>
				<g>
					<g>
						<path d="M615.597,150.915l1.273-1.491c0,0-0.996-0.679-2.096-1.169c-1.105-0.477-2.277-0.747-2.277-0.747l-1.002,1.656
							c0,0,1.1,0.237,2.137,0.674C614.664,150.286,615.597,150.915,615.597,150.915z"/>
						<path d="M619.761,156.027l1.586-1.135c0,0-0.479-1.105-1.146-2.107c-0.68-0.995-1.525-1.855-1.525-1.855l-1.391,1.387
							c0,0,0.791,0.803,1.42,1.735C619.324,154.99,619.761,156.027,619.761,156.027z"/>
						<path d="M620.642,162.597l1.729-0.685c0,0-0.01-1.206-0.02-2.412c-0.045-0.597-0.063-1.196-0.16-1.637
							c-0.074-0.442-0.125-0.738-0.125-0.738l-1.658,0.998c0,0,0.043,0.277,0.105,0.693c0.088,0.414,0.092,0.977,0.125,1.536
							C620.64,161.475,620.642,162.597,620.642,162.597z"/>
						<polygon points="620.642,169.282 622.408,169.101 622.382,164.275 620.642,164.795 						"/>
						<polygon points="620.642,176.139 622.419,176.139 622.419,171.462 620.642,171.479 						"/>
						<rect x="620.642" y="178.424" width="1.777" height="4.669"/>
						<rect x="620.642" y="185.376" width="1.777" height="4.668"/>
					</g>
				</g>
				<g>
					<g>
						<rect x="620.642" y="192.329" width="1.777" height="4.669"/>
						<rect x="620.642" y="199.282" width="1.777" height="4.669"/>
						<rect x="620.642" y="206.234" width="1.777" height="4.668"/>
						<rect x="620.642" y="213.188" width="1.777" height="4.668"/>
						<rect x="620.642" y="220.141" width="1.777" height="4.67"/>
						<polygon points="620.642,231.668 622.408,231.846 622.419,227.095 620.642,227.095 						"/>
						<polygon points="620.642,238.352 622.371,239.033 622.396,234.207 620.642,233.864 						"/>
					</g>
				</g>
			</g>
		</g>
	</g>
	<path fill="#42489D" stroke="#000000" stroke-width="2" stroke-miterlimit="10" d="M524.271,221.854
		c0,9.812-7.953,17.767-17.766,17.767h-31.088c-9.813,0-17.766-7.955-17.766-17.767v-31.087c0-9.811,7.953-17.766,17.766-17.766
		h31.088c9.813,0,17.766,7.955,17.766,17.766V221.854z"/>
	<g>
		<text transform="matrix(1 0 0 1 468.9409 167)" font-family="'MyriadPro-Regular'" font-size="19.043">AZ</text>
	</g>
	<g>
		
			<rect x="530.654" y="189.051" fill="#EF4136" stroke="#000000" stroke-width="2" stroke-miterlimit="10" width="81" height="38.01"/>
		
			<ellipse fill="#F48281" stroke="#000000" stroke-width="2" stroke-miterlimit="10" cx="571.154" cy="189.276" rx="40.5" ry="9.276"/>
		<path fill="#EF4136" stroke="#000000" stroke-width="2" stroke-miterlimit="10" d="M530.679,207.604c0,0,2.25,9.501,39.809,9.501
			s41.166-9.501,41.166-9.501"/>
		<path fill="#EF4136" stroke="#000000" stroke-width="2" stroke-miterlimit="10" d="M530.679,225.643c0,0,2.25,9.502,39.809,9.502
			s41.166-9.502,41.166-9.502"/>
	</g>
</g>
<g>
	<path fill="#D2EAD6" d="M803.751,241c0,6.627-5.373,12-12,12h-149c-6.627,0-12-5.373-12-12v-81c0-6.627,5.373-12,12-12h149
		c6.627,0,12,5.373,12,12V241z"/>
	<g>
		<g>
			<g>
				<g>
					<path d="M801.974,244.926l1.588,1.133c-0.002,0,0.467-1.11,0.717-2.287c0.098-0.59,0.217-1.18,0.225-1.629
						c0.031-0.447,0.051-0.746,0.051-0.746l-1.715-0.847c0,0-0.016,0.28-0.035,0.7c0,0.423-0.104,0.977-0.186,1.53
						C802.398,243.884,801.972,244.926,801.974,244.926z"/>
					<path d="M797.833,250.057l1.275,1.487c0,0,0.988-0.688,1.832-1.551c0.408-0.441,0.813-0.886,1.068-1.259
						c0.137-0.18,0.248-0.33,0.328-0.436c0.07-0.109,0.111-0.174,0.111-0.174l-1.5-1.261c0,0-0.037,0.059-0.104,0.163
						c-0.074,0.098-0.18,0.238-0.305,0.406c-0.236,0.351-0.615,0.765-0.996,1.176C798.759,249.415,797.832,250.055,797.833,250.057z
						"/>
					<path d="M791.56,252.074l0.863,1.709c0,0,1.199-0.042,2.369-0.318c1.172-0.271,2.271-0.766,2.271-0.767l-1.146-1.578
						c0,0.001-1.033,0.453-2.131,0.69C792.687,252.055,791.56,252.073,791.56,252.074z"/>
					<polygon points="784.876,252.087 785.238,253.838 790.062,253.813 789.363,252.087 					"/>
					<polygon points="778.115,252.087 778.115,253.864 782.876,253.85 782.679,252.087 					"/>
					<rect x="771.162" y="252.087" width="4.668" height="1.777"/>
					<rect x="764.21" y="252.087" width="4.668" height="1.777"/>
				</g>
			</g>
			<g>
				<g>
					<rect x="757.255" y="252.087" width="4.67" height="1.777"/>
					<rect x="750.304" y="252.087" width="4.668" height="1.777"/>
					<rect x="743.351" y="252.087" width="4.668" height="1.777"/>
					<rect x="736.396" y="252.087" width="4.67" height="1.777"/>
					<rect x="729.445" y="252.087" width="4.668" height="1.777"/>
					<rect x="722.492" y="252.087" width="4.668" height="1.777"/>
					<rect x="715.541" y="252.087" width="4.668" height="1.777"/>
				</g>
			</g>
			<g>
				<g>
					<rect x="708.585" y="252.087" width="4.668" height="1.777"/>
					<rect x="701.632" y="252.087" width="4.67" height="1.777"/>
					<rect x="694.681" y="252.087" width="4.668" height="1.777"/>
					<rect x="687.728" y="252.087" width="4.666" height="1.777"/>
					<rect x="680.775" y="252.087" width="4.668" height="1.777"/>
					<rect x="673.82" y="252.087" width="4.668" height="1.777"/>
					<rect x="666.869" y="252.087" width="4.668" height="1.777"/>
				</g>
			</g>
			<g>
				<g>
					<rect x="659.916" y="252.087" width="4.668" height="1.777"/>
					<polygon points="653.019,252.087 652.912,253.855 657.63,253.864 657.63,252.087 					"/>
					<polygon points="646.335,252.087 645.724,253.818 650.55,253.845 650.824,252.087 					"/>
					<path d="M639.705,251.544l-1.074,1.621c0,0,1.145,0.375,2.334,0.528c1.188,0.137,2.396,0.113,2.396,0.113l0.775-1.721
						c0,0-1.125,0.023-2.242-0.079C640.779,251.883,639.705,251.544,639.705,251.544z"/>
					<path d="M634.257,247.831l-1.447,1.327c0,0,0.77,0.93,1.689,1.707c0.93,0.768,1.979,1.359,1.979,1.359l1.207-1.541
						c0,0-0.982-0.545-1.854-1.26C634.972,248.699,634.257,247.831,634.257,247.831z"/>
					<path d="M631.726,241.743l-1.688,0.924c0,0,0.049,0.296,0.123,0.738c0.051,0.448,0.236,1.021,0.387,1.602
						c0.375,1.144,0.947,2.203,0.947,2.203l1.541-1.203c0,0-0.527-0.993-0.863-2.067c-0.135-0.545-0.301-1.082-0.342-1.502
						C631.769,242.021,631.726,241.743,631.726,241.743z"/>
					<polygon points="631.664,235.063 629.919,235.494 629.943,240.32 631.664,239.549 					"/>
				</g>
			</g>
			<g>
				<g>
					<polygon points="631.664,228.338 629.886,228.338 629.906,233.131 631.664,232.863 					"/>
					<rect x="629.886" y="221.385" width="1.777" height="4.668"/>
					<rect x="629.886" y="214.434" width="1.777" height="4.668"/>
					<rect x="629.886" y="207.479" width="1.777" height="4.667"/>
					<rect x="629.886" y="200.526" width="1.777" height="4.668"/>
					<rect x="629.886" y="193.572" width="1.777" height="4.668"/>
					<rect x="629.886" y="186.621" width="1.777" height="4.668"/>
				</g>
			</g>
			<g>
				<g>
					<rect x="629.886" y="179.667" width="1.777" height="4.668"/>
					<rect x="629.886" y="172.714" width="1.777" height="4.669"/>
					<polygon points="631.664,165.99 629.917,165.561 629.894,170.388 631.664,170.479 					"/>
					<path d="M631.722,159.307l-1.689-0.922c0,0-0.115,1.188-0.09,2.4c-0.006,1.206-0.012,2.412-0.012,2.412l1.732,0.596
						c0,0,0-1.122,0-2.244C631.64,160.426,631.722,159.307,631.722,159.307z"/>
					<path d="M634.226,153.209l-1.447-1.324c0,0-0.762,0.938-1.33,1.998c-0.27,0.537-0.535,1.076-0.676,1.505
						c-0.08,0.211-0.146,0.386-0.193,0.509c-0.045,0.123-0.059,0.197-0.059,0.197l1.627,1.063c0,0,0.078-0.271,0.229-0.663
						c0.127-0.403,0.371-0.908,0.619-1.412C633.519,154.085,634.226,153.209,634.226,153.209z"/>
					<path d="M639.658,149.473l-1.076-1.619c0,0.001-1.143,0.385-2.191,0.977c-0.514,0.313-1.027,0.623-1.375,0.912
						c-0.363,0.267-0.592,0.463-0.592,0.463l1.338,1.436c0,0,0.213-0.183,0.553-0.43c0.326-0.27,0.809-0.557,1.289-0.845
						C638.587,149.82,639.658,149.474,639.658,149.473z"/>
					<path d="M646.283,148.913l-0.613-1.732c0,0-1.207,0.006-2.414,0.013c-0.604-0.009-1.205,0.013-1.65,0.056
						c-0.447,0.019-0.742,0.075-0.742,0.074l0.938,1.684c0,0,0.277-0.048,0.697-0.059c0.42-0.03,0.98-0.044,1.543-0.035
						C645.162,148.913,646.283,148.913,646.283,148.913z"/>
				</g>
			</g>
			<g>
				<g>
					<polygon points="652.97,148.913 652.859,147.144 648.033,147.168 648.482,148.913 					"/>
					<rect x="655.195" y="147.136" width="4.668" height="1.777"/>
					<rect x="662.146" y="147.136" width="4.67" height="1.777"/>
					<rect x="669.101" y="147.136" width="4.668" height="1.777"/>
					<rect x="676.054" y="147.136" width="4.668" height="1.777"/>
					<rect x="683.007" y="147.136" width="4.668" height="1.777"/>
					<rect x="689.96" y="147.136" width="4.666" height="1.777"/>
				</g>
			</g>
			<g>
				<g>
					<rect x="696.914" y="147.136" width="4.668" height="1.777"/>
					<rect x="703.865" y="147.136" width="4.67" height="1.777"/>
					<rect x="710.818" y="147.136" width="4.668" height="1.777"/>
					<rect x="717.771" y="147.136" width="4.668" height="1.777"/>
					<rect x="724.724" y="147.136" width="4.668" height="1.777"/>
					<rect x="731.679" y="147.136" width="4.668" height="1.777"/>
					<rect x="738.63" y="147.136" width="4.668" height="1.777"/>
				</g>
			</g>
			<g>
				<g>
					<rect x="745.583" y="147.136" width="4.668" height="1.777"/>
					<rect x="752.537" y="147.136" width="4.668" height="1.777"/>
					<rect x="759.488" y="147.136" width="4.67" height="1.777"/>
					<rect x="766.443" y="147.136" width="4.668" height="1.777"/>
					<rect x="773.394" y="147.136" width="4.67" height="1.777"/>
					<polygon points="784.826,148.913 785.185,147.162 780.359,147.138 780.337,148.913 					"/>
					<path d="M791.509,148.924l0.859-1.711c0,0-0.297-0.023-0.75-0.019c-0.453-0.002-1.059-0.005-1.66-0.008
						c-1.205-0.007-2.412-0.013-2.412-0.013l-0.525,1.739c0,0,1.123,0,2.244,0c0.563,0,1.123,0,1.543,0
						C791.228,148.907,791.509,148.924,791.509,148.924z"/>
				</g>
			</g>
			<g>
				<g>
					<path d="M797.792,150.915l1.273-1.491c0,0-0.996-0.679-2.098-1.169c-1.104-0.477-2.275-0.747-2.275-0.747l-1.002,1.656
						c0,0,1.1,0.237,2.137,0.674C796.859,150.286,797.792,150.915,797.792,150.915z"/>
					<path d="M801.957,156.027l1.586-1.135c0,0-0.479-1.105-1.146-2.107c-0.68-0.995-1.525-1.855-1.525-1.855l-1.391,1.387
						c0,0,0.789,0.803,1.42,1.735C801.519,154.99,801.957,156.027,801.957,156.027z"/>
					<path d="M802.837,162.597l1.729-0.685c0,0-0.01-1.206-0.02-2.412c-0.045-0.597-0.063-1.196-0.16-1.637
						c-0.074-0.442-0.125-0.738-0.125-0.738l-1.658,0.998c0,0,0.043,0.277,0.105,0.693c0.088,0.414,0.092,0.977,0.125,1.536
						C802.835,161.475,802.837,162.597,802.837,162.597z"/>
					<polygon points="802.837,169.282 804.603,169.101 804.578,164.275 802.837,164.795 					"/>
					<polygon points="802.837,176.139 804.615,176.139 804.615,171.462 802.837,171.479 					"/>
					<rect x="802.837" y="178.424" width="1.777" height="4.669"/>
					<rect x="802.837" y="185.376" width="1.777" height="4.668"/>
				</g>
			</g>
			<g>
				<g>
					<rect x="802.837" y="192.329" width="1.777" height="4.669"/>
					<rect x="802.837" y="199.282" width="1.777" height="4.669"/>
					<rect x="802.837" y="206.234" width="1.777" height="4.668"/>
					<rect x="802.837" y="213.188" width="1.777" height="4.668"/>
					<rect x="802.837" y="220.141" width="1.777" height="4.67"/>
					<polygon points="802.837,231.668 804.603,231.846 804.615,227.095 802.837,227.095 					"/>
					<polygon points="802.837,238.352 804.566,239.033 804.591,234.207 802.837,233.864 					"/>
				</g>
			</g>
		</g>
	</g>
</g>
<path fill="#42489D" stroke="#000000" stroke-width="2" stroke-miterlimit="10" d="M706.468,221.854
	c0,9.812-7.955,17.767-17.766,17.767h-31.088c-9.814,0-17.768-7.955-17.768-17.767v-31.087c0-9.811,7.953-17.766,17.768-17.766
	h31.088c9.811,0,17.766,7.955,17.766,17.766V221.854z"/>
<g>
	<text transform="matrix(1 0 0 1 651.1362 167)" font-family="'MyriadPro-Regular'" font-size="19.043">AZ</text>
</g>
<g>
	<path fill="#D2EAD6" d="M804.654,368c0,6.627-5.373,12-12,12h-149c-6.627,0-12-5.373-12-12v-81c0-6.627,5.373-12,12-12h149
		c6.627,0,12,5.373,12,12V368z"/>
	<g>
		<g>
			<g>
				<g>
					<path d="M802.875,371.926l1.588,1.133c0,0,0.467-1.11,0.719-2.287c0.098-0.59,0.217-1.18,0.225-1.629
						c0.029-0.447,0.051-0.746,0.051-0.746l-1.715-0.847c0,0-0.016,0.28-0.035,0.7c0,0.423-0.104,0.977-0.186,1.529
						C803.3,370.884,802.875,371.926,802.875,371.926z"/>
					<path d="M798.734,377.057l1.275,1.487c0,0,0.99-0.688,1.834-1.551c0.408-0.441,0.813-0.886,1.068-1.259
						c0.137-0.18,0.25-0.33,0.328-0.436c0.07-0.109,0.109-0.174,0.109-0.174l-1.5-1.261c0,0-0.037,0.059-0.102,0.163
						c-0.074,0.098-0.18,0.238-0.305,0.406c-0.236,0.351-0.615,0.765-0.996,1.176C799.662,376.415,798.734,377.055,798.734,377.057z
						"/>
					<path d="M792.462,379.074l0.863,1.709c0,0,1.199-0.042,2.369-0.318c1.172-0.271,2.271-0.766,2.271-0.767l-1.146-1.578
						c0,0.001-1.033,0.453-2.131,0.69C793.589,379.055,792.462,379.073,792.462,379.074z"/>
					<polygon points="785.777,379.087 786.14,380.838 790.966,380.813 790.265,379.087 					"/>
					<polygon points="779.017,379.087 779.017,380.864 783.779,380.85 783.582,379.087 					"/>
					<rect x="772.064" y="379.087" width="4.668" height="1.777"/>
					<rect x="765.113" y="379.087" width="4.668" height="1.777"/>
				</g>
			</g>
			<g>
				<g>
					<rect x="758.158" y="379.087" width="4.67" height="1.777"/>
					<rect x="751.205" y="379.087" width="4.67" height="1.777"/>
					<rect x="744.253" y="379.087" width="4.668" height="1.777"/>
					<rect x="737.3" y="379.087" width="4.668" height="1.777"/>
					<rect x="730.347" y="379.087" width="4.668" height="1.777"/>
					<rect x="723.394" y="379.087" width="4.668" height="1.777"/>
					<rect x="716.443" y="379.087" width="4.666" height="1.777"/>
				</g>
			</g>
			<g>
				<g>
					<rect x="709.488" y="379.087" width="4.668" height="1.777"/>
					<rect x="702.535" y="379.087" width="4.668" height="1.777"/>
					<rect x="695.583" y="379.087" width="4.668" height="1.777"/>
					<rect x="688.628" y="379.087" width="4.668" height="1.777"/>
					<rect x="681.677" y="379.087" width="4.668" height="1.777"/>
					<rect x="674.722" y="379.087" width="4.668" height="1.777"/>
					<rect x="667.771" y="379.087" width="4.668" height="1.777"/>
				</g>
			</g>
			<g>
				<g>
					<rect x="660.818" y="379.087" width="4.668" height="1.777"/>
					<polygon points="653.921,379.087 653.814,380.855 658.533,380.864 658.533,379.087 					"/>
					<polygon points="647.238,379.087 646.626,380.818 651.453,380.846 651.726,379.087 					"/>
					<path d="M640.607,378.544l-1.074,1.621c0,0,1.145,0.375,2.334,0.528c1.186,0.137,2.396,0.113,2.396,0.113l0.775-1.721
						c0,0-1.123,0.023-2.24-0.079C641.681,378.883,640.607,378.544,640.607,378.544z"/>
					<path d="M635.158,374.831l-1.445,1.327c0,0,0.77,0.93,1.689,1.707c0.93,0.768,1.979,1.359,1.979,1.359l1.207-1.541
						c0,0-0.984-0.545-1.854-1.26C635.875,375.699,635.158,374.831,635.158,374.831z"/>
					<path d="M632.628,368.743l-1.688,0.924c0,0,0.049,0.296,0.123,0.738c0.051,0.448,0.234,1.021,0.387,1.602
						c0.375,1.144,0.947,2.203,0.947,2.203l1.541-1.203c0.002,0-0.525-0.993-0.863-2.067c-0.135-0.545-0.301-1.082-0.34-1.502
						C632.669,369.021,632.628,368.743,632.628,368.743z"/>
					<polygon points="632.566,362.063 630.82,362.494 630.845,367.32 632.566,366.549 					"/>
				</g>
			</g>
			<g>
				<g>
					<polygon points="632.566,355.338 630.789,355.338 630.808,360.131 632.566,359.863 					"/>
					<rect x="630.789" y="348.385" width="1.777" height="4.668"/>
					<rect x="630.789" y="341.434" width="1.777" height="4.668"/>
					<rect x="630.789" y="334.479" width="1.777" height="4.668"/>
					<rect x="630.789" y="327.525" width="1.777" height="4.668"/>
					<rect x="630.789" y="320.572" width="1.777" height="4.668"/>
					<rect x="630.789" y="313.621" width="1.777" height="4.668"/>
				</g>
			</g>
			<g>
				<g>
					<rect x="630.789" y="306.667" width="1.777" height="4.668"/>
					<rect x="630.789" y="299.714" width="1.777" height="4.669"/>
					<polygon points="632.566,292.99 630.82,292.561 630.796,297.389 632.566,297.479 					"/>
					<path d="M632.625,286.307l-1.689-0.922c0,0-0.115,1.188-0.09,2.4c-0.006,1.206-0.014,2.412-0.014,2.412l1.734,0.596
						c0,0,0-1.122,0-2.244C632.542,287.426,632.625,286.307,632.625,286.307z"/>
					<path d="M635.128,280.209l-1.447-1.324c0,0-0.762,0.938-1.33,1.998c-0.271,0.537-0.535,1.076-0.676,1.506
						c-0.08,0.211-0.146,0.385-0.191,0.508c-0.047,0.123-0.061,0.197-0.061,0.197l1.627,1.063c0,0,0.078-0.27,0.229-0.663
						c0.127-0.403,0.371-0.908,0.617-1.412C634.421,281.085,635.128,280.209,635.128,280.209z"/>
					<path d="M640.56,276.473l-1.076-1.619c0,0.002-1.143,0.386-2.189,0.978c-0.514,0.313-1.029,0.623-1.377,0.912
						c-0.363,0.267-0.592,0.463-0.592,0.463l1.338,1.437c0,0,0.213-0.184,0.553-0.431c0.326-0.271,0.811-0.557,1.291-0.845
						C639.49,276.82,640.56,276.475,640.56,276.473z"/>
					<path d="M647.185,275.913l-0.613-1.731c0,0-1.207,0.006-2.412,0.012c-0.605-0.008-1.205,0.014-1.65,0.057
						c-0.449,0.02-0.744,0.075-0.744,0.074l0.938,1.684c0,0,0.275-0.048,0.697-0.059c0.422-0.03,0.98-0.044,1.541-0.035
						C646.062,275.913,647.185,275.913,647.185,275.913z"/>
				</g>
			</g>
			<g>
				<g>
					<polygon points="653.873,275.913 653.761,274.145 648.935,274.168 649.382,275.913 					"/>
					<rect x="656.097" y="274.136" width="4.668" height="1.777"/>
					<rect x="663.05" y="274.136" width="4.668" height="1.777"/>
					<rect x="670.003" y="274.136" width="4.668" height="1.777"/>
					<rect x="676.955" y="274.136" width="4.67" height="1.777"/>
					<rect x="683.91" y="274.136" width="4.668" height="1.777"/>
					<rect x="690.861" y="274.136" width="4.668" height="1.777"/>
				</g>
			</g>
			<g>
				<g>
					<rect x="697.814" y="274.136" width="4.67" height="1.777"/>
					<rect x="704.767" y="274.136" width="4.67" height="1.777"/>
					<rect x="711.72" y="274.136" width="4.668" height="1.777"/>
					<rect x="718.675" y="274.136" width="4.666" height="1.777"/>
					<rect x="725.626" y="274.136" width="4.668" height="1.777"/>
					<rect x="732.58" y="274.136" width="4.67" height="1.777"/>
					<rect x="739.533" y="274.136" width="4.668" height="1.777"/>
				</g>
			</g>
			<g>
				<g>
					<rect x="746.486" y="274.136" width="4.668" height="1.777"/>
					<rect x="753.437" y="274.136" width="4.67" height="1.777"/>
					<rect x="760.39" y="274.136" width="4.67" height="1.777"/>
					<rect x="767.345" y="274.136" width="4.668" height="1.777"/>
					<rect x="774.296" y="274.136" width="4.67" height="1.777"/>
					<polygon points="785.728,275.913 786.087,274.162 781.261,274.139 781.24,275.913 					"/>
					<path d="M792.412,275.924l0.859-1.711c0,0-0.299-0.023-0.752-0.02c-0.451-0.002-1.055-0.004-1.658-0.008
						c-1.207-0.006-2.412-0.013-2.412-0.013l-0.525,1.739c0,0,1.123,0,2.244,0c0.561,0,1.123,0,1.543,0
						C792.132,275.907,792.412,275.924,792.412,275.924z"/>
				</g>
			</g>
			<g>
				<g>
					<path d="M798.695,277.915l1.271-1.491c0,0-0.996-0.679-2.096-1.169c-1.105-0.478-2.277-0.747-2.277-0.747l-1.002,1.656
						c0,0,1.102,0.236,2.139,0.674C797.761,277.286,798.695,277.915,798.695,277.915z"/>
					<path d="M802.859,283.027l1.586-1.135c0,0-0.479-1.105-1.148-2.107c-0.678-0.995-1.523-1.855-1.523-1.855l-1.391,1.387
						c0,0,0.789,0.804,1.418,1.735C802.421,281.99,802.859,283.027,802.859,283.027z"/>
					<path d="M803.74,289.598l1.729-0.686c0,0-0.01-1.206-0.02-2.412c-0.045-0.598-0.063-1.195-0.16-1.637
						c-0.076-0.442-0.125-0.738-0.125-0.738l-1.658,0.998c0,0,0.043,0.277,0.105,0.693c0.088,0.414,0.092,0.977,0.125,1.535
						C803.738,288.475,803.74,289.598,803.74,289.598z"/>
					<polygon points="803.74,296.282 805.503,296.102 805.478,291.275 803.74,291.795 					"/>
					<polygon points="803.74,303.139 805.517,303.139 805.517,298.462 803.74,298.479 					"/>
					<rect x="803.74" y="305.424" width="1.777" height="4.669"/>
					<rect x="803.74" y="312.376" width="1.777" height="4.668"/>
				</g>
			</g>
			<g>
				<g>
					<rect x="803.74" y="319.329" width="1.777" height="4.669"/>
					<rect x="803.74" y="326.282" width="1.777" height="4.669"/>
					<rect x="803.74" y="333.234" width="1.777" height="4.668"/>
					<rect x="803.74" y="340.188" width="1.777" height="4.668"/>
					<rect x="803.74" y="347.141" width="1.777" height="4.67"/>
					<polygon points="803.74,358.668 805.505,358.846 805.517,354.096 803.74,354.096 					"/>
					<polygon points="803.74,365.352 805.468,366.033 805.492,361.207 803.74,360.864 					"/>
				</g>
			</g>
		</g>
	</g>
</g>
<path fill="#42489D" stroke="#000000" stroke-width="2" stroke-miterlimit="10" d="M707.371,348.854
	c0,9.812-7.955,17.767-17.768,17.767h-31.088c-9.813,0-17.766-7.955-17.766-17.767v-31.088c0-9.811,7.953-17.766,17.766-17.766
	h31.088c9.813,0,17.768,7.955,17.768,17.766V348.854z"/>
<g>
	<text transform="matrix(1 0 0 1 652.0386 294)" font-family="'MyriadPro-Regular'" font-size="19.043">AZ</text>
</g>
</svg>
