<?xml version="1.0" encoding="utf-8"?>
<!-- Generator: Adobe Illustrator 16.0.0, SVG Export Plug-In . SVG Version: 6.00 Build 0)  -->
<!DOCTYPE svg PUBLIC "-//W3C//DTD SVG 1.1//EN" "http://www.w3.org/Graphics/SVG/1.1/DTD/svg11.dtd">
<svg version="1.1" id="Layer_1" xmlns="http://www.w3.org/2000/svg" xmlns:xlink="http://www.w3.org/1999/xlink" x="0px" y="0px"
	 width="206px" height="170px" viewBox="0 0 206 170" enable-background="new 0 0 206 170" xml:space="preserve">
<text transform="matrix(1 0 0 1 102 24.1113)" fill="#010101" font-family="'MyriadPro-Bold'" font-size="19.043">S3</text>
<g>
	<path fill="#CDCCCC" stroke="#010101" stroke-width="2" stroke-miterlimit="10" d="M182.578,85.617
		c0.119-1.15,0.181-2.318,0.181-3.5c0-18.647-15.117-33.765-33.765-33.765c-2.104,0-4.16,0.202-6.158,0.57
		c-5.694-10.601-16.885-17.811-29.761-17.811c-9.826,0-18.667,4.2-24.838,10.899c-4.617-2.37-9.847-3.715-15.393-3.715
		c-16.621,0-30.428,12.014-33.233,27.829C23.796,68.93,11.782,82.737,11.782,99.358c0,7.862,2.694,15.092,7.202,20.831
		c-0.006,0.24-0.02,0.479-0.02,0.721c0,18.646,15.117,33.764,33.766,33.764c5.239,0,10.2-1.193,14.626-3.323
		c1.786,0.292,3.618,0.45,5.487,0.45c5.219,0,10.159-1.186,14.571-3.297c5.818,4.754,13.25,7.608,21.349,7.608
		c6.478,0,12.525-1.827,17.665-4.989c2.186,0.444,4.445,0.678,6.761,0.678c7.078,0,13.645-2.182,19.07-5.902
		c4.261,1.939,8.989,3.029,13.977,3.029c18.646,0,33.764-15.116,33.764-33.764C200,102.445,192.965,91.375,182.578,85.617z"/>
	<text transform="matrix(1 0 0 1 36.0503 104.127)" fill="#010101" font-family="'MyriadPro-Bold'" font-size="16.9965">JS,CSS,IMG, ETC...</text>
</g>
</svg>
