<?xml version="1.0" encoding="utf-8"?>
<!-- Generator: Adobe Illustrator 16.0.0, SVG Export Plug-In . SVG Version: 6.00 Build 0)  -->
<!DOCTYPE svg PUBLIC "-//W3C//DTD SVG 1.1//EN" "http://www.w3.org/Graphics/SVG/1.1/DTD/svg11.dtd">
<svg version="1.1" id="Layer_1" xmlns="http://www.w3.org/2000/svg" xmlns:xlink="http://www.w3.org/1999/xlink" x="0px" y="0px"
	 width="95.556px" height="204.444px" viewBox="0 0 95.556 204.444" enable-background="new 0 0 95.556 204.444"
	 xml:space="preserve">
<g>
	<path fill-rule="evenodd" clip-rule="evenodd" fill="#4A69B2" stroke="#000000" stroke-width="2" stroke-miterlimit="10" d="
		M89.917,179.667c0,6.627-5.373,12-12,12h-57c-6.627,0-12-5.373-12-12v-140c0-6.627,5.373-12,12-12h57c6.627,0,12,5.373,12,12
		V179.667z"/>
	<g>
		<text transform="matrix(1 0 0 1 32.564 18.6665)" font-family="'MyriadPro-Bold'" font-size="19.043">SNS</text>
	</g>
	<g>
		
			<rect x="23.917" y="40.667" fill-rule="evenodd" clip-rule="evenodd" fill="#DEDDDD" stroke="#000000" stroke-width="2" stroke-miterlimit="10" width="51" height="28"/>
		
			<polygon fill-rule="evenodd" clip-rule="evenodd" fill="#ABABAB" stroke="#000000" stroke-width="2" stroke-miterlimit="10" points="
			26.917,41.549 49.858,54.784 71.917,41.549 		"/>
	</g>
	<g>
		
			<rect x="23.917" y="96.167" fill-rule="evenodd" clip-rule="evenodd" fill="#DEDDDD" stroke="#000000" stroke-width="2" stroke-miterlimit="10" width="51" height="28"/>
		
			<polygon fill-rule="evenodd" clip-rule="evenodd" fill="#ABABAB" stroke="#000000" stroke-width="2" stroke-miterlimit="10" points="
			26.917,97.049 49.858,110.284 71.917,97.049 		"/>
	</g>
	<g>
		
			<rect x="23.917" y="151.667" fill-rule="evenodd" clip-rule="evenodd" fill="#DEDDDD" stroke="#000000" stroke-width="2" stroke-miterlimit="10" width="51" height="28"/>
		
			<polygon fill-rule="evenodd" clip-rule="evenodd" fill="#ABABAB" stroke="#000000" stroke-width="2" stroke-miterlimit="10" points="
			26.917,152.549 49.858,165.784 71.917,152.549 		"/>
	</g>
</g>
</svg>
