<?xml version="1.0" encoding="utf-8"?>
<!-- Generator: Adobe Illustrator 16.0.0, SVG Export Plug-In . SVG Version: 6.00 Build 0)  -->
<!DOCTYPE svg PUBLIC "-//W3C//DTD SVG 1.1//EN" "http://www.w3.org/Graphics/SVG/1.1/DTD/svg11.dtd">
<svg version="1.1" id="Layer_1" xmlns="http://www.w3.org/2000/svg" xmlns:xlink="http://www.w3.org/1999/xlink" x="0px" y="0px"
	 width="1086px" height="824px" viewBox="0 0 1086 824" enable-background="new 0 0 1086 824" xml:space="preserve">
<path fill="#A05D5E" stroke="#000000" stroke-width="2" stroke-miterlimit="10" d="M835,194c0,6.627-5.373,12-12,12H678
	c-6.627,0-12-5.373-12-12V49c0-6.627,5.373-12,12-12h145c6.627,0,12,5.373,12,12V194z"/>
<g>
	<path fill="none" stroke="#000000" stroke-width="4" stroke-miterlimit="10" d="M182.706,743.248
		c43.641,1.479,80.984-57.225,83.492-131.248"/>
	<polygon points="173,742.416 183.621,753.782 184.299,733.794 	"/>
</g>
<g>
	<path fill="#882786" stroke="#000000" stroke-width="2" stroke-miterlimit="10" d="M864,543.043c0,4.395-5.889,7.957-13.152,7.957
		H683.152c-7.264,0-13.152-3.563-13.152-7.957V312.957c0-4.395,5.889-7.957,13.152-7.957h167.695c7.264,0,13.152,3.563,13.152,7.957
		V543.043z"/>
	<g>
		<text transform="matrix(1 0 0 1 713 295)" font-family="'MyriadPro-Bold'" font-size="19.043">ElastiCache</text>
	</g>
	<g>
		<path fill="#D2EAD6" d="M853.82,413c0,6.627-5.373,12-12,12h-149c-6.627,0-12-5.373-12-12v-81c0-6.627,5.373-12,12-12h149
			c6.627,0,12,5.373,12,12V413z"/>
		<g>
			<g>
				<g>
					<g>
						<path d="M852.043,416.926l1.588,1.131c-0.001,0,0.466-1.11,0.717-2.286c0.097-0.591,0.217-1.18,0.224-1.63
							c0.031-0.448,0.052-0.746,0.052-0.746l-1.715-0.846c0,0-0.015,0.28-0.036,0.7c0.002,0.423-0.103,0.976-0.185,1.53
							C852.468,415.884,852.042,416.926,852.043,416.926z"/>
						<path d="M847.902,422.056l1.275,1.489c-0.001,0,0.989-0.69,1.832-1.551c0.409-0.441,0.814-0.885,1.07-1.258
							c0.136-0.18,0.249-0.33,0.328-0.435c0.07-0.111,0.11-0.174,0.11-0.174l-1.499-1.261c0,0-0.038,0.06-0.104,0.163
							c-0.073,0.098-0.179,0.239-0.305,0.407c-0.236,0.35-0.615,0.764-0.996,1.176C848.829,421.416,847.902,422.056,847.902,422.056
							z"/>
						<path d="M841.63,424.074l0.863,1.709c0-0.001,1.199-0.043,2.369-0.319c1.171-0.271,2.271-0.766,2.271-0.767l-1.147-1.578
							c0.001,0-1.032,0.453-2.131,0.691C842.756,424.055,841.63,424.074,841.63,424.074z"/>
						<polygon points="834.944,424.087 835.308,425.838 840.133,425.813 839.433,424.087 						"/>
						<polygon points="828.185,424.087 828.185,425.864 832.945,425.85 832.748,424.087 						"/>
						<rect x="821.231" y="424.087" width="4.668" height="1.777"/>
						<rect x="814.279" y="424.087" width="4.668" height="1.777"/>
					</g>
				</g>
				<g>
					<g>
						<rect x="807.325" y="424.087" width="4.669" height="1.777"/>
						<rect x="800.373" y="424.087" width="4.668" height="1.777"/>
						<rect x="793.42" y="424.087" width="4.669" height="1.777"/>
						<rect x="786.467" y="424.087" width="4.668" height="1.777"/>
						<rect x="779.514" y="424.087" width="4.669" height="1.777"/>
						<rect x="772.561" y="424.087" width="4.668" height="1.777"/>
						<rect x="765.609" y="424.087" width="4.667" height="1.777"/>
					</g>
				</g>
				<g>
					<g>
						<rect x="758.654" y="424.087" width="4.669" height="1.777"/>
						<rect x="751.702" y="424.087" width="4.668" height="1.777"/>
						<rect x="744.75" y="424.087" width="4.668" height="1.777"/>
						<rect x="737.796" y="424.087" width="4.668" height="1.777"/>
						<rect x="730.844" y="424.087" width="4.668" height="1.777"/>
						<rect x="723.89" y="424.087" width="4.668" height="1.777"/>
						<rect x="716.938" y="424.087" width="4.667" height="1.777"/>
					</g>
				</g>
				<g>
					<g>
						<rect x="709.984" y="424.087" width="4.668" height="1.777"/>
						<polygon points="703.088,424.087 702.981,425.856 707.7,425.864 707.7,424.087 						"/>
						<polygon points="696.403,424.087 695.793,425.82 700.62,425.844 700.893,424.087 						"/>
						<path d="M689.773,423.544l-1.074,1.62c0,0,1.145,0.376,2.335,0.529c1.186,0.137,2.396,0.113,2.396,0.114l0.776-1.72
							c0,0-1.124,0.024-2.241-0.079C690.848,423.883,689.773,423.544,689.773,423.544z"/>
						<path d="M684.325,419.832l-1.445,1.327c0,0,0.769,0.929,1.689,1.707c0.929,0.768,1.979,1.359,1.979,1.359l1.206-1.54
							c0,0-0.984-0.546-1.854-1.26C685.042,420.7,684.325,419.832,684.325,419.832z"/>
						<path d="M681.795,413.743l-1.688,0.924c0,0,0.05,0.295,0.124,0.738c0.051,0.448,0.235,1.021,0.387,1.601
							c0.374,1.143,0.946,2.204,0.946,2.204l1.542-1.203c0,0-0.527-0.995-0.864-2.068c-0.134-0.544-0.301-1.083-0.341-1.503
							C681.837,414.021,681.795,413.743,681.795,413.743z"/>
						<polygon points="681.732,407.061 679.987,407.494 680.013,412.32 681.732,411.549 						"/>
					</g>
				</g>
				<g>
					<g>
						<polygon points="681.732,400.337 679.956,400.337 679.976,405.131 681.732,404.864 						"/>
						<rect x="679.956" y="393.384" width="1.776" height="4.669"/>
						<rect x="679.956" y="386.432" width="1.776" height="4.669"/>
						<rect x="679.956" y="379.479" width="1.776" height="4.667"/>
						<rect x="679.956" y="372.526" width="1.776" height="4.669"/>
						<rect x="679.956" y="365.572" width="1.776" height="4.668"/>
						<rect x="679.956" y="358.621" width="1.776" height="4.667"/>
					</g>
				</g>
				<g>
					<g>
						<rect x="679.956" y="351.667" width="1.776" height="4.669"/>
						<rect x="679.956" y="344.714" width="1.776" height="4.668"/>
						<polygon points="681.732,337.99 679.987,337.561 679.963,342.387 681.732,342.479 						"/>
						<path d="M681.791,331.306l-1.689-0.92c0,0-0.115,1.188-0.09,2.399c-0.006,1.207-0.013,2.413-0.013,2.413l1.733,0.595
							c0,0,0-1.122,0-2.244C681.709,332.426,681.791,331.306,681.791,331.306z"/>
						<path d="M684.295,325.208l-1.448-1.324c0.001,0-0.761,0.937-1.329,1.998c-0.271,0.537-0.536,1.076-0.676,1.505
							c-0.08,0.21-0.146,0.386-0.192,0.509c-0.045,0.123-0.06,0.197-0.06,0.197l1.627,1.061c0,0,0.078-0.27,0.228-0.663
							c0.126-0.403,0.371-0.908,0.619-1.412C683.587,326.084,684.295,325.208,684.295,325.208z"/>
						<path d="M689.727,321.473l-1.076-1.619c0,0-1.142,0.384-2.19,0.976c-0.514,0.313-1.028,0.623-1.377,0.912
							c-0.363,0.267-0.591,0.463-0.591,0.463l1.338,1.436c0,0,0.212-0.182,0.553-0.43c0.325-0.269,0.808-0.556,1.289-0.845
							C688.655,321.819,689.728,321.473,689.727,321.473z"/>
						<path d="M696.353,320.913l-0.614-1.732c0,0-1.207,0.006-2.413,0.012c-0.605-0.009-1.205,0.013-1.65,0.056
							c-0.449,0.019-0.743,0.075-0.743,0.075l0.938,1.682c0,0,0.276-0.048,0.697-0.058c0.42-0.03,0.98-0.044,1.542-0.036
							C695.23,320.913,696.353,320.913,696.353,320.913z"/>
					</g>
				</g>
				<g>
					<g>
						<polygon points="703.039,320.913 702.928,319.144 698.102,319.168 698.55,320.913 						"/>
						<rect x="705.264" y="319.136" width="4.669" height="1.777"/>
						<rect x="712.217" y="319.136" width="4.668" height="1.777"/>
						<rect x="719.171" y="319.136" width="4.667" height="1.777"/>
						<rect x="726.122" y="319.136" width="4.669" height="1.777"/>
						<rect x="733.077" y="319.136" width="4.668" height="1.777"/>
						<rect x="740.028" y="319.136" width="4.668" height="1.777"/>
					</g>
				</g>
				<g>
					<g>
						<rect x="746.982" y="319.136" width="4.668" height="1.777"/>
						<rect x="753.935" y="319.136" width="4.669" height="1.777"/>
						<rect x="760.887" y="319.136" width="4.669" height="1.777"/>
						<rect x="767.842" y="319.136" width="4.667" height="1.777"/>
						<rect x="774.793" y="319.136" width="4.669" height="1.777"/>
						<rect x="781.748" y="319.136" width="4.668" height="1.777"/>
						<rect x="788.699" y="319.136" width="4.668" height="1.777"/>
					</g>
				</g>
				<g>
					<g>
						<rect x="795.652" y="319.136" width="4.669" height="1.777"/>
						<rect x="802.605" y="319.136" width="4.669" height="1.777"/>
						<rect x="809.558" y="319.136" width="4.669" height="1.777"/>
						<rect x="816.512" y="319.136" width="4.668" height="1.777"/>
						<rect x="823.464" y="319.136" width="4.669" height="1.777"/>
						<polygon points="834.896,320.913 835.254,319.162 830.428,319.137 830.407,320.913 						"/>
						<path d="M841.579,320.923l0.859-1.71c0,0-0.298-0.023-0.751-0.018c-0.453-0.002-1.056-0.005-1.659-0.008
							c-1.206-0.006-2.413-0.013-2.413-0.013l-0.524,1.739c0,0,1.122,0,2.244,0c0.562,0,1.122,0,1.543,0
							C841.299,320.907,841.579,320.923,841.579,320.923z"/>
					</g>
				</g>
				<g>
					<g>
						<path d="M847.862,322.915l1.272-1.491c0,0-0.996-0.678-2.096-1.168c-1.105-0.478-2.277-0.747-2.277-0.748l-1.002,1.656
							c0,0,1.101,0.238,2.138,0.673C846.929,322.286,847.863,322.915,847.862,322.915z"/>
						<path d="M852.025,328.027l1.586-1.134c0.001,0-0.478-1.106-1.147-2.108c-0.679-0.996-1.524-1.855-1.523-1.856l-1.391,1.387
							c0,0,0.79,0.803,1.419,1.735C851.589,326.99,852.026,328.027,852.025,328.027z"/>
						<path d="M852.908,334.597l1.727-0.685c0,0-0.01-1.206-0.02-2.413c-0.045-0.596-0.062-1.196-0.16-1.636
							c-0.075-0.443-0.125-0.738-0.125-0.738l-1.657,0.998c0,0,0.042,0.277,0.105,0.693c0.087,0.414,0.092,0.977,0.124,1.537
							C852.905,333.475,852.908,334.597,852.908,334.597z"/>
						<polygon points="852.908,341.282 854.671,341.101 854.646,336.275 852.908,336.794 						"/>
						<polygon points="852.908,348.139 854.685,348.139 854.684,343.462 852.908,343.479 						"/>
						<rect x="852.908" y="350.424" width="1.776" height="4.668"/>
						<rect x="852.908" y="357.376" width="1.776" height="4.667"/>
					</g>
				</g>
				<g>
					<g>
						<rect x="852.908" y="364.329" width="1.776" height="4.669"/>
						<rect x="852.908" y="371.282" width="1.776" height="4.668"/>
						<rect x="852.908" y="378.234" width="1.776" height="4.668"/>
						<rect x="852.908" y="385.189" width="1.776" height="4.667"/>
						<rect x="852.908" y="392.141" width="1.776" height="4.668"/>
						<polygon points="852.908,403.668 854.672,403.846 854.685,399.095 852.908,399.095 						"/>
						<polygon points="852.908,410.352 854.635,411.033 854.659,406.207 852.908,405.864 						"/>
					</g>
				</g>
			</g>
		</g>
	</g>
	<g>
		<path fill="#DB98C3" stroke="#000000" stroke-width="2" stroke-miterlimit="10" d="M762.131,393.854
			c0,9.811-7.955,17.766-17.766,17.766h-31.088c-9.813,0-17.766-7.955-17.766-17.766v-31.088c0-9.811,7.953-17.765,17.766-17.765
			h31.088c9.811,0,17.766,7.955,17.766,17.765V393.854z"/>
		<path fill="#DB98C3" stroke="#000000" stroke-width="2" stroke-miterlimit="10" d="M839.131,393.854
			c0,9.811-7.955,17.766-17.766,17.766h-31.09c-9.811,0-17.764-7.955-17.764-17.766v-31.088c0-9.811,7.953-17.765,17.764-17.765
			h31.09c9.811,0,17.766,7.955,17.766,17.765V393.854z"/>
	</g>
	<g>
		<text transform="matrix(1 0 0 1 701.2051 339)" font-family="'MyriadPro-Regular'" font-size="19.043">Availability Zone</text>
	</g>
	<g>
		<g>
			<path fill="#D2EAD6" d="M853.82,530c0,6.627-5.373,12-12,12h-149c-6.627,0-12-5.373-12-12v-81c0-6.627,5.373-12,12-12h149
				c6.627,0,12,5.373,12,12V530z"/>
			<g>
				<g>
					<g>
						<g>
							<path d="M852.043,533.926l1.588,1.131c-0.001,0,0.466-1.11,0.717-2.286c0.097-0.591,0.217-1.18,0.224-1.63
								c0.031-0.448,0.052-0.746,0.052-0.746l-1.715-0.846c0,0-0.015,0.28-0.036,0.7c0.002,0.423-0.103,0.976-0.185,1.53
								C852.468,532.884,852.042,533.926,852.043,533.926z"/>
							<path d="M847.902,539.056l1.275,1.489c-0.001,0,0.989-0.69,1.832-1.551c0.409-0.441,0.814-0.885,1.07-1.258
								c0.136-0.18,0.249-0.33,0.328-0.435c0.07-0.111,0.11-0.174,0.11-0.174l-1.499-1.261c0,0-0.038,0.06-0.104,0.163
								c-0.073,0.098-0.179,0.239-0.305,0.407c-0.236,0.35-0.615,0.764-0.996,1.176
								C848.829,538.416,847.902,539.056,847.902,539.056z"/>
							<path d="M841.63,541.074l0.863,1.709c0-0.001,1.199-0.043,2.369-0.319c1.171-0.271,2.271-0.766,2.271-0.767l-1.147-1.578
								c0.001,0-1.032,0.453-2.131,0.691C842.756,541.055,841.63,541.074,841.63,541.074z"/>
							<polygon points="834.944,541.087 835.308,542.838 840.133,542.813 839.433,541.087 							"/>
							<polygon points="828.185,541.087 828.185,542.864 832.945,542.85 832.748,541.087 							"/>
							<rect x="821.231" y="541.087" width="4.668" height="1.777"/>
							<rect x="814.279" y="541.087" width="4.668" height="1.777"/>
						</g>
					</g>
					<g>
						<g>
							<rect x="807.325" y="541.087" width="4.669" height="1.777"/>
							<rect x="800.373" y="541.087" width="4.668" height="1.777"/>
							<rect x="793.42" y="541.087" width="4.669" height="1.777"/>
							<rect x="786.467" y="541.087" width="4.668" height="1.777"/>
							<rect x="779.514" y="541.087" width="4.669" height="1.777"/>
							<rect x="772.561" y="541.087" width="4.668" height="1.777"/>
							<rect x="765.609" y="541.087" width="4.667" height="1.777"/>
						</g>
					</g>
					<g>
						<g>
							<rect x="758.654" y="541.087" width="4.669" height="1.777"/>
							<rect x="751.702" y="541.087" width="4.668" height="1.777"/>
							<rect x="744.75" y="541.087" width="4.668" height="1.777"/>
							<rect x="737.796" y="541.087" width="4.668" height="1.777"/>
							<rect x="730.844" y="541.087" width="4.668" height="1.777"/>
							<rect x="723.89" y="541.087" width="4.668" height="1.777"/>
							<rect x="716.938" y="541.087" width="4.667" height="1.777"/>
						</g>
					</g>
					<g>
						<g>
							<rect x="709.984" y="541.087" width="4.668" height="1.777"/>
							<polygon points="703.088,541.087 702.981,542.856 707.7,542.864 707.7,541.087 							"/>
							<polygon points="696.403,541.087 695.793,542.82 700.62,542.844 700.893,541.087 							"/>
							<path d="M689.773,540.544l-1.074,1.62c0,0,1.145,0.376,2.335,0.529c1.186,0.137,2.396,0.113,2.396,0.114l0.776-1.72
								c0,0-1.124,0.024-2.241-0.079C690.848,540.883,689.773,540.545,689.773,540.544z"/>
							<path d="M684.325,536.832l-1.445,1.327c0,0,0.769,0.929,1.689,1.707c0.929,0.768,1.979,1.359,1.979,1.359l1.206-1.54
								c0,0-0.984-0.546-1.854-1.26C685.042,537.7,684.325,536.832,684.325,536.832z"/>
							<path d="M681.795,530.743l-1.688,0.924c0,0,0.05,0.295,0.124,0.738c0.051,0.448,0.235,1.021,0.387,1.601
								c0.374,1.143,0.946,2.204,0.946,2.204l1.542-1.203c0,0-0.527-0.995-0.864-2.068c-0.134-0.544-0.301-1.083-0.341-1.503
								C681.837,531.021,681.795,530.743,681.795,530.743z"/>
							<polygon points="681.732,524.062 679.987,524.494 680.013,529.32 681.732,528.549 							"/>
						</g>
					</g>
					<g>
						<g>
							<polygon points="681.732,517.337 679.956,517.337 679.976,522.131 681.732,521.864 							"/>
							<rect x="679.956" y="510.385" width="1.776" height="4.668"/>
							<rect x="679.956" y="503.432" width="1.776" height="4.669"/>
							<rect x="679.956" y="496.479" width="1.776" height="4.667"/>
							<rect x="679.956" y="489.526" width="1.776" height="4.668"/>
							<rect x="679.956" y="482.572" width="1.776" height="4.668"/>
							<rect x="679.956" y="475.621" width="1.776" height="4.667"/>
						</g>
					</g>
					<g>
						<g>
							<rect x="679.956" y="468.667" width="1.776" height="4.669"/>
							<rect x="679.956" y="461.714" width="1.776" height="4.668"/>
							<polygon points="681.732,454.99 679.987,454.561 679.963,459.388 681.732,459.479 							"/>
							<path d="M681.791,448.306l-1.689-0.921c0,0-0.115,1.188-0.09,2.399c-0.006,1.207-0.013,2.413-0.013,2.413l1.733,0.595
								c0,0,0-1.122,0-2.244C681.709,449.426,681.791,448.306,681.791,448.306z"/>
							<path d="M684.295,442.208l-1.447-1.324c0,0-0.762,0.937-1.33,1.998c-0.271,0.537-0.536,1.076-0.676,1.505
								c-0.08,0.21-0.146,0.386-0.192,0.509c-0.045,0.124-0.06,0.197-0.06,0.197l1.627,1.061c0,0,0.078-0.27,0.228-0.663
								c0.126-0.403,0.371-0.908,0.619-1.412C683.587,443.084,684.296,442.209,684.295,442.208z"/>
							<path d="M689.727,438.473l-1.076-1.619c0,0-1.142,0.384-2.19,0.976c-0.514,0.313-1.028,0.623-1.377,0.912
								c-0.363,0.267-0.591,0.463-0.591,0.463l1.338,1.436c0,0,0.212-0.182,0.553-0.43c0.325-0.269,0.808-0.556,1.289-0.844
								C688.655,438.819,689.728,438.473,689.727,438.473z"/>
							<path d="M696.353,437.913l-0.614-1.732c0,0-1.207,0.006-2.413,0.012c-0.605-0.009-1.205,0.013-1.65,0.056
								c-0.449,0.019-0.743,0.075-0.743,0.075l0.938,1.683c0,0,0.276-0.048,0.697-0.058c0.42-0.03,0.98-0.044,1.542-0.036
								C695.23,437.913,696.353,437.913,696.353,437.913z"/>
						</g>
					</g>
					<g>
						<g>
							<polygon points="703.039,437.913 702.928,436.144 698.102,436.168 698.55,437.913 							"/>
							<rect x="705.264" y="436.136" width="4.669" height="1.777"/>
							<rect x="712.217" y="436.136" width="4.668" height="1.777"/>
							<rect x="719.171" y="436.136" width="4.667" height="1.777"/>
							<rect x="726.122" y="436.136" width="4.669" height="1.777"/>
							<rect x="733.077" y="436.136" width="4.668" height="1.777"/>
							<rect x="740.028" y="436.136" width="4.668" height="1.777"/>
						</g>
					</g>
					<g>
						<g>
							<rect x="746.982" y="436.136" width="4.668" height="1.777"/>
							<rect x="753.935" y="436.136" width="4.669" height="1.777"/>
							<rect x="760.887" y="436.136" width="4.669" height="1.777"/>
							<rect x="767.842" y="436.136" width="4.667" height="1.777"/>
							<rect x="774.793" y="436.136" width="4.669" height="1.777"/>
							<rect x="781.747" y="436.136" width="4.669" height="1.777"/>
							<rect x="788.699" y="436.136" width="4.668" height="1.777"/>
						</g>
					</g>
					<g>
						<g>
							<rect x="795.652" y="436.136" width="4.669" height="1.777"/>
							<rect x="802.605" y="436.136" width="4.669" height="1.777"/>
							<rect x="809.558" y="436.136" width="4.669" height="1.777"/>
							<rect x="816.512" y="436.136" width="4.668" height="1.777"/>
							<rect x="823.464" y="436.136" width="4.669" height="1.777"/>
							<polygon points="834.896,437.913 835.254,436.162 830.428,436.137 830.407,437.913 							"/>
							<path d="M841.579,437.923l0.859-1.71c0,0-0.298-0.023-0.751-0.018c-0.453-0.002-1.056-0.005-1.659-0.008
								c-1.207-0.006-2.413-0.013-2.413-0.013l-0.524,1.739c0,0,1.122,0,2.244,0c0.562,0,1.122,0,1.543,0
								C841.299,437.907,841.579,437.923,841.579,437.923z"/>
						</g>
					</g>
					<g>
						<g>
							<path d="M847.862,439.915l1.272-1.491c0,0-0.996-0.678-2.096-1.168c-1.105-0.478-2.277-0.747-2.277-0.748l-1.002,1.656
								c0,0,1.101,0.238,2.138,0.673C846.929,439.286,847.862,439.915,847.862,439.915z"/>
							<path d="M852.025,445.027l1.586-1.134c0.001,0-0.478-1.106-1.147-2.108c-0.679-0.996-1.524-1.855-1.524-1.856l-1.39,1.387
								c0,0,0.789,0.803,1.419,1.735C851.589,443.99,852.026,445.027,852.025,445.027z"/>
							<path d="M852.908,451.597l1.727-0.685c0,0-0.01-1.206-0.02-2.413c-0.045-0.596-0.062-1.196-0.16-1.636
								c-0.075-0.443-0.125-0.738-0.125-0.738l-1.657,0.998c0,0,0.042,0.277,0.105,0.693c0.087,0.414,0.092,0.977,0.124,1.537
								C852.905,450.475,852.908,451.597,852.908,451.597z"/>
							<polygon points="852.908,458.282 854.671,458.101 854.646,453.275 852.908,453.794 							"/>
							<polygon points="852.908,465.139 854.685,465.139 854.684,460.462 852.908,460.479 							"/>
							<rect x="852.908" y="467.424" width="1.776" height="4.668"/>
							<rect x="852.908" y="474.376" width="1.776" height="4.667"/>
						</g>
					</g>
					<g>
						<g>
							<rect x="852.908" y="481.329" width="1.776" height="4.669"/>
							<rect x="852.908" y="488.282" width="1.776" height="4.668"/>
							<rect x="852.908" y="495.234" width="1.776" height="4.669"/>
							<rect x="852.908" y="502.189" width="1.776" height="4.667"/>
							<rect x="852.908" y="509.141" width="1.776" height="4.668"/>
							<polygon points="852.908,520.668 854.672,520.846 854.685,516.095 852.908,516.095 							"/>
							<polygon points="852.908,527.352 854.635,528.033 854.659,523.207 852.908,522.864 							"/>
						</g>
					</g>
				</g>
			</g>
		</g>
		<g>
			<path fill="#DB98C3" stroke="#000000" stroke-width="2" stroke-miterlimit="10" d="M762.131,510.854
				c0,9.811-7.955,17.766-17.766,17.766h-31.088c-9.813,0-17.766-7.955-17.766-17.766v-31.088c0-9.811,7.953-17.766,17.766-17.766
				h31.088c9.811,0,17.766,7.955,17.766,17.766V510.854z"/>
			<path fill="#DB98C3" stroke="#000000" stroke-width="2" stroke-miterlimit="10" d="M839.131,510.854
				c0,9.811-7.955,17.766-17.766,17.766h-31.09c-9.811,0-17.764-7.955-17.764-17.766v-31.088c0-9.811,7.953-17.766,17.764-17.766
				h31.09c9.811,0,17.766,7.955,17.766,17.766V510.854z"/>
		</g>
		<g>
			<text transform="matrix(1 0 0 1 701.2051 456)" font-family="'MyriadPro-Regular'" font-size="19.043">Availability Zone</text>
		</g>
	</g>
	<polygon opacity="0.4" fill="#D34699" stroke="#000000" stroke-width="2" stroke-miterlimit="10" points="893,697 773,517 774,473 
		777,467 781,464 788,463 825,463 1074,520 	"/>
	<g>
		<path fill="#DB98C3" stroke="#000000" stroke-width="2" stroke-miterlimit="10" d="M1081,695c0,6.627-5.373,12-12,12H905
			c-6.627,0-12-5.373-12-12V531c0-6.627,5.373-12,12-12h164c6.627,0,12,5.373,12,12V695z"/>
		<g>
			<path fill-rule="evenodd" clip-rule="evenodd" fill="#020202" d="M949.455,575.358c0,9.938,0.023,19.875-0.013,29.813
				c-0.014,3.805-0.716,4.479-4.397,4.487c-7.228,0.017-14.456,0.017-21.686-0.001c-3.744-0.009-4.33-0.555-4.35-4.17
				c-0.067-12.731-0.442-25.474-0.046-38.19c0.316-10.121,4.479-18.602,14.405-22.599c4.152-1.673,8.951-1.76,13.465-2.509
				c2.382-0.395,3.113,0.739,3.091,3.082c-0.1,10.028-0.043,20.058-0.043,30.087C949.74,575.358,949.598,575.358,949.455,575.358z"
				/>
			<path fill-rule="evenodd" clip-rule="evenodd" fill="#020202" d="M956.918,611.189c-0.449-1.915-1.286-3.829-1.289-5.745
				c-0.029-20.153,0.094-40.309,0.111-60.462c0.001-2.108,0.753-2.861,2.861-2.84c8.135,0.08,16.271,0.05,24.407,0.018
				c1.55-0.007,2.646,0.241,2.64,2.155c-0.035,10.214-0.021,20.43-0.045,30.645c-0.001,0.421-0.208,0.843-0.367,1.451
				c-6.028-0.756-11.29,0.854-15.994,5.361c-0.093-1.627-0.161-2.826-0.244-4.293c-3.616,0-7.142,0-11.055,0
				c0,11.313,0,22.43,0,33.549C957.602,611.082,957.261,611.136,956.918,611.189z"/>
			<path fill-rule="evenodd" clip-rule="evenodd" fill="#020202" d="M1022,582.652c-10.719-8.883-17.426-8.566-27.253,0.532
				c-3.611-2.795-4.856-6.349-4.664-11.005c0.356-8.656,0.034-17.341,0.001-26.016c-0.015-4.013-0.004-4.122,4.11-3.962
				c8.781,0.342,16.957,2.242,22.085,10.294c1.625,2.552,3.318,5.407,3.744,8.306C1021.052,567.792,1021.35,574.89,1022,582.652z"/>
			<path fill-rule="evenodd" clip-rule="evenodd" fill="#020202" d="M985.123,617c-0.658-5.715-0.658-5.715-6.49-5.716
				c-3.051,0-6.103,0-9.694,0c0.32-5.684,0.396-11.537,1.116-17.313c0.252-2.016,1.728-4.236,3.288-5.657
				c4.172-3.802,10.099-1.695,11.195,3.826c0.418,2.104,0.535,4.291,0.56,6.443C985.17,604.723,985.123,610.861,985.123,617z"/>
			<path fill-rule="evenodd" clip-rule="evenodd" fill="#020202" d="M996.807,611.187c0-4.879-0.136-10.271,0.042-15.65
				c0.151-4.626,2.72-7.775,6.657-8.775c3.953-1.004,7.511,0.778,7.884,4.747c0.53,5.613,0.325,11.301,0.268,16.955
				c-0.004,0.456-1.287,1.26-1.997,1.286c-2.877,0.105-5.774-0.198-8.64-0.004C999.585,609.843,998.2,610.686,996.807,611.187z"/>
		</g>
		<g>
			<text transform="matrix(1 0 0 1 924.5 642.5)"><tspan x="0" y="0" font-family="'MyriadPro-Regular'" font-size="18">Memcached</tspan><tspan x="0" y="21.6" font-family="'MyriadPro-Regular'" font-size="18">compatible API</tspan></text>
		</g>
	</g>
</g>
<path fill="#4B853D" stroke="#000000" stroke-width="2" stroke-miterlimit="10" d="M440,646.043c0,4.395-5.889,7.957-13.152,7.957
	H259.152c-7.264,0-13.152-3.563-13.152-7.957V415.957c0-4.395,5.889-7.957,13.152-7.957h167.695c7.264,0,13.152,3.563,13.152,7.957
	V646.043z"/>
<g>
	<text transform="matrix(1 0 0 1 271.8564 398)" font-family="'MyriadPro-Bold'" font-size="19.043">Elastic Beanstalk</text>
</g>
<g>
	<g>
		<path fill="#D2EAD6" d="M430,516c0,6.627-5.373,12-12,12H269c-6.627,0-12-5.373-12-12v-81c0-6.627,5.373-12,12-12h149
			c6.627,0,12,5.373,12,12V516z"/>
		<g>
			<g>
				<g>
					<g>
						<path d="M428.223,519.926l1.587,1.131c0,0,0.466-1.11,0.718-2.286c0.097-0.591,0.217-1.18,0.224-1.63
							c0.031-0.448,0.051-0.746,0.051-0.746l-1.715-0.846c0,0-0.014,0.28-0.035,0.7c0.001,0.423-0.103,0.976-0.185,1.53
							C428.648,518.884,428.222,519.926,428.223,519.926z"/>
						<path d="M424.082,525.056l1.275,1.489c0,0,0.99-0.69,1.833-1.551c0.409-0.441,0.814-0.885,1.07-1.258
							c0.136-0.18,0.249-0.33,0.328-0.435c0.071-0.111,0.111-0.174,0.111-0.174l-1.5-1.261c0,0-0.037,0.06-0.103,0.163
							c-0.073,0.098-0.178,0.239-0.304,0.407c-0.237,0.35-0.616,0.764-0.996,1.176C425.008,524.416,424.082,525.056,424.082,525.056
							z"/>
						<path d="M417.81,527.074l0.863,1.709c0-0.001,1.199-0.043,2.369-0.319c1.171-0.271,2.271-0.766,2.271-0.767l-1.147-1.578
							c0,0-1.032,0.453-2.131,0.691C418.936,527.055,417.81,527.074,417.81,527.074z"/>
						<polygon points="411.125,527.087 411.487,528.838 416.313,528.813 415.612,527.087 						"/>
						<polygon points="404.364,527.087 404.364,528.864 409.125,528.85 408.928,527.087 						"/>
						<rect x="397.411" y="527.087" width="4.668" height="1.777"/>
						<rect x="390.459" y="527.087" width="4.667" height="1.777"/>
					</g>
				</g>
				<g>
					<g>
						<rect x="383.505" y="527.087" width="4.669" height="1.777"/>
						<rect x="376.552" y="527.087" width="4.668" height="1.777"/>
						<rect x="369.6" y="527.087" width="4.668" height="1.777"/>
						<rect x="362.646" y="527.087" width="4.668" height="1.777"/>
						<rect x="355.694" y="527.087" width="4.668" height="1.777"/>
						<rect x="348.74" y="527.087" width="4.668" height="1.777"/>
						<rect x="341.789" y="527.087" width="4.667" height="1.777"/>
					</g>
				</g>
				<g>
					<g>
						<rect x="334.834" y="527.087" width="4.668" height="1.777"/>
						<rect x="327.881" y="527.087" width="4.669" height="1.777"/>
						<rect x="320.929" y="527.087" width="4.668" height="1.777"/>
						<rect x="313.976" y="527.087" width="4.667" height="1.777"/>
						<rect x="307.023" y="527.087" width="4.669" height="1.777"/>
						<rect x="300.069" y="527.087" width="4.668" height="1.777"/>
						<rect x="293.118" y="527.087" width="4.667" height="1.777"/>
					</g>
				</g>
				<g>
					<g>
						<rect x="286.164" y="527.087" width="4.668" height="1.777"/>
						<polygon points="279.268,527.087 279.161,528.856 283.879,528.864 283.879,527.087 						"/>
						<polygon points="272.583,527.087 271.973,528.82 276.8,528.844 277.072,527.087 						"/>
						<path d="M265.953,526.544l-1.074,1.62c0,0,1.144,0.376,2.334,0.529c1.186,0.137,2.396,0.113,2.396,0.114l0.776-1.72
							c0,0-1.124,0.024-2.241-0.079C267.027,526.883,265.953,526.544,265.953,526.544z"/>
						<path d="M260.505,522.832l-1.446,1.327c0,0,0.769,0.929,1.689,1.707c0.929,0.768,1.979,1.359,1.979,1.359l1.207-1.54
							c0,0-0.985-0.546-1.854-1.26C261.221,523.7,260.505,522.832,260.505,522.832z"/>
						<path d="M257.974,516.743l-1.688,0.924c0,0,0.05,0.295,0.125,0.738c0.051,0.448,0.235,1.021,0.386,1.601
							c0.374,1.143,0.946,2.204,0.946,2.204l1.542-1.203c0,0-0.527-0.995-0.864-2.068c-0.134-0.544-0.3-1.083-0.341-1.503
							C258.017,517.021,257.974,516.743,257.974,516.743z"/>
						<polygon points="257.913,510.061 256.167,510.494 256.192,515.32 257.913,514.549 						"/>
					</g>
				</g>
				<g>
					<g>
						<polygon points="257.913,503.337 256.136,503.337 256.155,508.131 257.913,507.864 						"/>
						<rect x="256.136" y="496.384" width="1.777" height="4.669"/>
						<rect x="256.136" y="489.432" width="1.777" height="4.668"/>
						<rect x="256.136" y="482.479" width="1.777" height="4.667"/>
						<rect x="256.136" y="475.526" width="1.777" height="4.669"/>
						<rect x="256.136" y="468.572" width="1.777" height="4.668"/>
						<rect x="256.136" y="461.621" width="1.777" height="4.667"/>
					</g>
				</g>
				<g>
					<g>
						<rect x="256.136" y="454.667" width="1.777" height="4.669"/>
						<rect x="256.136" y="447.714" width="1.777" height="4.668"/>
						<polygon points="257.913,440.99 256.167,440.561 256.143,445.387 257.913,445.479 						"/>
						<path d="M257.97,434.306l-1.689-0.92c0,0-0.115,1.188-0.09,2.399c-0.006,1.207-0.012,2.413-0.012,2.413l1.733,0.594
							c0,0,0-1.122,0-2.244C257.889,435.426,257.97,434.306,257.97,434.306z"/>
						<path d="M260.475,428.208l-1.448-1.324c0,0-0.761,0.937-1.33,1.998c-0.27,0.537-0.536,1.076-0.676,1.505
							c-0.08,0.21-0.146,0.386-0.192,0.509c-0.045,0.123-0.059,0.197-0.059,0.197l1.627,1.061c0,0,0.078-0.27,0.228-0.663
							c0.126-0.403,0.37-0.908,0.619-1.412C259.767,429.084,260.475,428.208,260.475,428.208z"/>
						<path d="M265.907,424.473l-1.077-1.619c0,0-1.141,0.384-2.19,0.976c-0.513,0.313-1.028,0.623-1.376,0.912
							c-0.364,0.267-0.591,0.463-0.591,0.463l1.337,1.436c0,0,0.213-0.182,0.553-0.43c0.326-0.269,0.808-0.556,1.289-0.845
							C264.835,424.819,265.907,424.473,265.907,424.473z"/>
						<path d="M272.532,423.913l-0.614-1.732c0,0-1.207,0.006-2.413,0.012c-0.605-0.009-1.205,0.013-1.65,0.056
							c-0.449,0.019-0.744,0.075-0.744,0.075l0.938,1.682c0,0,0.277-0.048,0.698-0.058c0.42-0.03,0.98-0.044,1.542-0.036
							C271.41,423.913,272.532,423.913,272.532,423.913z"/>
					</g>
				</g>
				<g>
					<g>
						<polygon points="279.219,423.913 279.108,422.144 274.281,422.168 274.73,423.913 						"/>
						<rect x="281.444" y="422.136" width="4.668" height="1.777"/>
						<rect x="288.396" y="422.136" width="4.669" height="1.777"/>
						<rect x="295.351" y="422.136" width="4.667" height="1.777"/>
						<rect x="302.302" y="422.136" width="4.668" height="1.777"/>
						<rect x="309.256" y="422.136" width="4.668" height="1.777"/>
						<rect x="316.208" y="422.136" width="4.667" height="1.777"/>
					</g>
				</g>
				<g>
					<g>
						<rect x="323.162" y="422.136" width="4.668" height="1.777"/>
						<rect x="330.114" y="422.136" width="4.669" height="1.777"/>
						<rect x="337.067" y="422.136" width="4.668" height="1.777"/>
						<rect x="344.021" y="422.136" width="4.668" height="1.777"/>
						<rect x="350.973" y="422.136" width="4.668" height="1.777"/>
						<rect x="357.927" y="422.136" width="4.668" height="1.777"/>
						<rect x="364.879" y="422.136" width="4.668" height="1.777"/>
					</g>
				</g>
				<g>
					<g>
						<rect x="371.833" y="422.136" width="4.668" height="1.777"/>
						<rect x="378.785" y="422.136" width="4.668" height="1.777"/>
						<rect x="385.737" y="422.136" width="4.669" height="1.777"/>
						<rect x="392.692" y="422.136" width="4.667" height="1.777"/>
						<rect x="399.644" y="422.136" width="4.669" height="1.777"/>
						<polygon points="411.075,423.913 411.434,422.162 406.608,422.137 406.587,423.913 						"/>
						<path d="M417.758,423.923l0.86-1.71c0,0-0.298-0.023-0.751-0.018c-0.452-0.002-1.056-0.005-1.659-0.008
							c-1.207-0.006-2.413-0.013-2.413-0.013l-0.524,1.739c0,0,1.122,0,2.244,0c0.561,0,1.122,0,1.543,0
							C417.479,423.907,417.758,423.923,417.758,423.923z"/>
					</g>
				</g>
				<g>
					<g>
						<path d="M424.042,425.915l1.272-1.491c0,0-0.997-0.678-2.097-1.168c-1.105-0.478-2.277-0.747-2.277-0.748l-1.002,1.656
							c0,0,1.1,0.238,2.138,0.673C423.109,425.286,424.042,425.915,424.042,425.915z"/>
						<path d="M428.206,431.027l1.586-1.134c0,0-0.478-1.106-1.147-2.108c-0.679-0.996-1.524-1.855-1.524-1.856l-1.39,1.387
							c0,0,0.79,0.803,1.419,1.735C427.769,429.99,428.206,431.027,428.206,431.027z"/>
						<path d="M429.087,437.597l1.727-0.685c0,0-0.01-1.206-0.019-2.413c-0.045-0.596-0.062-1.196-0.161-1.636
							c-0.075-0.443-0.125-0.738-0.125-0.738l-1.658,0.998c0,0,0.042,0.277,0.106,0.693c0.087,0.414,0.091,0.977,0.124,1.537
							C429.085,436.475,429.087,437.597,429.087,437.597z"/>
						<polygon points="429.087,444.282 430.851,444.101 430.826,439.275 429.087,439.794 						"/>
						<polygon points="429.087,451.139 430.864,451.139 430.863,446.462 429.087,446.479 						"/>
						<rect x="429.087" y="453.424" width="1.777" height="4.668"/>
						<rect x="429.087" y="460.376" width="1.777" height="4.667"/>
					</g>
				</g>
				<g>
					<g>
						<rect x="429.087" y="467.329" width="1.777" height="4.669"/>
						<rect x="429.087" y="474.282" width="1.777" height="4.668"/>
						<rect x="429.087" y="481.234" width="1.777" height="4.669"/>
						<rect x="429.087" y="488.188" width="1.777" height="4.668"/>
						<rect x="429.087" y="495.141" width="1.777" height="4.668"/>
						<polygon points="429.087,506.668 430.851,506.846 430.864,502.095 429.087,502.095 						"/>
						<polygon points="429.087,513.352 430.814,514.033 430.839,509.207 429.087,508.864 						"/>
					</g>
				</g>
			</g>
		</g>
	</g>
	<g>
		<text transform="matrix(1 0 0 1 277.3838 442)" font-family="'MyriadPro-Regular'" font-size="19.043">Availability Zone</text>
	</g>
	<g>
		<path fill="#98CE83" stroke="#000000" stroke-width="2" stroke-miterlimit="10" d="M415.655,499.234
			c0,9.811-7.955,17.766-17.766,17.766h-31.09c-9.811,0-17.764-7.955-17.764-17.766v-31.088c0-9.811,7.953-17.765,17.764-17.765
			h31.09c9.811,0,17.766,7.955,17.766,17.765V499.234z"/>
		<text transform="matrix(1 0 0 1 366.6826 489.2798)" font-family="'MyriadPro-Regular'" font-size="19.043">EC2</text>
	</g>
	<g>
		<path fill="#98CE83" stroke="#000000" stroke-width="2" stroke-miterlimit="10" d="M337.619,499.234
			c0,9.811-7.955,17.766-17.766,17.766h-31.09c-9.811,0-17.764-7.955-17.764-17.766v-31.088c0-9.811,7.953-17.765,17.764-17.765
			h31.09c9.811,0,17.766,7.955,17.766,17.765V499.234z"/>
		<text transform="matrix(1 0 0 1 288.647 489.2798)" font-family="'MyriadPro-Regular'" font-size="19.043">EC2</text>
	</g>
</g>
<g>
	<g>
		<path fill="#D2EAD6" d="M430,633c0,6.627-5.373,12-12,12H269c-6.627,0-12-5.373-12-12v-81c0-6.627,5.373-12,12-12h149
			c6.627,0,12,5.373,12,12V633z"/>
		<g>
			<g>
				<g>
					<g>
						<path d="M428.223,636.927l1.587,1.131c0,0,0.466-1.11,0.718-2.286c0.097-0.591,0.217-1.18,0.224-1.63
							c0.031-0.447,0.051-0.745,0.051-0.745l-1.715-0.847c0,0-0.014,0.28-0.035,0.7c0.001,0.423-0.103,0.976-0.185,1.53
							C428.648,635.884,428.222,636.926,428.223,636.927z"/>
						<path d="M424.082,642.056l1.275,1.488c0,0,0.99-0.689,1.833-1.551c0.409-0.441,0.814-0.885,1.07-1.258
							c0.136-0.181,0.249-0.331,0.328-0.436c0.071-0.11,0.111-0.174,0.111-0.174l-1.5-1.261c0,0-0.037,0.06-0.103,0.163
							c-0.073,0.099-0.178,0.238-0.304,0.407c-0.237,0.35-0.616,0.764-0.996,1.176C425.008,641.416,424.082,642.056,424.082,642.056
							z"/>
						<path d="M417.81,644.074l0.863,1.709c0,0,1.199-0.042,2.369-0.318c1.171-0.271,2.271-0.766,2.271-0.767l-1.147-1.578
							c0,0.001-1.032,0.453-2.131,0.691C418.936,644.056,417.81,644.073,417.81,644.074z"/>
						<polygon points="411.125,644.088 411.487,645.838 416.313,645.813 415.612,644.088 						"/>
						<polygon points="404.364,644.088 404.364,645.864 409.125,645.85 408.928,644.088 						"/>
						<rect x="397.411" y="644.088" width="4.668" height="1.776"/>
						<rect x="390.459" y="644.088" width="4.667" height="1.776"/>
					</g>
				</g>
				<g>
					<g>
						<rect x="383.505" y="644.088" width="4.669" height="1.776"/>
						<rect x="376.552" y="644.088" width="4.668" height="1.776"/>
						<rect x="369.6" y="644.088" width="4.668" height="1.776"/>
						<rect x="362.646" y="644.088" width="4.668" height="1.776"/>
						<rect x="355.694" y="644.088" width="4.668" height="1.776"/>
						<rect x="348.74" y="644.088" width="4.668" height="1.776"/>
						<rect x="341.789" y="644.088" width="4.667" height="1.776"/>
					</g>
				</g>
				<g>
					<g>
						<rect x="334.834" y="644.088" width="4.668" height="1.776"/>
						<rect x="327.881" y="644.088" width="4.669" height="1.776"/>
						<rect x="320.929" y="644.088" width="4.668" height="1.776"/>
						<rect x="313.976" y="644.088" width="4.667" height="1.776"/>
						<rect x="307.023" y="644.088" width="4.669" height="1.776"/>
						<rect x="300.069" y="644.088" width="4.668" height="1.776"/>
						<rect x="293.118" y="644.088" width="4.667" height="1.776"/>
					</g>
				</g>
				<g>
					<g>
						<rect x="286.164" y="644.088" width="4.668" height="1.776"/>
						<polygon points="279.268,644.088 279.161,645.856 283.879,645.864 283.879,644.088 						"/>
						<polygon points="272.583,644.088 271.973,645.819 276.8,645.845 277.072,644.088 						"/>
						<path d="M265.953,643.544l-1.074,1.621c0,0,1.144,0.375,2.334,0.528c1.186,0.137,2.396,0.114,2.396,0.114l0.776-1.72
							c0-0.001-1.124,0.024-2.241-0.079C267.027,643.884,265.953,643.545,265.953,643.544z"/>
						<path d="M260.505,639.832l-1.446,1.326c0,0,0.769,0.93,1.689,1.707c0.929,0.768,1.979,1.359,1.979,1.359l1.207-1.54
							c0,0-0.985-0.545-1.854-1.26C261.221,640.7,260.505,639.832,260.505,639.832z"/>
						<path d="M257.974,633.743l-1.688,0.924c0,0,0.05,0.295,0.125,0.738c0.051,0.448,0.235,1.021,0.386,1.602
							c0.374,1.143,0.946,2.203,0.946,2.203l1.542-1.203c0,0-0.527-0.994-0.864-2.067c-0.134-0.545-0.3-1.082-0.341-1.503
							C258.017,634.021,257.974,633.743,257.974,633.743z"/>
						<polygon points="257.913,627.062 256.167,627.494 256.192,632.32 257.913,631.549 						"/>
					</g>
				</g>
				<g>
					<g>
						<polygon points="257.913,620.337 256.136,620.337 256.155,625.131 257.913,624.863 						"/>
						<rect x="256.136" y="613.384" width="1.777" height="4.669"/>
						<rect x="256.136" y="606.432" width="1.777" height="4.668"/>
						<rect x="256.136" y="599.479" width="1.777" height="4.667"/>
						<rect x="256.136" y="592.526" width="1.777" height="4.669"/>
						<rect x="256.136" y="585.572" width="1.777" height="4.668"/>
						<rect x="256.136" y="578.621" width="1.777" height="4.667"/>
					</g>
				</g>
				<g>
					<g>
						<rect x="256.136" y="571.667" width="1.777" height="4.669"/>
						<rect x="256.136" y="564.714" width="1.777" height="4.668"/>
						<polygon points="257.913,557.99 256.167,557.561 256.143,562.387 257.913,562.479 						"/>
						<path d="M257.97,551.306l-1.689-0.92c0,0-0.115,1.188-0.09,2.399c-0.006,1.207-0.012,2.413-0.012,2.413l1.733,0.595
							c0,0,0-1.122,0-2.244C257.889,552.426,257.97,551.306,257.97,551.306z"/>
						<path d="M260.475,545.208l-1.448-1.324c0,0-0.761,0.937-1.33,1.998c-0.27,0.537-0.536,1.076-0.676,1.505
							c-0.08,0.21-0.146,0.386-0.192,0.509c-0.045,0.123-0.059,0.197-0.059,0.197l1.627,1.061c0,0,0.078-0.27,0.228-0.663
							c0.126-0.403,0.37-0.908,0.619-1.412C259.767,546.084,260.475,545.208,260.475,545.208z"/>
						<path d="M265.907,541.473l-1.077-1.619c0,0-1.141,0.384-2.19,0.976c-0.513,0.313-1.028,0.623-1.376,0.912
							c-0.364,0.267-0.591,0.463-0.591,0.463l1.337,1.436c0,0,0.213-0.182,0.553-0.43c0.326-0.269,0.808-0.556,1.289-0.845
							C264.835,541.819,265.907,541.473,265.907,541.473z"/>
						<path d="M272.532,540.913l-0.614-1.732c0,0-1.207,0.006-2.413,0.012c-0.605-0.009-1.205,0.013-1.65,0.056
							c-0.449,0.019-0.744,0.075-0.744,0.075l0.938,1.682c0,0,0.277-0.048,0.698-0.058c0.42-0.03,0.98-0.044,1.542-0.036
							C271.41,540.913,272.532,540.913,272.532,540.913z"/>
					</g>
				</g>
				<g>
					<g>
						<polygon points="279.219,540.913 279.108,539.144 274.281,539.168 274.73,540.913 						"/>
						<rect x="281.444" y="539.136" width="4.668" height="1.777"/>
						<rect x="288.396" y="539.136" width="4.669" height="1.777"/>
						<rect x="295.351" y="539.136" width="4.667" height="1.777"/>
						<rect x="302.302" y="539.136" width="4.668" height="1.777"/>
						<rect x="309.256" y="539.136" width="4.668" height="1.777"/>
						<rect x="316.208" y="539.136" width="4.667" height="1.777"/>
					</g>
				</g>
				<g>
					<g>
						<rect x="323.162" y="539.136" width="4.668" height="1.777"/>
						<rect x="330.114" y="539.136" width="4.669" height="1.777"/>
						<rect x="337.067" y="539.136" width="4.668" height="1.777"/>
						<rect x="344.021" y="539.136" width="4.668" height="1.777"/>
						<rect x="350.973" y="539.136" width="4.668" height="1.777"/>
						<rect x="357.927" y="539.136" width="4.668" height="1.777"/>
						<rect x="364.879" y="539.136" width="4.668" height="1.777"/>
					</g>
				</g>
				<g>
					<g>
						<rect x="371.833" y="539.136" width="4.668" height="1.777"/>
						<rect x="378.785" y="539.136" width="4.668" height="1.777"/>
						<rect x="385.737" y="539.136" width="4.669" height="1.777"/>
						<rect x="392.692" y="539.136" width="4.667" height="1.777"/>
						<rect x="399.644" y="539.136" width="4.669" height="1.777"/>
						<polygon points="411.075,540.913 411.434,539.162 406.608,539.137 406.587,540.913 						"/>
						<path d="M417.758,540.923l0.86-1.71c0,0-0.298-0.023-0.751-0.018c-0.452-0.002-1.056-0.005-1.659-0.008
							c-1.207-0.006-2.413-0.013-2.413-0.013l-0.524,1.739c0,0,1.122,0,2.244,0c0.561,0,1.122,0,1.543,0
							C417.479,540.907,417.758,540.923,417.758,540.923z"/>
					</g>
				</g>
				<g>
					<g>
						<path d="M424.042,542.915l1.272-1.491c0,0-0.997-0.678-2.097-1.168c-1.105-0.478-2.277-0.747-2.277-0.748l-1.002,1.656
							c0,0,1.1,0.238,2.138,0.673C423.109,542.286,424.042,542.915,424.042,542.915z"/>
						<path d="M428.206,548.027l1.586-1.134c0,0-0.478-1.106-1.147-2.108c-0.679-0.996-1.524-1.855-1.524-1.856l-1.39,1.387
							c0,0,0.79,0.803,1.419,1.735C427.769,546.99,428.206,548.027,428.206,548.027z"/>
						<path d="M429.087,554.597l1.727-0.685c0,0-0.01-1.206-0.019-2.413c-0.045-0.596-0.062-1.196-0.161-1.636
							c-0.075-0.443-0.125-0.738-0.125-0.738l-1.658,0.998c0,0,0.042,0.277,0.106,0.693c0.087,0.414,0.091,0.977,0.124,1.537
							C429.085,553.475,429.087,554.597,429.087,554.597z"/>
						<polygon points="429.087,561.282 430.851,561.101 430.826,556.275 429.087,556.794 						"/>
						<polygon points="429.087,568.139 430.864,568.139 430.863,563.462 429.087,563.479 						"/>
						<rect x="429.087" y="570.424" width="1.777" height="4.668"/>
						<rect x="429.087" y="577.376" width="1.777" height="4.667"/>
					</g>
				</g>
				<g>
					<g>
						<rect x="429.087" y="584.329" width="1.777" height="4.669"/>
						<rect x="429.087" y="591.282" width="1.777" height="4.668"/>
						<rect x="429.087" y="598.234" width="1.777" height="4.669"/>
						<rect x="429.087" y="605.188" width="1.777" height="4.668"/>
						<rect x="429.087" y="612.141" width="1.777" height="4.668"/>
						<polygon points="429.087,623.669 430.851,623.846 430.864,619.095 429.087,619.095 						"/>
						<polygon points="429.087,630.352 430.814,631.033 430.839,626.207 429.087,625.864 						"/>
					</g>
				</g>
			</g>
		</g>
	</g>
	<g>
		<text transform="matrix(1 0 0 1 277.3838 559)" font-family="'MyriadPro-Regular'" font-size="19.043">Availability Zone</text>
	</g>
	<g>
		<path fill="#98CE83" stroke="#000000" stroke-width="2" stroke-miterlimit="10" d="M415.655,616.234
			c0,9.811-7.955,17.766-17.766,17.766h-31.09c-9.811,0-17.764-7.955-17.764-17.766v-31.088c0-9.811,7.953-17.766,17.764-17.766
			h31.09c9.811,0,17.766,7.955,17.766,17.766V616.234z"/>
		<text transform="matrix(1 0 0 1 366.6826 606.2798)" font-family="'MyriadPro-Regular'" font-size="19.043">EC2</text>
	</g>
	<g>
		<path fill="#98CE83" stroke="#000000" stroke-width="2" stroke-miterlimit="10" d="M337.619,616.234
			c0,9.811-7.955,17.766-17.766,17.766h-31.09c-9.811,0-17.764-7.955-17.764-17.766v-31.088c0-9.811,7.953-17.766,17.764-17.766
			h31.09c9.811,0,17.766,7.955,17.766,17.766V616.234z"/>
		<text transform="matrix(1 0 0 1 288.647 606.2798)" font-family="'MyriadPro-Regular'" font-size="19.043">EC2</text>
	</g>
</g>
<polygon opacity="0.4" fill="#96CA4E" stroke="#000000" stroke-width="2" stroke-miterlimit="10" points="469,802 349,622 350,578 
	353,572 357,569 364,568 401,568 650,625 "/>
<path fill="#98CE83" stroke="#000000" stroke-width="2" stroke-miterlimit="10" d="M657,800c0,6.627-5.373,12-12,12H481
	c-6.627,0-12-5.373-12-12V636c0-6.627,5.373-12,12-12h164c6.627,0,12,5.373,12,12V800z"/>
<g>
	<path fill-rule="evenodd" clip-rule="evenodd" d="M550.444,640c0.194,0,0.386,0,0.58,0c2.214,7.968,1.754,15.805-1.244,23.51
		c0.822,0.319,1.546,0.598,2.881,1.114c-1.764,0.328-2.843,0.53-3.922,0.732c0.021,0.199,0.044,0.399,0.065,0.599
		c1.082,0.183,2.163,0.366,3.243,0.547c-1.68,0.774-3.716,0.668-4.761,1.635c-2.727,2.525-5.021,5.521-7.532,8.379
		c3.146,3.381,6.412,6.931,9.741,10.421c0.491,0.516,1.265,0.781,1.935,1.104c2.183,1.051,4.379,2.075,6.569,3.11
		c0,0.775,0,1.55,0,2.326c-2.906,0-5.813,0-8.72,0c-12.483-7.024-25.483-12.554-39.953-14.147c-0.136,4.028,0.64,4.876,3.889,5.555
		c1.136,0.238,2.101,1.3,3.145,1.984c-3.842,1.278-7.08,1.397-9.838-1.308c-1.442-1.416-3.396-2.364-4.648-3.904
		c-2.148-2.645-4.428-2.232-6.358-0.33c-1.855,1.827-3.322,4.141-4.576,6.449c-0.625,1.146-0.393,2.76-0.589,4.537
		c-2.733,0-5.325,0-7.916,0c0-0.58,0-1.162,0-1.744c3.889-5.611,7.777-11.223,11.547-16.661c-1.158-2.641-2.723-5.358-3.558-8.281
		c-2.226-7.798,2.977-14.252,11.042-14.023c0.961,0.025,1.994,0.244,2.873-0.02c3.998-1.196,7.177,0.005,9.583,3.796
		c-3.753,1.559-8.069,1.124-9.769-0.742c-0.726-0.796-1.874-1.578-2.894-1.671c-4.698-0.43-8.452,2.402-9.609,7.023
		c-1.253,5.012,1.127,8.884,3.849,12.944c7.709-7.065,16.26-11.965,26.243-14.846c-1.371-6.112-1.472-12.128,0.219-18.089
		c0.386,0,0.775,0,1.162,0c2.074,1.938,4.122,3.903,6.242,5.789c0.426,0.381,1.123,0.64,1.697,0.646
		c3.757,0.036,7.517,0.019,11.272-0.066c0.573-0.012,1.232-0.354,1.687-0.739C546.194,643.79,548.309,641.884,550.444,640z
		 M528.547,664.747c-0.425,0.161-1.105,0.42-2.299,0.873c1.195,0.359,1.859,0.559,2.533,0.762c-0.81,2.041,1.139,4.602,5.773,7.774
		c2.602,1.78,3.361,1.748,7.013-1.943c1.484-1.5,4.727-2.489,2.952-5.848c0.768-0.202,1.534-0.406,2.927-0.775
		c-1.424-0.446-2.21-0.694-3.191-1.002c1.174-1.655,4.946,0.51,4.033-2.834c-0.443-1.622,4.053-2.784-0.028-4.097
		c2.657-1.717,3.489-8.448,1.838-13.306c-1.558,1.63-1.604,4.963-5.313,4.111c-5.277-1.213-5.31-1.068-7.604,3.767
		c-0.311-0.477-0.672-0.819-0.781-1.229c-0.724-2.735-2.372-3.699-5.098-2.835c-0.542,0.172-1.196,0.024-1.715,0.233
		c-2.961,1.188-4.534-0.458-5.808-2.757c-0.319-0.577-0.597-1.178-0.894-1.768c-0.521,2.641-0.478,5.146-0.531,7.647
		c-0.051,2.327,0.631,4.129,3.042,4.908c0.085,0.026,0.08,0.327,0.138,0.598c-0.673,0.218-1.354,0.438-1.662,0.535
		c0.348,1.605,0.3,3.232,1.043,4.323C525.729,663.086,527.273,663.79,528.547,664.747z"/>
	<path fill-rule="evenodd" clip-rule="evenodd" fill="#FFFFFF" d="M528.547,664.747c-1.273-0.957-2.818-1.661-3.633-2.861
		c-0.743-1.091-0.695-2.718-1.043-4.323c0.309-0.098,0.989-0.317,1.662-0.535c-0.058-0.271-0.053-0.571-0.138-0.598
		c-2.411-0.779-3.093-2.581-3.042-4.908c0.054-2.502,0.011-5.007,0.531-7.647c0.297,0.59,0.574,1.19,0.894,1.768
		c1.273,2.299,2.847,3.945,5.808,2.757c0.519-0.209,1.173-0.062,1.715-0.233c2.726-0.864,4.374,0.1,5.098,2.835
		c0.109,0.41,0.471,0.753,0.781,1.229c2.295-4.835,2.327-4.979,7.604-3.767c3.709,0.852,3.756-2.481,5.314-4.11
		c1.65,4.856,0.818,11.588-1.839,13.305c4.081,1.313-0.415,2.475,0.028,4.097c0.913,3.344-2.859,1.179-4.033,2.834
		c0.981,0.308,1.768,0.556,3.191,1.002c-1.393,0.369-2.159,0.573-2.927,0.775c1.774,3.358-1.468,4.348-2.952,5.848
		c-3.651,3.691-4.411,3.724-7.013,1.943c-4.635-3.173-6.583-5.733-5.773-7.774c-0.674-0.203-1.338-0.402-2.533-0.762
		C527.441,665.167,528.122,664.908,528.547,664.747z M546.691,654.127c-0.07-0.25-0.144-0.501-0.215-0.753
		c-1.368,0.504-3.377,0.605-3.988,1.583c-2.104,3.364-5.111,2.241-7.95,2.298c-0.366-2.336,1.252-5.579-2.481-6.162
		c-1.878-0.294-3.25,1.095-3.921,2.827c1.836-0.512,3.229-0.901,4.625-1.291c0.2,1.496,0.399,2.993,0.596,4.465
		c-1.792,0.245-2.903,0.397-4.015,0.55c0.02,0.227,0.041,0.452,0.061,0.678c0.975,0.19,1.948,0.383,3.11,0.61
		c-0.441,1.307-0.834,2.467-1.3,3.846c1.359,0.906,2.693,1.794,4.083,2.721c-0.705,0.834-1.297,1.537-1.89,2.24
		c0.106,0.269,0.211,0.537,0.314,0.804c2.174-2.809,4.425-1.445,6.677-0.177c0.059-0.239,0.116-0.479,0.173-0.717
		c-0.758-0.621-1.515-1.243-2.443-2.005c1.507-1.08,2.813-2.017,4.044-2.9c-0.243-1.326-0.463-2.514-0.705-3.826
		c1.516-0.229,2.727-0.412,3.938-0.596c-0.02-0.221-0.039-0.442-0.058-0.664c-0.953-0.188-1.907-0.375-2.861-0.562
		c-0.079-0.205-0.158-0.409-0.237-0.614C543.729,655.698,545.212,654.912,546.691,654.127z"/>
	<path fill-rule="evenodd" clip-rule="evenodd" d="M546.691,654.127c-1.479,0.785-2.962,1.571-4.443,2.354
		c0.079,0.205,0.158,0.409,0.237,0.614c0.954,0.187,1.908,0.373,2.861,0.562c0.019,0.222,0.038,0.443,0.058,0.664
		c-1.212,0.184-2.423,0.366-3.938,0.596c0.242,1.313,0.462,2.5,0.705,3.826c-1.231,0.884-2.537,1.82-4.044,2.9
		c0.929,0.762,1.686,1.384,2.443,2.005c-0.057,0.237-0.114,0.478-0.173,0.717c-2.252-1.269-4.503-2.632-6.677,0.177
		c-0.104-0.267-0.208-0.535-0.314-0.804c0.593-0.703,1.185-1.406,1.89-2.24c-1.39-0.927-2.724-1.814-4.083-2.721
		c0.466-1.379,0.858-2.539,1.3-3.846c-1.162-0.228-2.136-0.42-3.11-0.61c-0.02-0.226-0.041-0.451-0.061-0.678
		c1.111-0.152,2.223-0.305,4.015-0.55c-0.196-1.472-0.396-2.969-0.596-4.465c-1.396,0.39-2.789,0.779-4.625,1.291
		c0.671-1.732,2.043-3.121,3.921-2.827c3.733,0.583,2.115,3.826,2.481,6.162c2.839-0.057,5.846,1.066,7.95-2.298
		c0.611-0.978,2.62-1.079,3.988-1.583C546.548,653.626,546.621,653.877,546.691,654.127z M540.057,658.92
		c-5.885-0.851-6.363-0.642-6.667,2.861c2.288,0,4.57,0,7.084,0C540.316,660.702,540.183,659.785,540.057,658.92z"/>
	<path fill-rule="evenodd" clip-rule="evenodd" fill="#FFFFFF" d="M540.057,658.92c0.126,0.865,0.26,1.782,0.417,2.861
		c-2.514,0-4.796,0-7.084,0C533.693,658.278,534.172,658.069,540.057,658.92z"/>
</g>
<g>
	<text transform="matrix(1 0 0 1 572 657)" font-family="'MyriadPro-Regular'" font-size="18">Tomcat 6</text>
</g>
<text transform="matrix(1 0 0 1 540.9951 726)" font-family="'MyriadPro-Regular'" font-size="19.043">WAR</text>
<g>
	<path fill-rule="evenodd" clip-rule="evenodd" fill="#FFFFFF" d="M646,794c0,6.627-5.373,12-12,12H494c-6.627,0-12-5.373-12-12v-72
		c0-6.627,5.373-12,12-12h140c6.627,0,12,5.373,12,12V794z"/>
	<g>
		<g>
			<g>
				<g>
					<path d="M644.326,797.643l1.599,1.113c0,0,0.099-0.262,0.247-0.654c0.109-0.404,0.284-0.939,0.383-1.488
						c0.098-0.551,0.191-1.102,0.2-1.521c0.028-0.417,0.048-0.695,0.048-0.695l-1.715-0.847c0,0-0.014,0.261-0.033,0.653
						c0,0.394-0.081,0.911-0.164,1.428c-0.085,0.517-0.243,1.019-0.34,1.397C644.416,797.397,644.326,797.643,644.326,797.643z"/>
					<path d="M640.684,802.605l1.316,1.455c0-0.001,0.23-0.161,0.534-0.453c0.156-0.142,0.337-0.307,0.531-0.483
						c0.179-0.193,0.368-0.4,0.558-0.606c0.395-0.4,0.691-0.882,0.957-1.208c0.223-0.356,0.371-0.594,0.371-0.594l-1.519-1.234
						c0,0-0.138,0.223-0.344,0.557c-0.248,0.304-0.521,0.756-0.89,1.129c-0.177,0.193-0.354,0.386-0.52,0.566
						c-0.182,0.165-0.352,0.319-0.496,0.451C640.899,802.457,640.684,802.605,640.684,802.605z"/>
					<path d="M635.006,804.985l0.941,1.682c0,0,0.275-0.047,0.688-0.116c0.413-0.067,0.95-0.236,1.487-0.387
						c1.064-0.356,2.053-0.891,2.053-0.891l-1.2-1.543c0,0-0.928,0.492-1.927,0.813c-0.505,0.134-1.008,0.286-1.396,0.343
						C635.265,804.946,635.006,804.985,635.006,804.985z"/>
					<polygon points="628.774,805.088 629.262,806.829 633.763,806.806 632.961,805.088 					"/>
					<polygon points="622.539,805.088 622.557,806.863 627.059,806.84 626.727,805.088 					"/>
					<rect x="616.063" y="805.088" width="4.354" height="1.776"/>
					<rect x="609.578" y="805.088" width="4.354" height="1.776"/>
				</g>
			</g>
			<g>
				<g>
					<rect x="603.092" y="805.088" width="4.354" height="1.776"/>
					<rect x="596.606" y="805.088" width="4.354" height="1.776"/>
					<rect x="590.121" y="805.088" width="4.355" height="1.776"/>
					<rect x="583.636" y="805.088" width="4.354" height="1.776"/>
					<rect x="577.15" y="805.088" width="4.354" height="1.776"/>
					<rect x="570.664" y="805.088" width="4.354" height="1.776"/>
					<rect x="564.181" y="805.088" width="4.354" height="1.776"/>
				</g>
			</g>
			<g>
				<g>
					<rect x="557.694" y="805.088" width="4.355" height="1.776"/>
					<rect x="551.208" y="805.088" width="4.354" height="1.776"/>
					<rect x="544.724" y="805.088" width="4.354" height="1.776"/>
					<rect x="538.238" y="805.088" width="4.354" height="1.776"/>
					<rect x="531.752" y="805.088" width="4.355" height="1.776"/>
					<rect x="525.266" y="805.088" width="4.354" height="1.776"/>
					<rect x="518.782" y="805.088" width="4.354" height="1.776"/>
				</g>
			</g>
			<g>
				<g>
					<rect x="512.296" y="805.088" width="4.354" height="1.776"/>
					<rect x="505.811" y="805.088" width="4.354" height="1.776"/>
					<polygon points="499.571,805.088 499.11,806.831 503.612,806.854 503.758,805.088 					"/>
					<path d="M493.336,805.031l-0.919,1.689c0,0.001,1.107,0.111,2.238,0.087c1.125,0.006,2.25,0.012,2.25,0.012l0.615-1.731
						c0,0-1.046,0-2.093,0C494.381,805.109,493.336,805.031,493.336,805.031z"/>
					<path d="M487.593,802.813l-1.297,1.471c0,0,0.216,0.181,0.568,0.409c0.363,0.211,0.821,0.54,1.336,0.766
						c0.994,0.522,2.078,0.823,2.078,0.822l1.05-1.633c0,0.001-1.018-0.267-1.951-0.747c-0.482-0.207-0.912-0.513-1.252-0.707
						C487.794,802.981,487.593,802.813,487.593,802.813z"/>
					<path d="M483.792,797.966l-1.586,1.135c0,0,0.115,0.255,0.302,0.631c0.168,0.387,0.46,0.865,0.759,1.339
						c0.305,0.47,0.656,0.91,0.918,1.237c0.283,0.311,0.472,0.519,0.472,0.519l1.405-1.371c0,0-0.176-0.193-0.44-0.484
						c-0.244-0.306-0.57-0.718-0.853-1.157c-0.277-0.444-0.546-0.893-0.701-1.255C483.898,798.205,483.792,797.966,483.792,797.966z
						"/>
					<path d="M482.913,791.847l-1.725,0.719c0,0,0.001,0.281,0.004,0.703c0.014,0.42-0.021,0.989,0.034,1.543
						c0.019,0.278,0.038,0.556,0.056,0.817c0.042,0.258,0.083,0.499,0.116,0.706c0.035,0.206,0.064,0.378,0.084,0.499
						c0.024,0.119,0.046,0.187,0.046,0.187l1.653-1.007c0,0-0.06-0.255-0.113-0.644c-0.029-0.194-0.063-0.421-0.099-0.663
						c-0.013-0.245-0.026-0.506-0.039-0.768c-0.039-0.522-0.011-1.046-0.02-1.438C482.913,792.108,482.913,791.847,482.913,791.847z
						"/>
				</g>
			</g>
			<g>
				<g>
					<polygon points="482.913,785.61 481.154,785.858 481.177,790.36 482.913,789.797 					"/>
					<polygon points="482.913,779.257 481.136,779.257 481.143,783.656 482.913,783.562 					"/>
					<rect x="481.136" y="772.772" width="1.777" height="4.354"/>
					<rect x="481.136" y="766.286" width="1.777" height="4.354"/>
					<rect x="481.136" y="759.801" width="1.777" height="4.355"/>
					<rect x="481.136" y="753.314" width="1.777" height="4.354"/>
					<rect x="481.136" y="746.831" width="1.777" height="4.354"/>
				</g>
			</g>
			<g>
				<g>
					<rect x="481.136" y="740.345" width="1.777" height="4.354"/>
					<rect x="481.136" y="733.859" width="1.777" height="4.354"/>
					<polygon points="482.913,727.617 481.169,727.16 481.146,731.662 482.913,731.805 					"/>
					<path d="M482.966,721.383l-1.691-0.916c0,0-0.107,1.108-0.083,2.238c-0.006,1.126-0.012,2.251-0.012,2.251l1.732,0.611
						c0,0,0-1.046,0-2.093C482.891,722.428,482.966,721.383,482.966,721.383z"/>
					<path d="M485.159,715.63l-1.472-1.295c0,0.001-0.686,0.895-1.167,1.909c-0.517,0.996-0.813,2.081-0.813,2.082l1.634,1.046
						c0,0,0.263-1.019,0.739-1.953C484.521,716.467,485.16,715.63,485.159,715.63z"/>
					<path d="M489.99,711.809l-1.137-1.585c0,0-0.252,0.122-0.63,0.306c-0.387,0.168-0.86,0.469-1.336,0.765
						c-0.463,0.313-0.911,0.654-1.231,0.925c-0.311,0.283-0.519,0.473-0.519,0.473l1.373,1.402c0,0,0.194-0.176,0.484-0.439
						c0.299-0.253,0.719-0.569,1.152-0.86c0.446-0.273,0.89-0.552,1.253-0.705C489.753,711.92,489.99,711.809,489.99,711.809z"/>
					<path d="M496.106,710.912l-0.722-1.724c0,0-0.281,0.001-0.703,0.004c-0.42,0.011-0.989-0.018-1.542,0.037
						c-0.278,0.02-0.556,0.04-0.817,0.059c-0.258,0.043-0.5,0.084-0.706,0.119s-0.378,0.064-0.499,0.085
						c-0.118,0.032-0.186,0.05-0.186,0.05l1.01,1.652c0,0,0.252-0.068,0.643-0.117c0.194-0.029,0.42-0.064,0.663-0.102
						c0.245-0.013,0.506-0.027,0.768-0.041c0.522-0.039,1.046-0.016,1.438-0.022C495.845,710.912,496.106,710.912,496.106,710.912z"
						/>
				</g>
			</g>
			<g>
				<g>
					<polygon points="502.343,710.912 502.091,709.154 497.589,709.177 498.156,710.912 					"/>
					<polygon points="508.694,710.912 508.694,709.136 504.294,709.143 504.392,710.912 					"/>
					<rect x="510.825" y="709.136" width="4.354" height="1.776"/>
					<rect x="517.312" y="709.136" width="4.354" height="1.776"/>
					<rect x="523.796" y="709.136" width="4.354" height="1.776"/>
					<rect x="530.282" y="709.136" width="4.354" height="1.776"/>
					<rect x="536.767" y="709.136" width="4.354" height="1.776"/>
				</g>
			</g>
			<g>
				<g>
					<rect x="543.252" y="709.136" width="4.355" height="1.776"/>
					<rect x="549.738" y="709.136" width="4.354" height="1.776"/>
					<rect x="556.223" y="709.136" width="4.354" height="1.776"/>
					<rect x="562.709" y="709.136" width="4.354" height="1.776"/>
					<rect x="569.193" y="709.136" width="4.355" height="1.776"/>
					<rect x="575.681" y="709.136" width="4.354" height="1.776"/>
					<rect x="582.165" y="709.136" width="4.354" height="1.776"/>
				</g>
			</g>
			<g>
				<g>
					<rect x="588.65" y="709.136" width="4.354" height="1.776"/>
					<rect x="595.136" y="709.136" width="4.354" height="1.776"/>
					<rect x="601.62" y="709.136" width="4.355" height="1.776"/>
					<rect x="608.107" y="709.136" width="4.354" height="1.776"/>
					<rect x="614.592" y="709.136" width="4.354" height="1.776"/>
					<polygon points="625.313,710.912 625.538,709.152 621.078,709.136 621.078,710.912 					"/>
					<polygon points="631.547,710.912 632.242,709.187 627.74,709.163 627.36,710.912 					"/>
				</g>
			</g>
			<g>
				<g>
					<path d="M637.687,711.689l1.116-1.596c0,0-0.262-0.1-0.655-0.248c-0.4-0.12-0.938-0.282-1.485-0.392
						c-0.551-0.094-1.101-0.198-1.521-0.205c-0.418-0.029-0.696-0.048-0.696-0.048l-0.85,1.714c0,0,0.262,0.013,0.654,0.033
						c0.394-0.001,0.91,0.089,1.428,0.169c0.513,0.095,1.019,0.24,1.395,0.348C637.44,711.6,637.687,711.689,637.687,711.689z"/>
					<path d="M642.634,715.354l1.456-1.313c0.001-0.001-0.681-0.899-1.535-1.63c-0.399-0.396-0.878-0.696-1.205-0.96
						c-0.348-0.236-0.591-0.375-0.591-0.375l-1.238,1.517c0.001,0,0.229,0.129,0.555,0.348c0.306,0.245,0.755,0.522,1.127,0.893
						C642,714.513,642.635,715.354,642.634,715.354z"/>
					<path d="M644.992,721.04l1.683-0.938c-0.001,0.001-0.154-1.108-0.493-2.178c-0.357-1.064-0.886-2.055-0.886-2.056l-1.546,1.198
						c0,0,0.487,0.93,0.81,1.929C644.865,719.999,644.992,721.04,644.992,721.04z"/>
					<polygon points="645.088,727.271 646.829,726.788 646.806,722.287 645.088,723.086 					"/>
					<polygon points="645.088,733.507 646.863,733.493 646.84,728.991 645.088,729.32 					"/>
					<rect x="645.088" y="735.632" width="1.776" height="4.354"/>
					<rect x="645.088" y="742.116" width="1.776" height="4.354"/>
				</g>
			</g>
			<g>
				<g>
					<rect x="645.088" y="748.602" width="1.776" height="4.355"/>
					<rect x="645.088" y="755.087" width="1.776" height="4.355"/>
					<rect x="645.088" y="761.572" width="1.776" height="4.354"/>
					<rect x="645.088" y="768.059" width="1.776" height="4.354"/>
					<rect x="645.088" y="774.543" width="1.776" height="4.354"/>
					<polygon points="645.088,785.266 646.848,785.488 646.864,781.03 645.088,781.03 					"/>
					<polygon points="645.088,791.5 646.813,792.191 646.837,787.69 645.088,787.313 					"/>
				</g>
			</g>
		</g>
	</g>
</g>
<g>
	<path fill-rule="evenodd" clip-rule="evenodd" d="M559,787c-19.688,0-39.321,0-59,0c0-19.096,0-38.165,0-57.288
		c19.641,0,39.291,0,59,0C559,748.771,559,767.858,559,787z M530.543,745.279c0-0.556-0.055-1.118,0.014-1.664
		c0.102-0.8-0.279-1.189-0.96-1.469c-1.819-0.747-3.712-0.975-5.662-0.932c-5.337,0.117-9.337,2.489-11.863,7.18
		c-2.332,4.326-2.483,8.952-1.473,13.653c0.724,3.372,2.375,6.2,5.282,8.179c2.848,1.938,6.05,2.503,9.391,2.084
		c1.602-0.2,3.157-0.794,4.719-1.26c0.615-0.183,0.881-0.65,0.853-1.339c-0.049-1.157-0.008-2.318-0.016-3.477
		c-0.005-0.677-0.141-0.726-0.776-0.546c-1.455,0.408-2.904,0.896-4.39,1.116c-3.664,0.544-6.928-1.313-8.229-4.727
		c-1.335-3.502-1.374-7.09-0.029-10.604c1.275-3.335,3.881-5.023,7.451-4.998c1.693,0.011,3.28,0.465,4.791,1.218
		c0.75,0.373,0.891,0.283,0.897-0.531C530.548,746.535,530.543,745.907,530.543,745.279z M548.08,743.737
		c0-1.333-0.046-2.563,0.018-3.786c0.038-0.706-0.271-1.016-0.879-1.172c-1.26-0.323-2.532-0.354-3.797-0.083
		c-3.304,0.707-5.524,3.203-5.952,6.717c-0.133,1.091-0.16,2.194-0.238,3.344c-0.71,0-1.408,0.021-2.103-0.008
		c-0.45-0.019-0.589,0.153-0.58,0.589c0.023,1.038,0.027,2.077,0,3.115c-0.013,0.476,0.187,0.642,0.627,0.671
		c0.692,0.044,1.382,0.122,2.135,0.191c0,0.273,0,0.51,0,0.747c0.001,5.699,0.011,11.397-0.009,17.097
		c-0.002,0.619,0.144,0.854,0.803,0.832c1.472-0.047,2.947-0.055,4.419,0.002c0.747,0.028,0.934-0.224,0.93-0.946
		c-0.026-5.626-0.012-11.253-0.012-16.88c0-0.28,0-0.56,0-0.855c1.084-0.07,2.068-0.157,3.054-0.191
		c0.614-0.021,0.926-0.194,0.875-0.896c-0.063-0.865-0.062-1.741-0.001-2.606c0.051-0.719-0.219-0.91-0.9-0.875
		c-0.998,0.054-2.002,0.015-3.088,0.015c0.071-1.067,0.077-2.013,0.208-2.938c0.254-1.803,1.358-2.579,3.162-2.302
		C547.151,743.579,547.551,743.649,548.08,743.737z"/>
	<path fill-rule="evenodd" clip-rule="evenodd" fill="#FFFFFF" d="M530.543,745.279c0,0.628,0.004,1.256-0.001,1.884
		c-0.007,0.814-0.148,0.904-0.897,0.531c-1.511-0.753-3.098-1.207-4.791-1.218c-3.57-0.025-6.175,1.663-7.451,4.998
		c-1.345,3.515-1.306,7.103,0.029,10.604c1.301,3.414,4.566,5.271,8.229,4.727c1.485-0.221,2.935-0.708,4.39-1.116
		c0.635-0.18,0.771-0.131,0.776,0.546c0.008,1.158-0.034,2.319,0.016,3.477c0.029,0.688-0.238,1.156-0.853,1.339
		c-1.562,0.466-3.118,1.06-4.719,1.26c-3.341,0.419-6.543-0.146-9.391-2.084c-2.906-1.979-4.558-4.807-5.282-8.179
		c-1.01-4.701-0.858-9.327,1.473-13.653c2.526-4.69,6.526-7.063,11.863-7.18c1.949-0.043,3.843,0.185,5.662,0.932
		c0.681,0.279,1.062,0.669,0.96,1.469C530.488,744.161,530.543,744.724,530.543,745.279z"/>
	<path fill-rule="evenodd" clip-rule="evenodd" fill="#FFFFFF" d="M548.08,743.737c-0.529-0.088-0.929-0.158-1.33-0.22
		c-1.803-0.277-2.907,0.499-3.162,2.302c-0.131,0.926-0.137,1.871-0.208,2.938c1.086,0,2.09,0.039,3.088-0.015
		c0.681-0.035,0.951,0.156,0.9,0.875c-0.061,0.865-0.062,1.741,0.001,2.606c0.051,0.701-0.261,0.874-0.875,0.896
		c-0.986,0.034-1.969,0.121-3.054,0.191c0,0.296,0,0.575,0,0.855c0,5.627-0.014,11.254,0.012,16.88
		c0.004,0.723-0.183,0.975-0.93,0.946c-1.472-0.057-2.947-0.049-4.419-0.002c-0.659,0.021-0.805-0.213-0.803-0.832
		c0.021-5.699,0.01-11.397,0.009-17.097c0-0.237,0-0.474,0-0.747c-0.753-0.069-1.442-0.147-2.135-0.191
		c-0.441-0.029-0.641-0.195-0.627-0.671c0.028-1.038,0.024-2.077,0-3.115c-0.009-0.436,0.13-0.607,0.58-0.589
		c0.695,0.029,1.392,0.008,2.103,0.008c0.079-1.149,0.105-2.253,0.238-3.344c0.428-3.514,2.648-6.01,5.952-6.717
		c1.266-0.271,2.538-0.24,3.797,0.083c0.608,0.156,0.917,0.466,0.879,1.172C548.034,741.175,548.08,742.404,548.08,743.737z"/>
</g>
<text transform="matrix(1 0 0 1 580.5957 741)"><tspan x="0" y="0" fill="#C91F46" font-family="'MyriadPro-Bold'" font-size="19.043">Your</tspan><tspan x="-3.199" y="22.852" fill="#C91F46" font-family="'MyriadPro-Bold'" font-size="19.043">CFML</tspan><tspan x="0.172" y="45.703" fill="#C91F46" font-family="'MyriadPro-Bold'" font-size="19.043">Here</tspan></text>
<g>
	<rect x="542" y="698" fill-rule="evenodd" clip-rule="evenodd" width="47" height="21"/>
	<g>
		<text transform="matrix(1 0 0 1 547 715)" fill="#FFFFFF" font-family="'MyriadPro-Bold'" font-size="18">WAR</text>
	</g>
</g>
<text transform="matrix(1 0 0 1 437.0859 20.6665)" font-family="'MyriadPro-Bold'" font-size="19.043">RDS</text>
<text transform="matrix(1 0 0 1 94 22.0005)" font-family="'MyriadPro-Bold'" font-size="19.043">S3</text>
<text transform="matrix(1 0 0 1 702 20.6665)" font-family="'MyriadPro-Bold'" font-size="19.043">DynamoDB</text>
<g>
	<path fill-rule="evenodd" clip-rule="evenodd" fill="#751113" stroke="#000000" stroke-width="2" stroke-miterlimit="10" d="
		M616,50c0-6.627-5.373-12-12-12H305c-6.627,0-12,5.373-12,12v144c0,6.627,5.373,12,12,12h299c6.627,0,12-5.373,12-12V50z"/>
	<g>
		<g>
			<path fill="#D2EAD6" d="M302,61.5c0-6.627,5.373-12,12-12h123c6.627,0,12,5.373,12,12v121c0,6.627-5.373,12-12,12H314
				c-6.627,0-12-5.373-12-12V61.5z"/>
			<g>
				<g>
					<g>
						<g>
							<path d="M303.723,57.723l-1.593-1.122c0,0-0.103,0.271-0.256,0.677c-0.14,0.41-0.292,0.971-0.415,1.534
								c-0.098,0.569-0.204,1.138-0.211,1.572c-0.03,0.432-0.05,0.72-0.05,0.72l1.715,0.846c0,0,0.014-0.27,0.034-0.676
								c0-0.407,0.091-0.941,0.174-1.476c0.108-0.529,0.244-1.056,0.37-1.44C303.63,57.977,303.723,57.723,303.723,57.723z"/>
							<path d="M307.602,52.681l-1.297-1.471c0,0-0.23,0.177-0.575,0.441c-0.312,0.303-0.775,0.658-1.148,1.105
								c-0.808,0.837-1.414,1.833-1.414,1.833l1.51,1.247c0,0,0.56-0.934,1.314-1.715c0.347-0.418,0.781-0.748,1.071-1.031
								C307.386,52.845,307.602,52.681,307.602,52.681z"/>
							<path d="M313.559,50.458l-0.904-1.695c0,0-0.289,0.005-0.715,0.09c-0.429,0.062-0.998,0.166-1.552,0.337
								c-0.566,0.125-1.091,0.384-1.502,0.521c-0.391,0.188-0.652,0.313-0.652,0.313l1.175,1.56c0,0,0.245-0.115,0.612-0.288
								c0.386-0.124,0.878-0.361,1.41-0.471C312.472,50.521,313.559,50.457,313.559,50.458z"/>
							<polygon points="320.007,50.413 319.579,48.667 314.924,48.691 315.678,50.413 							"/>
							<polygon points="326.486,50.413 326.486,48.636 321.857,48.655 322.125,50.413 							"/>
							<rect x="328.691" y="48.636" width="4.503" height="1.777"/>
							<rect x="335.396" y="48.636" width="4.502" height="1.777"/>
						</g>
					</g>
					<g>
						<g>
							<rect x="342.104" y="48.636" width="4.503" height="1.777"/>
							<rect x="348.811" y="48.636" width="4.503" height="1.777"/>
							<rect x="355.517" y="48.636" width="4.503" height="1.777"/>
							<rect x="362.225" y="48.636" width="4.502" height="1.777"/>
							<rect x="368.931" y="48.636" width="4.503" height="1.777"/>
							<rect x="375.639" y="48.636" width="4.503" height="1.777"/>
							<rect x="382.345" y="48.636" width="4.502" height="1.777"/>
						</g>
					</g>
					<g>
						<g>
							<rect x="389.052" y="48.636" width="4.503" height="1.777"/>
							<rect x="395.759" y="48.636" width="4.503" height="1.777"/>
							<rect x="402.465" y="48.636" width="4.503" height="1.777"/>
							<rect x="409.173" y="48.636" width="4.502" height="1.777"/>
							<rect x="415.879" y="48.636" width="4.503" height="1.777"/>
							<polygon points="427.021,50.413 427.15,48.645 422.587,48.636 422.587,50.413 							"/>
							<polygon points="433.468,50.413 434.083,48.681 429.428,48.657 429.139,50.413 							"/>
						</g>
					</g>
					<g>
						<g>
							<path d="M439.871,50.903l1.063-1.626c0,0-1.109-0.341-2.258-0.489c-1.146-0.112-2.313-0.095-2.313-0.095l-0.774,1.72
								c0,0,1.083-0.017,2.163,0.063C438.83,50.597,439.871,50.903,439.871,50.903z"/>
							<path d="M445.217,54.353l1.425-1.349c0,0-0.195-0.214-0.488-0.536c-0.318-0.294-0.729-0.709-1.193-1.056
								c-0.231-0.175-0.463-0.349-0.68-0.513c-0.231-0.143-0.447-0.276-0.631-0.391c-0.365-0.238-0.629-0.358-0.629-0.358
								l-1.191,1.55c0,0,0.248,0.11,0.589,0.331c0.173,0.106,0.375,0.229,0.592,0.361c0.203,0.152,0.42,0.314,0.636,0.476
								c0.435,0.322,0.816,0.71,1.114,0.984C445.035,54.152,445.217,54.353,445.217,54.353z"/>
							<path d="M447.926,60.106l1.671-0.966c0,0-0.181-1.148-0.609-2.227c-0.387-1.095-1.008-2.081-1.008-2.081l-1.521,1.231
								c0,0,0.575,0.924,0.925,1.952C447.773,59.028,447.926,60.106,447.926,60.106z"/>
							<polygon points="448.087,66.545 449.828,66.045 449.804,61.39 448.087,62.216 							"/>
							<polygon points="448.087,72.994 449.863,72.979 449.839,68.323 448.087,68.664 							"/>
							<rect x="448.087" y="75.191" width="1.777" height="4.503"/>
							<rect x="448.087" y="81.896" width="1.777" height="4.502"/>
						</g>
					</g>
					<g>
						<g>
							<rect x="448.087" y="88.604" width="1.777" height="4.503"/>
							<rect x="448.087" y="95.311" width="1.777" height="4.503"/>
							<rect x="448.087" y="102.017" width="1.777" height="4.503"/>
							<rect x="448.087" y="108.725" width="1.777" height="4.502"/>
							<rect x="448.087" y="115.431" width="1.777" height="4.503"/>
							<rect x="448.087" y="122.139" width="1.777" height="4.503"/>
							<rect x="448.087" y="128.845" width="1.777" height="4.502"/>
						</g>
					</g>
					<g>
						<g>
							<rect x="448.087" y="135.552" width="1.777" height="4.503"/>
							<rect x="448.087" y="142.259" width="1.777" height="4.503"/>
							<rect x="448.087" y="148.965" width="1.777" height="4.503"/>
							<rect x="448.087" y="155.673" width="1.777" height="4.502"/>
							<rect x="448.087" y="162.379" width="1.777" height="4.503"/>
							<polygon points="448.087,173.483 449.85,173.684 449.864,169.087 448.087,169.087 							"/>
							<polygon points="448.087,179.93 449.814,180.617 449.838,175.961 448.087,175.601 							"/>
						</g>
					</g>
					<g>
						<g>
							<path d="M447.277,186.277l1.593,1.122c0,0,0.103-0.271,0.256-0.677c0.14-0.41,0.292-0.971,0.415-1.534
								c0.098-0.569,0.204-1.138,0.211-1.572c0.03-0.432,0.05-0.72,0.05-0.72l-1.715-0.846c0,0-0.014,0.27-0.034,0.676
								c0,0.407-0.091,0.941-0.174,1.476c-0.108,0.529-0.244,1.056-0.37,1.44C447.37,186.023,447.277,186.277,447.277,186.277z"/>
							<path d="M443.398,191.319l1.297,1.471c0,0,0.23-0.177,0.575-0.441c0.312-0.303,0.775-0.658,1.148-1.105
								c0.808-0.837,1.414-1.833,1.414-1.833l-1.51-1.247c0,0-0.56,0.934-1.314,1.715c-0.347,0.418-0.781,0.748-1.071,1.031
								C443.614,191.155,443.398,191.319,443.398,191.319z"/>
							<path d="M437.441,193.542l0.904,1.695c0,0,0.289-0.005,0.715-0.09c0.43-0.062,0.998-0.166,1.552-0.337
								c0.566-0.125,1.091-0.384,1.502-0.521c0.391-0.188,0.652-0.313,0.652-0.313l-1.175-1.56c0,0-0.245,0.115-0.612,0.288
								c-0.386,0.124-0.878,0.361-1.41,0.471C438.528,193.479,437.441,193.543,437.441,193.542z"/>
							<polygon points="430.993,193.587 431.421,195.333 436.076,195.309 435.322,193.587 							"/>
							<polygon points="424.514,193.587 424.514,195.364 429.143,195.345 428.875,193.587 							"/>
							<rect x="417.806" y="193.587" width="4.503" height="1.777"/>
							<rect x="411.101" y="193.587" width="4.502" height="1.777"/>
						</g>
					</g>
					<g>
						<g>
							<rect x="404.393" y="193.587" width="4.503" height="1.777"/>
							<rect x="397.686" y="193.587" width="4.503" height="1.777"/>
							<rect x="390.98" y="193.587" width="4.503" height="1.777"/>
							<rect x="384.272" y="193.587" width="4.502" height="1.777"/>
							<rect x="377.566" y="193.587" width="4.503" height="1.777"/>
							<rect x="370.858" y="193.587" width="4.503" height="1.777"/>
							<rect x="364.153" y="193.587" width="4.502" height="1.777"/>
						</g>
					</g>
					<g>
						<g>
							<rect x="357.445" y="193.587" width="4.503" height="1.777"/>
							<rect x="350.738" y="193.587" width="4.503" height="1.777"/>
							<rect x="344.032" y="193.587" width="4.503" height="1.777"/>
							<rect x="337.325" y="193.587" width="4.502" height="1.777"/>
							<rect x="330.618" y="193.587" width="4.503" height="1.777"/>
							<polygon points="323.979,193.587 323.85,195.355 328.413,195.364 328.413,193.587 							"/>
							<polygon points="317.532,193.587 316.917,195.319 321.572,195.343 321.861,193.587 							"/>
						</g>
					</g>
					<g>
						<g>
							<path d="M311.129,193.097l-1.063,1.626c0,0,1.109,0.341,2.258,0.489c1.146,0.112,2.313,0.095,2.313,0.095l0.774-1.72
								c0,0-1.083,0.017-2.163-0.063C312.17,193.403,311.129,193.097,311.129,193.097z"/>
							<path d="M305.783,189.647l-1.425,1.349c0,0,0.195,0.214,0.488,0.536c0.318,0.294,0.729,0.709,1.193,1.056
								c0.231,0.175,0.463,0.349,0.68,0.513c0.231,0.143,0.447,0.276,0.631,0.391c0.365,0.238,0.629,0.358,0.629,0.358l1.191-1.55
								c0,0-0.248-0.11-0.589-0.331c-0.173-0.106-0.375-0.229-0.592-0.361c-0.203-0.152-0.42-0.314-0.636-0.476
								c-0.435-0.322-0.816-0.71-1.114-0.984C305.965,189.848,305.783,189.647,305.783,189.647z"/>
							<path d="M303.074,183.894l-1.671,0.966c0,0,0.181,1.148,0.609,2.227c0.387,1.095,1.008,2.081,1.008,2.081l1.521-1.231
								c0,0-0.575-0.924-0.925-1.952C303.227,184.972,303.074,183.894,303.074,183.894z"/>
							<polygon points="302.913,177.455 301.172,177.955 301.196,182.61 302.913,181.784 							"/>
							<polygon points="302.913,171.006 301.137,171.021 301.161,175.677 302.913,175.336 							"/>
							<rect x="301.136" y="164.306" width="1.777" height="4.503"/>
							<rect x="301.136" y="157.601" width="1.777" height="4.502"/>
						</g>
					</g>
					<g>
						<g>
							<rect x="301.136" y="150.893" width="1.777" height="4.503"/>
							<rect x="301.136" y="144.186" width="1.777" height="4.503"/>
							<rect x="301.136" y="137.48" width="1.777" height="4.503"/>
							<rect x="301.136" y="130.772" width="1.777" height="4.502"/>
							<rect x="301.136" y="124.066" width="1.777" height="4.503"/>
							<rect x="301.136" y="117.358" width="1.777" height="4.503"/>
							<rect x="301.136" y="110.653" width="1.777" height="4.502"/>
						</g>
					</g>
					<g>
						<g>
							<rect x="301.136" y="103.945" width="1.777" height="4.503"/>
							<rect x="301.136" y="97.238" width="1.777" height="4.503"/>
							<rect x="301.136" y="90.532" width="1.777" height="4.503"/>
							<rect x="301.136" y="83.825" width="1.777" height="4.502"/>
							<rect x="301.136" y="77.118" width="1.777" height="4.503"/>
							<polygon points="302.913,70.517 301.15,70.316 301.136,74.913 302.913,74.913 							"/>
							<polygon points="302.913,64.07 301.186,63.383 301.162,68.039 302.913,68.399 							"/>
						</g>
					</g>
				</g>
			</g>
		</g>
		<g>
			<text transform="matrix(1 0 0 1 309.3843 83.833)" font-family="'MyriadPro-Regular'" font-size="19.043">Availability Zone</text>
		</g>
		<g>
			
				<rect x="315" y="110.642" fill-rule="evenodd" clip-rule="evenodd" fill="#EF4136" stroke="#000000" stroke-width="2" stroke-miterlimit="10" width="121" height="56.782"/>
			
				<ellipse fill-rule="evenodd" clip-rule="evenodd" fill="#F48281" stroke="#000000" stroke-width="2" stroke-miterlimit="10" cx="375.5" cy="110.98" rx="60.5" ry="13.857"/>
			<path fill-rule="evenodd" clip-rule="evenodd" fill="#EF4136" stroke="#000000" stroke-width="2" stroke-miterlimit="10" d="
				M315.037,138.357c0,0,3.361,14.196,59.468,14.196S436,138.357,436,138.357"/>
			<path fill-rule="evenodd" clip-rule="evenodd" fill="#EF4136" stroke="#000000" stroke-width="2" stroke-miterlimit="10" d="
				M315.037,165.304c0,0,3.361,14.196,59.468,14.196S436,165.304,436,165.304"/>
		</g>
	</g>
	<g>
		<g>
			<path fill="#D2EAD6" d="M462,61.5c0-6.627,5.373-12,12-12h123c6.627,0,12,5.373,12,12v121c0,6.627-5.373,12-12,12H474
				c-6.627,0-12-5.373-12-12V61.5z"/>
			<g>
				<g>
					<g>
						<g>
							<path d="M463.723,57.723l-1.593-1.122c0,0-0.103,0.271-0.256,0.677c-0.14,0.41-0.292,0.971-0.415,1.534
								c-0.098,0.569-0.204,1.138-0.211,1.572c-0.03,0.432-0.05,0.72-0.05,0.72l1.715,0.846c0,0,0.014-0.27,0.034-0.676
								c0-0.407,0.091-0.941,0.174-1.476c0.108-0.529,0.244-1.056,0.37-1.44C463.63,57.977,463.723,57.723,463.723,57.723z"/>
							<path d="M467.602,52.681l-1.297-1.471c0,0-0.23,0.177-0.575,0.441c-0.312,0.303-0.775,0.658-1.148,1.105
								c-0.808,0.837-1.414,1.833-1.414,1.833l1.51,1.247c0,0,0.56-0.934,1.314-1.715c0.347-0.418,0.781-0.748,1.071-1.031
								C467.386,52.845,467.602,52.681,467.602,52.681z"/>
							<path d="M473.559,50.458l-0.904-1.695c0,0-0.289,0.005-0.715,0.09c-0.43,0.062-0.998,0.166-1.552,0.337
								c-0.566,0.125-1.091,0.384-1.502,0.521c-0.391,0.188-0.652,0.313-0.652,0.313l1.175,1.56c0,0,0.245-0.115,0.612-0.288
								c0.386-0.124,0.878-0.361,1.41-0.471C472.472,50.521,473.559,50.457,473.559,50.458z"/>
							<polygon points="480.007,50.413 479.579,48.667 474.924,48.691 475.678,50.413 							"/>
							<polygon points="486.486,50.413 486.486,48.636 481.857,48.655 482.125,50.413 							"/>
							<rect x="488.691" y="48.636" width="4.503" height="1.777"/>
							<rect x="495.396" y="48.636" width="4.502" height="1.777"/>
						</g>
					</g>
					<g>
						<g>
							<rect x="502.104" y="48.636" width="4.503" height="1.777"/>
							<rect x="508.811" y="48.636" width="4.503" height="1.777"/>
							<rect x="515.517" y="48.636" width="4.503" height="1.777"/>
							<rect x="522.225" y="48.636" width="4.502" height="1.777"/>
							<rect x="528.931" y="48.636" width="4.503" height="1.777"/>
							<rect x="535.639" y="48.636" width="4.503" height="1.777"/>
							<rect x="542.345" y="48.636" width="4.502" height="1.777"/>
						</g>
					</g>
					<g>
						<g>
							<rect x="549.052" y="48.636" width="4.503" height="1.777"/>
							<rect x="555.759" y="48.636" width="4.503" height="1.777"/>
							<rect x="562.465" y="48.636" width="4.504" height="1.777"/>
							<rect x="569.173" y="48.636" width="4.503" height="1.777"/>
							<rect x="575.879" y="48.636" width="4.503" height="1.777"/>
							<polygon points="587.021,50.413 587.15,48.645 582.587,48.636 582.587,50.413 							"/>
							<polygon points="593.469,50.413 594.083,48.681 589.428,48.657 589.14,50.413 							"/>
						</g>
					</g>
					<g>
						<g>
							<path d="M599.871,50.903l1.063-1.626c0,0-1.109-0.341-2.258-0.489c-1.146-0.112-2.313-0.095-2.313-0.095l-0.774,1.72
								c0,0,1.083-0.017,2.163,0.063C598.83,50.597,599.871,50.903,599.871,50.903z"/>
							<path d="M605.218,54.353l1.425-1.349c0,0-0.195-0.214-0.488-0.536c-0.318-0.294-0.729-0.709-1.192-1.056
								c-0.231-0.175-0.463-0.349-0.68-0.513c-0.231-0.143-0.447-0.276-0.632-0.391c-0.365-0.238-0.629-0.358-0.629-0.358
								l-1.191,1.55c0,0,0.248,0.11,0.59,0.331c0.173,0.106,0.375,0.229,0.592,0.361c0.203,0.152,0.42,0.314,0.637,0.476
								c0.435,0.322,0.816,0.71,1.114,0.984C605.035,54.152,605.218,54.353,605.218,54.353z"/>
							<path d="M607.927,60.106l1.67-0.966c0,0-0.181-1.148-0.608-2.227c-0.387-1.095-1.008-2.081-1.008-2.081l-1.521,1.231
								c0,0,0.575,0.924,0.925,1.952C607.773,59.028,607.926,60.106,607.927,60.106z"/>
							<polygon points="608.088,66.545 609.828,66.045 609.804,61.39 608.088,62.216 							"/>
							<polygon points="608.088,72.994 609.863,72.979 609.84,68.323 608.088,68.664 							"/>
							<rect x="608.088" y="75.191" width="1.776" height="4.503"/>
							<rect x="608.088" y="81.896" width="1.776" height="4.502"/>
						</g>
					</g>
					<g>
						<g>
							<rect x="608.088" y="88.604" width="1.776" height="4.503"/>
							<rect x="608.088" y="95.311" width="1.776" height="4.503"/>
							<rect x="608.088" y="102.017" width="1.776" height="4.503"/>
							<rect x="608.088" y="108.725" width="1.776" height="4.502"/>
							<rect x="608.088" y="115.431" width="1.776" height="4.503"/>
							<rect x="608.088" y="122.139" width="1.776" height="4.503"/>
							<rect x="608.088" y="128.845" width="1.776" height="4.502"/>
						</g>
					</g>
					<g>
						<g>
							<rect x="608.088" y="135.552" width="1.776" height="4.503"/>
							<rect x="608.088" y="142.259" width="1.776" height="4.503"/>
							<rect x="608.088" y="148.965" width="1.776" height="4.503"/>
							<rect x="608.088" y="155.673" width="1.776" height="4.502"/>
							<rect x="608.088" y="162.379" width="1.776" height="4.503"/>
							<polygon points="608.088,173.483 609.85,173.684 609.864,169.087 608.088,169.087 							"/>
							<polygon points="608.088,179.93 609.814,180.617 609.838,175.961 608.088,175.601 							"/>
						</g>
					</g>
					<g>
						<g>
							<path d="M607.277,186.277l1.593,1.122c0,0,0.103-0.271,0.256-0.677c0.14-0.41,0.293-0.971,0.416-1.534
								c0.097-0.569,0.203-1.138,0.211-1.572c0.03-0.432,0.05-0.72,0.05-0.72l-1.715-0.846c0,0-0.014,0.27-0.034,0.676
								c0,0.407-0.092,0.941-0.175,1.476c-0.107,0.529-0.243,1.056-0.369,1.44C607.37,186.023,607.277,186.277,607.277,186.277z"/>
							<path d="M603.398,191.319l1.297,1.471c0,0,0.23-0.177,0.575-0.441c0.312-0.303,0.775-0.658,1.147-1.105
								c0.808-0.837,1.414-1.833,1.414-1.833l-1.511-1.247c0.001,0-0.56,0.934-1.313,1.715c-0.347,0.418-0.781,0.748-1.071,1.031
								C603.613,191.155,603.398,191.319,603.398,191.319z"/>
							<path d="M597.44,193.542l0.904,1.695c0,0,0.29-0.005,0.716-0.09c0.43-0.062,0.998-0.166,1.552-0.337
								c0.566-0.125,1.091-0.384,1.502-0.521c0.392-0.188,0.653-0.313,0.653-0.313l-1.176-1.56c0,0-0.245,0.115-0.612,0.288
								c-0.386,0.124-0.878,0.361-1.41,0.471C598.528,193.479,597.441,193.543,597.44,193.542z"/>
							<polygon points="590.993,193.587 591.421,195.333 596.076,195.309 595.322,193.587 							"/>
							<polygon points="584.514,193.587 584.514,195.364 589.143,195.345 588.875,193.587 							"/>
							<rect x="577.807" y="193.587" width="4.503" height="1.777"/>
							<rect x="571.101" y="193.587" width="4.503" height="1.777"/>
						</g>
					</g>
					<g>
						<g>
							<rect x="564.393" y="193.587" width="4.504" height="1.777"/>
							<rect x="557.686" y="193.587" width="4.503" height="1.777"/>
							<rect x="550.98" y="193.587" width="4.503" height="1.777"/>
							<rect x="544.272" y="193.587" width="4.502" height="1.777"/>
							<rect x="537.566" y="193.587" width="4.503" height="1.777"/>
							<rect x="530.858" y="193.587" width="4.503" height="1.777"/>
							<rect x="524.153" y="193.587" width="4.502" height="1.777"/>
						</g>
					</g>
					<g>
						<g>
							<rect x="517.445" y="193.587" width="4.503" height="1.777"/>
							<rect x="510.738" y="193.587" width="4.503" height="1.777"/>
							<rect x="504.032" y="193.587" width="4.503" height="1.777"/>
							<rect x="497.325" y="193.587" width="4.502" height="1.777"/>
							<rect x="490.618" y="193.587" width="4.503" height="1.777"/>
							<polygon points="483.979,193.587 483.85,195.355 488.413,195.364 488.413,193.587 							"/>
							<polygon points="477.532,193.587 476.917,195.319 481.572,195.343 481.861,193.587 							"/>
						</g>
					</g>
					<g>
						<g>
							<path d="M471.129,193.097l-1.063,1.626c0,0,1.109,0.341,2.258,0.489c1.146,0.112,2.313,0.095,2.313,0.095l0.774-1.72
								c0,0-1.083,0.017-2.163-0.063C472.17,193.403,471.129,193.097,471.129,193.097z"/>
							<path d="M465.783,189.647l-1.425,1.349c0,0,0.195,0.214,0.488,0.536c0.318,0.294,0.729,0.709,1.193,1.056
								c0.231,0.175,0.463,0.349,0.68,0.513c0.231,0.143,0.447,0.276,0.631,0.391c0.365,0.238,0.629,0.358,0.629,0.358l1.191-1.55
								c0,0-0.248-0.11-0.589-0.331c-0.173-0.106-0.375-0.229-0.592-0.361c-0.203-0.152-0.42-0.314-0.636-0.476
								c-0.435-0.322-0.816-0.71-1.114-0.984C465.965,189.848,465.783,189.647,465.783,189.647z"/>
							<path d="M463.074,183.894l-1.671,0.966c0,0,0.181,1.148,0.609,2.227c0.387,1.095,1.008,2.081,1.008,2.081l1.521-1.231
								c0,0-0.575-0.924-0.925-1.952C463.227,184.972,463.074,183.894,463.074,183.894z"/>
							<polygon points="462.913,177.455 461.172,177.955 461.196,182.61 462.913,181.784 							"/>
							<polygon points="462.913,171.006 461.137,171.021 461.161,175.677 462.913,175.336 							"/>
							<rect x="461.136" y="164.306" width="1.777" height="4.503"/>
							<rect x="461.136" y="157.601" width="1.777" height="4.502"/>
						</g>
					</g>
					<g>
						<g>
							<rect x="461.136" y="150.893" width="1.777" height="4.503"/>
							<rect x="461.136" y="144.186" width="1.777" height="4.503"/>
							<rect x="461.136" y="137.48" width="1.777" height="4.503"/>
							<rect x="461.136" y="130.772" width="1.777" height="4.502"/>
							<rect x="461.136" y="124.066" width="1.777" height="4.503"/>
							<rect x="461.136" y="117.358" width="1.777" height="4.503"/>
							<rect x="461.136" y="110.653" width="1.777" height="4.502"/>
						</g>
					</g>
					<g>
						<g>
							<rect x="461.136" y="103.945" width="1.777" height="4.503"/>
							<rect x="461.136" y="97.238" width="1.777" height="4.503"/>
							<rect x="461.136" y="90.532" width="1.777" height="4.503"/>
							<rect x="461.136" y="83.825" width="1.777" height="4.502"/>
							<rect x="461.136" y="77.118" width="1.777" height="4.503"/>
							<polygon points="462.913,70.517 461.15,70.316 461.136,74.913 462.913,74.913 							"/>
							<polygon points="462.913,64.07 461.186,63.383 461.162,68.039 462.913,68.399 							"/>
						</g>
					</g>
				</g>
			</g>
		</g>
		<g>
			<text transform="matrix(1 0 0 1 469.3843 83.833)" font-family="'MyriadPro-Regular'" font-size="19.043">Availability Zone</text>
		</g>
		<g>
			
				<rect x="475" y="110.642" fill-rule="evenodd" clip-rule="evenodd" fill="#EF4136" stroke="#000000" stroke-width="2" stroke-miterlimit="10" width="121" height="56.782"/>
			
				<ellipse fill-rule="evenodd" clip-rule="evenodd" fill="#F48281" stroke="#000000" stroke-width="2" stroke-miterlimit="10" cx="535.5" cy="110.98" rx="60.5" ry="13.857"/>
			<path fill-rule="evenodd" clip-rule="evenodd" fill="#EF4136" stroke="#000000" stroke-width="2" stroke-miterlimit="10" d="
				M475.037,138.357c0,0,3.361,14.196,59.468,14.196S596,138.357,596,138.357"/>
			<path fill-rule="evenodd" clip-rule="evenodd" fill="#EF4136" stroke="#000000" stroke-width="2" stroke-miterlimit="10" d="
				M475.037,165.304c0,0,3.361,14.196,59.468,14.196S596,165.304,596,165.304"/>
		</g>
	</g>
</g>
<path fill-rule="evenodd" clip-rule="evenodd" fill="#48A2DA" stroke="#000000" stroke-width="2" stroke-miterlimit="10" d="
	M142.583,489c0,6.627-5.373,12-12,12h-57c-6.627,0-12-5.373-12-12V268c0-6.627,5.373-12,12-12h57c6.627,0,12,5.373,12,12V489z"/>
<g>
	<text transform="matrix(1 0 0 1 88.4736 245)" font-family="'MyriadPro-Bold'" font-size="19.043">SQS</text>
</g>
<g>
	
		<rect x="76.583" y="283" fill-rule="evenodd" clip-rule="evenodd" fill="#DEDDDD" stroke="#000000" stroke-width="2" stroke-miterlimit="10" width="51" height="28"/>
	
		<polygon fill-rule="evenodd" clip-rule="evenodd" fill="#ABABAB" stroke="#000000" stroke-width="2" stroke-miterlimit="10" points="
		79.583,283.882 102.525,297.118 124.583,283.882 	"/>
</g>
<g>
	
		<rect x="76.583" y="332" fill-rule="evenodd" clip-rule="evenodd" fill="#DEDDDD" stroke="#000000" stroke-width="2" stroke-miterlimit="10" width="51" height="28"/>
	
		<polygon fill-rule="evenodd" clip-rule="evenodd" fill="#ABABAB" stroke="#000000" stroke-width="2" stroke-miterlimit="10" points="
		79.583,332.882 102.525,346.118 124.583,332.882 	"/>
</g>
<g>
	
		<rect x="76.583" y="378" fill-rule="evenodd" clip-rule="evenodd" fill="#DEDDDD" stroke="#000000" stroke-width="2" stroke-miterlimit="10" width="51" height="28"/>
	
		<polygon fill-rule="evenodd" clip-rule="evenodd" fill="#ABABAB" stroke="#000000" stroke-width="2" stroke-miterlimit="10" points="
		79.583,378.882 102.525,392.118 124.583,378.882 	"/>
</g>
<g>
	
		<rect x="76.583" y="427" fill-rule="evenodd" clip-rule="evenodd" fill="#DEDDDD" stroke="#000000" stroke-width="2" stroke-miterlimit="10" width="51" height="28"/>
	
		<polygon fill-rule="evenodd" clip-rule="evenodd" fill="#ABABAB" stroke="#000000" stroke-width="2" stroke-miterlimit="10" points="
		79.583,427.883 102.525,441.117 124.583,427.883 	"/>
</g>
<g>
	<path fill-rule="evenodd" clip-rule="evenodd" fill="#4A69B2" stroke="#000000" stroke-width="2" stroke-miterlimit="10" d="
		M142.583,809c0,6.627-5.373,12-12,12h-57c-6.627,0-12-5.373-12-12V669c0-6.627,5.373-12,12-12h57c6.627,0,12,5.373,12,12V809z"/>
	<g>
		<text transform="matrix(1 0 0 1 85.2305 648)" font-family="'MyriadPro-Bold'" font-size="19.043">SNS</text>
	</g>
	<g>
		
			<rect x="76.583" y="670" fill-rule="evenodd" clip-rule="evenodd" fill="#DEDDDD" stroke="#000000" stroke-width="2" stroke-miterlimit="10" width="51" height="28"/>
		
			<polygon fill-rule="evenodd" clip-rule="evenodd" fill="#ABABAB" stroke="#000000" stroke-width="2" stroke-miterlimit="10" points="
			79.583,670.883 102.525,684.117 124.583,670.883 		"/>
	</g>
	<g>
		
			<rect x="76.583" y="725.5" fill-rule="evenodd" clip-rule="evenodd" fill="#DEDDDD" stroke="#000000" stroke-width="2" stroke-miterlimit="10" width="51" height="28"/>
		
			<polygon fill-rule="evenodd" clip-rule="evenodd" fill="#ABABAB" stroke="#000000" stroke-width="2" stroke-miterlimit="10" points="
			79.583,726.383 102.525,739.617 124.583,726.383 		"/>
	</g>
	<g>
		
			<rect x="76.583" y="781" fill-rule="evenodd" clip-rule="evenodd" fill="#DEDDDD" stroke="#000000" stroke-width="2" stroke-miterlimit="10" width="51" height="28"/>
		
			<polygon fill-rule="evenodd" clip-rule="evenodd" fill="#ABABAB" stroke="#000000" stroke-width="2" stroke-miterlimit="10" points="
			79.583,781.883 102.525,795.117 124.583,781.883 		"/>
	</g>
</g>
<path fill="none" stroke="#000000" stroke-width="4" stroke-miterlimit="10" d="M298,361c0-43.666-59.934-79-134-79"/>
<path fill="none" stroke="#000000" stroke-width="4" stroke-miterlimit="10" d="M100,510c0,42.561,55.908,77,125,77"/>
<polygon points="161,281 172,292 172,272 "/>
<polygon points="233,588 222,577 222,597 "/>
<g>
	<line fill="none" stroke="#000000" stroke-width="4" stroke-miterlimit="10" x1="483" y1="512" x2="646" y2="512"/>
	<polygon points="475,512 486,523 486,503 	"/>
	<line fill="none" stroke="#000000" stroke-width="4" stroke-miterlimit="10" x1="483" y1="491" x2="646" y2="491"/>
	<polygon points="651,492 640,481 640,501 	"/>
</g>
<text transform="matrix(1 0 0 1 699.0615 84)" fill="#FFFFFF" font-family="'MyriadPro-Bold'" font-size="19.043">key = {value}</text>
<text transform="matrix(1 0 0 1 699.0615 119)" fill="#FFFFFF" font-family="'MyriadPro-Bold'" font-size="19.043">key = {value}</text>
<text transform="matrix(1 0 0 1 699.0615 151)" fill="#FFFFFF" font-family="'MyriadPro-Bold'" font-size="19.043">key = {value}</text>
<path fill="none" stroke="#000000" stroke-width="4" stroke-miterlimit="10" d="M737,207c0,54.168-97.951,98-219,98"/>
<path fill="none" stroke="#000000" stroke-width="4" stroke-miterlimit="10" d="M582,207c0,54.168-28.625,98-64,98"/>
<path fill="none" stroke="#000000" stroke-width="4" stroke-miterlimit="10" d="M519,305c0,76.83-31.309,139-70,139"/>
<rect x="464" y="281" fill="#F1E912" stroke="#000000" stroke-width="2" stroke-miterlimit="10" width="130" height="48"/>
<text transform="matrix(1 0 0 1 472.0815 298)" font-family="'MyriadPro-Bold'" font-size="19.043">SerializedList</text>
<text transform="matrix(1 0 0 1 488.6025 321)" font-family="'MyriadPro-Bold'" font-size="24.2411">[A,B,C]</text>
<polygon points="442,443 453,454 453,434 "/>
<g>
	<path fill="#CCCCCC" stroke="#000000" stroke-width="2" stroke-miterlimit="10" d="M174.578,83.506
		c0.119-1.15,0.181-2.318,0.181-3.5c0-18.647-15.117-33.765-33.765-33.765c-2.104,0-4.16,0.202-6.158,0.57
		C129.142,36.21,117.951,29,105.075,29c-9.826,0-18.667,4.2-24.838,10.899c-4.617-2.37-9.846-3.715-15.392-3.715
		c-16.621,0-30.428,12.014-33.234,27.829C15.796,66.819,3.782,80.626,3.782,97.247c0,7.863,2.695,15.092,7.202,20.831
		c-0.005,0.241-0.019,0.479-0.019,0.721c0,18.647,15.117,33.764,33.765,33.764c5.24,0,10.201-1.194,14.626-3.324
		c1.787,0.292,3.619,0.451,5.488,0.451c5.218,0,10.159-1.186,14.571-3.298c5.818,4.754,13.25,7.609,21.349,7.609
		c6.477,0,12.525-1.827,17.665-4.989c2.185,0.444,4.445,0.678,6.761,0.678c7.078,0,13.644-2.182,19.07-5.903
		c4.261,1.94,8.989,3.03,13.976,3.03c18.647,0,33.764-15.117,33.764-33.764C192,100.334,184.965,89.264,174.578,83.506z"/>
	<text transform="matrix(1 0 0 1 28.0503 102.0161)" font-family="'MyriadPro-Bold'" font-size="16.9965">JS,CSS,IMG, ETC...</text>
</g>
</svg>
